<?xml version="1.0" encoding="iso-8859-1"?>
<!-- Generator: Adobe Illustrator 19.0.0, SVG Export Plug-In . SVG Version: 6.00 Build 0)  -->
<svg version="1.1" id="Layer_1" xmlns="http://www.w3.org/2000/svg" xmlns:xlink="http://www.w3.org/1999/xlink" x="0px" y="0px"
	 viewBox="0 0 512 512" style="enable-background:new 0 0 512 512;" xml:space="preserve">
<g>
	<path style="fill:#F7B239;" d="M375.949,258.127l-6.152,31.175c-3.623,18.323-19.697,31.527-38.373,31.527h-6.578H187.149h-6.578
		c-18.676,0-34.75-13.204-38.361-31.527l-6.189-31.333h239.149L375.949,258.127z"/>
	<polygon style="fill:#F7B239;" points="384.034,56.268 415.781,56.268 384.156,216.532 381.736,216.057 128.957,216.057 
		127.802,216.289 96.214,56.268 128.167,56.268 183.914,56.268 328.299,56.268 	"/>
</g>
<polygon style="fill:#E6E6E6;" points="328.627,468.752 325.624,468.825 185.641,468.825 183.379,468.764 186.407,350.01 
	187.149,320.829 324.846,320.829 325.587,350.01 "/>
<polygon style="fill:#3A88D6;" points="328.627,468.752 329.503,502.881 182.504,502.881 183.379,468.764 185.641,468.825 
	325.624,468.825 "/>
<polygon style="opacity:0.25;fill:#4D4D4D;enable-background:new    ;" points="328.627,468.752 324.846,320.829 324.846,320.829 
	273.779,320.829 187.149,320.829 186.407,350.01 274.526,350.01 277.561,468.752 278.436,502.881 329.503,502.881 "/>
<polygon style="fill:#3A88D6;" points="384.156,216.532 375.949,258.127 375.171,257.969 136.021,257.969 127.802,216.289 
	128.957,216.057 381.736,216.057 "/>
<path style="opacity:0.25;fill:#4D4D4D;enable-background:new    ;" d="M384.034,56.268h-27.831l-31.625,160.264l-8.207,41.595
	l-6.152,31.175c-3.623,18.323-19.697,31.527-38.373,31.527h53h6.578c18.676,0,34.75-13.204,38.373-31.527l6.152-31.175l8.207-41.595
	l31.625-160.264L384.034,56.268L384.034,56.268z"/>
<polygon style="fill:#B3B3B3;" points="391.901,9.117 415.781,56.268 384.034,56.268 328.299,56.268 183.914,56.268 128.167,56.268 
	96.214,56.268 120.106,9.117 "/>
<polygon style="opacity:0.25;fill:#4D4D4D;enable-background:new    ;" points="391.901,9.117 329.892,9.117 353.771,56.268 
	384.034,56.268 415.781,56.268 "/>
<path style="fill:#333333;" d="M423.92,52.147L400.034,4.998C398.481,1.932,395.336,0,391.9,0H120.101
	c-3.436,0-6.582,1.932-8.134,4.998L88.081,52.147c-0.934,1.843-1.188,3.915-0.8,5.884l-0.012,0.002l45.991,233.029
	c4.268,21.621,22.761,37.542,44.538,38.798l-4.417,172.787c-0.062,2.458,0.871,4.838,2.586,6.599
	c1.717,1.761,4.072,2.754,6.53,2.754h147.001c2.458,0,4.814-0.993,6.53-2.754c1.716-1.761,2.648-4.14,2.586-6.599l-4.417-172.787
	c21.78-1.255,40.273-17.178,44.541-38.798l45.991-233.029l-0.012-0.002C425.108,56.063,424.853,53.992,423.92,52.147z
	 M138.846,225.173h234.308l-4.673,23.673H143.518L138.846,225.173z M135.247,206.935L107.31,65.387h13.513l3.558,16.346
	c0.929,4.268,4.704,7.182,8.901,7.182c0.642,0,1.294-0.068,1.948-0.21c4.922-1.071,8.042-5.929,6.971-10.849l-2.714-12.468h36.243
	l1.675,15.394c0.508,4.671,4.461,8.133,9.055,8.133c0.329,0,0.663-0.018,0.997-0.053c5.007-0.545,8.624-5.046,8.079-10.053
	l-1.46-13.421h52.909v14.407c0,5.036,4.082,9.119,9.119,9.119s9.119-4.083,9.119-9.119V65.387h52.909l-1.46,13.421
	c-0.545,5.007,3.073,9.507,8.079,10.052c0.336,0.036,0.669,0.053,0.997,0.053c4.594,0,8.546-3.462,9.055-8.133l1.674-15.393h36.243
	l-2.714,12.468c-1.071,4.921,2.05,9.778,6.971,10.849c0.653,0.142,1.305,0.21,1.948,0.21c4.196,0,7.974-2.913,8.901-7.182
	l3.558-16.346h13.305L376.75,206.934H135.247V206.935z M125.703,18.238h260.592l14.646,28.911H111.057L125.703,18.238z
	 M315.957,329.95l3.317,129.76h-126.55l3.317-129.76H315.957z M191.853,493.762l0.405-15.815H319.74l0.405,15.815H191.853z
	 M331.425,311.712H180.573c-14.282,0-26.654-10.17-29.419-24.181l-4.035-20.447h217.763l-4.035,20.447
	C358.08,301.542,345.708,311.712,331.425,311.712z"/>
<g>
	<path style="fill:#FFFFFF;" d="M151.977,193.367c-4.268,0-8.079-3.01-8.938-7.355l-14.342-72.67
		c-0.975-4.94,2.241-9.737,7.181-10.712c4.944-0.975,9.737,2.24,10.713,7.181l14.342,72.67c0.975,4.94-2.241,9.737-7.181,10.712
		C153.157,193.31,152.563,193.367,151.977,193.367z"/>
	<path style="fill:#FFFFFF;" d="M170.22,301.581c-3.983,0-7.643-2.63-8.774-6.653l-2.98-10.599
		c-1.363-4.848,1.461-9.884,6.309-11.247c4.848-1.359,9.885,1.463,11.247,6.31l2.98,10.599c1.363,4.848-1.461,9.884-6.309,11.247
		C171.869,301.469,171.037,301.581,170.22,301.581z"/>
	<path style="fill:#FFFFFF;" d="M135.389,40.267c-0.596,0-1.192-0.061-1.787-0.182c-0.584-0.109-1.155-0.292-1.702-0.511
		c-0.547-0.231-1.082-0.511-1.568-0.839c-0.499-0.34-0.973-0.717-1.386-1.143c-0.427-0.413-0.802-0.888-1.143-1.386
		c-0.328-0.486-0.608-1.021-0.838-1.568c-0.22-0.547-0.401-1.131-0.511-1.702c-0.123-0.596-0.182-1.192-0.182-1.787
		c0-2.407,0.973-4.754,2.675-6.444c0.413-0.426,0.886-0.802,1.386-1.143c0.486-0.328,1.021-0.608,1.568-0.839
		c0.547-0.219,1.119-0.401,1.702-0.511c1.179-0.243,2.395-0.243,3.573,0c0.573,0.109,1.155,0.292,1.702,0.511
		c0.547,0.231,1.082,0.511,1.568,0.839c0.499,0.34,0.973,0.717,1.386,1.143c1.702,1.69,2.675,4.049,2.675,6.444
		s-0.973,4.754-2.675,6.444c-0.413,0.426-0.886,0.802-1.386,1.143c-0.486,0.328-1.021,0.608-1.568,0.839
		c-0.547,0.219-1.131,0.401-1.702,0.511C136.581,40.206,135.985,40.267,135.389,40.267z"/>
	<path style="fill:#FFFFFF;" d="M209.546,451.474c-0.077,0-0.154-0.001-0.232-0.002c-5.035-0.126-9.014-4.309-8.889-9.344
		l1.976-79.031c0.125-4.957,4.181-8.892,9.112-8.892c0.077,0,0.154,0.001,0.232,0.002c5.035,0.126,9.014,4.309,8.889,9.344
		l-1.976,79.031C218.534,447.54,214.476,451.474,209.546,451.474z"/>
</g>
<g>
</g>
<g>
</g>
<g>
</g>
<g>
</g>
<g>
</g>
<g>
</g>
<g>
</g>
<g>
</g>
<g>
</g>
<g>
</g>
<g>
</g>
<g>
</g>
<g>
</g>
<g>
</g>
<g>
</g>
</svg>
