<?xml version="1.0" encoding="iso-8859-1"?>
<!-- Generator: Adobe Illustrator 19.0.0, SVG Export Plug-In . SVG Version: 6.00 Build 0)  -->
<svg version="1.1" id="Layer_1" xmlns="http://www.w3.org/2000/svg" xmlns:xlink="http://www.w3.org/1999/xlink" x="0px" y="0px"
	 viewBox="0 0 511.999 511.999" style="enable-background:new 0 0 511.999 511.999;" xml:space="preserve">
<path style="fill:#3A88D6;" d="M503.34,131.1L317.223,317.218l-1.628-1.628L196.412,196.406l-1.628-1.628L380.89,8.661
	c26.344,13.461,50.218,30.904,70.882,51.568C472.436,80.882,489.88,104.767,503.34,131.1z"/>
<path style="fill:#F95428;" d="M317.223,317.217L131.105,503.335c-26.333-13.461-50.218-30.904-70.882-51.557
	C39.57,431.114,22.115,407.24,8.655,380.896l186.129-186.118l1.628,1.628L315.595,315.59L317.223,317.217z"/>
<path style="opacity:0.25;fill:#4D4D4D;enable-background:new    ;" d="M503.34,131.1L317.223,317.218L131.105,503.335
	c-26.333-13.461-50.218-30.904-70.882-51.557c-7.331-7.331-14.246-15.054-20.711-23.158c0.169,0.135,0.338,0.27,0.507,0.405
	c24.676,19.659,60.264,17.395,82.572-4.913L273.354,273.35l150.756-150.756c22.314-22.314,24.58-57.916,4.903-82.586
	c-0.118-0.148-0.236-0.296-0.353-0.442c8.081,6.442,15.804,13.357,23.112,20.664C472.436,80.882,489.88,104.767,503.34,131.1z"/>
<g>
	<path style="fill:#333333;" d="M511.05,127.163C483.118,72.524,439.474,28.881,384.835,0.949c-3.344-1.71-7.408-1.068-10.063,1.587
		L2.536,374.772c-2.655,2.655-3.296,6.72-1.587,10.063c27.931,54.639,71.576,98.284,126.215,126.215
		c1.249,0.638,2.599,0.949,3.938,0.949c2.245,0,4.462-0.873,6.125-2.536l372.235-372.236
		C512.118,134.571,512.76,130.507,511.05,127.163z M129.489,492.712c-46.943-25.346-84.855-63.258-110.201-110.201l175.489-175.489
		l110.202,110.201L129.489,492.712z M317.223,304.977L207.021,194.776L382.51,19.287c46.943,25.346,84.855,63.258,110.201,110.201
		L317.223,304.977z"/>
	<path style="fill:#333333;" d="M334.193,118.817c-1.314-3.355-4.85-5.51-8.416-5.338c-3.455,0.167-6.568,2.474-7.722,5.732
		c-2.694,7.602,5.938,14.517,12.771,10.224C334.33,127.234,335.807,122.643,334.193,118.817
		C333.985,118.286,334.412,119.336,334.193,118.817z"/>
	<path style="fill:#333333;" d="M383.407,75.11c3.533-0.737,6.349-3.633,6.869-7.224c0.498-3.438-1.143-6.905-4.118-8.692
		c-3.152-1.894-7.271-1.546-10.07,0.838c-2.759,2.35-3.757,6.325-2.444,9.697C375.165,73.644,379.293,75.864,383.407,75.11
		C383.961,74.994,382.841,75.214,383.407,75.11z"/>
	<path style="fill:#333333;" d="M361.946,91.053c-1.311-3.277-4.694-5.417-8.202-5.331c-3.528,0.085-6.759,2.399-7.936,5.732
		c-1.18,3.34-0.193,7.159,2.497,9.471c2.921,2.511,7.249,2.778,10.455,0.645C362.164,99.306,363.505,94.829,361.946,91.053
		C361.738,90.533,362.165,91.584,361.946,91.053z"/>
	<path style="fill:#333333;" d="M397.872,182.484c-2.141-5.069-8.597-6.939-13.083-3.692c-4.195,3.036-4.791,9.473-1.036,13.124
		c2.834,2.915,7.575,3.326,10.932,1.085C398.06,190.747,399.453,186.234,397.872,182.484
		C397.652,181.964,398.091,183.003,397.872,182.484z"/>
	<path style="fill:#333333;" d="M439.258,124.162c-3.314,3.414-3.318,8.836,0,12.249c2.671,2.597,6.71,3.28,10.053,1.585
		c3.04-1.541,4.92-4.843,4.705-8.243C453.556,122.475,444.426,118.995,439.258,124.162"/>
	<path style="fill:#333333;" d="M425.624,154.731c-0.443-1.049-1.077-2.001-1.87-2.817c-3.404-3.305-8.844-3.305-12.249,0
		c-4.905,5.053-2.005,13.824,5.047,14.72C422.984,167.452,428.159,160.742,425.624,154.731
		C425.405,154.212,425.843,155.251,425.624,154.731z"/>
	<path style="fill:#333333;" d="M74.607,378.402c-1.311-3.357-4.851-5.509-8.416-5.337c-3.455,0.167-6.566,2.473-7.722,5.731
		c-2.692,7.593,5.942,14.532,12.774,10.224C74.742,386.814,76.226,382.229,74.607,378.402
		C74.4,377.871,74.827,378.922,74.607,378.402z"/>
	<path style="fill:#333333;" d="M128.242,332.329c3.475-3.475,3.31-9.364-0.389-12.611c-3.346-2.938-8.703-2.877-11.848,0.362
		c-3.433,3.337-3.289,9.13,0.152,12.393C119.513,335.654,124.972,335.6,128.242,332.329z"/>
	<path style="fill:#333333;" d="M102.371,350.65c-2.812-6.811-12.785-7.043-15.863-0.314c-1.555,3.4-0.72,7.526,2.049,10.035
		c2.79,2.529,7.013,2.933,10.243,1.019C102.475,359.212,103.945,354.591,102.371,350.65
		C102.152,350.119,102.579,351.169,102.371,350.65z"/>
	<path style="fill:#333333;" d="M138.286,442.069c-2.328-5.512-9.859-7.193-14.119-2.805c-3.344,3.247-3.341,8.99,0,12.237
		c2.833,2.914,7.578,3.327,10.932,1.085C138.518,450.303,139.8,445.855,138.286,442.069
		C138.067,441.55,138.494,442.589,138.286,442.069z"/>
	<path style="fill:#333333;" d="M194.287,388.18c-1.398-6.703-9.74-9.165-14.615-4.433c-4.542,4.678-2.495,12.694,3.815,14.463
		C189.574,399.916,195.549,394.386,194.287,388.18C194.172,387.626,194.403,388.746,194.287,388.18z"/>
	<path style="fill:#333333;" d="M156.353,409.133c-3.625,0.756-6.432,3.75-6.902,7.436c-0.462,3.623,1.537,7.26,4.819,8.843
		c3.415,1.646,7.639,0.854,10.189-1.968c2.44-2.701,2.929-6.736,1.198-9.933C163.88,410.229,160.02,408.393,156.353,409.133"/>
</g>
<g>
	<path style="fill:#FFFFFF;" d="M160.185,282.284c-2.215,0-4.432-0.845-6.122-2.536c-3.381-3.381-3.381-8.864,0-12.244
		l38.096-38.096c3.381-3.381,8.864-3.381,12.244,0c3.381,3.381,3.381,8.864,0,12.244l-38.096,38.096
		C164.617,281.439,162.401,282.284,160.185,282.284z"/>
	<path style="fill:#FFFFFF;" d="M235.801,206.669c-2.215,0-4.432-0.845-6.122-2.536c-3.381-3.381-3.381-8.864,0-12.244
		l55.413-55.413c3.381-3.381,8.864-3.381,12.244,0c3.381,3.381,3.381,8.864,0,12.244l-55.413,55.413
		C240.233,205.824,238.016,206.669,235.801,206.669z"/>
	<path style="fill:#FFFFFF;" d="M391.649,50.821c-0.566,0-1.131-0.058-1.697-0.173c-0.543-0.104-1.097-0.277-1.616-0.485
		c-0.52-0.219-1.027-0.485-1.489-0.797c-0.473-0.323-0.924-0.681-1.316-1.085c-0.404-0.393-0.762-0.843-1.085-1.316
		c-0.312-0.462-0.577-0.97-0.785-1.489c-0.219-0.519-0.393-1.074-0.496-1.616c-0.115-0.566-0.173-1.131-0.173-1.697
		s0.058-1.131,0.173-1.697c0.104-0.543,0.277-1.097,0.496-1.616c0.208-0.519,0.473-1.027,0.785-1.489
		c0.323-0.473,0.681-0.924,1.085-1.316c0.392-0.404,0.843-0.762,1.316-1.085c0.462-0.312,0.97-0.577,1.489-0.797
		c0.52-0.208,1.074-0.381,1.616-0.485c2.817-0.577,5.807,0.346,7.816,2.367c1.616,1.605,2.54,3.844,2.54,6.118
		c0,0.566-0.058,1.131-0.173,1.697c-0.104,0.543-0.277,1.097-0.485,1.616c-0.219,0.519-0.485,1.027-0.797,1.489
		c-0.323,0.473-0.681,0.924-1.085,1.316c-0.393,0.404-0.843,0.762-1.316,1.085c-0.462,0.312-0.97,0.577-1.489,0.797
		c-0.52,0.208-1.074,0.381-1.616,0.485C392.781,50.763,392.215,50.821,391.649,50.821z"/>
	<path style="fill:#FFFFFF;" d="M138.251,304.219c-0.566,0-1.131-0.058-1.697-0.173c-0.543-0.104-1.097-0.277-1.616-0.485
		c-0.519-0.219-1.027-0.485-1.489-0.797c-0.473-0.323-0.924-0.681-1.316-1.085c-0.404-0.393-0.762-0.843-1.085-1.316
		c-0.312-0.462-0.577-0.97-0.797-1.489c-0.208-0.52-0.381-1.074-0.485-1.616c-0.115-0.566-0.173-1.131-0.173-1.697
		c0-2.286,0.924-4.514,2.54-6.118c0.393-0.404,0.843-0.762,1.316-1.085c0.462-0.312,0.97-0.577,1.489-0.797
		c0.519-0.208,1.074-0.381,1.616-0.485c1.12-0.231,2.274-0.231,3.394,0c0.543,0.104,1.097,0.277,1.616,0.485
		c0.519,0.219,1.027,0.485,1.489,0.797c0.473,0.323,0.924,0.681,1.316,1.085c1.616,1.605,2.54,3.844,2.54,6.118
		c0,0.566-0.058,1.131-0.173,1.697c-0.104,0.543-0.277,1.097-0.485,1.616c-0.219,0.52-0.485,1.027-0.797,1.489
		c-0.323,0.473-0.681,0.924-1.085,1.316c-0.393,0.404-0.843,0.762-1.316,1.085c-0.462,0.312-0.97,0.577-1.489,0.797
		c-0.519,0.208-1.074,0.381-1.616,0.485C139.383,304.161,138.817,304.219,138.251,304.219z"/>
</g>
<g>
</g>
<g>
</g>
<g>
</g>
<g>
</g>
<g>
</g>
<g>
</g>
<g>
</g>
<g>
</g>
<g>
</g>
<g>
</g>
<g>
</g>
<g>
</g>
<g>
</g>
<g>
</g>
<g>
</g>
</svg>
