<?xml version="1.0" encoding="iso-8859-1"?>
<!-- Generator: Adobe Illustrator 19.0.0, SVG Export Plug-In . SVG Version: 6.00 Build 0)  -->
<svg version="1.1" id="Layer_1" xmlns="http://www.w3.org/2000/svg" xmlns:xlink="http://www.w3.org/1999/xlink" x="0px" y="0px"
	 viewBox="0 0 512.001 512.001" style="enable-background:new 0 0 512.001 512.001;" xml:space="preserve">
<path style="fill:#CCCCCC;" d="M498.84,73.48c6.062,6.062,6.062,15.875,0,21.926L357.539,236.707l-31.658,31.658l-47.522,47.522
	c-1.104-5.2-3.681-10.158-7.719-14.196s-8.996-6.615-14.207-7.719l53.401-53.401l31.658-31.658L476.925,73.48
	c3.026-3.025,6.994-4.544,10.963-4.544C491.846,68.936,495.814,70.455,498.84,73.48z"/>
<path style="fill:#F7B239;" d="M460.256,414.602c10.871,18.82-2.715,42.357-24.457,42.357H36.929
	c-21.742,0-35.328-23.537-24.457-42.357L211.913,69.166c10.86-18.832,38.031-18.832,48.903,0l80.676,139.748l-31.658,31.658
	l-73.475-127.266L62.927,413.705h346.874l-83.92-145.339l31.658-31.658L460.256,414.602z"/>
<path style="fill:#CCCCCC;" d="M256.432,293.973c5.211,1.104,10.169,3.681,14.207,7.719c4.038,4.038,6.615,8.996,7.719,14.196
	c1.933,9.111-0.644,18.993-7.719,26.068c-11.113,11.113-29.139,11.113-40.263,0c-11.113-11.124-11.113-29.151,0-40.263
	C237.451,294.617,247.321,292.041,256.432,293.973z"/>
<path style="opacity:0.25;fill:#4D4D4D;enable-background:new    ;" d="M278.358,315.888c-1.104-5.2-3.681-10.158-7.719-14.196
	c-2.353-2.353-5.023-4.193-7.867-5.552c0.972,2.036,1.705,4.158,2.165,6.326c1.933,9.111-0.644,18.993-7.719,26.068
	c-8.757,8.758-21.797,10.582-32.38,5.538c1.357,2.846,3.182,5.525,5.538,7.884c11.124,11.113,29.151,11.113,40.263,0
	C277.714,334.881,280.291,324.999,278.358,315.888z"/>
<g>
	<path style="fill:#FFFFFF;" d="M224.854,90.736c-2.278,0-4.498-0.92-6.097-2.531c-0.403-0.391-0.759-0.84-1.081-1.311
		c-0.311-0.46-0.575-0.966-0.794-1.484c-0.207-0.518-0.38-1.07-0.483-1.622c-0.115-0.552-0.173-1.116-0.173-1.68
		s0.058-1.127,0.173-1.691c0.104-0.552,0.276-1.093,0.483-1.611c0.219-0.518,0.483-1.024,0.794-1.484
		c0.322-0.483,0.679-0.92,1.081-1.311c2.002-2.013,4.981-2.933,7.777-2.358c0.552,0.104,1.104,0.276,1.622,0.483
		c0.518,0.219,1.024,0.483,1.484,0.794c0.472,0.322,0.92,0.679,1.311,1.081c0.403,0.391,0.759,0.828,1.081,1.311
		c0.311,0.46,0.575,0.966,0.782,1.484c0.219,0.518,0.391,1.058,0.495,1.611c0.115,0.564,0.173,1.127,0.173,1.691
		s-0.058,1.127-0.173,1.68c-0.104,0.552-0.276,1.104-0.495,1.622c-0.207,0.518-0.472,1.024-0.782,1.484
		c-0.322,0.472-0.679,0.92-1.081,1.311C229.352,89.816,227.121,90.736,224.854,90.736z"/>
	<path style="fill:#FFFFFF;" d="M241.684,323.872c-0.552,0-1.127-0.046-1.68-0.161c-0.552-0.115-1.093-0.276-1.611-0.495
		c-0.529-0.219-1.024-0.483-1.495-0.794c-0.472-0.311-0.909-0.679-1.311-1.07c-1.599-1.611-2.531-3.831-2.531-6.108
		c0-2.266,0.932-4.486,2.531-6.097c0.403-0.391,0.84-0.759,1.311-1.07c0.472-0.311,0.966-0.575,1.495-0.794
		c0.518-0.219,1.058-0.38,1.611-0.495c1.116-0.219,2.255-0.219,3.371,0c0.552,0.115,1.093,0.276,1.611,0.495
		c0.529,0.219,1.024,0.483,1.495,0.794c0.472,0.311,0.909,0.667,1.311,1.07c0.391,0.403,0.759,0.84,1.07,1.311
		s0.575,0.966,0.794,1.495c0.219,0.518,0.38,1.058,0.495,1.611c0.104,0.552,0.161,1.127,0.161,1.68c0,2.278-0.92,4.498-2.519,6.108
		c-0.403,0.391-0.84,0.759-1.311,1.07c-0.472,0.311-0.966,0.575-1.495,0.794c-0.518,0.219-1.058,0.38-1.611,0.495
		C242.823,323.826,242.248,323.872,241.684,323.872z"/>
	<path style="fill:#FFFFFF;" d="M45.512,401.346c-1.463,0-2.947-0.373-4.306-1.157c-4.126-2.382-5.54-7.659-3.158-11.786
		L203.49,101.855c2.382-4.128,7.659-5.541,11.786-3.158c4.126,2.382,5.54,7.659,3.158,11.786L52.991,397.03
		C51.393,399.799,48.493,401.346,45.512,401.346z"/>
</g>
<path style="fill:#333333;" d="M504.945,67.384c-9.408-9.409-24.716-9.409-34.124,0L343.342,194.862l-75.054-130.01
	c-6.665-11.546-18.599-18.438-31.928-18.438c-0.002,0-0.007,0-0.009,0c-13.325,0.003-25.255,6.898-31.91,18.438L5,410.286
	c-6.665,11.539-6.666,25.32-0.003,36.863c6.664,11.545,18.6,18.438,31.932,18.438h398.871c13.331,0,25.268-6.893,31.932-18.437
	c6.663-11.543,6.662-25.323-0.002-36.862L368.324,238.13l136.621-136.622C514.353,92.1,514.353,76.792,504.945,67.384z
	 M452.785,418.916c3.545,6.137,3.545,13.466,0.001,19.606c-3.545,6.142-9.896,9.808-16.988,9.808H36.929
	c-7.092,0-13.442-3.667-16.988-9.808c-3.544-6.14-3.543-13.469,0.002-19.607L219.387,73.476c3.54-6.138,9.883-9.804,16.968-9.806
	c0.001,0,0.003,0,0.005,0c7.089,0,13.438,3.667,16.984,9.809l77.366,134.016l-19.026,19.026L243.83,108.992
	c-1.54-2.669-4.389-4.314-7.472-4.314c-3.083,0-5.931,1.645-7.472,4.314L55.455,409.391c-1.542,2.67-1.542,5.959,0,8.628
	c1.542,2.669,4.389,4.314,7.472,4.314h346.874c3.083,0,5.931-1.645,7.472-4.314c1.542-2.67,1.542-5.959,0-8.628l-80.607-139.602
	l19.026-19.026L452.785,418.916z M250.51,301.984c5.081,0,10.162,1.934,14.031,5.803c7.736,7.736,7.736,20.325,0,28.062
	c-7.737,7.737-20.325,7.737-28.062,0c-7.736-7.736-7.736-20.325,0-28.062C240.348,303.918,245.429,301.984,250.51,301.984z
	 M224.278,295.586c-14.464,14.465-14.464,38,0,52.464c7.232,7.232,16.732,10.849,26.232,10.849s19.001-3.617,26.233-10.849
	c7.953-7.954,11.523-18.649,10.73-29.071l36.56-36.56l70.823,122.657H77.871l158.488-274.514l62.693,108.591l-45.701,45.701
	C242.927,284.062,232.231,287.632,224.278,295.586z M492.743,89.306L281.145,300.905c-1.279-1.873-2.74-3.658-4.401-5.319
	c-1.661-1.661-3.447-3.122-5.319-4.401L483.022,79.585c2.68-2.679,7.04-2.679,9.721,0C495.423,82.266,495.423,86.627,492.743,89.306
	z"/>
<g>
</g>
<g>
</g>
<g>
</g>
<g>
</g>
<g>
</g>
<g>
</g>
<g>
</g>
<g>
</g>
<g>
</g>
<g>
</g>
<g>
</g>
<g>
</g>
<g>
</g>
<g>
</g>
<g>
</g>
</svg>
