<?xml version="1.0" encoding="iso-8859-1"?>
<!-- Generator: Adobe Illustrator 19.0.0, SVG Export Plug-In . SVG Version: 6.00 Build 0)  -->
<svg version="1.1" id="Layer_1" xmlns="http://www.w3.org/2000/svg" xmlns:xlink="http://www.w3.org/1999/xlink" x="0px" y="0px"
	 viewBox="0 0 511.999 511.999" style="enable-background:new 0 0 511.999 511.999;" xml:space="preserve">
<path style="fill:#4D4D4D;" d="M116.037,349.303l46.645,46.657l-55.911,29.448L63.739,468.43c-3.59-3.054-7.089-6.291-10.485-9.687
	c-3.396-3.396-6.633-6.895-9.687-10.485l43.021-43.033L116.037,349.303z"/>
<path style="fill:#CC582F;" d="M502.01,17.315c1.664,1.652,1.915,4.251,0.615,6.2L486.91,47.071
	c-1.721,2.576-5.379,2.94-7.567,0.741l-0.456-0.444L464.63,33.111l-0.444-0.456c-2.199-2.188-1.835-5.846,0.741-7.567l23.556-15.716
	c1.949-1.299,4.547-1.048,6.2,0.615L502.01,17.315z"/>
<polygon style="fill:#4D4D4D;" points="319.576,168.329 464.63,33.111 478.887,47.367 343.657,192.432 255.438,287.068 
	224.929,256.56 "/>
<path style="fill:#CC582F;" d="M343.657,192.432c24.799,33.448,29.049,77.097,4.228,101.907c-10.564,10.576-20.001,17.3-29.46,21.87
	c-4.433,2.587-12.456,8.627-17.117,19.989c-1.607,3.909-7.089,4.091-8.627,0.285c-0.285-0.684-0.479-1.14-0.57-1.242
	c-0.878-2.222-2.222-4-4.046-5.22c-9.63-6.439-28.981,5.003-43.227,25.539c-14.234,20.536-17.995,42.406-8.376,48.834
	c1.14,0.764,4.855,2.359,8.536,3.875c2.587,1.071,2.906,4.353,1.083,6.188c-0.365,0.353-0.809,0.661-1.333,0.878
	c-10.621,4.456-19.078,13.231-22.838,24.092c-6.245,18.029-15.18,33.745-25.779,44.343c-33.54,33.528-89.268,21.471-132.392-15.34
	l43.033-43.021l55.911-29.448l-46.645-46.657l-29.448,55.922l-43.021,43.033c-36.81-43.124-48.879-98.864-15.351-132.392
	c10.599-10.599,26.314-19.545,44.366-25.779c5.744-1.994,10.906-5.299,15.157-9.55c3.784-3.784,6.815-8.285,8.912-13.288
	c1.345-3.191,5.801-3.351,7.077-0.251c1.504,3.67,3.123,7.408,3.875,8.536c6.439,9.619,28.309,5.858,48.822-8.388
	c20.548-14.245,31.978-33.597,25.551-43.204c-1.231-1.835-2.997-3.18-5.22-4.057c-0.091-0.091-0.558-0.285-1.242-0.57
	c-3.806-1.539-3.635-7.02,0.285-8.627c11.362-4.65,17.391-12.696,20.001-17.106c4.547-9.47,11.282-18.907,21.847-29.482
	c24.821-24.81,68.458-20.57,101.929,4.228l-94.647,88.231l30.508,30.508L343.657,192.432z"/>
<g>
	<path style="fill:#FFFFFF;" d="M46.138,411.954c-3.121,0-6.13-1.716-7.634-4.693c-5.397-10.676-8.89-21.277-10.382-31.508
		c-2.802-19.227,1.703-34.901,13.391-46.59c8.326-8.325,21.555-15.896,37.251-21.317c1.797-0.625,3.609-1.358,5.37-2.179
		c4.28-1.993,9.364-0.139,11.356,4.14c1.992,4.279,0.139,9.363-4.14,11.357c-2.285,1.063-4.637,2.018-6.993,2.835
		c-13.309,4.596-24.228,10.721-30.758,17.251c-7.77,7.771-10.571,18.249-8.562,32.035c1.225,8.4,4.16,17.236,8.723,26.261
		c2.13,4.213,0.441,9.354-3.772,11.484C48.751,411.658,47.435,411.954,46.138,411.954z"/>
	<path style="fill:#FFFFFF;" d="M110.839,315.889c-3.575,0-6.842-2.303-8.045-5.667c-1.217-3.405-0.109-7.354,2.749-9.589
		c6.178-4.833,15.399,0.882,13.626,8.586C118.283,313.066,114.808,315.889,110.839,315.889z"/>
	<path style="fill:#FFFFFF;" d="M204.669,263.156c-1.332,0-2.685-0.312-3.948-0.972c-4.185-2.185-5.806-7.348-3.622-11.532
		c2.931-5.616,4.72-11.171,5.316-16.508c0.523-4.691,4.757-8.072,9.443-7.546c4.692,0.523,8.07,4.751,7.547,9.443
		c-0.831,7.446-3.238,15.024-7.151,22.522C210.728,261.483,207.752,263.156,204.669,263.156z"/>
</g>
<g>
	<path style="fill:#333333;" d="M508.056,11.266L500.73,3.94c-4.524-4.524-11.672-5.231-16.997-1.679l-23.55,15.719
		c-3.366,2.247-5.526,5.847-5.924,9.876c-0.106,1.069-0.075,2.131,0.068,3.17l-5.997,5.591l-6.227-6.228
		c-3.31-3.31-8.746-3.645-12.153-0.436c-3.525,3.32-3.589,8.871-0.188,12.27l6.057,6.057l-5.397,5.032l-5.621-5.621
		c-3.309-3.31-8.746-3.645-12.153-0.436c-3.525,3.32-3.589,8.871-0.188,12.27l5.45,5.45l-99.109,92.392
		c-29.464-19.386-62.868-23.619-88.232-12.286l-40.598-40.598c-5.389-5.389-12.594-8.738-20.213-8.906
		c-6.338-0.14-12.387,1.755-17.421,5.364c-3.359-2.874-8.413-2.728-11.59,0.45c-3.338,3.338-3.338,8.749,0,12.087l58.495,58.495
		c-4.459,5.775-8.058,11.54-10.975,17.544c-2.141,3.527-6.915,9.663-15.726,13.262c-5.081,2.09-8.354,6.975-8.338,12.444
		c0.016,5.314,3.194,10.029,8.049,11.994c0.136,0.057,1.028,0.492,1.376,0.629c0.916,0.36,1.175,0.744,1.242,0.844
		c2.024,3.027-3.641,17.791-23.32,31.438c-14.298,9.926-27.668,13.148-34.042,11.941c-0.014-0.002-0.027-0.006-0.04-0.008
		c-1.544-0.299-2.823-1.363-3.476-2.793c-0.495-1.084-1.252-2.817-2.366-5.532c-1.879-4.554-6.291-7.507-11.238-7.522
		c-0.013,0-0.024,0-0.038,0c-5.066,0-9.608,3.029-11.578,7.724c-1.668,3.975-4.053,7.527-7.084,10.559
		c-3.389,3.389-7.509,5.989-11.905,7.514c-19.793,6.839-36.256,16.455-47.61,27.808c-19.086,19.088-26.188,46.171-20,76.265
		c5.623,27.339,21.616,55.291,45.034,78.709c23.413,23.413,51.361,39.402,78.699,45.023c7.087,1.458,14.006,2.177,20.695,2.177
		c21.709,0,40.976-7.588,55.565-22.177c11.343-11.343,20.963-27.799,27.82-47.596c2.936-8.489,9.519-15.416,18.03-18.99
		c1.551-0.644,2.931-1.564,4.099-2.732c2.961-2.961,4.241-7.176,3.423-11.279c-0.794-3.986-3.517-7.296-7.306-8.862
		c-2.721-1.116-4.442-1.867-5.514-2.356c-1.425-0.65-2.487-1.924-2.784-3.461c-0.002-0.014-0.006-0.027-0.008-0.04
		c-1.21-6.371,2.009-19.748,11.934-34.064c13.645-19.677,28.413-25.333,31.432-23.316c0.122,0.082,0.495,0.333,0.868,1.275
		c0.128,0.32,0.588,1.293,0.588,1.293c1.984,4.903,6.699,8.081,12.014,8.097c0.014,0,0.026,0,0.04,0
		c5.452,0,10.318-3.27,12.407-8.348c3.626-8.845,9.753-13.588,13.262-15.701c6.006-2.928,11.77-6.53,17.54-10.988l57.132,57.132l0,0
		l0,0l48.379,48.379c1.668,1.67,3.857,2.504,6.044,2.504c2.121,0,4.242-0.784,5.89-2.353c3.491-3.323,3.302-9.089-0.106-12.497
		l-18.642-18.642l10.836-10.836c0.842-0.842,1.56-1.818,2.006-2.922c1.34-3.32,0.506-6.938-1.864-9.307l-82.786-82.786
		c11.327-25.359,7.092-58.756-12.292-88.216l92.402-99.12l5.453,5.453c1.668,1.668,3.857,2.504,6.044,2.504
		c2.121,0,4.242-0.784,5.89-2.353c3.491-3.323,3.302-9.09-0.106-12.497l-5.617-5.617l5.03-5.396l6.059,6.059
		c1.668,1.67,3.857,2.504,6.044,2.504c2.122,0,4.244-0.785,5.893-2.356c3.488-3.322,3.299-9.087-0.107-12.494l-6.225-6.226
		l5.596-6.002c0.604,0.083,1.213,0.14,1.829,0.14c1.386,0,2.792-0.211,4.187-0.659c2.963-0.952,5.461-2.987,7.189-5.575
		l15.556-23.304C513.299,22.922,512.596,15.807,508.056,11.266z M305.892,220.402l-14.298-14.298L464.425,44.987l2.585,2.585
		L305.892,220.402z M340.786,289.341l-39.225-39.225l4.761-5.107l39.172,39.172c-1.107,1.406-2.315,2.784-3.648,4.118
		C341.491,288.652,341.14,288.995,340.786,289.341z M289.467,238.021l-15.492-15.492l5.107-4.761l15.146,15.146L289.467,238.021z
		 M277.803,250.532l-22.588,24.23l-17.982-17.982l24.229-22.588L277.803,250.532z M227.812,166.497l39.175,39.175l-5.107,4.761
		l-39.229-39.229c0.346-0.353,0.688-0.704,1.044-1.06C225.027,168.812,226.404,167.604,227.812,166.497z M265.294,156.168
		c13.548,0.866,27.627,5.514,40.565,13.267l-26.361,24.574l-35.675-35.675C251.495,156.084,259.081,155.772,265.294,156.168z
		 M164.895,113.449c1.328-0.508,2.747-0.784,4.211-0.784c3.142,0,6.097,1.224,8.318,3.445l38.253,38.253
		c-1.398,1.172-2.767,2.389-4.072,3.694c-0.354,0.354-0.696,0.707-1.044,1.06L164.895,113.449z M108.36,414.909l-11.273-11.273
		l21.103-40.081l30.251,30.252L108.36,414.909z M86.59,417.315l8.091,8.091L63.407,456.68c-1.384-1.298-2.755-2.621-4.108-3.975
		c-1.356-1.356-2.683-2.729-3.983-4.116L86.59,417.315z M314.71,308.505c-0.209,0.1-0.411,0.209-0.611,0.326
		c-4.391,2.576-11.815,7.992-17.432,17.529c-1.116-1.317-2.401-2.467-3.851-3.441c-7.538-5.041-17.83-4.19-28.979,2.398
		c-9.2,5.437-18.441,14.449-26.019,25.377c-11.429,16.486-17.055,34.493-14.681,46.994c1.149,6.051,4.114,10.827,8.561,13.798
		c0.277,0.186,0.603,0.393,1.068,0.653c-8.779,5.924-15.473,14.494-18.929,24.489c-5.928,17.115-14.364,31.71-23.752,41.1
		c-19.078,19.079-43.554,18.875-60.73,15.344c-17.811-3.663-36.043-12.461-52.856-25.305l35.401-35.401l54.772-28.837
		c2.402-1.265,4.062-3.597,4.469-6.283c0.407-2.685-0.487-5.404-2.407-7.324l-46.657-46.657c-1.921-1.921-4.642-2.814-7.324-2.407
		c-2.685,0.407-5.018,2.066-6.283,4.469l-28.837,54.772L44.232,435.5c-12.845-16.814-21.645-35.048-25.308-52.859
		c-3.532-17.174-3.737-41.652,15.343-60.731c9.396-9.396,23.994-17.827,41.116-23.742c6.831-2.37,13.194-6.375,18.399-11.58
		c2.269-2.269,4.298-4.728,6.077-7.361c0.248,0.446,0.455,0.777,0.642,1.056c2.988,4.467,7.771,7.436,13.833,8.584
		c12.505,2.368,30.505-3.262,46.969-14.692c10.925-7.576,19.938-16.815,25.378-26.016c6.591-11.147,7.446-21.433,2.394-28.992
		c-0.973-1.445-2.12-2.726-3.434-3.838c9.497-5.594,14.929-13.008,17.524-17.399c0.124-0.211,0.239-0.426,0.345-0.646
		c2.131-4.437,4.749-8.754,7.949-13.099l37.914,37.914l-30.265,28.214c-1.696,1.581-2.677,3.784-2.718,6.103
		c-0.041,2.318,0.863,4.554,2.503,6.194l30.501,30.501c1.605,1.605,3.779,2.504,6.043,2.504c0.049,0,0.099,0,0.149-0.001
		c2.319-0.041,4.521-1.021,6.102-2.718l28.215-30.267l37.912,37.912C323.467,303.741,319.149,306.363,314.71,308.505z
		 M426.628,375.183l-11.345-11.345l4.935-4.934l11.345,11.346L426.628,375.183z M408.13,346.816l-4.935,4.934l-50.321-50.321
		c0.353-0.348,0.705-0.689,1.06-1.044c1.305-1.305,2.522-2.672,3.694-4.071L408.13,346.816z M355.815,246.71
		c0.397,6.209,0.085,13.788-2.16,21.456l-35.668-35.668l24.564-26.35C350.301,219.084,354.949,233.162,355.815,246.71z
		 M482.254,38.64l-8.898-8.897l17.392-11.608l3.115,3.115L482.254,38.64z"/>
	<path style="fill:#333333;" d="M235.829,304.443c-3.998-2.509-9.281-1.338-11.791,2.661c-2.509,3.998-1.311,9.239,2.687,11.749
		l-24.547,39.104c-4.996,7.96-2.585,18.501,5.376,23.497c1.422,0.892,3.005,1.319,4.569,1.319c2.835,0,5.605-1.403,7.222-3.98
		c2.509-3.998,1.311-9.239-2.687-11.749l24.547-39.104C246.201,319.979,243.789,309.439,235.829,304.443z"/>
	<path style="fill:#333333;" d="M204.854,287.946c3.998-2.509,5.205-7.785,2.696-11.783c-2.421-3.857-6.197-6.539-10.636-7.555
		c-4.438-1.014-9.005-0.24-12.862,2.179l-39.033,24.566l-0.002-0.005c-2.509-3.998-7.786-5.206-11.783-2.696
		c-3.998,2.509-5.205,7.785-2.696,11.783c2.421,3.857,6.197,6.539,10.636,7.555c1.274,0.292,2.558,0.435,3.833,0.435
		c3.168,0,6.279-0.889,9.029-2.614l39.035-24.562C195.579,289.249,200.854,290.456,204.854,287.946z"/>
</g>
<g>
</g>
<g>
</g>
<g>
</g>
<g>
</g>
<g>
</g>
<g>
</g>
<g>
</g>
<g>
</g>
<g>
</g>
<g>
</g>
<g>
</g>
<g>
</g>
<g>
</g>
<g>
</g>
<g>
</g>
</svg>
