<?xml version="1.0" encoding="iso-8859-1"?>
<!-- Generator: Adobe Illustrator 19.0.0, SVG Export Plug-In . SVG Version: 6.00 Build 0)  -->
<svg version="1.1" id="Layer_1" xmlns="http://www.w3.org/2000/svg" xmlns:xlink="http://www.w3.org/1999/xlink" x="0px" y="0px"
	 viewBox="0 0 512 512" style="enable-background:new 0 0 512 512;" xml:space="preserve">
<rect x="117.472" y="105.454" style="fill:#CC582F;" width="301.78" height="301.104"/>
<path style="fill:#B3B3B3;" d="M502.615,378.678v0.526c0,19.754-16.023,35.777-35.79,35.777h-41.824v-36.303h3.13H502.615z"/>
<polygon style="fill:#F2F2F2;" points="502.615,338.62 502.615,378.678 428.131,378.678 425.001,378.678 425.001,338.62 
	428.131,338.62 "/>
<polygon style="fill:#B3B3B3;" points="502.615,298.561 502.615,338.62 428.131,338.62 425.001,338.62 425.001,298.561 
	428.131,298.561 "/>
<polygon style="fill:#F2F2F2;" points="502.615,258.502 502.615,298.561 428.131,298.561 425.001,298.561 425.001,258.502 
	428.131,258.502 "/>
<polygon style="fill:#B3B3B3;" points="502.615,218.444 502.615,258.502 428.131,258.502 425.001,258.502 425.001,218.444 
	428.131,218.444 "/>
<polygon style="fill:#F2F2F2;" points="502.615,178.385 502.615,218.444 428.131,218.444 425.001,218.444 425.001,178.385 
	428.131,178.385 "/>
<polygon style="fill:#B3B3B3;" points="502.615,138.326 502.615,178.385 428.131,178.385 425.001,178.385 425.001,138.326 
	428.131,138.326 "/>
<path style="fill:#F2F2F2;" d="M502.615,132.806v5.521h-74.484h-3.13V97.016h41.824C486.592,97.016,502.615,113.039,502.615,132.806
	z"/>
<rect x="78.24" y="97.017" style="fill:#808080;" width="43.814" height="317.966"/>
<path style="fill:#F7B239;" d="M78.243,97.016v317.966H45.17c-19.754,0-35.777-16.023-35.777-35.777V132.806
	c0-19.766,16.023-35.79,35.777-35.79C45.17,97.016,78.243,97.016,78.243,97.016z"/>
<g>
	<path style="fill:#333333;" d="M122.054,87.628h-76.88C20.265,87.628,0,107.893,0,132.802v246.396
		c0,24.909,20.265,45.174,45.174,45.174h76.88c5.185,0,9.389-4.204,9.389-9.389V97.017
		C131.443,91.832,127.239,87.628,122.054,87.628z M18.778,379.198V132.802c0-14.555,11.841-26.396,26.396-26.396h23.677v299.188
		H45.174C30.619,405.594,18.778,393.753,18.778,379.198z M112.665,405.594H87.628V106.406h25.037V405.594z"/>
	<path style="fill:#333333;" d="M466.826,87.628h-76.88c-5.186,0-9.389,4.204-9.389,9.389v317.966c0,5.185,4.202,9.389,9.389,9.389
		h76.88c24.909,0,45.174-20.265,45.174-45.174V132.802C512,107.893,491.735,87.628,466.826,87.628z M434.386,369.291V348.01h58.836
		v21.281H434.386z M434.386,329.232v-21.281h58.836v21.281H434.386z M434.386,289.174v-21.281h58.836v21.281H434.386z
		 M434.386,249.115v-21.281h58.836v21.281H434.386z M434.386,209.056v-21.281h58.836v21.281H434.386z M434.386,168.998v-21.281
		h58.836v21.281H434.386z M492.907,128.939h-58.521v-22.533h32.44C480.066,106.406,491.028,116.214,492.907,128.939z
		 M399.335,106.406h16.274v299.188h-16.274V106.406z M466.826,405.594h-32.44v-17.526h57.27
		C488.001,398.266,478.266,405.594,466.826,405.594z"/>
	<path style="fill:#333333;" d="M154.601,87.628c-5.185,0-9.389,4.204-9.389,9.389v317.966c0,5.185,4.204,9.389,9.389,9.389
		s9.389-4.204,9.389-9.389V97.017C163.99,91.832,159.787,87.628,154.601,87.628z"/>
	<path style="fill:#333333;" d="M188.401,87.628c-5.185,0-9.389,4.204-9.389,9.389v317.966c0,5.185,4.204,9.389,9.389,9.389
		s9.389-4.204,9.389-9.389V97.017C197.79,91.832,193.586,87.628,188.401,87.628z"/>
	<path style="fill:#333333;" d="M222.201,87.628c-5.185,0-9.389,4.204-9.389,9.389v317.966c0,5.185,4.204,9.389,9.389,9.389
		s9.389-4.204,9.389-9.389V97.017C231.589,91.832,227.386,87.628,222.201,87.628z"/>
	<path style="fill:#333333;" d="M256,87.628c-5.185,0-9.389,4.204-9.389,9.389v317.966c0,5.185,4.204,9.389,9.389,9.389
		c5.186,0,9.389-4.204,9.389-9.389V97.017C265.389,91.832,261.186,87.628,256,87.628z"/>
	<path style="fill:#333333;" d="M289.8,87.628c-5.186,0-9.389,4.204-9.389,9.389v317.966c0,5.185,4.202,9.389,9.389,9.389
		c5.186,0,9.389-4.204,9.389-9.389V97.017C299.188,91.832,294.986,87.628,289.8,87.628z"/>
	<path style="fill:#333333;" d="M323.599,87.628c-5.186,0-9.389,4.204-9.389,9.389v317.966c0,5.185,4.202,9.389,9.389,9.389
		c5.186,0,9.389-4.204,9.389-9.389V97.017C332.988,91.832,328.785,87.628,323.599,87.628z"/>
	<path style="fill:#333333;" d="M357.399,87.628c-5.186,0-9.389,4.204-9.389,9.389v317.966c0,5.185,4.202,9.389,9.389,9.389
		c5.186,0,9.389-4.204,9.389-9.389V97.017C366.787,91.832,362.585,87.628,357.399,87.628z"/>
	<path style="fill:#333333;" d="M35.143,141.919c0.479,1.135,1.169,2.171,2.028,3.054c3.717,3.608,9.802,3.623,13.417-0.141
		c3.451-3.593,3.479-9.628-0.135-13.142c-3.088-3.177-8.206-3.584-11.855-1.164C34.932,132.957,33.429,137.858,35.143,141.919
		C35.381,142.482,34.905,141.356,35.143,141.919z"/>
	<path style="fill:#333333;" d="M52.481,375.086c-0.449-1.124-1.159-2.197-2.028-3.042c-5.731-5.896-16.042-1.471-16.023,6.635
		c0.02,8.093,10.273,12.558,16.023,6.635C53.144,382.699,53.899,378.521,52.481,375.086
		C52.255,374.522,52.718,375.662,52.481,375.086z"/>
	<path style="fill:#333333;" d="M52.481,335.027c-0.449-1.124-1.159-2.197-2.028-3.042c-3.514-3.615-9.551-3.581-13.148-0.129
		c-3.768,3.618-3.738,9.703-0.134,13.411c3.364,3.265,8.693,3.647,12.418,0.752C52.892,343.453,54.075,338.889,52.481,335.027
		C52.255,334.464,52.718,335.603,52.481,335.027z"/>
	<path style="fill:#333333;" d="M52.481,294.968c-0.449-1.124-1.159-2.197-2.028-3.042c-3.514-3.615-9.551-3.581-13.148-0.129
		c-3.768,3.618-3.738,9.703-0.134,13.411c3.364,3.265,8.693,3.647,12.418,0.752C52.874,303.408,54.103,298.814,52.481,294.968
		C52.255,294.405,52.718,295.532,52.481,294.968z"/>
	<path style="fill:#333333;" d="M49.026,250.704c-6.68-4.569-15.797,1.466-14.465,9.35c1.229,7.279,10.638,10.495,15.892,5.084
		C54.63,261.081,53.839,253.872,49.026,250.704C48.512,250.353,49.539,251.042,49.026,250.704z"/>
	<path style="fill:#333333;" d="M49.026,210.632c-6.591-4.345-15.449,1.13-14.524,8.962c0.891,7.541,10.602,10.995,15.951,5.484
		C54.684,220.97,53.775,213.878,49.026,210.632C48.512,210.294,49.539,210.983,49.026,210.632z"/>
	<path style="fill:#333333;" d="M49.026,170.586c-6.307-4.157-14.967,0.689-14.584,8.258c0.398,7.874,10.414,11.941,16.012,6.174
		C54.633,180.963,53.839,173.755,49.026,170.586C48.512,170.248,49.539,170.924,49.026,170.586z"/>
</g>
<g>
	<path style="fill:#FFFFFF;" d="M98.273,360.865c-5.185,0-9.389-4.204-9.389-9.389V156.19c0-5.185,4.204-9.389,9.389-9.389
		c5.185,0,9.389,4.204,9.389,9.389v195.286C107.661,356.661,103.458,360.865,98.273,360.865z"/>
	<path style="fill:#FFFFFF;" d="M98.273,133.031c-0.613,0-1.227-0.063-1.84-0.188c-0.588-0.113-1.189-0.3-1.753-0.526
		c-0.563-0.238-1.114-0.526-1.615-0.864c-0.513-0.351-1.001-0.739-1.427-1.177c-0.438-0.426-0.826-0.914-1.164-1.427
		c-0.338-0.501-0.638-1.052-0.864-1.615c-0.238-0.563-0.426-1.164-0.538-1.753c-0.125-0.613-0.188-1.227-0.188-1.84
		s0.063-1.227,0.188-1.84c0.113-0.588,0.3-1.189,0.538-1.753c0.225-0.563,0.526-1.114,0.864-1.615
		c0.338-0.513,0.726-1.001,1.164-1.427c0.426-0.438,0.914-0.826,1.427-1.177c0.501-0.338,1.052-0.626,1.615-0.851
		c0.563-0.238,1.164-0.426,1.753-0.538c1.214-0.25,2.466-0.25,3.68,0c0.588,0.113,1.189,0.3,1.753,0.538
		c0.563,0.225,1.114,0.513,1.615,0.851c0.513,0.351,1.001,0.739,1.427,1.177c0.438,0.426,0.826,0.914,1.177,1.427
		c0.338,0.501,0.626,1.052,0.851,1.615c0.238,0.563,0.426,1.164,0.538,1.753c0.125,0.613,0.188,1.227,0.188,1.84
		s-0.063,1.227-0.188,1.84c-0.113,0.588-0.3,1.189-0.538,1.753c-0.225,0.563-0.513,1.114-0.851,1.615
		c-0.351,0.513-0.739,1.001-1.177,1.427c-0.426,0.438-0.914,0.826-1.427,1.177c-0.501,0.338-1.052,0.626-1.615,0.864
		c-0.563,0.225-1.164,0.413-1.753,0.526C99.5,132.969,98.886,133.031,98.273,133.031z"/>
</g>
<g>
</g>
<g>
</g>
<g>
</g>
<g>
</g>
<g>
</g>
<g>
</g>
<g>
</g>
<g>
</g>
<g>
</g>
<g>
</g>
<g>
</g>
<g>
</g>
<g>
</g>
<g>
</g>
<g>
</g>
</svg>
