<?xml version="1.0" encoding="iso-8859-1"?>
<!-- Generator: Adobe Illustrator 19.0.0, SVG Export Plug-In . SVG Version: 6.00 Build 0)  -->
<svg version="1.1" id="Layer_1" xmlns="http://www.w3.org/2000/svg" xmlns:xlink="http://www.w3.org/1999/xlink" x="0px" y="0px"
	 viewBox="0 0 512 512" style="enable-background:new 0 0 512 512;" xml:space="preserve">
<g>
	<path style="fill:#F95428;" d="M282.045,110.054v0.012c-8.414-1.754-17.127-2.674-26.055-2.674s-17.64,0.919-26.055,2.674V35.005
		c0-7.197,2.912-13.702,7.639-18.416c4.714-4.726,11.219-7.639,18.416-7.639c14.394,0,26.055,11.673,26.055,26.055V110.054z"/>
	<path style="fill:#F95428;" d="M446.895,413.569c3.76,3.76,6.087,8.94,6.087,14.68c0,11.458-9.298,20.755-20.756,20.755H310.045
		H201.959H79.777c-5.741,0-10.921-2.327-14.68-6.087c-3.76-3.748-6.087-8.94-6.087-14.669c0-10.372,7.603-18.965,17.533-20.517
		c1.05-0.167,2.136-0.251,3.234-0.251h352.45c1.086,0,2.16,0.084,3.211,0.251C439.877,408.425,443.864,410.526,446.895,413.569z"/>
</g>
<path style="opacity:0.25;fill:#4D4D4D;enable-background:new    ;" d="M446.895,413.569c-3.032-3.043-7.018-5.144-11.458-5.836
	c-1.05-0.167-2.124-0.251-3.211-0.251h-84.139c1.086,0,2.16,0.084,3.211,0.251c4.44,0.692,8.426,2.793,11.458,5.836
	c3.76,3.76,6.087,8.94,6.087,14.68c0,11.458-9.298,20.755-20.755,20.755h84.139c11.458,0,20.755-9.298,20.755-20.756
	C452.982,422.509,450.655,417.329,446.895,413.569z"/>
<path style="fill:#F7B239;" d="M201.959,449.005h108.086c0,29.85-24.205,54.043-54.043,54.043
	C226.152,503.049,201.959,478.856,201.959,449.005z"/>
<path style="opacity:0.25;fill:#4D4D4D;enable-background:new    ;" d="M201.959,449.005h108.086
	c0,29.85-24.205,54.043-54.043,54.043C226.152,503.049,201.959,478.856,201.959,449.005z"/>
<path style="fill:#F7B239;" d="M435.485,405.979H76.507h-0.012c0-13.57,2.292-26.926,6.708-39.554
	c4.404-12.628,10.909-24.527,19.347-35.15c16.877-21.245,26.055-47.574,26.055-74.703v-21.794c0-35.185,14.263-67.029,37.31-90.076
	c17.211-17.199,39.303-29.504,64.021-34.636c8.414-1.754,17.127-2.674,26.055-2.674s17.64,0.919,26.055,2.674
	c57.862,12.019,101.331,63.281,101.331,124.712v21.794c0,13.559,2.292,26.926,6.708,39.554c4.404,12.628,10.909,24.527,19.347,35.15
	C426.307,352.52,435.485,378.838,435.485,405.979z"/>
<path style="opacity:0.25;fill:#4D4D4D;enable-background:new    ;" d="M409.43,331.275c-8.438-10.622-14.943-22.522-19.347-35.149
	c-4.416-12.628-6.708-25.995-6.708-39.554v-21.794c0-61.431-43.468-112.693-101.331-124.712c-8.414-1.754-17.127-2.674-26.055-2.674
	c-8.928,0-17.64,0.919-26.055,2.674c-2.189,0.455-4.35,0.985-6.496,1.55c54.583,14.383,94.83,64.056,94.83,123.162v21.794
	c0,13.559,2.292,26.926,6.708,39.554c4.404,12.628,10.909,24.527,19.347,35.15c16.877,21.245,26.055,47.562,26.055,74.703h65.107
	C435.485,378.838,426.307,352.52,409.43,331.275z"/>
<path style="fill:#333333;" d="M444.335,401.119c-1.044-27.347-10.849-53.96-27.893-75.414
	c-7.759-9.768-13.783-20.713-17.908-32.538c-4.118-11.774-6.205-24.088-6.205-36.598v-21.794
	c0-63.077-43.061-116.279-101.327-131.773V35.009C291.002,15.704,275.298,0,255.993,0s-35.009,15.704-35.009,35.009v67.953
	c-23.009,6.073-44.112,18.131-61.395,35.407c-25.752,25.75-39.933,59.988-39.933,96.405v21.794c0,25.009-8.564,49.563-24.113,69.135
	c-9.01,11.343-16.004,24.051-20.788,37.763c-4.248,12.15-6.625,24.797-7.106,37.657c-10.355,4.649-17.589,15.05-17.589,27.118
	c0,16.385,13.329,29.714,29.714,29.714h113.878c4.36,30.51,30.651,54.044,62.348,54.044s57.988-23.534,62.348-54.044h113.877
	c16.385,0,29.714-13.329,29.714-29.714C461.937,416.17,454.697,405.765,444.335,401.119z M238.888,35.009
	c0-9.432,7.674-17.106,17.106-17.106c9.431,0,17.106,7.673,17.106,17.106v64.5c-5.605-0.704-11.314-1.071-17.106-1.071
	c-5.765,0-11.475,0.358-17.106,1.059V35.009z M109.56,336.84c18.055-22.727,27.998-51.235,27.998-80.271v-21.794
	c0-31.636,12.32-61.377,34.688-83.745c22.381-22.37,52.123-34.689,83.748-34.689c65.305,0,118.433,53.129,118.433,118.434v21.794
	c0,14.528,2.425,28.83,7.207,42.502c4.786,13.717,11.78,26.425,20.791,37.769c13.999,17.623,22.312,39.286,23.835,61.688H85.722
	c0.665-9.947,2.637-19.725,5.935-29.158C95.778,357.551,101.802,346.606,109.56,336.84z M255.998,494.097
	c-21.8,0-40.033-15.551-44.196-36.141h88.392C296.032,478.547,277.798,494.097,255.998,494.097z M432.222,440.053H79.772
	c-6.512,0-11.811-5.298-11.811-11.811c0-6.513,5.298-11.811,11.811-11.811h352.45c6.513,0,11.811,5.298,11.811,11.811
	C444.034,434.755,438.735,440.053,432.222,440.053z"/>
<g>
	<path style="fill:#FFFFFF;" d="M110.249,384.813c-0.978,0-1.972-0.161-2.948-0.501c-4.668-1.628-7.133-6.733-5.505-11.401
		c3.725-10.678,9.166-20.565,16.172-29.386c5.132-6.461,9.724-13.446,13.649-20.764c2.336-4.356,7.762-5.995,12.119-3.658
		c4.356,2.337,5.994,7.762,3.657,12.119c-4.428,8.257-9.612,16.143-15.406,23.439c-5.754,7.245-10.225,15.368-13.286,24.146
		C117.412,382.499,113.95,384.813,110.249,384.813z"/>
	<path style="fill:#FFFFFF;" d="M149.825,311.833c-0.585,0-1.182-0.06-1.756-0.167c-0.572-0.119-1.133-0.298-1.67-0.513
		c-0.537-0.227-1.062-0.501-1.552-0.824c-0.489-0.334-0.943-0.704-1.362-1.122c-0.406-0.406-0.788-0.859-1.11-1.361
		c-0.322-0.477-0.597-1.003-0.824-1.54c-0.226-0.537-0.393-1.098-0.513-1.671c-0.107-0.585-0.167-1.17-0.167-1.754
		c0-2.351,0.955-4.667,2.613-6.326c0.419-0.418,0.871-0.788,1.362-1.11c0.491-0.322,1.015-0.609,1.552-0.824
		c0.537-0.227,1.098-0.394,1.67-0.513c1.159-0.239,2.352-0.239,3.498,0c0.572,0.119,1.134,0.286,1.683,0.513
		c0.536,0.215,1.05,0.501,1.54,0.824c0.488,0.322,0.943,0.692,1.361,1.11c1.671,1.659,2.626,3.974,2.626,6.326
		c0,0.585-0.06,1.17-0.179,1.754c-0.119,0.573-0.286,1.134-0.513,1.671c-0.227,0.537-0.501,1.062-0.824,1.54
		c-0.322,0.501-0.692,0.955-1.11,1.361c-0.418,0.418-0.871,0.788-1.361,1.122c-0.489,0.322-1.004,0.597-1.54,0.824
		c-0.549,0.215-1.111,0.394-1.683,0.513C150.994,311.773,150.41,311.833,149.825,311.833z"/>
	<path style="fill:#FFFFFF;" d="M160.152,219.829c-0.713,0-1.435-0.086-2.157-0.265c-4.799-1.188-7.728-6.04-6.539-10.84
		c4.669-18.876,14.482-36.197,28.374-50.09c7.462-7.456,15.907-13.751,25.102-18.71c4.354-2.348,9.781-0.722,12.127,3.63
		c2.348,4.352,0.722,9.781-3.628,12.129c-7.667,4.136-14.714,9.388-20.945,15.615c-11.586,11.587-19.766,26.017-23.652,41.728
		C167.826,217.102,164.17,219.829,160.152,219.829z"/>
	<path style="fill:#FFFFFF;" d="M233.684,147.494c-4.153,0-7.879-2.907-8.756-7.135c-0.127-0.615-0.189-1.227-0.189-1.831
		c0.001-4.152,2.909-7.876,7.135-8.752l2.087-0.433c4.845-1.005,9.579,2.105,10.584,6.945c0.127,0.615,0.189,1.227,0.189,1.832
		c-0.002,4.152-2.909,7.875-7.135,8.752l-2.087,0.433C234.9,147.432,234.287,147.494,233.684,147.494z"/>
	<path style="fill:#FFFFFF;" d="M249.924,89.117c-4.945,0-8.951-4.008-8.951-8.951V41.691c0-4.944,4.007-8.951,8.951-8.951
		s8.951,4.008,8.951,8.951v38.475C258.876,85.11,254.868,89.117,249.924,89.117z"/>
</g>
<g>
</g>
<g>
</g>
<g>
</g>
<g>
</g>
<g>
</g>
<g>
</g>
<g>
</g>
<g>
</g>
<g>
</g>
<g>
</g>
<g>
</g>
<g>
</g>
<g>
</g>
<g>
</g>
<g>
</g>
</svg>
