<?xml version="1.0" encoding="iso-8859-1"?>
<!-- Generator: Adobe Illustrator 19.0.0, SVG Export Plug-In . SVG Version: 6.00 Build 0)  -->
<svg version="1.1" id="Layer_1" xmlns="http://www.w3.org/2000/svg" xmlns:xlink="http://www.w3.org/1999/xlink" x="0px" y="0px"
	 viewBox="0 0 512.003 512.003" style="enable-background:new 0 0 512.003 512.003;" xml:space="preserve">
<path style="fill:#F7B239;" d="M486.366,58.724c10.905,1.534,18.505,11.604,16.971,22.508c-1.5,10.645-11.141,18.144-21.741,17.084
	c-0.259-0.034-0.519-0.068-0.778-0.101L318.028,75.38c-0.259-0.034-0.519-0.079-0.778-0.124
	c-10.487-1.894-17.693-11.739-16.193-22.384c1.387-9.969,9.923-17.174,19.712-17.174c0.925,0,1.861,0.056,2.797,0.192
	L486.366,58.724z"/>
<path style="opacity:0.25;fill:#4D4D4D;enable-background:new    ;" d="M487.494,58.724l-53.008-7.435
	c9.678,2.508,16.149,11.913,14.724,22.049c-1.5,10.645-11.141,18.144-21.741,17.084c-0.259-0.034-0.519-0.068-0.778-0.101
	L316.982,74.932c0.461,0.117,0.921,0.238,1.397,0.324c0.259,0.045,0.519,0.09,0.778,0.124l162.79,22.835
	c0.259,0.034,0.519,0.068,0.778,0.101c10.6,1.06,20.242-6.439,21.741-17.084C505.999,70.328,498.399,60.258,487.494,58.724z"/>
<path style="fill:#F7B239;" d="M480.818,98.215c0.259,0.034,0.519,0.068,0.778,0.101c0,0-53.361,31.191-61.153,86.819l-6.529,46.46
	c-8.029-16.385-18.855-31.733-32.466-45.355c-8.785-8.785-18.291-16.408-28.338-22.869c0.756-49.82-35.86-88.093-35.86-88.093
	v-0.023c0.259,0.045,0.519,0.09,0.778,0.124L480.818,98.215z"/>
<path style="opacity:0.25;fill:#4D4D4D;enable-background:new    ;" d="M478.563,100.47l-43.375-6.084
	c-16.403,13.533-37.682,62.212-42.803,98.767l-6.975,1.914c10.726,11.919,19.483,24.981,26.246,38.784l6.529-46.46
	c7.792-55.628,61.153-86.819,61.153-86.819C479.082,100.538,478.822,100.504,478.563,100.47z"/>
<g>
	<path style="fill:#F7B239;" d="M93.871,335.386c-9.055-52.561,6.71-108.56,47.283-149.145
		c57.579-57.567,146.179-65.19,211.956-22.869c10.048,6.462,19.554,14.085,28.338,22.869c13.611,13.622,24.437,28.97,32.466,45.355
		c0,0,0.011,0,0,0.011c31.101,63.42,20.275,142.199-32.466,194.928c-66.352,66.363-173.931,66.363-240.294,0
		C115.376,400.757,99.622,368.765,93.871,335.386z M296.761,432.421c15.235-4.274,29.951-11.412,43.348-21.516
		c57.725-43.517,69.239-125.599,25.711-183.313c-43.517-57.725-125.599-69.239-183.313-25.711
		c-22.914,17.276-38.544,40.63-46.347,66.115c-7.431,24.29-7.747,50.519-0.462,75.283c4.308,14.727,11.311,28.936,21.099,41.915
		c17.93,23.794,42.423,39.728,69.047,47.204C248.824,438.849,273.407,438.984,296.761,432.421z"/>
	<path style="fill:#F7B239;" d="M141.154,426.535L13.559,298.939l11.209-11.209l69.103,47.655
		C99.622,368.765,115.376,400.757,141.154,426.535z"/>
</g>
<path d="M261.305,484.765c-47.644,0-92.439-18.556-126.133-52.249c-26.2-26.2-43.364-59.292-49.638-95.694
	c-9.838-57.103,8.718-115.63,49.638-156.561c28.977-28.971,67.343-47.2,108.03-51.328c40.117-4.071,80.77,5.635,114.482,27.326
	c10.673,6.863,20.68,14.939,29.743,24.001c13.939,13.951,25.369,29.898,33.975,47.401c0.096,0.182,0.185,0.369,0.267,0.559
	c33.36,68.387,19.621,150.442-34.244,204.296C353.74,466.208,308.948,484.765,261.305,484.765z M261.182,144.94
	c-5.422,0-10.849,0.272-16.271,0.822c-36.824,3.736-71.548,20.236-97.778,46.46c-37.038,37.048-53.834,90.032-44.928,141.728
	c5.676,32.94,21.213,62.889,44.93,86.605c30.498,30.499,71.045,47.295,114.171,47.295s83.668-16.797,114.162-47.294
	c48.84-48.829,61.239-123.264,30.853-185.225c-0.043-0.087-0.085-0.175-0.124-0.263c-7.783-15.813-18.122-30.23-30.731-42.849
	c-8.207-8.208-17.269-15.521-26.93-21.734C322.583,153.787,292.072,144.94,261.182,144.94z"/>
<path style="fill:#333333;" d="M509.056,65.856c-4.358-8.598-12.29-14.214-21.52-15.509L324.739,27.515
	c-15.517-2.175-29.889,8.673-32.065,24.176c-1.053,7.511,0.882,14.983,5.448,21.04c3.701,4.909,8.773,8.41,14.56,10.122
	c5.803,6.699,26.205,32.282,30.965,65.302c-67.206-34.918-152.142-24.218-208.471,32.11c-37.693,37.693-54.946,88.198-51.78,137.627
	l-45.468-31.357l0.504-0.504c3.275-3.275,3.605-8.654,0.43-12.023c-3.286-3.488-8.778-3.55-12.143-0.186l-7.929,7.929
	c-0.001,0.001-0.002,0.001-0.003,0.002L7.581,292.961l-4.968,4.97c-3.372,3.372-3.557,9.075-0.104,12.363
	c1.632,1.553,3.731,2.33,5.83,2.33c1.828,0,3.653-0.597,5.171-1.774l121.668,121.67c34.774,34.773,80.451,52.16,126.127,52.16
	c45.677,0,91.355-17.386,126.128-52.16c46.793-46.793,62.095-113.328,45.919-173.039c-6.272-23.152-8.17-47.272-4.835-71.026
	l0.301-2.143c6.304-44.965,45.815-73.352,55.099-79.452c6.032-0.056,11.868-2.02,16.773-5.717
	c7.425-5.598,11.631-14.329,11.294-23.935C511.843,73.265,510.839,69.374,509.056,65.856z M25.523,298.942l0.246-0.246
	l60.499,41.724c1.734,8.994,4.175,17.876,7.298,26.566L25.523,298.942z M375.471,420.557c-62.949,62.951-165.38,62.952-228.331,0
	s-62.951-165.381,0-228.332c31.475-31.475,72.82-47.213,114.166-47.213c41.345,0,82.69,15.738,114.165,47.213
	C438.423,255.177,438.423,357.606,375.471,420.557z M412.066,183.96l-3.132,22.313c-6.224-9.169-13.382-17.889-21.501-26.008
	c-8.086-8.087-16.77-15.221-25.899-21.427c-0.828-30.572-14.151-56.377-24.84-72.299l123.089,17.263
	C442.322,118.529,417.431,145.682,412.066,183.96z M494.962,80.062C494.962,80.063,494.962,80.063,494.962,80.062
	c-0.425,3.037-2.008,5.726-4.457,7.572c-2.449,1.846-5.475,2.629-8.506,2.202L319.201,67.004c-3.037-0.426-5.726-2.009-7.572-4.458
	c-1.847-2.448-2.629-5.469-2.202-8.506c0.804-5.732,5.732-9.889,11.362-9.889c0.529,0,1.063,0.037,1.601,0.113l162.797,22.833
	c3.036,0.426,5.725,2.008,7.572,4.458C494.605,74.004,495.388,77.026,494.962,80.062z"/>
<g>
	<path style="fill:#F7B239;" d="M288.303,432.433V263.305c0-14.886-12.11-26.996-26.996-26.996c-7.216,0-13.999,2.809-19.1,7.909
		c-5.098,5.099-7.908,11.879-7.908,19.087v169.094l-16.915,0.034V263.305c0-11.727,4.568-22.753,12.862-31.048
		c8.295-8.295,19.327-12.863,31.06-12.863c24.213,0,43.911,19.698,43.911,43.911v169.116L288.303,432.433z"/>
	<path style="fill:#F7B239;" d="M315.288,398.264H212.93c-25.183,0-45.67-20.487-45.67-45.67c0-0.565,0.01-1.129,0.03-1.691h-28.786
		c-4.672,0-8.457-3.787-8.457-8.458c0-4.671,3.786-8.457,8.457-8.457h32.708c2.272-5.085,5.466-9.742,9.417-13.693
		c8.639-8.624,20.11-13.371,32.302-13.371h102.358c8.394,0,15.223-6.829,15.223-15.223c0-4.068-1.582-7.891-4.458-10.766
		c-2.874-2.874-6.698-4.458-10.766-4.458H136.25c-4.672,0-8.458-3.787-8.458-8.457c0-4.671,3.786-8.457,8.458-8.457h179.04
		c8.584,0,16.656,3.342,22.726,9.411c6.07,6.07,9.413,14.141,9.413,22.727c0,17.721-14.417,32.138-32.138,32.138H212.931
		c-7.681,0-14.906,2.991-20.345,8.421c-0.555,0.555-1.086,1.131-1.591,1.728h124.295c17.721,0,32.138,14.417,32.138,32.138
		c0,8.585-3.342,16.657-9.412,22.726C331.943,394.922,323.872,398.264,315.288,398.264z M184.223,350.902
		c-0.032,0.562-0.048,1.125-0.048,1.691c0,15.856,12.899,28.755,28.755,28.755h102.358c4.066,0,7.891-1.583,10.767-4.459
		c2.873-2.873,4.457-6.697,4.457-10.765c0-8.394-6.829-15.223-15.223-15.223H184.223z"/>
</g>
<path style="fill:#333333;" d="M261.373,445.754c-12.713,0-25.437-1.738-37.817-5.212c-29.578-8.306-54.999-25.685-73.515-50.258
	c-10.196-13.521-17.754-28.538-22.462-44.631c-7.703-26.184-7.534-53.897,0.493-80.132c8.645-28.233,25.707-52.575,49.343-70.393
	c29.715-22.411,66.382-31.904,103.247-26.737c36.862,5.17,69.505,24.387,91.913,54.11c22.411,29.716,31.906,66.383,26.736,103.247
	c-5.17,36.863-24.387,69.505-54.11,91.912c-13.948,10.521-29.478,18.228-46.154,22.906
	C286.733,444.024,274.058,445.754,261.373,445.754z M261.05,183.932c-26.413,0-51.994,8.518-73.452,24.702
	c-20.769,15.659-35.761,37.042-43.353,61.839c-7.054,23.057-7.205,47.409-0.435,70.419c4.135,14.136,10.775,27.324,19.738,39.21
	c16.27,21.59,38.6,36.859,64.581,44.154c21.739,6.102,44.684,6.109,66.344,0.024c0.001,0,0.002,0,0.004-0.001
	c14.637-4.107,28.277-10.877,40.537-20.125c26.117-19.688,43.001-48.367,47.544-80.756c4.542-32.389-3.8-64.604-23.492-90.713
	c-19.688-26.116-48.368-42.999-80.756-47.542C272.539,184.332,266.775,183.932,261.05,183.932z"/>
<g>
	<path style="fill:#FFFFFF;" d="M376.606,159.887c-0.124,0-0.249-0.002-0.374-0.008c-4.666-0.203-8.285-4.151-8.082-8.817
		c1.021-23.476-8.045-41.902-8.136-42.085c-2.09-4.178-0.396-9.258,3.782-11.347c4.18-2.09,9.259-0.396,11.348,3.782
		c0.454,0.909,11.115,22.577,9.907,50.384C384.851,156.338,381.107,159.887,376.606,159.887z"/>
	<path style="fill:#FFFFFF;" d="M323.372,64.486c-0.553,0-1.105-0.056-1.658-0.169c-0.531-0.101-1.071-0.271-1.579-0.485
		c-0.507-0.203-1.004-0.474-1.455-0.778c-0.462-0.304-0.902-0.654-1.286-1.049c-1.579-1.567-2.481-3.744-2.481-5.977
		c0-0.553,0.056-1.105,0.169-1.658c0.102-0.53,0.27-1.071,0.474-1.579c0.213-0.507,0.474-1.004,0.777-1.455
		c0.316-0.462,0.665-0.902,1.06-1.286c0.383-0.395,0.822-0.744,1.286-1.06c0.451-0.304,0.947-0.564,1.455-0.778
		c0.507-0.203,1.049-0.372,1.579-0.474c2.75-0.564,5.671,0.338,7.634,2.312c0.396,0.383,0.744,0.823,1.06,1.286
		c0.304,0.451,0.564,0.947,0.777,1.455c0.204,0.507,0.372,1.049,0.474,1.579c0.114,0.553,0.169,1.105,0.169,1.658
		c0,2.222-0.902,4.409-2.481,5.977C327.783,63.584,325.594,64.486,323.372,64.486z"/>
</g>
<g>
</g>
<g>
</g>
<g>
</g>
<g>
</g>
<g>
</g>
<g>
</g>
<g>
</g>
<g>
</g>
<g>
</g>
<g>
</g>
<g>
</g>
<g>
</g>
<g>
</g>
<g>
</g>
<g>
</g>
</svg>
