<?xml version="1.0" encoding="iso-8859-1"?>
<!-- Generator: Adobe Illustrator 19.0.0, SVG Export Plug-In . SVG Version: 6.00 Build 0)  -->
<svg version="1.1" id="Layer_1" xmlns="http://www.w3.org/2000/svg" xmlns:xlink="http://www.w3.org/1999/xlink" x="0px" y="0px"
	 viewBox="0 0 511.999 511.999" style="enable-background:new 0 0 511.999 511.999;" xml:space="preserve">
<polygon style="fill:#4D4D4D;" points="339.703,270.458 355.918,360.017 250.143,360.017 "/>
<g>
	<polygon style="fill:#F7B239;" points="436.509,213.687 405.049,237.796 388.707,221.454 372.353,205.1 396.462,173.64 
		416.491,193.669 	"/>
	<rect x="194.501" y="98.818" style="fill:#F7B239;" width="25.565" height="261.201"/>
	<rect x="220.067" y="98.818" style="fill:#F7B239;" width="25.565" height="261.201"/>
</g>
<polygon style="fill:#4D4D4D;" points="301.077,57.209 339.703,270.458 250.143,360.017 245.636,360.017 245.636,98.817 
	220.07,98.817 194.505,98.817 194.505,360.017 84.211,360.017 139.052,57.209 "/>
<g>
	<polygon style="fill:#F95428;" points="301.077,57.209 139.052,57.209 220.07,8.668 	"/>
	<polygon style="fill:#F95428;" points="220.07,360.017 245.636,360.017 250.143,360.017 355.918,360.017 381.876,503.331 
		58.264,503.331 84.211,360.017 194.505,360.017 	"/>
</g>
<g>
	<path style="fill:#FFFFFF;" d="M107.371,396.424c-0.554,0-1.131-0.058-1.687-0.173c-0.554-0.104-1.097-0.277-1.617-0.485
		c-0.532-0.22-1.03-0.485-1.502-0.797c-0.474-0.324-0.913-0.682-1.319-1.086c-0.393-0.393-0.763-0.844-1.075-1.318
		c-0.313-0.462-0.578-0.971-0.797-1.491c-0.218-0.52-0.381-1.075-0.497-1.63c-0.104-0.555-0.162-1.121-0.162-1.687
		c0-2.288,0.925-4.519,2.53-6.125c0.406-0.405,0.844-0.763,1.319-1.086c0.473-0.312,0.971-0.578,1.502-0.797
		c0.52-0.208,1.063-0.381,1.617-0.485c1.122-0.231,2.265-0.231,3.388,0c0.554,0.104,1.097,0.277,1.617,0.485
		c0.532,0.22,1.03,0.485,1.502,0.797c0.474,0.324,0.913,0.682,1.319,1.086c1.606,1.607,2.53,3.849,2.53,6.125
		c0,0.566-0.046,1.133-0.162,1.687c-0.116,0.555-0.277,1.11-0.497,1.63c-0.22,0.52-0.485,1.029-0.797,1.491
		c-0.312,0.474-0.682,0.925-1.075,1.318c-0.406,0.405-0.844,0.763-1.319,1.086c-0.473,0.312-0.971,0.578-1.502,0.797
		c-0.52,0.208-1.063,0.381-1.617,0.485C108.517,396.366,107.939,396.424,107.371,396.424z"/>
	<path style="fill:#FFFFFF;" d="M91.485,484.262c-0.512,0-1.033-0.046-1.554-0.141c-4.711-0.853-7.838-5.363-6.985-10.074
		l11.12-61.417c0.853-4.712,5.37-7.839,10.074-6.985c4.711,0.853,7.838,5.363,6.985,10.074l-11.12,61.417
		C99.246,481.326,95.596,484.262,91.485,484.262z"/>
	<path style="fill:#FFFFFF;" d="M216.707,44.23c-0.566,0-1.133-0.058-1.699-0.173c-0.544-0.104-1.098-0.277-1.618-0.485
		c-0.52-0.22-1.029-0.485-1.491-0.797c-0.485-0.324-0.925-0.682-1.318-1.086c-0.406-0.393-0.763-0.844-1.086-1.318
		c-0.312-0.462-0.578-0.971-0.797-1.491c-0.208-0.52-0.38-1.075-0.485-1.618c-0.116-0.566-0.172-1.133-0.172-1.699
		c0-2.288,0.925-4.519,2.543-6.126c0.393-0.405,0.832-0.763,1.318-1.086c0.462-0.312,0.971-0.578,1.491-0.786
		c0.52-0.22,1.075-0.393,1.618-0.497c1.121-0.231,2.277-0.231,3.397,0c0.543,0.104,1.098,0.277,1.618,0.497
		c0.519,0.208,1.029,0.474,1.491,0.786c0.473,0.324,0.925,0.682,1.318,1.086c1.618,1.607,2.543,3.837,2.543,6.126
		c0,0.566-0.058,1.133-0.173,1.699c-0.104,0.543-0.277,1.098-0.485,1.618c-0.218,0.52-0.485,1.029-0.809,1.491
		c-0.312,0.474-0.67,0.925-1.075,1.318C221.226,43.306,218.984,44.23,216.707,44.23z"/>
	<path style="fill:#FFFFFF;" d="M397.005,209.503c-0.566,0-1.133-0.058-1.699-0.173c-0.544-0.104-1.098-0.277-1.618-0.485
		c-0.52-0.22-1.029-0.485-1.491-0.797c-0.474-0.324-0.925-0.682-1.318-1.086c-1.618-1.607-2.543-3.849-2.543-6.126
		c0-2.288,0.925-4.519,2.543-6.126c0.393-0.405,0.843-0.763,1.318-1.086c0.462-0.312,0.971-0.578,1.491-0.797
		c0.52-0.208,1.075-0.381,1.618-0.485c1.121-0.231,2.277-0.231,3.386,0c0.554,0.104,1.11,0.277,1.63,0.485
		c0.519,0.22,1.029,0.485,1.491,0.797c0.473,0.324,0.925,0.682,1.318,1.086c1.618,1.606,2.543,3.837,2.543,6.126
		c0,2.277-0.925,4.519-2.543,6.126c-0.393,0.405-0.844,0.763-1.318,1.086c-0.462,0.312-0.972,0.578-1.491,0.797
		c-0.52,0.208-1.076,0.381-1.63,0.485C398.136,209.446,397.571,209.503,397.005,209.503z"/>
</g>
<path style="fill:#333333;" d="M459.867,150.292c-3.385-3.385-8.873-3.385-12.259,0l-31.12,31.119l-13.897-13.897
	c-1.765-1.766-4.201-2.68-6.7-2.521c-2.491,0.164-4.792,1.395-6.31,3.377l-24.108,31.459c-2.644,3.451-2.324,8.327,0.75,11.402
	l10.223,10.223l-31.168,31.168L309.61,55.666c-0.459-2.533-1.993-4.637-4.076-5.887L224.522,1.233c-2.743-1.643-6.167-1.643-8.91,0
	l-81.012,48.545c-2.084,1.251-3.618,3.355-4.076,5.887L49.733,501.787c-0.458,2.529,0.229,5.129,1.876,7.101
	c1.648,1.972,4.084,3.111,6.654,3.111h323.612c2.569,0,5.006-1.14,6.654-3.111c1.647-1.972,2.335-4.573,1.876-7.101L349.038,273.38
	l39.668-39.668l10.213,10.213c1.682,1.682,3.901,2.539,6.132,2.539c1.849,0,3.707-0.589,5.271-1.788l31.459-24.108
	c1.982-1.519,3.212-3.82,3.376-6.31c0.165-2.492-0.754-4.933-2.52-6.699l-13.89-13.89l31.12-31.12
	C463.252,159.164,463.252,153.676,459.867,150.292z M220.067,18.774l49.682,29.769h-99.364L220.067,18.774z M146.293,65.879h147.548
	l36.52,201.659l-76.06,76.06V98.818c0-4.787-3.88-8.668-8.668-8.668h-51.131c-4.788,0-8.668,3.881-8.668,8.668V351.35H94.594
	L146.293,65.879z M203.17,351.35V107.486h8.229V351.35H203.17z M228.735,107.486h8.229V351.35h-8.229V107.486z M68.641,494.664
	l22.815-125.977h257.225l22.815,125.977H68.641z M345.539,351.35h-74.473l63.055-63.055L345.539,351.35z M405.806,226.295
	l-21.951-21.952l13.471-17.578l26.058,26.058L405.806,226.295z"/>
<g>
</g>
<g>
</g>
<g>
</g>
<g>
</g>
<g>
</g>
<g>
</g>
<g>
</g>
<g>
</g>
<g>
</g>
<g>
</g>
<g>
</g>
<g>
</g>
<g>
</g>
<g>
</g>
<g>
</g>
</svg>
