<?xml version="1.0" encoding="iso-8859-1"?>
<!-- Generator: Adobe Illustrator 19.0.0, SVG Export Plug-In . SVG Version: 6.00 Build 0)  -->
<svg version="1.1" id="Layer_1" xmlns="http://www.w3.org/2000/svg" xmlns:xlink="http://www.w3.org/1999/xlink" x="0px" y="0px"
	 viewBox="0 0 512 512" style="enable-background:new 0 0 512 512;" xml:space="preserve">
<g>
	<polygon style="fill:#F2F2F2;" points="503.034,239.12 503.034,266.017 463.108,266.017 463.108,264.224 463.108,239.12 	"/>
	<polygon style="fill:#F2F2F2;" points="463.108,264.224 463.108,266.017 425.453,266.017 425.453,264.224 425.453,239.12 
		463.108,239.12 	"/>
	<polygon style="fill:#F2F2F2;" points="425.453,264.224 425.453,266.017 387.797,266.017 387.797,264.224 387.797,239.12 
		425.453,239.12 	"/>
	<polygon style="fill:#F2F2F2;" points="387.797,264.224 387.797,266.017 350.142,266.017 350.142,264.224 350.142,239.12 
		387.797,239.12 	"/>
	<polygon style="fill:#F2F2F2;" points="350.142,264.224 350.142,266.017 312.487,266.017 312.487,264.224 312.487,239.12 
		350.142,239.12 	"/>
	<polygon style="fill:#F2F2F2;" points="312.487,264.224 312.487,266.017 274.831,266.017 274.831,264.224 274.831,239.12 
		312.487,239.12 	"/>
	<polygon style="fill:#F2F2F2;" points="274.831,264.224 274.831,266.017 237.176,266.017 237.176,264.224 237.176,239.12 
		274.831,239.12 	"/>
	<polygon style="fill:#F2F2F2;" points="237.176,264.224 237.176,266.017 199.521,266.017 199.521,264.224 199.521,239.12 
		237.176,239.12 	"/>
	<polygon style="fill:#F2F2F2;" points="199.521,264.224 199.521,266.017 161.865,266.017 161.865,264.224 161.865,239.12 
		199.521,239.12 	"/>
	<polygon style="fill:#F2F2F2;" points="161.865,264.224 161.865,266.017 124.21,266.017 124.21,264.224 124.21,239.12 
		161.865,239.12 	"/>
	<polygon style="fill:#F2F2F2;" points="124.21,264.224 124.21,266.017 86.555,266.017 86.555,264.224 86.555,239.12 124.21,239.12 
			"/>
	<polygon style="fill:#F2F2F2;" points="86.555,264.224 86.555,266.017 48.899,266.017 48.899,264.224 48.899,239.12 86.555,239.12 
			"/>
	<polygon style="fill:#F2F2F2;" points="48.899,264.224 48.899,266.017 8.973,266.017 8.973,239.12 48.899,239.12 	"/>
	<polygon style="fill:#F2F2F2;" points="316.957,66.994 316.957,167.408 195.038,167.408 195.038,66.994 195.038,18.58 
		316.957,18.58 	"/>
</g>
<g>
	<polygon style="fill:#4D4D4D;" points="8.973,309.052 51.995,309.052 51.995,451.377 51.995,493.419 8.961,493.419 8.961,309.052 	
		"/>
	<polygon style="fill:#4D4D4D;" points="503.034,451.377 503.034,493.419 460,493.419 460,451.377 460,309.052 503.034,309.052 	"/>
	<rect x="51.995" y="309.049" style="fill:#4D4D4D;" width="408.004" height="142.325"/>
	<polygon style="fill:#4D4D4D;" points="503.034,266.017 503.034,309.052 460,309.052 51.995,309.052 8.973,309.052 8.973,266.017 
		48.899,266.017 86.555,266.017 124.21,266.017 161.865,266.017 199.521,266.017 237.176,266.017 274.831,266.017 312.487,266.017 
		350.142,266.017 387.797,266.017 425.453,266.017 463.108,266.017 	"/>
</g>
<rect x="51.995" y="309.049" style="opacity:0.47;fill:#333333;enable-background:new    ;" width="408.004" height="32.276"/>
<g>
	<polygon style="fill:#4D4D4D;" points="503.034,201.477 503.034,239.12 463.108,239.12 425.453,239.12 387.797,239.12 
		350.142,239.12 312.487,239.12 274.831,239.12 237.176,239.12 199.521,239.12 161.865,239.12 124.21,239.12 86.555,239.12 
		48.899,239.12 8.973,239.12 8.973,201.477 	"/>
	<polygon style="fill:#4D4D4D;" points="316.957,167.408 316.957,66.994 316.969,66.994 503.034,66.994 503.034,201.477 
		8.973,201.477 8.973,66.994 195.038,66.994 195.038,167.408 	"/>
</g>
<g>
	<path style="fill:#333333;" d="M511.998,66.992c0-4.951-4.013-8.966-8.966-8.966H325.929V18.582c0-4.951-4.013-8.966-8.966-8.966
		H195.038c-4.953,0-8.966,4.014-8.966,8.966v39.444H8.97c-4.953,0-8.966,4.014-8.966,8.966L0,493.418
		c0,4.951,4.013,8.966,8.966,8.966h43.033c4.953,0,8.966-4.014,8.966-8.966v-33.077h153.928l-2.151,6.334
		c-1.592,4.688,0.918,9.781,5.606,11.372c0.955,0.324,1.927,0.478,2.883,0.478c3.734,0,7.22-2.353,8.489-6.085l4.109-12.101h13.206
		v9.521c0,4.951,4.013,8.966,8.966,8.966c4.953,0,8.966-4.014,8.966-8.966v-9.521h13.207l4.109,12.1
		c1.267,3.733,4.754,6.086,8.489,6.086c0.956,0,1.928-0.154,2.883-0.478c4.688-1.592,7.199-6.684,5.606-11.372l-2.151-6.336h153.928
		v33.077c0,4.951,4.013,8.966,8.966,8.966h43.032c4.953,0,8.966-4.014,8.966-8.966L511.998,66.992z M17.936,300.087v-25.102h476.131
		v25.102L17.936,300.087L17.936,300.087z M77.586,248.091v8.964H57.861v-8.964H77.586z M95.517,248.091h19.724v8.964H95.517V248.091
		z M133.172,248.091h19.724v8.964h-19.724V248.091z M170.827,248.091h19.724v8.964h-19.724V248.091z M208.483,248.091h19.724v8.964
		h-19.724V248.091z M246.138,248.091h19.724v8.964h-19.724V248.091z M283.793,248.091h19.724v8.964h-19.724V248.091z
		 M321.449,248.091h19.724v8.964h-19.724V248.091z M359.104,248.091h19.724v8.964h-19.724V248.091z M396.759,248.091h19.724v8.964
		h-19.724V248.091z M434.415,248.091h19.724v8.964h-19.724V248.091z M472.07,248.091h21.995v8.964H472.07V248.091z M494.066,230.16
		H17.936v-19.723h476.131V230.16z M39.93,248.091v8.964H17.936v-8.964H39.93z M204.003,27.548h103.994v130.89H204.003V27.548z
		 M186.072,75.958v82.481h-10.959c-4.953,0-8.966,4.014-8.966,8.966c0,4.951,4.013,8.966,8.966,8.966h161.774
		c4.953,0,8.966-4.014,8.966-8.966c0-4.951-4.013-8.966-8.966-8.966h-10.958V75.958h168.136v116.549H17.935V75.958H186.072z
		 M43.033,484.452H17.931l0.005-166.435h25.098V484.452z M60.965,442.41V318.018h390.072V442.41H60.965z M468.968,484.452V318.018
		h25.099l0.002,166.435h-25.101V484.452z"/>
	<path style="fill:#333333;" d="M281.104,47.639h-50.207c-4.953,0-8.966,4.014-8.966,8.966s4.013,8.966,8.966,8.966h50.207
		c4.953,0,8.966-4.014,8.966-8.966S286.056,47.639,281.104,47.639z"/>
	<path style="fill:#333333;" d="M281.104,83.764h-50.207c-4.953,0-8.966,4.014-8.966,8.966c0,4.951,4.013,8.966,8.966,8.966h50.207
		c4.953,0,8.966-4.014,8.966-8.966C290.069,87.778,286.056,83.764,281.104,83.764z"/>
	<path style="fill:#333333;" d="M281.104,119.89h-50.207c-4.953,0-8.966,4.014-8.966,8.966c0,4.951,4.013,8.966,8.966,8.966h50.207
		c4.953,0,8.966-4.014,8.966-8.966C290.069,123.905,286.056,119.89,281.104,119.89z"/>
</g>
<g>
	<path style="fill:#FFFFFF;" d="M165.153,100.322H65.934c-4.953,0-8.966-4.014-8.966-8.966c0-4.951,4.013-8.966,8.966-8.966h99.219
		c4.953,0,8.966,4.014,8.966,8.966C174.118,96.307,170.105,100.322,165.153,100.322z"/>
	<path style="fill:#FFFFFF;" d="M36.049,100.322c-0.586,0-1.171-0.06-1.745-0.179c-0.574-0.108-1.148-0.287-1.686-0.514
		c-0.538-0.215-1.064-0.49-1.542-0.813c-0.49-0.335-0.956-0.705-1.363-1.124c-0.42-0.406-0.789-0.873-1.124-1.363
		c-0.323-0.478-0.598-1.004-0.825-1.542c-0.215-0.538-0.393-1.112-0.502-1.674c-0.12-0.586-0.178-1.172-0.178-1.757
		s0.06-1.172,0.178-1.757c0.109-0.562,0.287-1.136,0.502-1.674c0.227-0.538,0.503-1.064,0.825-1.542
		c0.335-0.49,0.705-0.956,1.124-1.363c0.406-0.418,0.871-0.789,1.363-1.124c0.478-0.323,1.004-0.598,1.542-0.813
		c0.538-0.227,1.112-0.406,1.686-0.514c2.905-0.586,6.001,0.371,8.081,2.451c0.418,0.406,0.789,0.873,1.124,1.363
		c0.323,0.478,0.598,1.004,0.824,1.542c0.215,0.538,0.394,1.112,0.502,1.674c0.121,0.586,0.179,1.172,0.179,1.757
		s-0.06,1.172-0.179,1.757c-0.108,0.562-0.287,1.136-0.502,1.674c-0.226,0.538-0.502,1.064-0.824,1.542
		c-0.335,0.49-0.706,0.956-1.124,1.363C40.723,99.365,38.416,100.322,36.049,100.322z"/>
	<path style="fill:#FFFFFF;" d="M474.763,100.322H365.981c-4.953,0-8.966-4.014-8.966-8.966c0-4.951,4.013-8.966,8.966-8.966
		h108.782c4.953,0,8.966,4.014,8.966,8.966C483.729,96.307,479.716,100.322,474.763,100.322z"/>
</g>
<g>
</g>
<g>
</g>
<g>
</g>
<g>
</g>
<g>
</g>
<g>
</g>
<g>
</g>
<g>
</g>
<g>
</g>
<g>
</g>
<g>
</g>
<g>
</g>
<g>
</g>
<g>
</g>
<g>
</g>
</svg>
