<?xml version="1.0" encoding="iso-8859-1"?>
<!-- Generator: Adobe Illustrator 19.0.0, SVG Export Plug-In . SVG Version: 6.00 Build 0)  -->
<svg version="1.1" id="Layer_1" xmlns="http://www.w3.org/2000/svg" xmlns:xlink="http://www.w3.org/1999/xlink" x="0px" y="0px"
	 viewBox="0 0 512 512" style="enable-background:new 0 0 512 512;" xml:space="preserve">
<path style="fill:#4D4D4D;" d="M155.84,394.664l-48.933,32.492l-40.982,40.982c-3.935-3.316-7.767-6.849-11.485-10.567
	c-3.717-3.717-7.251-7.561-10.578-11.496l40.982-40.982l32.492-48.933L155.84,394.664z"/>
<path style="fill:#CC582F;" d="M502.74,35.052c0.872,0.86,0.872,2.272,0,3.144l-11.117,11.117l-11.094,11.106
	c-0.872,0.86-2.283,0.86-3.155,0l-25.792-25.803c-0.872-0.86-0.872-2.272,0-3.144l11.106-11.106l11.117-11.117
	c0.86-0.86,2.272-0.86,3.144,0L502.74,35.052z"/>
<polygon style="fill:#4D4D4D;" points="334.132,206.885 241.062,306.436 205.565,270.927 305.117,177.858 454.232,38.46 
	473.541,57.769 "/>
<path style="fill:#CC582F;" d="M334.132,206.885c23.164,32.824,27.386,73.818,4.394,96.81
	c-10.096,10.096-19.16,16.441-28.293,20.686c-4.257,2.432-11.966,8.157-16.257,19.126c-1.491,3.809-6.838,3.855-8.433,0.092
	c-0.287-0.665-0.47-1.124-0.574-1.228c-0.918-2.191-2.272-3.947-4.084-5.186c-9.546-6.517-28.178,4.222-41.636,23.956
	c-13.435,19.745-16.602,41.016-7.067,47.51c1.124,0.78,4.807,2.432,8.421,3.981c2.558,1.101,2.949,4.337,1.205,6.081
	c-0.344,0.344-0.78,0.631-1.285,0.826c-10.257,4.119-18.334,12.494-21.741,23.015c-5.702,17.474-14.077,32.618-24.185,42.726
	c-31.735,31.746-85.865,19.137-128.671-17.141l40.982-40.982l48.933-32.492l-38.504-38.504l-32.492,48.933l-40.982,40.982
	C7.585,403.269-5.024,349.139,26.711,317.405c10.119-10.119,25.264-18.483,42.76-24.162c5.564-1.813,10.532-4.933,14.582-8.983
	c3.614-3.614,6.471-7.951,8.41-12.781c1.239-3.098,5.587-3.132,6.907-0.092c1.56,3.637,3.212,7.32,3.97,8.433
	c6.517,9.546,27.788,6.379,47.51-7.067c19.757-13.446,30.484-32.102,23.979-41.636c-1.239-1.813-3.006-3.167-5.197-4.073
	c-0.092-0.092-0.551-0.287-1.228-0.597c-3.763-1.583-3.717-6.93,0.08-8.421c11.003-4.268,16.705-12.001,19.149-16.246
	c4.222-9.144,10.578-18.208,20.674-28.304c23.004-23.004,64.008-18.804,96.81,4.383l-99.552,93.07l35.498,35.509L334.132,206.885z"
	/>
<g>
	<path style="fill:#FFFFFF;" d="M48.067,412.37c-3.06,0-6.022-1.636-7.578-4.517c-17.01-31.489-17.156-60.297-0.392-77.061
		c1.579-1.578,3.387-3.148,5.376-4.667c3.779-2.885,9.176-2.162,12.062,1.614c2.885,3.777,2.163,9.177-1.614,12.062
		c-1.385,1.058-2.612,2.12-3.653,3.16c-11.088,11.088-9.83,32.289,3.364,56.714c2.259,4.181,0.7,9.402-3.481,11.66
		C50.849,412.036,49.447,412.37,48.067,412.37z"/>
	<path style="fill:#FFFFFF;" d="M72.533,329.945c-3.903,0-7.383-2.735-8.337-6.512c-0.834-3.301,0.426-6.901,3.153-8.948
		c6.122-4.594,14.948,0.795,13.663,8.331C80.319,326.887,76.651,329.945,72.533,329.945z"/>
	<path style="fill:#FFFFFF;" d="M211.487,224.123c-1.456,0-2.931-0.369-4.283-1.147c-4.119-2.37-5.537-7.631-3.168-11.75l0.426-0.74
		l0.359-0.774c3.498-7.576,8.861-14.838,16.871-22.851c6.412-6.411,15.657-9.8,26.738-9.8c3.251,0,6.657,0.298,10.119,0.885
		c4.686,0.795,7.84,5.237,7.046,9.923c-0.794,4.684-5.24,7.838-9.922,7.044c-2.515-0.427-4.952-0.644-7.243-0.644
		c-4.475,0-10.636,0.826-14.569,4.759c-6.53,6.533-10.795,12.221-13.419,17.901l-0.521,1.127c-0.107,0.232-0.224,0.458-0.351,0.679
		l-0.616,1.072C217.362,222.574,214.465,224.123,211.487,224.123z"/>
</g>
<g>
	<path style="fill:#333333;" d="M512,36.623c0-2.892-1.127-5.613-3.172-7.658L483.032,3.168c-4.222-4.221-11.092-4.221-15.317,0.001
		l-5.024,5.024l-0.252-0.252c-3.357-3.364-8.806-3.368-12.168-0.011c-3.364,3.357-3.37,8.806-0.013,12.169l0.264,0.265l-5.029,5.029
		c-3.151,3.153-3.944,7.783-2.388,11.684l-5.832,5.453l-1.145-1.145c-3.362-3.36-8.809-3.36-12.169,0
		c-3.36,3.36-3.36,8.808,0,12.168l0.737,0.737L304.204,166.934c-16.085-10.071-33.83-16.128-50.634-17.175
		c-20.482-1.277-38.704,4.985-51.349,17.628c-10.245,10.243-17.316,19.916-22.225,30.401c-1.964,3.308-6.364,9.006-14.653,12.227
		c-4.997,1.961-8.27,6.697-8.336,12.065c-0.067,5.342,3.048,10.139,7.946,12.253l0.464,0.208c0.295,0.166,0.6,0.316,0.916,0.445
		c0.995,0.413,1.29,0.844,1.381,0.98c0.885,1.298,0.483,5.045-2.489,10.208c-3.837,6.666-10.84,13.759-19.222,19.465
		c-8.363,5.706-17.521,9.626-25.125,10.756c-5.792,0.862-9.408-0.091-10.375-1.358c-0.179-0.32-1.023-1.899-3.234-7.051
		c-1.96-4.547-6.397-7.461-11.34-7.461c-0.055,0-0.11,0-0.164,0.001c-5.002,0.065-9.437,3.107-11.295,7.748
		c-1.509,3.765-3.698,7.098-6.506,9.907c-3.145,3.145-7.003,5.522-11.155,6.872c-19.29,6.262-35.258,15.344-46.179,26.264
		c-18.372,18.373-24.765,44.835-18,74.512c5.578,24.467,19.611,49.614,39.785,71.593L2.997,496.839c-3.36,3.36-3.36,8.808,0,12.168
		c1.681,1.681,3.884,2.521,6.085,2.521s4.405-0.84,6.085-2.521l39.417-39.417c21.974,20.172,47.12,34.205,71.589,39.779
		c7.718,1.759,15.216,2.627,22.412,2.627c20.478,0,38.504-7.036,52.097-20.631c10.904-10.903,19.991-26.862,26.283-46.164
		c2.595-8.006,8.703-14.448,16.751-17.672c1.597-0.637,3.006-1.561,4.183-2.74c2.877-2.877,4.135-7.005,3.366-11.044
		c-0.766-4.016-3.472-7.385-7.269-9.028c-5.211-2.229-6.716-3.042-7.02-3.216c-3.419-2.514-2.443-18.133,9.39-35.513
		c5.709-8.376,12.804-15.38,19.468-19.214c5.163-2.972,8.912-3.372,10.203-2.492c0.142,0.098,0.576,0.394,0.988,1.388
		c0.13,0.312,0.278,0.616,0.443,0.909l0.189,0.431c2.112,4.92,6.909,8.048,12.274,7.979c5.364-0.07,10.097-3.343,12.064-8.352
		c3.255-8.334,8.943-12.693,12.227-14.619c10.496-4.937,20.165-12.015,30.393-22.245c12.64-12.639,18.896-30.874,17.617-51.344
		c-1.05-16.801-7.103-34.547-17.165-50.639L450.904,94.583l1.092,1.092c1.681,1.681,3.884,2.521,6.085,2.521s4.405-0.84,6.085-2.521
		c3.36-3.36,3.36-8.808,0-12.168l-1.503-1.502l12.261-13.115c1.291,0.515,2.659,0.774,4.029,0.774c2.773,0,5.547-1.056,7.659-3.167
		l5.019-5.019l0.263,0.263c1.681,1.681,3.883,2.521,6.085,2.521c2.202,0,4.405-0.84,6.084-2.521
		c3.362-3.36,3.362-8.809,0.001-12.169l-0.263-0.264l5.029-5.029C510.874,42.237,512,39.516,512,36.623z M492.148,36.623
		L478.951,49.82l-16.774-16.774l13.196-13.197L492.148,36.623z M240.856,294.057l-22.916-22.916l236.09-220.717l7.546,7.546
		L240.856,294.057z M108.01,416.096l-12.104-12.104l22.784-34.313l23.633,23.632L108.01,416.096z M84.843,417.268l9.892,9.892
		l-29.163,29.163c-1.699-1.575-3.386-3.178-5.042-4.835c-1.662-1.662-3.269-3.354-4.849-5.057L84.843,417.268z M332.441,297.609
		c-8.876,8.877-17.086,14.906-25.835,18.974c-0.215,0.1-0.423,0.208-0.629,0.325c-4.215,2.399-11.257,7.435-16.585,16.417
		c-1.073-1.232-2.292-2.318-3.654-3.249c-7.493-5.112-17.616-4.478-28.495,1.786c-8.964,5.159-17.878,13.838-25.107,24.441
		c-16.628,24.426-18.693,49.989-4.828,59.445c0.263,0.179,0.571,0.379,0.98,0.615c-8.321,5.673-14.569,13.886-17.693,23.52
		c-5.374,16.486-13.217,30.448-22.085,39.316c-17.993,17.992-41.757,17.213-58.516,13.394c-17.13-3.904-34.768-12.64-51.207-25.149
		l33.592-33.592l48.223-32.021c2.15-1.427,3.546-3.745,3.802-6.313s-0.653-5.116-2.477-6.94l-38.505-38.504
		c-1.825-1.825-4.376-2.733-6.941-2.477c-2.568,0.257-4.885,1.652-6.312,3.802l-32.02,48.223l-33.591,33.591
		c-12.509-16.441-21.246-34.078-25.15-51.208c-3.822-16.766-4.602-40.526,13.391-58.518c8.878-8.879,22.843-16.714,39.327-22.066
		c6.724-2.188,12.952-6.016,18.006-11.072c2.047-2.047,3.885-4.265,5.505-6.638c0.229,0.398,0.422,0.7,0.598,0.955
		c5.11,7.491,14.761,10.599,27.174,8.753c10.235-1.521,21.704-6.339,32.286-13.558c10.601-7.218,19.284-16.132,24.446-25.101
		c6.263-10.881,6.9-20.999,1.788-28.497c-0.93-1.361-2.016-2.58-3.25-3.654c8.931-5.298,13.987-12.324,16.411-16.537
		c0.127-0.221,0.246-0.449,0.352-0.68c4.039-8.736,10.061-16.945,18.951-25.835c16.968-16.969,48.078-16.759,76.748-0.407
		l-91.452,85.499c-1.703,1.592-2.688,3.809-2.727,6.142c-0.039,2.332,0.87,4.58,2.518,6.229l35.501,35.501
		c1.615,1.615,3.804,2.521,6.085,2.521c0.048,0,0.096,0,0.145-0.001c2.332-0.039,4.548-1.023,6.142-2.727l85.494-91.447
		C349.182,249.546,349.395,280.656,332.441,297.609z"/>
	<path style="fill:#333333;" d="M221.199,324.968c-4.026-2.526-9.336-1.311-11.863,2.713c-2.526,4.025-1.313,9.336,2.713,11.863
		c0.131,0.083,0.17,0.255,0.088,0.384l-25.663,40.884c-2.483,3.956-3.277,8.644-2.235,13.197c1.042,4.554,3.795,8.429,7.751,10.912
		c1.422,0.893,3.004,1.318,4.566,1.318c2.863,0,5.662-1.428,7.296-4.032c2.526-4.025,1.311-9.336-2.713-11.862
		c-0.034-0.022-0.099-0.062-0.124-0.174c-0.025-0.112,0.015-0.177,0.036-0.21l25.663-40.884
		C231.841,340.91,229.367,330.094,221.199,324.968z"/>
	<path style="fill:#333333;" d="M187.034,290.802c-2.484-3.957-6.36-6.709-10.913-7.751c-4.556-1.042-9.242-0.248-13.197,2.236
		l-40.884,25.663c-0.033,0.022-0.1,0.062-0.211,0.036c-0.112-0.025-0.153-0.089-0.173-0.124c-2.526-4.026-7.837-5.241-11.863-2.713
		c-4.025,2.526-5.24,7.837-2.713,11.862c2.484,3.957,6.36,6.709,10.913,7.751c1.308,0.298,2.625,0.446,3.934,0.446
		c3.25,0,6.442-0.912,9.263-2.682l40.884-25.663c0.033-0.022,0.101-0.061,0.211-0.036c0.112,0.025,0.153,0.09,0.173,0.124
		c2.528,4.026,7.837,5.24,11.863,2.713C188.346,300.139,189.561,294.828,187.034,290.802z"/>
</g>
<g>
</g>
<g>
</g>
<g>
</g>
<g>
</g>
<g>
</g>
<g>
</g>
<g>
</g>
<g>
</g>
<g>
</g>
<g>
</g>
<g>
</g>
<g>
</g>
<g>
</g>
<g>
</g>
<g>
</g>
</svg>
