<?xml version="1.0" encoding="iso-8859-1"?>
<!-- Generator: Adobe Illustrator 19.0.0, SVG Export Plug-In . SVG Version: 6.00 Build 0)  -->
<svg version="1.1" id="Layer_1" xmlns="http://www.w3.org/2000/svg" xmlns:xlink="http://www.w3.org/1999/xlink" x="0px" y="0px"
	 viewBox="0 0 511.999 511.999" style="enable-background:new 0 0 511.999 511.999;" xml:space="preserve">
<path style="fill:#F7B239;" d="M499.033,58.097c1.488,4.089,0.48,8.669-2.601,11.739l-3.96,3.96L473.26,93.021l-19.225,19.213
	l-4.581,4.592c-5.577,5.565-14.597,5.565-20.174,0L395.223,82.77c-5.565-5.577-5.565-14.609,0-20.174l4.592-4.581l19.213-19.225
	l19.225-19.225l3.96-3.96c3.069-3.069,7.65-4.089,11.739-2.601l28.152,10.263c3.105,1.125,5.541,3.573,6.678,6.678L499.033,58.097z"
	/>
<path style="fill:#E0B08C;" d="M280.342,191.969L394.883,82.43l0.34,0.34l34.057,34.057l0.328,0.328L320.069,231.696l-56.457,59.034
	H263.6c-0.269-10.731-4.499-21.392-12.7-29.581c-8.201-8.189-18.862-12.43-29.593-12.7v-0.023L280.342,191.969z"/>
<path style="fill:#F7B239;" d="M320.069,231.696c23.103,37.501,22.013,82.969-5.577,110.547
	c-7.966,7.978-17.433,13.73-27.766,17.327c-26.77,9.349-45.842,33.213-48.959,61.4c-2.343,21.041-10.919,40.524-26.02,55.625
	c-40.617,40.617-113.019,34.092-161.708-14.597C1.363,413.32-5.163,340.907,35.454,300.301
	c15.101-15.113,34.584-23.677,55.625-26.02c28.187-3.105,52.063-22.177,61.4-48.959c3.597-10.333,9.361-19.787,17.327-27.754
	c27.59-27.59,73.046-28.679,110.535-5.6l-59.034,56.457v0.023c-11.469-0.293-23.044,3.948-31.796,12.7
	c-16.952,16.952-16.952,44.437,0,61.389c16.952,16.964,44.437,16.964,61.389,0c8.763-8.763,12.992-20.326,12.7-31.807h0.012
	L320.069,231.696z"/>
<path style="fill:#4D4D4D;" d="M263.6,290.73c0.293,11.481-3.936,23.044-12.7,31.807c-16.952,16.964-44.437,16.964-61.389,0
	c-16.952-16.952-16.952-44.437,0-61.389c8.751-8.751,20.326-12.992,31.796-12.699c10.731,0.269,21.392,4.51,29.593,12.699
	C259.102,269.338,263.331,279.999,263.6,290.73z"/>
<g>
	<path style="fill:#FFFFFF;" d="M42.857,409.108c-3.587,0-6.954-2.212-8.255-5.777c-3.224-8.838-5.273-17.904-6.089-26.945
		c-2.231-24.734,5.092-46.904,20.619-62.426c11.442-11.452,26.677-18.529,44.053-20.465c9.256-1.019,18.292-3.443,26.868-7.205
		c4.444-1.949,9.627,0.073,11.576,4.516c1.949,4.444-0.073,9.627-4.516,11.576c-10.209,4.479-20.972,7.364-31.992,8.578
		c-13.357,1.488-24.966,6.821-33.56,15.423c-11.779,11.775-17.298,28.971-15.544,48.422c0.678,7.524,2.392,15.094,5.095,22.501
		c1.662,4.558-0.684,9.603-5.244,11.266C44.874,408.936,43.857,409.108,42.857,409.108z"/>
	<path style="fill:#FFFFFF;" d="M146.293,289.405c-7.751,0-11.681-9.814-6.052-15.154c2.725-2.586,6.879-3.139,10.194-1.382
		c3.317,1.757,5.148,5.558,4.516,9.247C154.239,286.271,150.509,289.405,146.293,289.405z"/>
	<path style="fill:#FFFFFF;" d="M183.418,234.122c-1.585,0-3.189-0.429-4.635-1.329c-4.12-2.564-5.381-7.983-2.818-12.103
		c2.13-3.421,4.656-6.602,7.508-9.456c9.144-9.143,21.443-14.651,35.569-15.927c4.828-0.435,9.105,3.127,9.542,7.959
		c0.437,4.833-3.127,9.105-7.961,9.542c-9.977,0.902-18.526,4.655-24.724,10.852c-1.906,1.906-3.593,4.03-5.014,6.315
		C189.222,232.653,186.352,234.122,183.418,234.122z"/>
	<path style="fill:#FFFFFF;" d="M419.626,81.211c-2.248,0-4.498-0.858-6.213-2.574c-3.431-3.431-3.431-8.994,0-12.425l34.76-34.76
		c3.431-3.431,8.995-3.431,12.425,0c3.431,3.431,3.431,8.994,0,12.425l-34.76,34.76C424.124,80.353,421.875,81.211,419.626,81.211z"
		/>
</g>
<g>
	<path style="fill:#333333;" d="M77.068,378.355c-3.431-3.431-8.995-3.431-12.425,0c-3.431,3.431-3.431,8.994,0,12.425
		l56.623,56.622c1.715,1.716,3.965,2.574,6.213,2.574s4.498-0.858,6.213-2.574c3.431-3.431,3.431-8.995,0-12.425L77.068,378.355z"/>
	<path style="fill:#333333;" d="M509.426,78.318l-4.712-4.712c3.817-5.305,4.856-12.264,2.579-18.515l-10.255-28.153
		c-2.024-5.557-6.372-9.905-11.93-11.929L456.956,4.753c-6.25-2.277-13.21-1.237-18.515,2.58l-4.712-4.712
		c-3.431-3.431-8.995-3.431-12.425,0c-3.431,3.431-3.431,8.995,0,12.427l4.523,4.523l-6.795,6.795l-4.523-4.523
		c-3.431-3.431-8.995-3.431-12.425,0c-3.431,3.431-3.431,8.994,0,12.425l4.523,4.523l-6.795,6.795l-4.523-4.523
		c-3.43-3.431-8.994-3.431-12.425,0s-3.431,8.995,0,12.427l4.605,4.605c-5.325,6.502-6.538,15.252-3.674,22.796L279.03,181.079
		c-40.535-22.099-86.75-18.406-115.432,10.276c-8.746,8.746-15.278,19.199-19.415,31.072c-8.186,23.479-29.41,40.406-54.077,43.127
		c-23.794,2.641-44.841,12.507-60.864,28.532c-21.521,21.515-31.723,51.643-28.73,84.828c2.941,32.591,18.325,64.306,43.32,89.301
		c28.874,28.874,65.77,43.741,100.419,43.738c27.789-0.002,54.136-9.569,73.712-29.146c16.024-16.024,25.891-37.071,28.532-60.867
		c2.73-24.654,19.658-45.88,43.124-54.074c11.895-4.145,22.354-10.673,31.085-19.404c28.683-28.683,32.372-74.901,10.265-115.443
		l100.188-104.765c2.638,1.002,5.421,1.522,8.208,1.522c5.181,0,10.36-1.733,14.588-5.195l4.605,4.605
		c1.715,1.716,3.964,2.574,6.213,2.574s4.498-0.858,6.213-2.574c3.431-3.431,3.431-8.994,0-12.425l-4.523-4.523l6.795-6.795
		l4.523,4.523c1.715,1.716,3.965,2.574,6.213,2.574c2.248,0,4.498-0.858,6.213-2.574c3.431-3.431,3.431-8.995,0-12.427l-4.523-4.523
		l6.794-6.794l4.523,4.523c1.715,1.715,3.965,2.574,6.213,2.574c2.248,0,4.498-0.858,6.213-2.574
		C512.858,87.312,512.858,81.748,509.426,78.318z M308.278,336.035c-6.844,6.844-15.067,11.97-24.447,15.237
		c-29.823,10.414-51.333,37.393-54.802,68.731c-2.197,19.785-10.319,37.205-23.492,50.377
		c-16.194,16.194-38.054,24.08-61.314,24.079c-30.076-0.002-62.489-13.194-87.965-38.671
		c-22.091-22.091-35.672-49.953-38.244-78.453c-2.516-27.904,5.882-53.057,23.651-70.826c13.172-13.173,30.592-21.295,50.372-23.491
		c31.354-3.457,58.335-24.971,68.739-54.809c3.259-9.354,8.388-17.573,15.246-24.43c21.931-21.931,57.211-25.333,89.571-9.854
		l-47.874,45.783c-13.01,0.606-25.155,5.957-34.426,15.229c-20.353,20.353-20.353,53.469,0,73.821
		c9.86,9.86,22.968,15.289,36.911,15.289c13.943,0,27.051-5.43,36.911-15.289c9.274-9.274,14.626-21.422,15.229-34.435l45.779-47.87
		C333.611,278.816,330.211,314.102,308.278,336.035z M254.831,291.845c0,9.249-3.601,17.944-10.142,24.485
		c-6.541,6.541-15.236,10.142-24.484,10.142c-9.249,0-17.945-3.601-24.485-10.142c-13.501-13.501-13.501-35.468,0-48.969
		c6.541-6.541,15.236-10.142,24.485-10.142c9.249,0,17.945,3.601,24.484,10.142l0,0C251.23,273.899,254.831,282.596,254.831,291.845
		z M268.76,272.642c-2.59-6.555-6.51-12.574-11.644-17.709c-5.135-5.136-11.158-9.056-17.715-11.646l155.35-148.563l22.571,22.571
		L268.76,272.642z M435.495,110.609l-34.058-34.058c-2.135-2.135-2.135-5.607,0-7.742l46.987-46.987
		c0.457-0.456,1.073-0.701,1.7-0.701c0.274,0,0.551,0.047,0.817,0.144l28.152,10.255c0.668,0.244,1.19,0.765,1.433,1.433
		l10.254,28.153c0.318,0.872,0.098,1.859-0.558,2.516l-46.987,46.987C441.103,112.742,437.631,112.742,435.495,110.609z"/>
</g>
<g>
</g>
<g>
</g>
<g>
</g>
<g>
</g>
<g>
</g>
<g>
</g>
<g>
</g>
<g>
</g>
<g>
</g>
<g>
</g>
<g>
</g>
<g>
</g>
<g>
</g>
<g>
</g>
<g>
</g>
</svg>
