<?xml version="1.0" encoding="iso-8859-1"?>
<!-- Generator: Adobe Illustrator 19.0.0, SVG Export Plug-In . SVG Version: 6.00 Build 0)  -->
<svg version="1.1" id="Layer_1" xmlns="http://www.w3.org/2000/svg" xmlns:xlink="http://www.w3.org/1999/xlink" x="0px" y="0px"
	 viewBox="0 0 512.001 512.001" style="enable-background:new 0 0 512.001 512.001;" xml:space="preserve">
<g>
	<polygon style="fill:#999999;" points="165.372,191.708 165.372,191.79 48.904,191.79 48.904,124.733 165.372,124.733 	"/>
	<polygon style="fill:#999999;" points="463.092,124.733 463.092,191.79 165.372,191.79 165.372,191.708 165.372,124.733 	"/>
</g>
<polygon style="fill:#4D4D4D;" points="463.092,191.79 463.092,410.654 48.904,410.654 48.904,191.79 165.372,191.79 "/>
<path style="fill:#3A88D6;" d="M503.173,112.922v309.544c0,15.623-12.658,28.282-28.27,28.282h-24.329H61.422H37.093
	c-15.611,0-28.27-12.658-28.27-28.282V112.922c0-15.611,12.658-28.27,28.27-28.27h140.09h157.642h140.078
	C490.515,84.652,503.173,97.311,503.173,112.922z M463.092,410.654V191.79v-67.057H165.372H48.904v67.057v218.864H463.092z"/>
<g>
	<polygon style="fill:#999999;" points="103.479,478.17 61.422,479.111 61.422,450.747 103.479,451.688 	"/>
	<polygon style="fill:#999999;" points="450.575,479.111 408.529,478.17 408.529,451.688 450.575,450.747 	"/>
</g>
<path style="fill:#4D4D4D;" d="M334.825,39.971v18.294H177.183V39.971c0-3.918,3.165-7.082,7.07-7.082h143.49
	C331.649,32.889,334.825,36.054,334.825,39.971z"/>
<g>
	<path style="fill:#333333;" d="M474.906,75.83H343.644V39.966c0-8.768-7.133-15.901-15.901-15.901H184.256
		c-8.768,0-15.901,7.133-15.901,15.901v35.862H37.095C16.641,75.83,0,92.471,0,112.925V422.47c0,20.455,16.641,37.095,37.095,37.095
		h15.509v19.546c0,2.374,0.956,4.649,2.655,6.309c1.651,1.614,3.865,2.514,6.168,2.514c0.066,0,0.132-0.001,0.199-0.002
		l42.049-0.946c4.794-0.108,8.624-4.026,8.624-8.821v-18.599h287.401v18.599c0,4.795,3.831,8.713,8.624,8.821l42.049,0.946
		c0.067,0.001,0.133,0.002,0.199,0.002c2.303,0,4.518-0.901,6.168-2.514c1.698-1.66,2.655-3.934,2.655-6.309v-19.546h15.509
		c20.455,0,37.095-16.641,37.095-37.095V112.925C512,92.471,495.359,75.83,474.906,75.83z M94.654,469.538l-24.403,0.549v-10.321
		l24.403,0.549V469.538z M441.75,470.088l-24.403-0.549v-9.223l24.403-0.549V470.088z M325.997,41.713v7.729H186.001v-7.729H325.997
		z M186.002,67.089h139.996v8.741H186.002L186.002,67.089L186.002,67.089z M494.353,422.47c0,10.724-8.724,19.449-19.449,19.449
		H37.095c-10.724,0-19.449-8.724-19.449-19.449V112.925c0-10.724,8.724-19.449,19.449-19.449h437.81
		c10.724,0,19.449,8.724,19.449,19.449V422.47H494.353z"/>
	<path style="fill:#333333;" d="M463.094,115.912H48.906c-4.873,0-8.823,3.95-8.823,8.823v285.923c0,4.873,3.95,8.823,8.823,8.823
		h414.189c4.873,0,8.823-3.95,8.823-8.823V124.736C471.918,119.863,467.967,115.912,463.094,115.912z M454.271,182.969H174.196
		v-49.41h280.075V182.969z M156.549,133.559v49.41H57.729v-49.41H156.549z M57.729,401.837V200.616h396.542v201.22H57.729V401.837z"
		/>
	<path style="fill:#333333;" d="M202.876,159.944c1.628,7.807,12.358,9.633,16.325,2.631c1.811-3.195,1.422-7.28-0.96-10.084
		c-2.333-2.747-6.225-3.769-9.613-2.589C204.499,151.34,202.075,155.663,202.876,159.944
		C202.994,160.509,202.77,159.379,202.876,159.944z"/>
	<path style="fill:#333333;" d="M242.44,161.591c2.915,7.059,13.163,7.121,16.224,0.16c1.568-3.567,0.539-7.881-2.48-10.35
		c-2.765-2.261-6.685-2.612-9.819-0.921C242.474,152.58,240.715,157.507,242.44,161.591
		C242.663,162.132,242.216,161.062,242.44,161.591z"/>
	<path style="fill:#333333;" d="M281.497,161.603c1.548,3.667,5.48,5.957,9.444,5.348c3.66-0.564,6.615-3.38,7.355-7.007
		c0.706-3.462-0.821-7.1-3.753-9.059c-3.486-2.329-8.157-1.806-11.141,1.094C280.935,154.517,280.139,158.311,281.497,161.603
		C281.721,162.132,281.274,161.062,281.497,161.603z"/>
	<path style="fill:#333333;" d="M323.802,165.556c5.71,3.759,13.578-0.281,13.725-7.147c0.168-7.852-9.515-11.818-15.067-6.429
		C318.672,155.883,319.189,162.518,323.802,165.556z"/>
	<path style="fill:#333333;" d="M359.613,161.603c1.574,3.728,5.59,6.005,9.604,5.323c3.589-0.609,6.467-3.421,7.194-6.983
		c0.76-3.726-1.089-7.659-4.428-9.463c-3.435-1.856-7.673-1.212-10.464,1.499C359.05,154.517,358.254,158.312,359.613,161.603
		C359.836,162.132,359.389,161.062,359.613,161.603z"/>
	<path style="fill:#333333;" d="M398.67,161.603c1.523,3.609,5.334,5.874,9.244,5.377c3.74-0.475,6.802-3.348,7.555-7.036
		c0.787-3.856-1.222-7.902-4.748-9.628c-3.392-1.66-7.449-0.955-10.146,1.663C398.112,154.518,397.308,158.312,398.67,161.603
		C398.894,162.132,398.446,161.062,398.67,161.603z"/>
	<path style="fill:#333333;" d="M89.182,167.045h38.822c4.873,0,8.823-3.95,8.823-8.823c0-4.873-3.95-8.823-8.823-8.823H89.182
		c-4.873,0-8.823,3.95-8.823,8.823C80.359,163.095,84.309,167.045,89.182,167.045z"/>
	<path style="fill:#333333;" d="M432.465,219.355H79.534c-4.873,0-8.823,3.95-8.823,8.823c0,4.873,3.95,8.823,8.823,8.823h352.931
		c4.873,0,8.823-3.95,8.823-8.823C441.288,223.306,437.339,219.355,432.465,219.355z"/>
	<path style="fill:#333333;" d="M432.465,255.237h-54.116c-4.873,0-8.823,3.95-8.823,8.823c0,4.873,3.95,8.823,8.823,8.823h54.116
		c4.873,0,8.823-3.95,8.823-8.823C441.288,259.187,437.339,255.237,432.465,255.237z"/>
	<path style="fill:#333333;" d="M79.534,272.883h259.992c4.873,0,8.823-3.95,8.823-8.823c0-4.873-3.95-8.823-8.823-8.823H79.534
		c-4.873,0-8.823,3.95-8.823,8.823C70.711,268.933,74.661,272.883,79.534,272.883z"/>
	<path style="fill:#333333;" d="M432.465,291.118H79.534c-4.873,0-8.823,3.95-8.823,8.823c0,4.873,3.95,8.823,8.823,8.823h352.931
		c4.873,0,8.823-3.95,8.823-8.823C441.288,295.068,437.339,291.118,432.465,291.118z"/>
	<path style="fill:#333333;" d="M432.465,326.999H201.883c-4.873,0-8.823,3.951-8.823,8.823c0,4.873,3.95,8.823,8.823,8.823h230.581
		c4.873,0,8.823-3.95,8.823-8.823C441.288,330.95,437.339,326.999,432.465,326.999z"/>
	<path style="fill:#333333;" d="M79.534,344.646h83.527c4.873,0,8.823-3.95,8.823-8.823c0-4.873-3.95-8.823-8.823-8.823H79.534
		c-4.873,0-8.823,3.951-8.823,8.823C70.711,340.695,74.661,344.646,79.534,344.646z"/>
	<path style="fill:#333333;" d="M432.465,362.88h-21.176c-4.873,0-8.823,3.95-8.823,8.823s3.95,8.823,8.823,8.823h21.176
		c4.873,0,8.823-3.95,8.823-8.823S437.339,362.88,432.465,362.88z"/>
	<path style="fill:#333333;" d="M381.879,362.88H79.535c-4.873,0-8.823,3.95-8.823,8.823s3.95,8.823,8.823,8.823h302.344
		c4.873,0,8.823-3.95,8.823-8.823S386.752,362.88,381.879,362.88z"/>
</g>
<g>
	<path style="fill:#FFFFFF;" d="M449.492,125.227H252.84c-4.873,0-8.823-3.95-8.823-8.823s3.95-8.823,8.823-8.823h196.653
		c4.873,0,8.823,3.95,8.823,8.823S454.365,125.227,449.492,125.227z"/>
	<path style="fill:#FFFFFF;" d="M222.252,125.227h-21.176c-4.873,0-8.823-3.95-8.823-8.823s3.95-8.823,8.823-8.823h21.176
		c4.873,0,8.823,3.95,8.823,8.823S227.125,125.227,222.252,125.227z"/>
</g>
<g>
</g>
<g>
</g>
<g>
</g>
<g>
</g>
<g>
</g>
<g>
</g>
<g>
</g>
<g>
</g>
<g>
</g>
<g>
</g>
<g>
</g>
<g>
</g>
<g>
</g>
<g>
</g>
<g>
</g>
</svg>
