<?xml version="1.0" encoding="iso-8859-1"?>
<!-- Generator: Adobe Illustrator 19.0.0, SVG Export Plug-In . SVG Version: 6.00 Build 0)  -->
<svg version="1.1" id="Layer_1" xmlns="http://www.w3.org/2000/svg" xmlns:xlink="http://www.w3.org/1999/xlink" x="0px" y="0px"
	 viewBox="0 0 512 512" style="enable-background:new 0 0 512 512;" xml:space="preserve">
<polygon style="fill:#F7B239;" points="453.22,8.269 503.726,58.786 427.797,112.819 399.187,84.209 "/>
<polygon style="fill:#E0B08C;" points="427.797,112.819 285.972,254.655 247.704,292.912 219.083,264.302 257.351,226.035 
	399.187,84.209 "/>
<circle style="fill:#4D4D4D;" cx="178.693" cy="333.308" r="30.947"/>
<path style="fill:#F7B239;" d="M285.972,254.655l-63.096,249.076L8.274,289.13l249.076-63.096l-38.268,38.268l28.621,28.61
	L285.972,254.655z M200.572,355.192c12.083-12.083,12.083-31.675,0-43.758c-12.083-12.083-31.675-12.083-43.758,0
	c-12.083,12.083-12.083,31.675,0,43.758C168.897,367.276,188.489,367.276,200.572,355.192z"/>
<path style="fill:#333333;" d="M222.877,512c-2.163,0-4.275-0.85-5.848-2.422L2.427,294.977c-2.102-2.104-2.915-5.174-2.126-8.042
	c0.79-2.868,3.058-5.09,5.942-5.821l249.076-63.096l4.062,16.031L24.411,293.572l194.023,194.023l59.522-234.971l16.031,4.062
	l-63.095,249.076c-0.731,2.883-2.954,5.152-5.82,5.941C224.346,511.903,223.609,512,222.877,512z"/>
<path style="fill:#FFFFFF;" d="M59.921,311.615c-4.567,0-8.274-3.702-8.274-8.269c0-4.567,3.697-8.269,8.263-8.269h0.011
	c4.568,0,8.269,3.702,8.269,8.269C68.19,307.913,64.487,311.615,59.921,311.615z M87.678,304.581c-3.696,0-7.06-2.495-8.01-6.24
	c-1.121-4.427,1.558-8.925,5.985-10.046L190.637,261.7c4.422-1.118,8.925,1.557,10.046,5.985c1.121,4.428-1.558,8.925-5.985,10.046
	L89.715,304.326C89.033,304.498,88.35,304.581,87.678,304.581z"/>
<g>
	<path style="fill:#333333;" d="M247.704,301.181c-2.116,0-4.231-0.807-5.847-2.421l-28.621-28.61
		c-1.55-1.55-2.422-3.654-2.422-5.848c0-2.193,0.871-4.296,2.421-5.848L393.34,78.362l11.692,11.694L230.778,264.301l16.927,16.919
		l32.421-32.412l141.825-141.835l11.694,11.693L291.819,260.502L253.55,298.76C251.935,300.374,249.82,301.181,247.704,301.181z"/>
	<path style="fill:#333333;" d="M427.8,121.088c-2.131,0-4.249-0.821-5.85-2.422l-28.61-28.61c-2.854-2.854-3.23-7.351-0.891-10.64
		l54.033-75.94c1.411-1.982,3.624-3.244,6.048-3.446c2.424-0.204,4.816,0.673,6.537,2.394l50.507,50.516
		c1.721,1.721,2.595,4.111,2.392,6.536c-0.203,2.424-1.463,4.637-3.445,6.047l-75.929,54.033
		C431.147,120.584,429.469,121.088,427.8,121.088z M409.978,83.306l18.721,18.722l62.267-44.31l-36.679-36.686L409.978,83.306z"/>
	<path style="fill:#333333;" d="M178.693,372.506c-10.04,0-20.082-3.821-27.726-11.466c-15.287-15.288-15.287-40.164,0-55.452
		c15.288-15.288,40.164-15.288,55.452,0l0,0c15.287,15.288,15.287,40.164,0,55.452C198.775,368.683,188.735,372.506,178.693,372.506
		z M178.693,310.651c-5.807,0-11.611,2.211-16.031,6.63c-8.841,8.841-8.841,23.224,0,32.065c8.84,8.84,23.223,8.84,32.063,0
		c8.841-8.841,8.841-23.224,0-32.065C190.306,312.861,184.5,310.651,178.693,310.651z"/>
	<path style="fill:#333333;" d="M149.449,402.004c-2.117,0-4.234-0.807-5.849-2.423l-31.178-31.19
		c-3.228-3.23-3.227-8.465,0.002-11.693c3.231-3.229,8.466-3.228,11.694,0.002l31.178,31.19c3.228,3.23,3.227,8.465-0.002,11.693
		C153.681,401.197,151.565,402.004,149.449,402.004z"/>
</g>
<path style="fill:#FFFFFF;" d="M424.682,88.903c-1.794,0-3.6-0.581-5.117-1.777c-3.585-2.829-4.199-8.028-1.369-11.613
	l31.605-40.057c2.828-3.586,8.029-4.197,11.613-1.369c3.585,2.829,4.199,8.028,1.369,11.613l-31.605,40.057
	C429.549,87.823,427.126,88.903,424.682,88.903z"/>
<g>
</g>
<g>
</g>
<g>
</g>
<g>
</g>
<g>
</g>
<g>
</g>
<g>
</g>
<g>
</g>
<g>
</g>
<g>
</g>
<g>
</g>
<g>
</g>
<g>
</g>
<g>
</g>
<g>
</g>
</svg>
