<?xml version="1.0" encoding="iso-8859-1"?>
<!-- Generator: Adobe Illustrator 19.0.0, SVG Export Plug-In . SVG Version: 6.00 Build 0)  -->
<svg version="1.1" id="Layer_1" xmlns="http://www.w3.org/2000/svg" xmlns:xlink="http://www.w3.org/1999/xlink" x="0px" y="0px"
	 viewBox="0 0 512 512" style="enable-background:new 0 0 512 512;" xml:space="preserve">
<path style="fill:#F7B239;" d="M89.64,453.245l-1.767,2.164l-18.861,13.14l-15.066,10.49c-4.123-3.115-8.088-6.57-11.849-10.331
	c-3.41-3.41-6.548-6.967-9.436-10.671l10.501-15.089l13.231-19.008l1.994-1.201C65.478,435.789,76.398,446.46,89.64,453.245z"/>
<g>
	<path style="fill:#F95428;" d="M214.587,318.25c34.222,44.961,30.801,109.405-10.263,150.458
		c-41.041,41.041-105.418,44.485-150.378,10.331l15.066-10.49l18.861-13.14l1.767-2.164c10.071,5.154,21.478,8.065,33.565,8.065
		c40.713,0,73.722-32.998,73.722-73.711s-33.01-73.711-73.722-73.711S49.494,346.887,49.494,387.6
		c0,12.721,3.217,24.695,8.892,35.139l-1.994,1.201l-13.231,19.008l-10.501,15.089C-2.445,413.031,0.705,347.872,42.097,306.48
		c41.052-41.064,105.52-44.485,150.469-10.263l-13.072,13.072l22.022,22.033L214.587,318.25z"/>
	<path style="fill:#F95428;" d="M503.506,29.342l-53.694,53.694l-20.096-20.096c-5.551-5.551-4.984-14.704,1.189-19.529
		l39.546-30.903c5.2-4.067,12.608-3.614,17.275,1.053L503.506,29.342z"/>
</g>
<path style="fill:#E0B08C;" d="M449.812,83.037L214.587,318.25l-13.072,13.072l-22.022-22.033l13.072-13.072l154.06-154.049
	c2.526-2.537,5.857-4.101,9.414-4.418c1.779-0.159,3.5-0.634,5.098-1.382c1.597-0.748,3.047-1.767,4.316-3.036l67.311-67.311
	L449.812,83.037z"/>
<path style="fill:#E6E6E6;" d="M123.205,313.889c40.713,0,73.722,32.998,73.722,73.711s-33.01,73.711-73.722,73.711
	c-12.087,0-23.494-2.911-33.565-8.065c-13.242-6.785-24.162-17.456-31.254-30.506c-5.675-10.444-8.892-22.418-8.892-35.139
	C49.494,346.887,82.492,313.889,123.205,313.889z"/>
<g>
	<path style="fill:#FFFFFF;" d="M75.364,315.89c-2.876,0-5.682-1.461-7.278-4.102c-2.429-4.016-1.141-9.239,2.875-11.667
		c9.375-5.669,19.568-9.747,30.295-12.123c4.575-1.016,9.118,1.876,10.132,6.458c1.015,4.581-1.876,9.118-6.457,10.132
		c-8.918,1.976-17.391,5.365-25.181,10.074C78.377,315.495,76.861,315.89,75.364,315.89z"/>
	<path style="fill:#FFFFFF;" d="M32.735,371.767c-0.75,0-1.512-0.1-2.27-0.31c-4.522-1.251-7.174-5.931-5.923-10.453
		c2.807-10.141,7.159-19.732,12.941-28.506c2.582-3.917,7.853-5.002,11.769-2.421c3.918,2.582,5.002,7.85,2.421,11.769
		c-4.803,7.291-8.421,15.26-10.752,23.689C39.878,369.298,36.461,371.767,32.735,371.767z"/>
</g>
<g>
	<path style="fill:#333333;" d="M95.877,383.389c-3.319-3.318-8.698-3.318-12.016,0c-3.318,3.318-3.318,8.698,0,12.016
		l32.546,32.546c1.66,1.658,3.835,2.489,6.008,2.489s4.349-0.829,6.008-2.489c3.318-3.318,3.318-8.698,0-12.016L95.877,383.389z"/>
	<path style="fill:#333333;" d="M509.511,23.332L493.738,7.558c-7.688-7.689-19.948-8.437-28.516-1.743l-39.546,30.901
		c-4.862,3.799-7.866,9.511-8.243,15.671c-0.29,4.754,1.021,9.425,3.634,13.319l-61.618,61.617c-0.563,0.563-1.202,1.013-1.94,1.357
		c-0.706,0.333-1.452,0.536-2.238,0.605c-5.525,0.502-10.73,2.942-14.657,6.87L191.628,285.142
		c-48.313-32.317-113.925-26.284-155.543,15.332C12.815,323.746-0.001,354.687,0,387.6c0.001,32.91,12.815,63.85,36.085,87.12
		c24.02,24.02,55.573,36.028,87.123,36.028s63.103-12.01,87.123-36.03c41.612-41.613,47.645-107.219,15.332-155.526L509.511,35.346
		C512.829,32.028,512.829,26.65,509.511,23.332z M114.712,469.373V493.4c-15.918-1.266-31.602-6.076-45.742-14.471l22.347-15.558
		C98.638,466.464,106.497,468.525,114.712,469.373z M131.704,469.373c16.305-1.682,31.206-8.156,43.283-17.977l17.058,17.058
		c-17.488,14.908-38.691,23.226-60.341,24.948V469.373z M123.208,452.819c-35.962,0-65.218-29.258-65.218-65.219
		c0-35.963,29.257-65.219,65.218-65.219s65.219,29.258,65.219,65.219S159.17,452.819,123.208,452.819z M114.712,305.826
		c-16.307,1.682-31.207,8.157-43.284,17.979l-17.066-17.063c17.362-14.776,38.595-23.155,60.348-24.911v23.996H114.712z
		 M59.412,335.821c-9.82,12.077-16.295,26.977-17.976,43.284H17.329c1.757-22.358,10.435-43.313,25.001-60.365L59.412,335.821z
		 M41.435,396.097c0.905,8.777,3.216,17.139,6.671,24.882l-15.45,22.201c-8.743-14.185-14.001-30.234-15.327-47.082H41.435z
		 M173.484,315.297l5.005,5.008l-3.5,3.5c-12.077-9.821-26.979-16.296-43.285-17.979v-24.015c16.593,1.296,32.977,6.447,47.657,15.6
		l-5.874,5.874C170.169,306.6,170.168,311.978,173.484,315.297z M43.323,457.598l14.281-20.519c4.903,6.484,10.747,12.213,17.32,17
		L54.33,468.416c-2.129-1.816-4.217-3.7-6.229-5.712C46.445,461.048,44.855,459.342,43.323,457.598z M204.065,456.443
		l-17.062-17.062c9.821-12.077,16.296-26.977,17.979-43.283h23.993C227.219,417.849,218.84,439.081,204.065,456.443z
		 M228.992,379.105h-24.011c-1.681-16.307-8.156-31.207-17.977-43.285l3.497-3.497l5.006,5.009c1.593,1.594,3.753,2.49,6.008,2.49
		c0,0,0,0,0.001,0c2.253,0,4.413-0.895,6.008-2.489l5.874-5.874C222.546,346.137,227.695,362.515,228.992,379.105z M201.518,319.31
		l-10.01-10.017L352.63,148.171c1.123-1.123,2.608-1.819,4.161-1.961c2.764-0.245,5.445-0.972,7.923-2.14
		c2.506-1.165,4.778-2.757,6.753-4.732l61.309-61.309l5.016,5.007L201.518,319.31z M449.811,71.017l-14.09-14.089
		c-1.264-1.264-1.375-2.739-1.328-3.505c0.046-0.767,0.335-2.217,1.746-3.318l39.546-30.901c0.828-0.648,1.819-0.966,2.808-0.966
		c1.175,0,2.345,0.451,3.23,1.334l9.766,9.766L449.811,71.017z"/>
</g>
<g>
</g>
<g>
</g>
<g>
</g>
<g>
</g>
<g>
</g>
<g>
</g>
<g>
</g>
<g>
</g>
<g>
</g>
<g>
</g>
<g>
</g>
<g>
</g>
<g>
</g>
<g>
</g>
<g>
</g>
</svg>
