<?xml version="1.0" encoding="iso-8859-1"?>
<!-- Generator: Adobe Illustrator 19.0.0, SVG Export Plug-In . SVG Version: 6.00 Build 0)  -->
<svg version="1.1" id="Layer_1" xmlns="http://www.w3.org/2000/svg" xmlns:xlink="http://www.w3.org/1999/xlink" x="0px" y="0px"
	 viewBox="0 0 511.999 511.999" style="enable-background:new 0 0 511.999 511.999;" xml:space="preserve">
<g>
	<path style="fill:#F95428;" d="M327.705,357.695c7.575,7.587,7.575,19.867,0,27.453c-7.587,7.575-19.866,7.575-27.453,0
		l-59.258-59.258l-54.883-54.883l-59.258-59.27c-7.575-7.575-7.575-19.866,0-27.441c3.787-3.787,8.751-5.681,13.715-5.681
		c4.975,0,9.939,1.894,13.727,5.681L327.705,357.695z"/>
	<path style="fill:#F95428;" d="M497.494,187.907c7.575,7.587,7.575,19.866,0,27.453c-7.587,7.575-19.867,7.575-27.453,0
		L296.641,41.949c-7.575-7.575-7.575-19.866,0-27.441c3.787-3.787,8.751-5.681,13.727-5.681c4.964,0,9.927,1.894,13.715,5.681
		L497.494,187.907z"/>
</g>
<path style="fill:#F7B239;" d="M186.111,271.007l54.883,54.883L75.075,491.809c-7.575,7.575-17.514,11.374-27.441,11.374
	s-19.866-3.811-27.441-11.386c-15.162-15.15-15.162-39.721,0-54.871L186.111,271.007z"/>
<path style="opacity:0.25;fill:#4D4D4D;enable-background:new    ;" d="M219.892,304.789L53.974,470.707
	c-7.575,7.575-17.514,11.374-27.441,11.374c-5.03,0-10.06-0.982-14.788-2.932c1.895,4.6,4.708,8.911,8.448,12.648
	c7.575,7.575,17.514,11.386,27.441,11.386s19.866-3.799,27.441-11.374L240.994,325.89L219.892,304.789z"/>
<polygon style="fill:#F7B239;" points="470.04,215.36 472.287,217.607 329.952,359.942 327.705,357.695 154.294,184.296 
	152.047,182.049 294.394,39.702 296.641,41.949 "/>
<g style="opacity:0.25;">
	<path style="fill:#4D4D4D;" d="M327.705,385.147c-7.587,7.575-19.866,7.575-27.453,0l-54.506-54.506
		c7.587,7.575,19.866,7.575,27.453,0c7.551-7.563,7.575-19.808,0.059-27.394l54.448,54.448
		C335.28,365.282,335.28,377.561,327.705,385.147z"/>
	<path style="fill:#4D4D4D;" d="M497.494,215.36c-7.587,7.575-19.867,7.575-27.453,0l-52.26-52.26l-2.188-2.188
		c7.587,7.516,19.831,7.493,27.394-0.059c7.551-7.563,7.575-19.808,0.059-27.394l54.448,54.448
		C505.068,195.493,505.068,207.772,497.494,215.36z"/>
	<polygon style="fill:#4D4D4D;" points="472.287,217.606 329.952,359.941 275.445,305.434 417.781,163.099 470.04,215.36 	"/>
</g>
<g>
	<path style="fill:#333333;" d="M254.532,152.113c-1.441-7.695-11.978-9.512-16.099-2.992c-2.181,3.449-1.661,8.058,1.208,10.955
		c2.471,2.496,6.389,3.251,9.622,1.905C253.082,160.393,255.377,156.184,254.532,152.113
		C254.426,151.549,254.65,152.678,254.532,152.113z"/>
	<path style="fill:#333333;" d="M258.037,136.916c0.426,1.062,1.084,2.06,1.905,2.858c5.471,5.635,15.245,1.26,15.05-6.45
		c-0.191-7.502-9.725-11.502-15.05-6.018C257.426,129.753,256.681,133.699,258.037,136.916
		C258.249,137.447,257.814,136.388,258.037,136.916z"/>
	<path style="fill:#333333;" d="M292.712,107.006c-2.719-2.639-6.84-3.34-10.243-1.615c-3.042,1.542-4.962,4.817-4.818,8.225
		c0.152,3.56,2.508,6.721,5.852,7.931c3.655,1.323,7.898-0.009,10.147-3.179C296.135,114.866,295.693,110.073,292.712,107.006
		C292.301,106.605,293.112,107.417,292.712,107.006z"/>
	<path style="fill:#333333;" d="M301.863,100.29c6.075,4.002,14.415-0.912,13.682-8.198c-0.735-7.314-9.8-10.445-15.024-5.375
		C296.735,90.612,297.254,97.254,301.863,100.29C302.346,100.606,301.381,99.972,301.863,100.29z"/>
	<path style="fill:#333333;" d="M213.446,191.046c-2.152-5.11-8.656-7.059-13.223-3.837c-4.351,3.07-5.037,9.68-1.162,13.447
		c3.308,3.408,9.162,3.405,12.468,0C214.072,198.192,214.749,194.292,213.446,191.046
		C213.223,190.518,213.658,191.577,213.446,191.046z"/>
	<path style="fill:#333333;" d="M234.419,174.12c0-8.015-10.312-11.809-15.504-5.754c-5.199,6.063,0.052,15.653,7.954,14.491
		C231.136,182.231,234.419,178.445,234.419,174.12z"/>
	<path style="fill:#333333;" d="M292.136,191.259c0-7.989-10.286-11.826-15.504-5.759c-2.557,2.972-2.829,7.388-0.658,10.652
		c2,3.008,5.745,4.5,9.267,3.706C289.211,198.964,292.136,195.345,292.136,191.259z"/>
	<path style="fill:#333333;" d="M294.959,172.685c0.678,3.622,3.731,6.453,7.348,7.006c3.784,0.578,7.638-1.502,9.271-4.954
		c1.493-3.156,0.94-6.997-1.366-9.612c-2.622-2.972-7.037-3.816-10.572-2.035C296.163,164.842,294.156,168.85,294.959,172.685
		C295.065,173.25,294.841,172.121,294.959,172.685z"/>
	<path style="fill:#333333;" d="M315.072,150.679c0,3.686,2.391,7.048,5.854,8.296c3.415,1.23,7.37,0.182,9.707-2.603
		c2.404-2.865,2.736-7.015,0.83-10.232c-1.803-3.043-5.437-4.733-8.928-4.183C318.295,142.627,315.072,146.381,315.072,150.679z"/>
	<path style="fill:#333333;" d="M336.045,133.752c1.379,3.258,4.593,5.447,8.151,5.446c3.538-0.001,6.783-2.189,8.139-5.446
		c1.473-3.536,0.425-7.765-2.55-10.191c-2.835-2.311-6.893-2.636-10.052-0.787C336,124.959,334.35,129.75,336.045,133.752
		C336.268,134.283,335.821,133.224,336.045,133.752z"/>
	<path style="fill:#333333;" d="M250.874,228.475c-1.399-3.399-4.906-5.624-8.583-5.439c-3.76,0.189-7.066,2.83-8.064,6.456
		c-0.948,3.442,0.314,7.236,3.177,9.385c3.003,2.255,7.189,2.37,10.291,0.253C251.126,236.789,252.405,232.308,250.874,228.475
		C250.651,227.933,251.086,229.003,250.874,228.475z"/>
	<path style="fill:#333333;" d="M271.834,211.549c0-8.088-10.531-11.862-15.637-5.589c-5.087,6.249,0.527,15.751,8.451,14.254
		C268.769,219.435,271.834,215.749,271.834,211.549z"/>
	<path style="fill:#333333;" d="M329.552,228.686c0-7.864-9.956-11.745-15.293-5.988c-2.587,2.789-3.056,7.027-1.192,10.328
		c1.81,3.206,5.546,4.982,9.178,4.344C326.414,236.638,329.552,232.929,329.552,228.686z"/>
	<path style="fill:#333333;" d="M332.21,208.396c0,2.332,0.959,4.568,2.575,6.234c5.481,5.314,15.084,1.524,15.069-6.234
		c-0.015-7.748-9.56-11.585-15.069-6.246C333.163,203.821,332.21,206.057,332.21,208.396z"/>
	<path style="fill:#333333;" d="M352.5,188.095c0,7.768,9.8,11.725,15.183,6.113c2.668-2.782,3.21-7.094,1.314-10.453
		c-1.734-3.072-5.265-4.857-8.768-4.412C355.878,179.895,352.5,183.695,352.5,188.095z"/>
	<path style="fill:#333333;" d="M373.472,171.18c1.458,3.465,5.02,5.706,8.791,5.419c3.831-0.292,7.113-3.099,7.956-6.857
		c1.663-7.407-6.616-13.401-13.135-9.506C373.4,162.437,371.793,167.211,373.472,171.18
		C373.696,171.709,373.249,170.651,373.472,171.18z"/>
	<path style="fill:#333333;" d="M288.29,265.901c-2.87-7.308-13.605-6.988-16.367,0.201c-1.354,3.525-0.266,7.638,2.671,10.017
		c2.852,2.31,6.911,2.603,10.066,0.728C288.369,274.646,289.968,269.889,288.29,265.901
		C288.078,265.362,288.513,266.432,288.29,265.901z"/>
	<path style="fill:#333333;" d="M309.097,247.258c-1.384-6.673-10.023-9.532-14.891-4.517c-4.877,4.74-2.341,13.141,4.096,14.792
		C304.518,259.13,310.258,253.463,309.097,247.258C308.98,246.694,309.203,247.823,309.097,247.258z"/>
	<path style="fill:#333333;" d="M363.063,258.774c-3.415-2.248-8.005-1.867-10.981,0.947c-2.527,2.388-3.398,6.165-2.2,9.423
		c1.259,3.419,4.617,5.799,8.276,5.793c3.673-0.006,7.013-2.357,8.277-5.793C367.816,265.392,366.417,260.982,363.063,258.774z"/>
	<path style="fill:#333333;" d="M369.638,245.812c0,8.162,10.685,11.938,15.746,5.467c4.987-6.376-0.888-15.806-8.801-14.072
		C372.579,238.084,369.638,241.703,369.638,245.812z"/>
	<path style="fill:#333333;" d="M390.104,227.252c0.315,1.684,1.181,3.309,2.411,4.505c5.064,5.217,14.09,1.901,14.984-5.153
		c0.908-7.162-7.127-12.33-13.282-8.65C391.06,219.842,389.371,223.646,390.104,227.252
		C390.21,227.816,389.986,226.674,390.104,227.252z"/>
	<path style="fill:#333333;" d="M410.9,208.609c0.423,1.055,1.089,2.064,1.905,2.858c3.25,3.349,8.838,3.375,12.228,0.241
		c3.655-3.377,3.683-9.186,0.252-12.721c-3.048-2.955-7.814-3.413-11.316-0.969C410.617,200.355,409.348,204.842,410.9,208.609
		C411.111,209.137,410.676,208.068,410.9,208.609z"/>
	<path style="fill:#333333;" d="M325.717,303.318c-3.013-7.162-13.55-7.106-16.368,0.203c-1.426,3.696-0.14,8.063,3.102,10.355
		c2.784,1.969,6.512,2.155,9.48,0.485C325.757,312.208,327.395,307.368,325.717,303.318
		C325.494,302.788,325.941,303.858,325.717,303.318z"/>
	<path style="fill:#333333;" d="M346.007,283.029c-0.425-1.063-1.082-2.061-1.905-2.858c-3.31-3.41-9.158-3.41-12.468,0
		c-5.03,4.888-2.144,13.612,4.601,14.899C342.958,296.35,348.693,289.37,346.007,283.029
		C345.796,282.498,346.231,283.557,346.007,283.029z"/>
	<path style="fill:#333333;" d="M503.729,181.673L330.323,8.268C324.992,2.937,317.902,0,310.362,0
		c-7.54,0-14.629,2.937-19.961,8.268c-5.331,5.332-8.267,12.421-8.267,19.961c0,3.323,0.572,6.557,1.666,9.593L150.168,171.455
		c-3.036-1.094-6.27-1.667-9.593-1.667c-7.54,0-14.63,2.937-19.962,8.268c-5.331,5.332-8.267,12.421-8.267,19.961
		c0,7.541,2.936,14.63,8.267,19.961L173.636,271L13.952,430.685c-8.996,8.995-13.95,20.954-13.95,33.675
		c0,12.721,4.954,24.681,13.949,33.677c9.003,9.003,20.965,13.962,33.685,13.962c12.719,0,24.677-4.955,33.678-13.954
		l159.683-159.683l53.021,53.021c5.332,5.332,12.421,8.268,19.962,8.268c7.54,0,14.629-2.937,19.961-8.268
		c5.331-5.332,8.267-12.421,8.267-19.961c0-3.323-0.572-6.557-1.666-9.593l133.67-133.671c3.085,1.106,6.316,1.69,9.557,1.69
		c7.229,0,14.458-2.751,19.961-8.254c0,0,0,0,0.001,0c5.331-5.332,8.267-12.421,8.267-19.961
		C511.995,194.093,509.059,187.004,503.729,181.673z M68.838,485.569c-5.666,5.666-13.196,8.786-21.201,8.786
		s-15.538-3.123-21.207-8.795c-5.664-5.662-8.783-13.193-8.783-21.2c0-8.008,3.118-15.537,8.783-21.2l159.683-159.685l42.409,42.409
		L68.838,485.569z M321.463,378.906c-4.127,4.129-10.844,4.126-14.969,0L133.089,205.502c-4.127-4.127-4.127-10.842,0-14.97
		c2.063-2.063,4.774-3.096,7.484-3.096c2.708,0,5.417,1.03,7.478,3.09l173.411,173.41
		C325.589,368.064,325.589,374.779,321.463,378.906z M329.948,347.469L164.526,182.047L294.393,52.18l165.422,165.422
		L329.948,347.469z M491.253,209.118c-4.127,4.129-10.842,4.127-14.97,0L302.879,35.713c-4.127-4.127-4.127-10.842,0-14.97
		c2.063-2.063,4.774-3.095,7.483-3.095c2.711,0,5.421,1.032,7.484,3.095l173.405,173.405
		C495.379,198.275,495.379,204.991,491.253,209.118z"/>
</g>
<g>
	<path style="fill:#FFFFFF;" d="M203.465,174.176c-2.257,0-4.516-0.861-6.239-2.584c-3.445-3.445-3.445-9.031,0-12.475l90.568-90.57
		c3.446-3.445,9.031-3.445,12.476,0c3.445,3.445,3.445,9.031,0,12.475l-90.568,90.57
		C207.98,173.315,205.722,174.176,203.465,174.176z"/>
	<path style="fill:#FFFFFF;" d="M88.978,411.774c-2.257,0-4.516-0.861-6.239-2.584c-3.445-3.445-3.445-9.031,0-12.475l98.803-98.803
		c3.446-3.445,9.031-3.445,12.476,0c3.445,3.445,3.445,9.031,0,12.475l-98.803,98.803C93.494,410.913,91.235,411.774,88.978,411.774
		z"/>
	<path style="fill:#FFFFFF;" d="M71.335,429.421c-0.576,0-1.153-0.059-1.729-0.176c-0.554-0.118-1.117-0.282-1.647-0.506
		c-0.529-0.223-1.047-0.494-1.517-0.812c-0.494-0.318-0.941-0.694-1.341-1.094c-0.413-0.412-0.776-0.859-1.106-1.341
		c-0.318-0.482-0.588-0.988-0.812-1.517c-0.212-0.541-0.387-1.094-0.494-1.658c-0.118-0.565-0.175-1.141-0.175-1.717
		c0-0.576,0.059-1.164,0.175-1.729c0.107-0.565,0.282-1.117,0.494-1.647c0.223-0.529,0.495-1.047,0.812-1.529
		c0.329-0.482,0.694-0.929,1.106-1.341c0.4-0.4,0.847-0.776,1.341-1.094c0.47-0.318,0.988-0.588,1.517-0.812
		s1.094-0.388,1.647-0.506c1.141-0.223,2.317-0.223,3.457,0c0.553,0.118,1.117,0.282,1.647,0.506
		c0.528,0.223,1.047,0.494,1.517,0.812c0.481,0.318,0.941,0.694,1.341,1.094c0.412,0.412,0.776,0.859,1.106,1.341
		c0.318,0.482,0.588,1,0.81,1.529c0.212,0.529,0.388,1.082,0.494,1.647c0.119,0.565,0.176,1.153,0.176,1.729
		c0,0.576-0.059,1.153-0.176,1.717c-0.106,0.565-0.282,1.117-0.494,1.658c-0.222,0.529-0.494,1.035-0.81,1.517
		c-0.329,0.482-0.695,0.929-1.106,1.341c-0.4,0.4-0.859,0.776-1.341,1.094c-0.47,0.318-0.989,0.588-1.517,0.812
		c-0.529,0.224-1.095,0.388-1.647,0.506C72.487,429.362,71.911,429.421,71.335,429.421z"/>
	<path style="fill:#FFFFFF;" d="M185.429,192.212c-2.329,0-4.599-0.941-6.234-2.588c-0.413-0.4-0.776-0.859-1.106-1.341
		c-0.318-0.47-0.588-0.988-0.812-1.517c-0.212-0.529-0.387-1.094-0.494-1.658c-0.118-0.565-0.175-1.141-0.175-1.717
		c0-2.329,0.941-4.599,2.588-6.234c1.635-1.647,3.904-2.588,6.234-2.588c2.328,0,4.599,0.941,6.234,2.588
		c1.647,1.635,2.588,3.905,2.588,6.234c0,0.576-0.059,1.153-0.176,1.717c-0.106,0.565-0.282,1.129-0.494,1.658
		c-0.222,0.529-0.494,1.047-0.823,1.517c-0.318,0.482-0.682,0.941-1.094,1.341C190.028,191.27,187.758,192.212,185.429,192.212z"/>
	<path style="fill:#FFFFFF;" d="M141.52,207.891c-0.576,0-1.153-0.059-1.729-0.165c-0.565-0.118-1.117-0.282-1.647-0.506
		c-0.529-0.223-1.047-0.494-1.529-0.812c-0.482-0.318-0.929-0.694-1.342-1.094c-1.635-1.647-2.575-3.917-2.575-6.246
		c0-2.317,0.941-4.587,2.575-6.234c0.413-0.4,0.859-0.776,1.342-1.094c0.482-0.318,1-0.588,1.529-0.812
		c0.529-0.223,1.082-0.388,1.647-0.506c1.141-0.223,2.317-0.223,3.446,0c0.563,0.118,1.117,0.282,1.647,0.506
		c0.541,0.223,1.047,0.494,1.529,0.812s0.929,0.694,1.341,1.094c0.412,0.412,0.776,0.859,1.094,1.341
		c0.319,0.482,0.588,0.988,0.812,1.517c0.223,0.541,0.388,1.094,0.506,1.658c0.119,0.565,0.176,1.153,0.176,1.717
		c0,2.329-0.941,4.599-2.588,6.246c-0.412,0.4-0.857,0.776-1.341,1.094c-0.483,0.318-0.988,0.588-1.529,0.812
		c-0.529,0.223-1.083,0.388-1.647,0.506C142.673,207.831,142.096,207.891,141.52,207.891z"/>
	<path style="fill:#FFFFFF;" d="M311.05,38.36c-0.576,0-1.153-0.059-1.729-0.176c-0.554-0.106-1.117-0.282-1.647-0.494
		c-0.529-0.223-1.047-0.494-1.517-0.812c-0.494-0.329-0.941-0.694-1.341-1.106c-0.413-0.4-0.776-0.859-1.106-1.341
		c-0.318-0.47-0.588-0.988-0.81-1.517c-0.213-0.529-0.388-1.094-0.494-1.647c-0.119-0.576-0.176-1.153-0.176-1.729
		s0.059-1.153,0.176-1.729c0.106-0.553,0.281-1.117,0.494-1.647c0.222-0.529,0.494-1.047,0.81-1.517
		c0.329-0.482,0.694-0.941,1.106-1.341c0.4-0.412,0.847-0.776,1.341-1.094c0.47-0.318,0.988-0.6,1.517-0.812
		c0.529-0.223,1.094-0.4,1.647-0.506c2.869-0.576,5.915,0.365,7.963,2.411c0.413,0.4,0.776,0.859,1.106,1.341
		c0.318,0.47,0.588,0.988,0.81,1.517c0.213,0.529,0.388,1.094,0.494,1.647c0.119,0.576,0.176,1.153,0.176,1.729
		s-0.059,1.153-0.176,1.729c-0.106,0.553-0.281,1.117-0.494,1.647c-0.222,0.529-0.494,1.047-0.81,1.517
		c-0.329,0.482-0.694,0.941-1.106,1.341C315.649,37.419,313.367,38.36,311.05,38.36z"/>
</g>
<g>
</g>
<g>
</g>
<g>
</g>
<g>
</g>
<g>
</g>
<g>
</g>
<g>
</g>
<g>
</g>
<g>
</g>
<g>
</g>
<g>
</g>
<g>
</g>
<g>
</g>
<g>
</g>
<g>
</g>
</svg>
