<?xml version="1.0" encoding="iso-8859-1"?>
<!-- Generator: Adobe Illustrator 19.0.0, SVG Export Plug-In . SVG Version: 6.00 Build 0)  -->
<svg version="1.1" id="Layer_1" xmlns="http://www.w3.org/2000/svg" xmlns:xlink="http://www.w3.org/1999/xlink" x="0px" y="0px"
	 viewBox="0 0 512 512" style="enable-background:new 0 0 512 512;" xml:space="preserve">
<path style="fill:#3A88D6;" d="M435.951,136.784h-89.973h-89.973H166.03H76.057H14.656V75.213c0-13.678,11.076-24.755,24.743-24.755
	h27.442c8.012,0,15.782-1.921,22.724-5.471c6.943-3.538,13.046-8.706,17.739-15.198c9.386-12.985,24.439-20.67,40.464-20.67h216.471
	c16.013,0,31.065,7.684,40.452,20.67c9.399,12.985,24.439,20.67,40.464,20.67h27.442c13.666,0,24.755,11.076,24.755,24.755v61.571
	H435.951z"/>
<g>
	<polygon style="fill:#F7B239;" points="98.55,184.202 98.55,333.753 53.563,333.753 53.563,184.202 76.057,184.202 	"/>
	<polygon style="fill:#F7B239;" points="188.524,184.202 188.524,379.226 143.537,379.226 143.537,184.202 166.03,184.202 	"/>
	<polygon style="fill:#F7B239;" points="278.497,184.202 278.497,429.441 233.51,429.441 233.51,184.202 256.004,184.202 	"/>
	<polygon style="fill:#F7B239;" points="368.47,184.202 368.47,470.014 323.484,470.014 323.484,184.202 345.977,184.202 	"/>
	<polygon style="fill:#F7B239;" points="458.444,184.202 458.444,502.879 413.457,502.879 413.457,184.202 435.951,184.202 	"/>
</g>
<g style="opacity:0.25;">
	<rect x="79.092" y="184.202" style="fill:#4D4D4D;" width="19.454" height="149.55"/>
	<rect x="169.065" y="184.202" style="fill:#4D4D4D;" width="19.454" height="195.024"/>
	<rect x="259.038" y="184.202" style="fill:#4D4D4D;" width="19.454" height="245.238"/>
	<rect x="349.012" y="184.202" style="fill:#4D4D4D;" width="19.454" height="285.812"/>
	<rect x="438.985" y="184.202" style="fill:#4D4D4D;" width="19.454" height="318.676"/>
</g>
<g>
	<path style="fill:#FFFFFF;" d="M72.166,225.323c-0.596,0-1.192-0.061-1.787-0.182c-0.573-0.109-1.155-0.292-1.702-0.511
		c-0.547-0.231-1.082-0.511-1.568-0.839c-0.499-0.34-0.973-0.717-1.386-1.143c-1.702-1.69-2.675-4.037-2.675-6.444
		c0-2.395,0.973-4.754,2.675-6.444c0.413-0.426,0.886-0.802,1.386-1.143c0.486-0.328,1.021-0.608,1.568-0.839
		c0.547-0.219,1.131-0.401,1.702-0.511c2.965-0.608,6.115,0.365,8.231,2.493c1.702,1.69,2.675,4.037,2.675,6.444
		s-0.973,4.754-2.675,6.444C76.92,224.35,74.56,225.323,72.166,225.323z"/>
	<path style="fill:#FFFFFF;" d="M72.166,290.979c-5.037,0-9.119-4.083-9.119-9.119v-40.934c0-5.036,4.082-9.119,9.119-9.119
		s9.119,4.083,9.119,9.119v40.934C81.285,286.896,77.202,290.979,72.166,290.979z"/>
	<path style="fill:#FFFFFF;" d="M162.139,225.323c-0.596,0-1.192-0.061-1.787-0.182c-0.573-0.109-1.155-0.292-1.702-0.511
		c-0.547-0.231-1.082-0.511-1.568-0.839c-0.511-0.34-0.973-0.717-1.397-1.143c-1.691-1.69-2.663-4.049-2.663-6.444
		c0-0.596,0.061-1.192,0.182-1.787c0.109-0.571,0.291-1.155,0.511-1.702c0.23-0.547,0.511-1.082,0.838-1.568
		c0.34-0.499,0.717-0.973,1.132-1.386c0.426-0.426,0.886-0.802,1.397-1.143c0.486-0.328,1.021-0.608,1.568-0.839
		c0.547-0.219,1.131-0.401,1.702-0.511c2.965-0.608,6.115,0.365,8.231,2.493c0.427,0.413,0.802,0.888,1.143,1.386
		c0.328,0.486,0.608,1.021,0.838,1.568c0.22,0.547,0.401,1.131,0.511,1.702c0.123,0.596,0.182,1.192,0.182,1.787
		c0,0.596-0.061,1.192-0.182,1.787c-0.109,0.571-0.291,1.155-0.511,1.702c-0.23,0.547-0.511,1.082-0.838,1.568
		c-0.34,0.499-0.717,0.973-1.143,1.386C166.881,224.35,164.533,225.323,162.139,225.323z"/>
	<path style="fill:#FFFFFF;" d="M162.139,339.613c-5.037,0-9.119-4.083-9.119-9.119v-89.569c0-5.036,4.082-9.119,9.119-9.119
		s9.119,4.083,9.119,9.119v89.569C171.258,335.53,167.176,339.613,162.139,339.613z"/>
	<path style="fill:#FFFFFF;" d="M252.113,225.323c-0.596,0-1.192-0.061-1.787-0.182c-0.573-0.109-1.155-0.292-1.702-0.511
		c-0.547-0.231-1.082-0.511-1.568-0.839c-0.499-0.34-0.973-0.717-1.386-1.143c-0.427-0.413-0.802-0.888-1.143-1.386
		c-0.328-0.486-0.608-1.021-0.838-1.568c-0.22-0.547-0.401-1.131-0.511-1.702c-0.123-0.596-0.182-1.192-0.182-1.787
		s0.061-1.192,0.182-1.787c0.109-0.571,0.291-1.155,0.511-1.702c0.23-0.547,0.511-1.082,0.838-1.568
		c0.34-0.499,0.717-0.973,1.143-1.386c0.413-0.426,0.886-0.802,1.386-1.143c0.486-0.328,1.021-0.608,1.568-0.839
		c0.547-0.219,1.131-0.401,1.702-0.511c1.179-0.243,2.395-0.243,3.573,0c0.573,0.109,1.155,0.292,1.702,0.511
		c0.547,0.231,1.082,0.511,1.568,0.839c0.499,0.34,0.973,0.717,1.386,1.143c0.427,0.413,0.802,0.888,1.143,1.386
		c0.328,0.486,0.608,1.021,0.838,1.568c0.22,0.547,0.401,1.131,0.511,1.702c0.123,0.596,0.182,1.192,0.182,1.787
		s-0.061,1.192-0.182,1.787c-0.109,0.571-0.291,1.155-0.511,1.702c-0.23,0.547-0.511,1.082-0.838,1.568
		c-0.34,0.499-0.717,0.973-1.143,1.386c-0.413,0.426-0.886,0.802-1.386,1.143c-0.486,0.328-1.021,0.608-1.568,0.839
		c-0.547,0.219-1.131,0.401-1.702,0.511C253.304,225.262,252.709,225.323,252.113,225.323z"/>
	<path style="fill:#FFFFFF;" d="M252.113,388.248c-5.037,0-9.119-4.083-9.119-9.119V243.358c0-5.036,4.082-9.119,9.119-9.119
		c5.037,0,9.119,4.083,9.119,9.119v135.771C261.232,384.165,257.149,388.248,252.113,388.248z"/>
	<path style="fill:#FFFFFF;" d="M342.086,225.323c-0.596,0-1.192-0.061-1.787-0.182c-0.573-0.109-1.155-0.292-1.702-0.511
		c-0.547-0.231-1.082-0.511-1.568-0.839c-0.511-0.34-0.973-0.717-1.397-1.143c-0.415-0.413-0.79-0.888-1.132-1.386
		c-0.328-0.486-0.608-1.021-0.838-1.568c-0.22-0.547-0.401-1.131-0.511-1.702c-0.123-0.596-0.182-1.192-0.182-1.787
		s0.061-1.192,0.182-1.787c0.109-0.571,0.291-1.155,0.511-1.702c0.23-0.547,0.511-1.082,0.838-1.568
		c0.34-0.499,0.717-0.973,1.132-1.386c0.426-0.426,0.886-0.802,1.397-1.143c0.486-0.328,1.021-0.608,1.568-0.839
		c0.547-0.219,1.131-0.401,1.702-0.511c1.179-0.243,2.395-0.243,3.562,0c0.584,0.109,1.167,0.292,1.714,0.511
		c0.547,0.231,1.082,0.511,1.568,0.839c0.499,0.34,0.973,0.717,1.386,1.143c1.702,1.69,2.675,4.049,2.675,6.444
		c0,2.395-0.973,4.754-2.675,6.444c-0.413,0.426-0.886,0.802-1.386,1.143c-0.486,0.328-1.021,0.608-1.568,0.839
		c-0.547,0.219-1.131,0.401-1.714,0.511C343.278,225.262,342.682,225.323,342.086,225.323z"/>
	<path style="fill:#FFFFFF;" d="M342.086,434.45c-5.037,0-9.119-4.083-9.119-9.119V245.789c0-5.036,4.082-9.119,9.119-9.119
		c5.037,0,9.119,4.083,9.119,9.119v179.542C351.205,430.367,347.122,434.45,342.086,434.45z"/>
</g>
<path style="fill:#333333;" d="M472.595,41.339h-27.441c-13.057,0-25.42-6.315-33.071-16.896C401.012,9.138,383.124,0,364.234,0
	h-216.47c-18.89,0-36.777,9.138-47.849,24.444c-7.65,10.58-20.013,16.896-33.07,16.896H39.404c-18.676,0-33.87,15.195-33.87,33.87
	v61.575c0,5.036,4.082,9.119,9.119,9.119h52.282v29.181H53.56c-5.037,0-9.119,4.083-9.119,9.119v149.55
	c0,5.036,4.082,9.119,9.119,9.119h44.987c5.037,0,9.119-4.083,9.119-9.119v-149.55c0-5.036-4.082-9.119-9.119-9.119H85.172v-29.181
	h71.736v29.181h-13.374c-5.037,0-9.119,4.083-9.119,9.119v195.021c0,5.036,4.082,9.119,9.119,9.119h44.987
	c5.037,0,9.119-4.083,9.119-9.119V184.202c0-5.036-4.082-9.119-9.119-9.119h-13.374v-29.181h71.736v29.181h-13.374
	c-5.037,0-9.119,4.083-9.119,9.119V429.44c0,5.036,4.082,9.119,9.119,9.119h44.987c5.037,0,9.119-4.083,9.119-9.119V184.202
	c0-5.036-4.082-9.119-9.119-9.119h-13.374v-29.181h71.736v29.181H323.48c-5.037,0-9.119,4.083-9.119,9.119v285.817
	c0,5.036,4.082,9.119,9.119,9.119h44.987c5.037,0,9.119-4.083,9.119-9.119V184.202c0-5.036-4.082-9.119-9.119-9.119h-13.374v-29.181
	h71.736v29.181h-13.374c-5.037,0-9.119,4.083-9.119,9.119v318.679c0,5.036,4.082,9.119,9.119,9.119h44.987
	c5.037,0,9.119-4.083,9.119-9.119V184.202c0-5.036-4.082-9.119-9.119-9.119h-13.374v-29.181h52.282c5.037,0,9.119-4.083,9.119-9.119
	V75.209C506.467,56.534,491.272,41.339,472.595,41.339z M89.428,324.634H62.679V193.321h26.749V324.634z M179.401,370.105h-26.749
	V193.321h26.749V370.105z M269.374,420.321h-26.749V193.321h26.749V420.321z M359.348,460.9h-26.749V193.321h26.749V460.9z
	 M449.321,493.762h-26.749V193.321h26.749V493.762z M488.229,127.665h-43.163V96.661c0-5.036-4.082-9.119-9.119-9.119
	c-5.037,0-9.119,4.083-9.119,9.119v31.004h-71.736V96.661c0-5.036-4.082-9.119-9.119-9.119c-5.037,0-9.119,4.083-9.119,9.119v31.004
	h-71.736V96.661c0-5.036-4.082-9.119-9.119-9.119c-5.037,0-9.119,4.083-9.119,9.119v31.004h-71.736V96.661
	c0-5.036-4.082-9.119-9.119-9.119s-9.119,4.083-9.119,9.119v31.004H85.172V96.661c0-5.036-4.082-9.119-9.119-9.119
	s-9.119,4.083-9.119,9.119v31.004H23.771V75.209c0-8.62,7.013-15.632,15.632-15.632h27.441c18.891,0,36.778-9.138,47.849-24.444
	c7.653-10.579,20.015-16.896,33.071-16.896h216.47c13.056,0,25.419,6.316,33.07,16.896c11.072,15.305,28.959,24.444,47.85,24.444
	h27.441c8.62,0,15.632,7.013,15.632,15.632v52.456H488.229z"/>
<g>
	<path style="fill:#FFFFFF;" d="M432.06,470.926c-5.037,0-9.119-4.083-9.119-9.119V246.28c0-5.036,4.082-9.119,9.119-9.119
		c5.037,0,9.119,4.083,9.119,9.119v215.527C441.179,466.843,437.096,470.926,432.06,470.926z"/>
	<path style="fill:#FFFFFF;" d="M432.06,225.323c-0.596,0-1.192-0.061-1.787-0.182c-0.573-0.109-1.155-0.292-1.702-0.511
		c-0.547-0.231-1.082-0.511-1.568-0.839c-0.499-0.34-0.973-0.717-1.386-1.143c-1.702-1.69-2.675-4.049-2.675-6.444
		c0-0.596,0.061-1.192,0.182-1.787c0.109-0.571,0.291-1.155,0.511-1.702c0.23-0.547,0.511-1.082,0.838-1.568
		c0.34-0.499,0.717-0.973,1.143-1.386c0.413-0.426,0.886-0.802,1.386-1.143c0.486-0.328,1.021-0.608,1.568-0.839
		c0.547-0.219,1.131-0.401,1.702-0.511c1.179-0.243,2.395-0.243,3.573,0c0.573,0.109,1.155,0.292,1.702,0.511
		c0.547,0.231,1.082,0.511,1.568,0.839c0.499,0.34,0.973,0.717,1.386,1.143c0.427,0.413,0.802,0.888,1.143,1.386
		c0.328,0.486,0.608,1.021,0.838,1.568c0.22,0.547,0.401,1.131,0.511,1.702c0.123,0.596,0.182,1.192,0.182,1.787
		c0,0.596-0.061,1.192-0.182,1.787c-0.109,0.571-0.291,1.155-0.511,1.702c-0.23,0.547-0.511,1.082-0.838,1.568
		c-0.34,0.499-0.717,0.973-1.143,1.386c-0.413,0.426-0.886,0.802-1.386,1.143c-0.486,0.328-1.021,0.608-1.568,0.839
		c-0.547,0.219-1.131,0.401-1.702,0.511C433.251,225.262,432.656,225.323,432.06,225.323z"/>
	<path style="fill:#FFFFFF;" d="M364.238,47.418c-0.595,0-1.19-0.061-1.787-0.182c-0.584-0.109-1.155-0.292-1.702-0.523
		c-0.546-0.219-1.082-0.511-1.568-0.839c-0.511-0.328-0.973-0.705-1.386-1.131c-0.426-0.413-0.802-0.888-1.142-1.386
		c-0.329-0.486-0.608-1.021-0.839-1.568c-0.219-0.559-0.401-1.131-0.511-1.714c-0.123-0.584-0.182-1.179-0.182-1.775
		c0-0.596,0.061-1.192,0.182-1.787c0.109-0.571,0.292-1.155,0.511-1.702c0.231-0.547,0.511-1.082,0.839-1.568
		c0.339-0.499,0.717-0.973,1.142-1.386c0.413-0.426,0.875-0.802,1.386-1.143c0.486-0.328,1.023-0.608,1.568-0.839
		c0.547-0.219,1.119-0.401,1.702-0.511c1.179-0.243,2.395-0.243,3.562,0c0.584,0.109,1.167,0.292,1.714,0.511
		c0.547,0.231,1.083,0.511,1.568,0.839c0.499,0.34,0.973,0.717,1.386,1.143c0.427,0.413,0.802,0.888,1.143,1.386
		c0.329,0.486,0.608,1.021,0.827,1.568c0.231,0.547,0.415,1.131,0.524,1.702c0.122,0.596,0.181,1.192,0.181,1.787
		c0,0.596-0.061,1.192-0.181,1.775c-0.109,0.584-0.292,1.155-0.524,1.714c-0.219,0.547-0.497,1.082-0.827,1.568
		c-0.34,0.499-0.717,0.973-1.143,1.386c-0.413,0.426-0.886,0.802-1.386,1.131c-0.485,0.328-1.021,0.62-1.568,0.839
		c-0.547,0.231-1.131,0.413-1.714,0.523C365.431,47.358,364.834,47.418,364.238,47.418z"/>
	<path style="fill:#FFFFFF;" d="M130.945,56.005c-1.851,0-3.719-0.562-5.334-1.728c-4.082-2.95-5-8.651-2.051-12.732
		c5.595-7.743,14.645-12.364,24.208-12.364h190.914c5.037,0,9.119,4.083,9.119,9.119s-4.082,9.119-9.119,9.119H147.768
		c-3.725,0-7.249,1.797-9.424,4.807C136.56,54.693,133.772,56.005,130.945,56.005z"/>
	<path style="fill:#FFFFFF;" d="M55.387,88.758H43.837c-5.037,0-9.119-4.083-9.119-9.119s4.082-9.119,9.119-9.119h11.551
		c5.037,0,9.119,4.083,9.119,9.119S60.423,88.758,55.387,88.758z"/>
</g>
<g>
</g>
<g>
</g>
<g>
</g>
<g>
</g>
<g>
</g>
<g>
</g>
<g>
</g>
<g>
</g>
<g>
</g>
<g>
</g>
<g>
</g>
<g>
</g>
<g>
</g>
<g>
</g>
<g>
</g>
</svg>
