<?xml version="1.0" encoding="iso-8859-1"?>
<!-- Generator: Adobe Illustrator 19.0.0, SVG Export Plug-In . SVG Version: 6.00 Build 0)  -->
<svg version="1.1" id="Layer_1" xmlns="http://www.w3.org/2000/svg" xmlns:xlink="http://www.w3.org/1999/xlink" x="0px" y="0px"
	 viewBox="0 0 512 512" style="enable-background:new 0 0 512 512;" xml:space="preserve">
<g>
	<polygon style="fill:#CC582F;" points="503.313,403.567 403.572,503.32 377.616,477.363 475.991,378.977 477.357,377.611 	"/>
	<polygon style="fill:#CC582F;" points="133.026,33.28 131.661,34.646 33.274,133.021 8.683,108.43 108.424,8.678 	"/>
	<polygon style="fill:#CC582F;" points="156.252,56.506 154.886,57.871 56.511,156.258 33.274,133.021 131.661,34.646 
		133.026,33.28 	"/>
	<polygon style="fill:#CC582F;" points="179.477,79.731 178.111,81.097 79.736,179.484 56.511,156.258 154.886,57.871 
		156.252,56.506 	"/>
	<polygon style="fill:#CC582F;" points="477.357,377.611 475.991,378.977 377.616,477.363 259.047,358.795 238.796,338.543 
		338.548,238.803 	"/>
	<path style="fill:#CC582F;" d="M468.77,73.876c9.582,9.582,9.582,25.112,0,34.693L338.548,238.803l-99.752,99.741L108.574,468.765
		c-9.582,9.582-25.112,9.582-34.693,0l-30.655-30.643c-9.582-9.582-9.582-25.123,0-34.705l130.222-130.222l99.752-99.741
		L403.422,43.233c9.582-9.582,25.123-9.582,34.705,0L468.77,73.876z"/>
</g>
<path style="opacity:0.25;fill:#4D4D4D;enable-background:new    ;" d="M468.77,73.876l-23.144-23.144
	c9.582,9.582,9.582,25.112,0,34.693L315.404,215.658l-99.752,99.741L85.43,445.621c-9.582,9.582-25.112,9.582-34.693,0l-7.593-7.589
	c0.029,0.029,0.053,0.061,0.082,0.09l30.655,30.643c9.582,9.582,25.112,9.582,34.693,0l130.222-130.222l99.752-99.741
	L468.77,108.569C478.352,98.987,478.352,83.457,468.77,73.876z"/>
<polygon style="fill:#CC582F;" points="273.2,173.454 173.448,273.195 79.736,179.484 178.111,81.097 179.477,79.731 "/>
<g style="opacity:0.25;">
	<polygon style="fill:#4D4D4D;" points="288.784,329.061 358.8,259.054 338.548,238.803 238.796,338.543 259.047,358.795 
		377.616,477.363 403.572,503.32 433.301,473.579 	"/>
	<polygon style="fill:#4D4D4D;" points="38.412,78.69 8.683,108.43 33.274,133.021 56.511,156.258 173.448,273.195 203.188,243.466 
		63.014,103.292 	"/>
</g>
<g>
	<path style="fill:#FFFFFF;" d="M408.178,85.043c-2.28,0-4.525-0.926-6.133-2.546c-0.405-0.393-0.764-0.845-1.088-1.319
		c-0.312-0.463-0.579-0.972-0.798-1.493c-0.208-0.521-0.382-1.076-0.486-1.62c-0.116-0.567-0.174-1.134-0.174-1.701
		c0-0.567,0.058-1.134,0.174-1.69c0.104-0.555,0.278-1.111,0.486-1.632c0.22-0.521,0.486-1.03,0.798-1.493
		c0.324-0.474,0.683-0.926,1.088-1.319c1.609-1.62,3.854-2.546,6.133-2.546s4.525,0.926,6.133,2.546
		c0.405,0.393,0.764,0.845,1.088,1.319c0.312,0.463,0.579,0.972,0.798,1.493c0.208,0.521,0.382,1.076,0.486,1.632
		c0.116,0.555,0.174,1.123,0.174,1.69c0,0.567-0.058,1.134-0.174,1.701c-0.104,0.544-0.278,1.099-0.486,1.62
		c-0.22,0.521-0.486,1.03-0.798,1.493c-0.324,0.474-0.683,0.926-1.088,1.319C412.703,84.116,410.458,85.043,408.178,85.043z"/>
	<path style="fill:#FFFFFF;" d="M74.32,418.901c-2.221,0-4.443-0.847-6.137-2.542c-3.389-3.389-3.389-8.885,0-12.273L384.104,88.164
		c3.389-3.389,8.885-3.389,12.273,0c3.389,3.389,3.389,8.885,0,12.273L80.457,416.358C78.763,418.052,76.542,418.901,74.32,418.901z
		"/>
	<path style="fill:#FFFFFF;" d="M223.023,166.048c-2.221,0-4.443-0.847-6.137-2.542l-42.238-42.238
		c-3.389-3.389-3.389-8.885,0-12.273c3.389-3.389,8.885-3.389,12.273,0l42.238,42.238c3.389,3.389,3.389,8.885,0,12.273
		C227.466,165.2,225.245,166.048,223.023,166.048z"/>
</g>
<path style="fill:#333333;" d="M509.452,397.432L350.821,238.8l124.089-124.089c12.949-12.949,12.949-34.02,0-46.97l-30.65-30.652
	c-12.95-12.948-34.021-12.949-46.97,0L273.2,161.177L114.563,2.542C112.935,0.914,110.728,0,108.426,0
	c-2.302,0-4.51,0.915-6.138,2.542L2.547,102.295c-3.389,3.389-3.388,8.885,0,12.273l158.63,158.63L37.094,397.285
	c-12.949,12.949-12.949,34.02,0,46.97l30.65,30.65c6.476,6.475,14.98,9.713,23.486,9.713s17.01-3.237,23.485-9.713L238.799,350.82
	l158.637,158.637c1.627,1.628,3.835,2.542,6.137,2.542s4.51-0.915,6.138-2.542l99.741-99.752
	C512.842,406.316,512.842,400.82,509.452,397.432z M156.252,68.779l10.955,10.955l-87.472,87.472L68.78,156.251L156.252,68.779z
	 M56.505,143.977L45.55,133.021l87.472-87.472l10.955,10.955L56.505,143.977z M108.426,20.954l12.322,12.322l-87.472,87.472
	L20.959,108.43L108.426,20.954z M92.009,179.48l87.472-87.472l81.445,81.445l-87.473,87.473L92.009,179.48z M102.441,462.632
	c-6.181,6.182-16.239,6.182-22.422,0l-30.651-30.651c-6.182-6.182-6.182-16.242,0-22.422L409.562,49.363
	c3.091-3.091,7.152-4.636,11.211-4.636c4.061,0,8.12,1.545,11.211,4.636l30.65,30.65c6.182,6.182,6.182,16.242,0,22.422
	L102.441,462.632z M338.547,251.074L465.083,377.61l-87.472,87.473L251.074,338.547L338.547,251.074z M403.575,491.046l-13.69-13.69
	l87.472-87.473l13.685,13.685L403.575,491.046z"/>
<g>
</g>
<g>
</g>
<g>
</g>
<g>
</g>
<g>
</g>
<g>
</g>
<g>
</g>
<g>
</g>
<g>
</g>
<g>
</g>
<g>
</g>
<g>
</g>
<g>
</g>
<g>
</g>
<g>
</g>
</svg>
