<?xml version="1.0" encoding="iso-8859-1"?>
<!-- Generator: Adobe Illustrator 19.0.0, SVG Export Plug-In . SVG Version: 6.00 Build 0)  -->
<svg version="1.1" id="Layer_1" xmlns="http://www.w3.org/2000/svg" xmlns:xlink="http://www.w3.org/1999/xlink" x="0px" y="0px"
	 viewBox="0 0 511.999 511.999" style="enable-background:new 0 0 511.999 511.999;" xml:space="preserve">
<path style="fill:#F7B239;" d="M390.207,175.973c-8.953,0-16.205,7.264-16.205,16.205c0,8.953,7.252,16.205,16.205,16.205
	c8.942,0,16.205-7.252,16.205-16.205C406.412,183.237,399.148,175.973,390.207,175.973z M430.329,75.123
	c19.124,45.731,30.663,105.046,30.663,169.877c0,57.476-23.538,174.877-35.168,229.388l-1.402-0.31H286.069
	c12.24-57.246,37.708-183.715,37.708-245.352c0-56.775-8.332-109.574-22.641-153.603H430.329z"/>
<g style="opacity:0.25;">
	<path style="fill:#4D4D4D;" d="M430.329,75.123h-44.82c19.124,45.731,30.663,105.046,30.663,169.877
		c0,57.369-23.449,174.434-35.102,229.078h43.353l1.402,0.31c11.631-54.511,35.168-171.912,35.168-229.388
		C460.992,180.168,449.453,120.853,430.329,75.123z"/>
</g>
<g>
	<path style="fill:#3A88D6;" d="M424.295,48.333l6.034,26.779H301.136c-3.046-9.401-6.367-18.412-9.953-26.962v-0.011l-2.299-10.206
		h122.412C417.526,37.931,422.927,42.253,424.295,48.333z"/>
	<path style="fill:#3A88D6;" d="M424.421,474.078l1.402,0.31c-3.827,17.883-6.356,28.997-6.356,28.997H279.644v-0.012
		c0,0,2.551-11.183,6.425-29.296H424.421z"/>
</g>
<path style="fill:#F7B239;" d="M248.533,155.366c-9.516,0-17.228,7.712-17.228,17.216c0,9.516,7.712,17.228,17.228,17.228
	s17.228-7.712,17.228-17.228C265.761,163.078,258.049,155.366,248.533,155.366z M126.259,155.366
	c-9.516,0-17.228,7.712-17.228,17.216c0,9.516,7.712,17.228,17.228,17.228c9.505,0,17.216-7.712,17.216-17.228
	C143.476,163.078,135.764,155.366,126.259,155.366z M301.136,75.123c14.309,44.03,22.641,96.828,22.641,153.603
	c0,61.637-25.468,188.105-37.708,245.352H89.999l-1.218,0.264c-12.217-57.12-37.766-183.887-37.766-245.616
	c0-68.912,12.263-131.962,32.583-180.577H241.12h50.063c3.586,8.551,6.907,17.561,9.953,26.962V75.123z"/>
<g style="opacity:0.25;">
	<path style="fill:#4D4D4D;" d="M301.136,75.123v-0.011c-3.046-9.401-6.367-18.412-9.953-26.962H241.12h-20.615
		c3.586,8.551,6.907,17.561,9.953,26.962v0.011c7.909,24.339,13.982,51.367,17.842,80.255c0.078-0.001,0.155-0.011,0.233-0.011
		c9.516,0,17.228,7.712,17.228,17.216c0,8.42-6.041,15.417-14.024,16.919c0.886,12.818,1.362,25.906,1.362,39.224
		c0,61.637-25.468,188.105-37.708,245.352h70.678c12.24-57.246,37.708-183.715,37.708-245.352
		C323.777,171.951,315.445,119.152,301.136,75.123z"/>
	<path style="fill:#4D4D4D;" d="M88.781,474.342l1.218-0.264h-1.275C88.743,474.164,88.762,474.256,88.781,474.342z"/>
</g>
<g>
	<path style="fill:#FFFFFF;" d="M90.238,343.711c-4.15,0-7.807-3.004-8.497-7.234c-7.805-47.874-11.762-84.126-11.762-107.751
		c0-10.129,0.283-20.356,0.84-30.4c0.264-4.753,4.339-8.386,9.084-8.128c4.753,0.263,8.392,4.331,8.128,9.084
		c-0.54,9.727-0.814,19.633-0.814,29.444c0,22.699,3.881,58.018,11.538,104.977c0.767,4.698-2.422,9.129-7.12,9.894
		C91.166,343.674,90.699,343.711,90.238,343.711z"/>
	<path style="fill:#FFFFFF;" d="M102.549,84.351c-0.563,0-1.126-0.057-1.689-0.172c-0.552-0.103-1.092-0.276-1.609-0.483
		c-0.517-0.218-1.023-0.483-1.494-0.793c-0.471-0.322-0.908-0.678-1.31-1.08c-0.391-0.391-0.747-0.839-1.069-1.31
		c-0.31-0.46-0.575-0.965-0.793-1.483c-0.218-0.517-0.379-1.069-0.494-1.609c-0.103-0.563-0.161-1.126-0.161-1.689
		c0-0.563,0.057-1.126,0.161-1.689c0.115-0.54,0.276-1.092,0.494-1.609c0.218-0.517,0.483-1.023,0.793-1.483
		c0.322-0.471,0.678-0.919,1.069-1.31c0.402-0.402,0.839-0.759,1.31-1.08c0.471-0.31,0.977-0.575,1.494-0.793
		c0.517-0.207,1.057-0.379,1.609-0.483c2.804-0.563,5.781,0.345,7.781,2.356c0.402,0.391,0.759,0.839,1.069,1.31
		c0.31,0.46,0.586,0.965,0.793,1.483c0.218,0.517,0.391,1.069,0.494,1.609c0.115,0.563,0.172,1.126,0.172,1.689
		c0,0.563-0.057,1.126-0.172,1.689c-0.103,0.54-0.276,1.092-0.494,1.609c-0.207,0.517-0.483,1.023-0.793,1.483
		c-0.31,0.471-0.667,0.919-1.069,1.31C107.032,83.432,104.814,84.351,102.549,84.351z"/>
	<path style="fill:#FFFFFF;" d="M82.85,170.107c-0.367,0-0.737-0.024-1.109-0.071c-4.721-0.607-8.058-4.927-7.451-9.648
		c2.646-20.584,6.49-40.474,11.426-59.116c1.218-4.602,5.938-7.344,10.538-6.127c4.602,1.218,7.345,5.937,6.127,10.539
		c-4.743,17.918-8.442,37.063-10.992,56.902C90.83,166.934,87.121,170.107,82.85,170.107z"/>
</g>
<g>
	<path style="fill:#3A88D6;" d="M288.885,37.931l2.299,10.206H241.12H83.598l6.413-28.457c1.46-6.471,7.206-11.056,13.826-11.056
		h167.108c6.631,0,12.378,4.586,13.826,11.056L288.885,37.931z"/>
	<path style="fill:#3A88D6;" d="M89.999,474.078h196.07c-3.873,18.113-6.425,29.296-6.425,29.296H95.148
		c0,0-2.528-11.068-6.367-29.031L89.999,474.078z"/>
</g>
<path style="fill:#FFFFFF;" d="M107.744,37.368c-0.563,0-1.126-0.057-1.678-0.172c-0.552-0.103-1.103-0.276-1.621-0.483
	c-0.517-0.218-1.023-0.483-1.483-0.793c-0.471-0.322-0.919-0.678-1.31-1.08c-0.402-0.391-0.759-0.839-1.08-1.31
	c-0.31-0.46-0.575-0.965-0.793-1.483c-0.207-0.517-0.379-1.069-0.483-1.609c-0.115-0.563-0.172-1.126-0.172-1.689
	s0.057-1.126,0.172-1.689c0.103-0.54,0.276-1.092,0.483-1.609c0.218-0.517,0.483-1.023,0.793-1.483
	c0.322-0.471,0.678-0.919,1.08-1.31c0.391-0.402,0.839-0.759,1.31-1.08c0.46-0.31,0.965-0.575,1.483-0.793
	c0.517-0.207,1.069-0.379,1.621-0.483c1.103-0.23,2.253-0.23,3.367,0c0.54,0.103,1.092,0.276,1.609,0.483
	c0.517,0.218,1.023,0.483,1.483,0.793c0.471,0.322,0.919,0.678,1.31,1.08c0.402,0.391,0.759,0.839,1.08,1.31
	c0.31,0.46,0.575,0.965,0.782,1.483c0.218,0.517,0.391,1.069,0.494,1.609c0.115,0.563,0.172,1.126,0.172,1.689
	s-0.057,1.126-0.172,1.689c-0.103,0.54-0.276,1.092-0.494,1.609c-0.207,0.517-0.471,1.023-0.782,1.483
	c-0.322,0.471-0.678,0.919-1.08,1.31c-0.391,0.402-0.839,0.759-1.31,1.08c-0.46,0.31-0.965,0.575-1.483,0.793
	c-0.517,0.207-1.069,0.379-1.609,0.483C108.871,37.311,108.307,37.368,107.744,37.368z"/>
<g>
	<path style="fill:#CC582F;" d="M390.207,175.973c8.942,0,16.205,7.264,16.205,16.205c0,8.953-7.264,16.205-16.205,16.205
		c-8.953,0-16.205-7.252-16.205-16.205C374.002,183.237,381.254,175.973,390.207,175.973z"/>
	<path style="fill:#CC582F;" d="M248.533,155.366c9.516,0,17.228,7.712,17.228,17.216c0,9.516-7.712,17.228-17.228,17.228
		s-17.228-7.712-17.228-17.228C231.305,163.078,239.017,155.366,248.533,155.366z"/>
	<path style="fill:#CC582F;" d="M126.259,155.366c9.505,0,17.216,7.712,17.216,17.216c0,9.516-7.712,17.228-17.216,17.228
		c-9.516,0-17.228-7.712-17.228-17.228C109.031,163.078,116.743,155.366,126.259,155.366z"/>
</g>
<path style="fill:#333333;" d="M438.409,72.102c-0.033-0.09-5.706-25.666-5.706-25.666c-2.269-10.086-11.071-17.13-21.408-17.13
	H295.778l-2.596-11.526C290.823,7.312,281.68,0,270.949,0h-167.11C93.107,0,83.964,7.312,81.606,17.782l-6.25,27.747
	c-21.26,51.208-32.966,116.227-32.966,183.199c0,81.175,42.541,268.626,44.351,276.567c0.894,3.921,4.382,6.703,8.404,6.703h150.721
	c0.011,0,0.022,0.001,0.033,0.001h173.567c4.023,0,7.509-2.781,8.405-6.703c1.703-7.472,41.739-183.874,41.739-260.302
	C469.611,181.751,458.531,120.368,438.409,72.102z M418.886,465.453H296.707c3.904-18.537,8.704-42.072,13.474-67.375
	c14.742-78.188,22.217-135.164,22.217-169.349c0-51.246-6.859-101.343-19.601-144.991h60.516l7.627,85.419
	c-9.11,3.68-15.56,12.61-15.56,23.024c0,13.688,11.136,24.824,24.824,24.824s24.825-11.136,24.825-24.824
	c0-10.887-7.049-20.154-16.82-23.493l-7.585-84.951h33.908c17.978,45.431,27.842,102.416,27.842,161.258
	C452.371,299.016,430.864,408.606,418.886,465.453z M397.788,192.181c0,4.182-3.403,7.584-7.585,7.584
	c-4.182,0-7.584-3.402-7.584-7.584s3.402-7.584,7.584-7.584C394.384,184.597,397.788,187.998,397.788,192.181z M415.884,50.222
	l3.664,16.264H307.336c-2.343-6.848-4.841-13.501-7.489-19.94h111.448C413.511,46.547,415.398,48.057,415.884,50.222z
	 M103.839,17.239h167.11c2.613,0,4.841,1.781,5.415,4.331l4.042,17.946H94.381l4.042-17.946
	C98.998,19.021,101.225,17.239,103.839,17.239z M89.393,56.769h37.012l-8.147,91.247c-10.347,3.377-17.846,13.112-17.846,24.571
	c0,14.25,11.593,25.844,25.844,25.844s25.844-11.594,25.844-25.844c0-10.984-6.891-20.384-16.574-24.118l8.188-91.7h87.361
	l8.188,91.7c-9.684,3.734-16.575,13.134-16.575,24.118c0,14.25,11.593,25.844,25.844,25.844c14.25,0,25.844-11.594,25.844-25.844
	c0-11.46-7.499-21.195-17.846-24.571l-8.146-91.247h37.012c19.219,48.434,29.763,109.219,29.763,171.96
	c0,58.197-23.453,176.977-36.083,236.724H95.712c-12.631-59.747-36.083-178.527-36.083-236.724
	C59.629,165.987,70.174,105.202,89.393,56.769z M126.256,163.983c4.744,0,8.605,3.859,8.605,8.605s-3.859,8.605-8.605,8.605
	c-4.745,0-8.605-3.86-8.605-8.605S121.512,163.983,126.256,163.983z M257.137,172.588c0,4.744-3.859,8.605-8.605,8.605
	c-4.745,0-8.605-3.86-8.605-8.605s3.859-8.605,8.605-8.605C253.277,163.983,257.137,167.842,257.137,172.588z M99.404,482.693
	h175.98c-1.064,4.904-1.962,8.988-2.646,12.066H102.049C101.366,491.679,100.468,487.596,99.404,482.693z M290.397,494.761
	c0.736-3.336,1.623-7.393,2.633-12.068h122.174c-1.062,4.904-1.958,8.983-2.642,12.068H290.397z"/>
<g>
</g>
<g>
</g>
<g>
</g>
<g>
</g>
<g>
</g>
<g>
</g>
<g>
</g>
<g>
</g>
<g>
</g>
<g>
</g>
<g>
</g>
<g>
</g>
<g>
</g>
<g>
</g>
<g>
</g>
</svg>
