<?xml version="1.0" encoding="iso-8859-1"?>
<!-- Generator: Adobe Illustrator 19.0.0, SVG Export Plug-In . SVG Version: 6.00 Build 0)  -->
<svg version="1.1" id="Layer_1" xmlns="http://www.w3.org/2000/svg" xmlns:xlink="http://www.w3.org/1999/xlink" x="0px" y="0px"
	 viewBox="0 0 512 512" style="enable-background:new 0 0 512 512;" xml:space="preserve">
<g>
	<path style="fill:#F7B239;" d="M256.004,145.321H21.192c25.751-25.739,60.662-40.205,97.071-40.205h23.185h114.556H370.56h23.173
		c18.204,0,36.037,3.611,52.535,10.449c16.498,6.838,31.672,16.893,44.536,29.756H256.004z"/>
	<path style="fill:#F7B239;" d="M256.004,172.512h234.8c-12.864,12.864-28.038,22.918-44.536,29.756
		c-16.498,6.838-34.331,10.449-52.535,10.449H370.56H256.004H141.448h-23.185c-36.409,0-71.32-14.466-97.071-40.205H256.004z"/>
</g>
<g>
	<path style="opacity:0.25;fill:#4D4D4D;enable-background:new    ;" d="M490.804,145.321H378.188
		c-12.864-12.864-28.038-22.918-44.536-29.756c-16.498-6.838-34.331-10.449-52.535-10.449h112.617
		c18.204,0,36.037,3.611,52.535,10.449C462.766,122.403,477.94,132.457,490.804,145.321z"/>
	<path style="opacity:0.25;fill:#4D4D4D;enable-background:new    ;" d="M490.804,172.512
		c-12.864,12.864-28.038,22.918-44.536,29.756c-16.498,6.838-34.331,10.449-52.535,10.449H281.116
		c18.204,0,36.037-3.611,52.535-10.449c16.498-6.838,31.672-16.893,44.536-29.756H490.804z"/>
</g>
<g>
	<path style="fill:#F7B239;" d="M370.56,105.116H256.004H141.448c31.37-25.17,71.216-40.205,114.556-40.205
		S339.178,79.945,370.56,105.116z"/>
	<path style="fill:#F7B239;" d="M256.004,252.922c-43.34,0-83.186-15.035-114.556-40.205h114.556H370.56
		C339.178,237.887,299.344,252.922,256.004,252.922z"/>
</g>
<g>
	<path style="opacity:0.25;fill:#4D4D4D;enable-background:new    ;" d="M370.56,105.116h-51.084
		c-25.101-20.132-55.623-33.785-89.014-38.429c8.348-1.173,16.881-1.776,25.542-1.776C299.344,64.91,339.178,79.945,370.56,105.116z
		"/>
	<path style="opacity:0.25;fill:#4D4D4D;enable-background:new    ;" d="M370.56,212.717
		c-31.382,25.17-71.216,40.205-114.556,40.205c-8.661,0-17.194-0.604-25.542-1.776c33.39-4.644,63.913-18.297,89.014-38.429H370.56z
		"/>
</g>
<polygon style="fill:#F7B239;" points="276.507,297.795 276.507,346.557 256.004,346.557 235.489,346.557 235.489,297.795 
	256.004,297.795 "/>
<polygon style="opacity:0.25;fill:#4D4D4D;enable-background:new    ;" points="276.507,297.795 276.507,346.557 266.451,346.557 
	256.387,346.557 256.387,297.795 266.451,297.795 "/>
<path style="fill:#333333;" d="M490.803,163.801H264.708v-9.771h226.095c3.522,0,6.697-2.121,8.045-5.375
	c1.348-3.254,0.603-6.998-1.888-9.489c-27.573-27.573-64.231-42.757-103.223-42.757h-20.176
	c-31.166-24.17-69.416-38.194-108.853-40.001v-47.7c0-4.809-3.899-8.707-8.707-8.707c-4.809,0-8.707,3.899-8.707,8.707v47.7
	c-39.437,1.807-77.687,15.831-108.855,40.001h-20.176c-38.992,0-75.651,15.185-103.223,42.757c-2.49,2.49-3.236,6.236-1.888,9.489
	c1.348,3.254,4.523,5.375,8.045,5.375h226.097v9.771H21.198c-3.522,0-6.697,2.121-8.045,5.375c-1.348,3.254-0.603,6.999,1.888,9.489
	c27.573,27.573,64.231,42.756,103.223,42.756h20.176c31.168,24.17,69.418,38.196,108.854,40.002v27.665h-11.8
	c-4.809,0-8.707,3.899-8.707,8.707v48.762c0,4.809,3.899,8.707,8.707,8.707h11.799v148.027c0,4.809,3.899,8.707,8.707,8.707
	c4.809,0,8.707-3.899,8.707-8.707V355.265h11.8c4.809,0,8.707-3.899,8.707-8.707v-48.762c0-4.809-3.899-8.707-8.707-8.707h-11.8
	v-27.665c39.437-1.807,77.686-15.831,108.854-40.002h20.176c38.992,0,75.651-15.185,103.223-42.756
	c2.49-2.49,3.236-6.236,1.888-9.489C497.5,165.923,494.326,163.801,490.803,163.801z M256.001,73.618
	c30.836,0,60.24,7.818,86.371,22.79H169.629C195.76,81.437,225.164,73.618,256.001,73.618z M118.263,113.824h275.475
	c26.521,0,51.812,7.974,73.143,22.792H45.122C66.451,121.798,91.743,113.824,118.263,113.824z M267.801,337.85H244.2v-31.347h23.601
	V337.85z M256.001,244.214c-30.836,0-60.24-7.819-86.372-22.792h172.744C316.24,236.394,286.837,244.214,256.001,244.214z
	 M393.738,204.007H118.263c-26.518,0-51.813-7.976-73.142-22.79H466.88C445.551,196.031,420.256,204.007,393.738,204.007z"/>
<g>
	<path style="fill:#FFFFFF;" d="M215.369,133.827h-77.787c-4.809,0-8.707-3.899-8.707-8.707c0-4.809,3.899-8.707,8.707-8.707h77.787
		c4.809,0,8.707,3.899,8.707,8.707C224.077,129.928,220.178,133.827,215.369,133.827z"/>
	<path style="fill:#FFFFFF;" d="M107.396,133.827c-0.569,0-1.138-0.058-1.707-0.174c-0.546-0.104-1.103-0.279-1.625-0.488
		c-0.522-0.221-1.033-0.488-1.498-0.801c-0.476-0.325-0.929-0.685-1.324-1.091c-0.406-0.395-0.766-0.848-1.091-1.324
		c-0.313-0.464-0.58-0.975-0.789-1.498c-0.221-0.522-0.395-1.08-0.499-1.625c-0.116-0.569-0.174-1.138-0.174-1.707
		s0.058-1.138,0.174-1.707c0.104-0.546,0.279-1.103,0.499-1.625c0.209-0.522,0.476-1.033,0.789-1.498
		c0.325-0.476,0.685-0.929,1.091-1.324c0.395-0.406,0.848-0.766,1.324-1.091c0.464-0.313,0.975-0.58,1.498-0.801
		c0.522-0.209,1.08-0.383,1.625-0.488c1.126-0.232,2.287-0.232,3.402,0c0.557,0.104,1.115,0.279,1.637,0.488
		c0.522,0.221,1.033,0.488,1.498,0.801c0.476,0.325,0.929,0.685,1.324,1.091c0.406,0.395,0.766,0.848,1.091,1.324
		c0.313,0.464,0.58,0.975,0.801,1.498c0.209,0.522,0.383,1.08,0.488,1.625c0.116,0.569,0.174,1.138,0.174,1.707
		s-0.058,1.138-0.174,1.707c-0.104,0.546-0.279,1.103-0.488,1.625c-0.221,0.522-0.488,1.033-0.801,1.498
		c-0.325,0.476-0.685,0.929-1.091,1.324c-0.395,0.406-0.848,0.766-1.324,1.091c-0.464,0.313-0.975,0.581-1.498,0.801
		c-0.522,0.209-1.08,0.383-1.637,0.488C108.534,133.769,107.965,133.827,107.396,133.827z"/>
</g>
<g>
</g>
<g>
</g>
<g>
</g>
<g>
</g>
<g>
</g>
<g>
</g>
<g>
</g>
<g>
</g>
<g>
</g>
<g>
</g>
<g>
</g>
<g>
</g>
<g>
</g>
<g>
</g>
<g>
</g>
</svg>
