<?xml version="1.0" encoding="iso-8859-1"?>
<!-- Generator: Adobe Illustrator 19.0.0, SVG Export Plug-In . SVG Version: 6.00 Build 0)  -->
<svg version="1.1" id="Layer_1" xmlns="http://www.w3.org/2000/svg" xmlns:xlink="http://www.w3.org/1999/xlink" x="0px" y="0px"
	 viewBox="0 0 512 512" style="enable-background:new 0 0 512 512;" xml:space="preserve">
<path style="fill:#F95428;" d="M222.756,218.728c-20.58,0-37.271,16.69-37.271,37.27c0,10.296,4.178,19.605,10.916,26.354
	c6.749,6.749,16.07,10.916,26.354,10.916c10.285,0,19.605-4.167,26.354-10.916c6.738-6.749,10.916-16.059,10.916-26.354
	C260.027,235.418,243.337,218.728,222.756,218.728z"/>
<path style="opacity:0.25;fill:#4D4D4D;enable-background:new    ;" d="M222.756,218.728c-6.307,0-12.246,1.574-17.454,4.341
	c11.785,6.261,19.817,18.657,19.817,32.929c0,10.296-4.178,19.605-10.916,26.354c-2.611,2.611-5.611,4.831-8.9,6.577
	c5.21,2.767,11.149,4.339,17.454,4.339c10.285,0,19.605-4.167,26.354-10.916c6.738-6.749,10.916-16.059,10.916-26.354
	C260.027,235.418,243.337,218.728,222.756,218.728z"/>
<path style="fill:#F7B239;" d="M289.251,41.562c118.428,0,214.436,96.008,214.436,214.436c0,118.439-96.008,214.447-214.436,214.447
	c-11.304,0-22.409-0.876-33.248-2.56v-0.011c102.635-15.981,181.188-104.752,181.188-211.876S358.65,60.103,256.026,44.122
	C266.854,42.438,277.958,41.562,289.251,41.562z"/>
<path style="opacity:0.25;fill:#4D4D4D;enable-background:new    ;" d="M264.317,41.562c118.428,0,214.436,96.008,214.436,214.436
	c0,118.439-96.008,214.447-214.436,214.447c-11.304,0-22.409-0.876-33.248-2.56v-0.011
	c102.635-15.981,181.188-104.752,181.188-211.876S333.716,60.103,231.091,44.122C241.919,42.438,253.024,41.562,264.317,41.562z"/>
<g>
	<path style="fill:#F7B239;" d="M256.026,44.122C358.65,60.103,437.192,148.874,437.192,255.998s-78.553,195.895-181.188,211.875
		c-10.839,1.685-21.943,2.56-33.248,2.56c-118.439,0-214.447-96.008-214.447-214.436c0-118.439,96.008-214.447,214.447-214.447
		c11.304,0,22.409,0.876,33.248,2.571C256.015,44.122,256.015,44.122,256.026,44.122z M408.466,255.998
		c0-102.569-83.141-185.721-185.71-185.721S37.036,153.429,37.036,255.998s83.152,185.71,185.721,185.71
		S408.466,358.566,408.466,255.998z"/>
	<path style="fill:#F7B239;" d="M222.756,70.277c-102.569,0-185.721,83.152-185.721,185.721s83.152,185.71,185.721,185.71
		s185.71-83.141,185.71-185.71S325.325,70.277,222.756,70.277z M222.756,218.728c20.58,0,37.27,16.69,37.27,37.27
		c0,10.296-4.178,19.605-10.916,26.354c-6.749,6.749-16.07,10.916-26.354,10.916c-10.285,0-19.605-4.167-26.354-10.916
		c-6.738-6.749-10.916-16.059-10.916-26.354C185.486,235.418,202.175,218.728,222.756,218.728z"/>
</g>
<path style="opacity:0.25;fill:#4D4D4D;enable-background:new    ;" d="M285.277,285.518l-22.24-22.239
	c-1.462,5.409-4.893,10.269-9.072,14.437l19.556,19.556c7.885,7.885,12.227,18.369,12.227,29.521s-4.342,21.634-12.227,29.52
	c-7.884,7.885-18.368,12.227-29.52,12.227c-11.152,0-21.635-4.342-29.52-12.227c-7.885-7.885-12.227-18.369-12.227-29.52
	c0-11.151,4.342-21.634,12.227-29.521l2.867-2.867c-6.282-0.819-12.882-3.781-16.933-6.308c-0.023-0.014-0.042-0.03-0.064-0.044
	c-9.512,10.69-14.721,24.313-14.721,38.74c0,15.592,6.072,30.25,17.097,41.275c11.024,11.025,25.683,17.097,41.275,17.097
	c15.592,0,30.251-6.072,41.276-17.097c11.024-11.025,17.096-25.684,17.096-41.275C302.372,311.202,296.301,296.544,285.277,285.518z
	"/>
<g>
	<path style="fill:#333333;" d="M289.253,33.249c-11.131,0-22.315,0.838-33.266,2.476c-10.844-1.629-21.94-2.48-33.232-2.48
		C99.928,33.244,0,133.17,0,255.997c0,122.828,99.928,222.754,222.754,222.754c11.281,0,22.367-0.85,33.201-2.476
		c10.962,1.64,22.156,2.48,33.297,2.48C412.076,478.755,512,378.826,512,255.997C512,133.172,412.076,33.249,289.253,33.249z
		 M16.624,255.997c0-113.66,92.47-206.129,206.13-206.129s206.129,92.469,206.129,206.129c0,113.661-92.47,206.13-206.129,206.13
		C109.094,462.127,16.624,369.658,16.624,255.997z M309.581,461.128c79.812-33.91,135.926-113.09,135.926-205.131
		c0-92.031-56.102-171.203-135.9-205.12c104.139,10.255,185.771,98.33,185.771,205.118
		C495.376,362.799,413.731,450.884,309.581,461.128z"/>
	<path style="fill:#333333;" d="M222.754,61.971c-106.987,0-194.027,87.04-194.027,194.027s87.04,194.027,194.027,194.027
		c106.986,0,194.026-87.04,194.026-194.027S329.74,61.971,222.754,61.971z M222.754,433.4c-97.821,0-177.403-79.582-177.403-177.403
		S124.933,78.594,222.754,78.594s177.402,79.582,177.402,177.402S320.574,433.4,222.754,433.4z"/>
	<path style="fill:#333333;" d="M260.305,281.795c5.059-7.341,8.029-16.227,8.029-25.797c0-25.133-20.447-45.58-45.581-45.58
		s-45.581,20.447-45.581,45.58c0,9.57,2.971,18.456,8.03,25.797l-3.725,3.725c-11.026,11.025-17.098,25.684-17.098,41.277
		s6.072,30.251,17.098,41.277c11.381,11.381,26.328,17.07,41.277,17.07c14.949,0,29.896-5.69,41.277-17.07
		c22.759-22.76,22.759-59.793,0-82.553L260.305,281.795z M193.797,255.997c0-15.967,12.99-28.956,28.957-28.956
		s28.958,12.99,28.958,28.956c0,4.966-1.258,9.644-3.47,13.732l-19.611-19.611c-1.558-1.559-3.673-2.435-5.877-2.435
		c-2.204,0-4.319,0.876-5.877,2.435l-19.611,19.611C195.054,265.641,193.797,260.964,193.797,255.997z M236.486,281.484
		c-4.089,2.212-8.766,3.47-13.732,3.47s-9.644-1.258-13.732-3.47l13.732-13.733L236.486,281.484z M252.276,356.318
		c-16.278,16.278-42.765,16.278-59.043,0c-7.885-7.885-12.228-18.37-12.228-29.522c0-11.151,4.343-21.636,12.228-29.522l3.725-3.725
		c7.341,5.058,16.227,8.029,25.797,8.029c9.57,0,18.456-2.971,25.797-8.029l3.725,3.725
		C268.554,313.553,268.554,340.039,252.276,356.318z"/>
</g>
<g>
	<path style="fill:#FFFFFF;" d="M222.756,105.187c-0.543,0-1.086-0.055-1.629-0.166c-0.521-0.1-1.053-0.266-1.552-0.465
		c-0.499-0.211-0.986-0.465-1.43-0.765c-0.454-0.31-0.887-0.654-1.263-1.042c-0.388-0.377-0.731-0.809-1.042-1.263
		c-0.299-0.443-0.554-0.931-0.754-1.43c-0.211-0.499-0.377-1.031-0.477-1.563c-0.111-0.532-0.166-1.075-0.166-1.618
		c0-0.543,0.055-1.086,0.166-1.629c0.1-0.521,0.266-1.053,0.477-1.552c0.199-0.499,0.454-0.986,0.754-1.43
		c0.31-0.454,0.654-0.887,1.042-1.263c0.377-0.388,0.809-0.731,1.263-1.042c0.443-0.299,0.931-0.554,1.43-0.765
		c0.499-0.199,1.031-0.366,1.552-0.465c1.075-0.222,2.183-0.222,3.258,0c0.521,0.1,1.053,0.266,1.552,0.465
		c0.499,0.211,0.986,0.465,1.43,0.765c0.454,0.31,0.887,0.654,1.263,1.042c0.388,0.377,0.731,0.809,1.042,1.263
		c0.299,0.443,0.554,0.931,0.765,1.43c0.199,0.499,0.366,1.031,0.465,1.552c0.111,0.543,0.166,1.086,0.166,1.629
		c0,0.543-0.055,1.086-0.166,1.618c-0.1,0.532-0.266,1.064-0.465,1.563c-0.211,0.499-0.465,0.986-0.765,1.43
		c-0.31,0.454-0.654,0.887-1.042,1.263c-0.377,0.388-0.809,0.731-1.263,1.042c-0.443,0.299-0.931,0.554-1.43,0.765
		c-0.499,0.199-1.031,0.366-1.552,0.465C223.842,105.133,223.298,105.187,222.756,105.187z"/>
	<path style="fill:#FFFFFF;" d="M67.351,298.629c-3.815,0-7.252-2.643-8.108-6.522c-2.602-11.791-3.922-23.939-3.922-36.108
		c0-79.146,56.244-148.128,133.736-164.027c4.498-0.92,8.889,1.976,9.812,6.472c0.922,4.497-1.975,8.89-6.472,9.812
		c-69.795,14.319-120.454,76.454-120.454,147.742c0,10.967,1.188,21.91,3.531,32.526c0.99,4.482-1.843,8.918-6.326,9.908
		C68.548,298.565,67.945,298.629,67.351,298.629z"/>
</g>
<g>
</g>
<g>
</g>
<g>
</g>
<g>
</g>
<g>
</g>
<g>
</g>
<g>
</g>
<g>
</g>
<g>
</g>
<g>
</g>
<g>
</g>
<g>
</g>
<g>
</g>
<g>
</g>
<g>
</g>
</svg>
