<?xml version="1.0" encoding="iso-8859-1"?>
<!-- Generator: Adobe Illustrator 19.0.0, SVG Export Plug-In . SVG Version: 6.00 Build 0)  -->
<svg version="1.1" id="Layer_1" xmlns="http://www.w3.org/2000/svg" xmlns:xlink="http://www.w3.org/1999/xlink" x="0px" y="0px"
	 viewBox="0 0 512 512" style="enable-background:new 0 0 512 512;" xml:space="preserve">
<polygon style="fill:#F7B239;" points="339.842,470.892 343.366,502.857 168.631,502.857 172.154,470.892 "/>
<g>
	<path style="fill:#F95428;" d="M399.676,188.424l1.463,0.683c-5.035,10.643-11.204,20.64-18.348,29.832H129.217
		c-7.156-9.192-13.325-19.189-18.36-29.832l1.463-0.683H399.676z"/>
	<polygon style="fill:#F95428;" points="414.488,9.142 427.691,46.569 419.292,46.569 92.717,46.569 84.317,46.569 97.52,9.142 	"/>
</g>
<polygon style="opacity:0.25;fill:#4D4D4D;enable-background:new    ;" points="414.488,9.142 344.999,9.142 358.202,46.569 
	419.292,46.569 427.691,46.569 "/>
<path style="fill:#F95428;" d="M317.594,268.8l22.249,202.092H172.154l22.249-202.104c18.982,7.9,39.792,12.252,61.602,12.252
	C277.802,281.04,298.612,276.688,317.594,268.8z"/>
<g style="opacity:0.25;">
	<path style="fill:#4D4D4D;" d="M339.842,470.892L317.594,268.8c-13.81,5.74-28.592,9.596-44.013,11.277l10.049,222.78h59.736
		L339.842,470.892z"/>
</g>
<g>
	<path style="fill:#F7B239;" d="M317.594,268.8c-18.982,7.888-39.792,12.24-61.589,12.24c-21.81,0-42.62-4.352-61.602-12.252
		c-25.821-10.74-48.252-28.04-65.186-49.849h253.575C365.846,240.748,343.414,258.048,317.594,268.8z"/>
	<path style="fill:#F7B239;" d="M419.292,46.569l-2.865,78.011c-0.573,23.066-5.998,44.9-15.288,64.527l-1.463-0.683H112.32
		l-1.463,0.683c-9.277-19.628-14.702-41.462-15.288-64.527l-2.853-78.011H419.292z"/>
</g>
<g>
	<path style="fill:#FFFFFF;" d="M120.537,82.532c-0.597,0-1.195-0.061-1.792-0.183c-0.585-0.11-1.158-0.293-1.707-0.524
		c-0.549-0.219-1.085-0.5-1.573-0.829c-0.512-0.341-0.975-0.719-1.39-1.146c-0.428-0.414-0.805-0.89-1.146-1.39
		c-0.329-0.488-0.61-1.024-0.84-1.573c-0.221-0.549-0.402-1.134-0.512-1.707c-0.123-0.597-0.183-1.195-0.183-1.792
		s0.061-1.195,0.183-1.792c0.11-0.573,0.291-1.158,0.512-1.707c0.23-0.549,0.512-1.085,0.84-1.573c0.341-0.5,0.719-0.975,1.146-1.39
		c0.414-0.427,0.878-0.805,1.39-1.146c0.488-0.329,1.024-0.61,1.573-0.841c0.549-0.219,1.122-0.402,1.707-0.512
		c2.973-0.61,6.131,0.366,8.253,2.499c0.428,0.414,0.805,0.89,1.134,1.39c0.33,0.488,0.623,1.024,0.841,1.573
		c0.232,0.549,0.414,1.134,0.524,1.707c0.123,0.597,0.183,1.195,0.183,1.792c0,0.597-0.061,1.195-0.183,1.792
		c-0.11,0.573-0.291,1.158-0.524,1.707c-0.219,0.549-0.512,1.085-0.841,1.573c-0.329,0.5-0.706,0.975-1.134,1.39
		C125.304,81.556,122.937,82.532,120.537,82.532z"/>
	<path style="fill:#FFFFFF;" d="M128.751,170.75c-3.862,0-7.45-2.466-8.7-6.339c-4.169-12.927-6.461-26.48-6.811-40.278
		l-0.903-24.719c-0.184-5.046,3.757-9.287,8.803-9.471c5.051-0.184,9.286,3.756,9.472,8.803l0.907,24.821
		c0.308,12.151,2.305,23.97,5.936,35.231c1.549,4.806-1.09,9.958-5.896,11.508C130.627,170.606,129.681,170.75,128.751,170.75z"/>
</g>
<path style="opacity:0.25;fill:#4D4D4D;enable-background:new    ;" d="M346.141,46.569l-2.865,78.011
	c-0.573,23.066-5.998,44.9-15.288,64.527c-5.035,10.643-11.204,20.64-18.348,29.832c-16.946,21.81-39.377,39.109-65.198,49.862
	c-8.031,3.338-16.393,6.033-25.015,8.044c11.755,2.742,23.997,4.196,36.576,4.196c21.798,0,42.608-4.352,61.589-12.24
	c25.821-10.753,48.252-28.052,65.198-49.862c7.144-9.192,13.313-19.189,18.348-29.832c9.29-19.628,14.715-41.462,15.288-64.527
	l2.865-78.011L346.141,46.569L346.141,46.569z"/>
<path style="fill:#333333;" d="M436.312,43.525L423.11,6.102C421.819,2.446,418.364,0,414.487,0H97.514
	c-3.878,0-7.333,2.446-8.623,6.102L75.688,43.525c-0.987,2.798-0.555,5.902,1.159,8.323c1.632,2.308,4.239,3.709,7.048,3.837
	l2.533,69.125c1.117,44.493,19.279,86.108,51.143,117.182c13.936,13.589,29.821,24.509,47.008,32.494l-25.037,227.371
	c-0.284,2.583,0.544,5.165,2.279,7.103c1.735,1.936,4.211,3.042,6.81,3.042h174.739c2.599,0,5.075-1.106,6.81-3.042
	c1.735-1.936,2.564-4.519,2.279-7.103l-25.037-227.37c17.187-7.985,33.073-18.905,47.009-32.495
	c31.864-31.074,50.026-72.689,51.139-117.077l2.537-69.23c2.809-0.128,5.415-1.529,7.048-3.837
	C436.866,49.426,437.299,46.324,436.312,43.525z M103.984,18.287h304.032l6.751,19.136H97.232L103.984,18.287z M133.746,209.796
	c-2.897-3.955-5.59-8.033-8.074-12.225h260.658c-2.485,4.191-5.179,8.272-8.075,12.225H133.746z M178.836,493.713l1.507-13.681
	h151.315l1.507,13.681H178.836z M329.643,461.746H182.355l19.851-180.263c17.135,5.714,35.251,8.695,53.794,8.695
	s36.659-2.981,53.793-8.695L329.643,461.746z M256.001,271.89c-39.708,0-77.233-15.268-105.661-42.992
	c-0.276-0.269-0.544-0.545-0.817-0.816h212.956c-0.274,0.271-0.541,0.547-0.817,0.816
	C333.232,256.622,295.708,271.89,256.001,271.89z M407.29,124.35c-0.482,19.168-4.518,37.733-11.755,54.934H116.471
	c-7.242-17.219-11.282-35.815-11.764-55.039l-2.511-68.536h307.608L407.29,124.35z"/>
<path style="fill:#FFFFFF;" d="M201.872,452.208c-0.333,0-0.672-0.018-1.012-0.055c-5.019-0.553-8.64-5.07-8.088-10.089
	l14.973-135.981c0.553-5.018,5.051-8.643,10.089-8.088c5.019,0.553,8.64,5.07,8.088,10.089L210.95,444.065
	C210.435,448.744,206.474,452.208,201.872,452.208z"/>
<g>
</g>
<g>
</g>
<g>
</g>
<g>
</g>
<g>
</g>
<g>
</g>
<g>
</g>
<g>
</g>
<g>
</g>
<g>
</g>
<g>
</g>
<g>
</g>
<g>
</g>
<g>
</g>
<g>
</g>
</svg>
