<?xml version="1.0" encoding="iso-8859-1"?>
<!-- Generator: Adobe Illustrator 19.0.0, SVG Export Plug-In . SVG Version: 6.00 Build 0)  -->
<svg version="1.1" id="Layer_1" xmlns="http://www.w3.org/2000/svg" xmlns:xlink="http://www.w3.org/1999/xlink" x="0px" y="0px"
	 viewBox="0 0 512.002 512.002" style="enable-background:new 0 0 512.002 512.002;" xml:space="preserve">
<circle style="fill:#4D4D4D;" cx="155.742" cy="356.271" r="17.972"/>
<path style="fill:#CC582F;" d="M415.873,58.268c6.903-5.748,15.256-13.577,21.748-22.308c2.64-3.531,4.96-7.223,6.765-10.982
	c1.371-2.868,5.268-3.291,8.742-0.869c6.091,4.24,12.251,8.468,16.582,11.428c2.206,1.509,5.245,4.548,6.754,6.754
	c2.96,4.331,7.188,10.491,11.428,16.582c2.411,3.474,1.988,7.371-0.88,8.742c-3.76,1.806-7.44,4.126-10.971,6.754
	c-8.731,6.491-16.548,14.845-22.308,21.759c-3.806,4.56-6.72,8.491-8.388,10.845c-1.097,1.543-2.731,2.56-4.72,2.96l-7.783,1.566
	c-1.543,0.309-2.948,0.846-4.194,1.6l-29.759-29.747l-0.011-0.011c0.766-1.246,1.303-2.651,1.611-4.183l1.566-7.794
	c0.4-1.988,1.428-3.611,2.96-4.708C407.371,64.988,411.302,62.074,415.873,58.268z"/>
<path style="fill:#E0B08C;" d="M398.891,83.353L428.65,113.1c-0.891,0.537-1.703,1.177-2.411,1.931L250.578,299.789l-29.347,30.856
	l-39.861-39.85l30.867-29.359h0.011L396.96,85.753c0.743-0.72,1.394-1.52,1.92-2.411L398.891,83.353z"/>
<path style="fill:#CC582F;" d="M250.578,299.789c26.227,50.752,7.668,126.783-33.45,167.901
	c-47.724,47.724-125.103,47.735-172.827,0.011s-47.724-125.103,0-172.827c41.13-41.141,117.16-59.689,167.935-33.439l-30.867,29.359
	l39.861,39.85L250.578,299.789z M168.444,368.975c7.017-7.017,7.017-18.399,0-25.416c-7.017-7.017-18.399-7.017-25.416,0
	s-7.017,18.399,0,25.416C150.045,375.991,161.428,375.991,168.444,368.975z"/>
<g>
	<path style="fill:#FFFFFF;" d="M44.922,430.251c-3.215,0-6.296-1.817-7.759-4.918c-6.501-13.79-9.798-28.609-9.798-44.045
		c0-27.607,10.75-53.561,30.273-73.082c18.424-18.431,45.477-32.1,74.221-37.501c4.646-0.874,9.132,2.187,10.006,6.841
		c0.874,4.652-2.188,9.132-6.841,10.006c-25.432,4.779-49.22,16.724-65.265,32.773c-16.284,16.285-25.253,37.934-25.253,60.962
		c0,12.889,2.746,25.248,8.163,36.734c2.018,4.282,0.184,9.389-4.098,11.408C47.39,429.987,46.147,430.251,44.922,430.251z"/>
	<path style="fill:#FFFFFF;" d="M158.068,285.344c-0.56,0-1.12-0.057-1.681-0.171c-0.547-0.114-1.085-0.274-1.599-0.491
		c-0.514-0.206-1.018-0.48-1.486-0.789c-0.469-0.309-0.903-0.663-1.304-1.063c-0.389-0.389-0.754-0.834-1.063-1.303
		c-0.31-0.469-0.571-0.96-0.789-1.474c-0.216-0.526-0.377-1.063-0.491-1.611c-0.103-0.549-0.16-1.109-0.16-1.668
		c0-0.56,0.057-1.12,0.16-1.68c0.114-0.549,0.274-1.086,0.491-1.6c0.217-0.514,0.48-1.017,0.789-1.486
		c0.309-0.469,0.674-0.903,1.063-1.303c0.401-0.389,0.834-0.754,1.304-1.063c0.467-0.309,0.971-0.571,1.486-0.789
		c0.514-0.217,1.051-0.377,1.599-0.491c1.11-0.217,2.252-0.217,3.35,0c0.547,0.114,1.086,0.274,1.611,0.491
		c0.513,0.217,1.006,0.48,1.474,0.789c0.467,0.309,0.903,0.674,1.303,1.063c0.4,0.4,0.754,0.834,1.063,1.303
		c0.31,0.469,0.571,0.971,0.789,1.486c0.216,0.514,0.377,1.051,0.491,1.6c0.115,0.56,0.171,1.12,0.171,1.68
		c0,0.56-0.057,1.12-0.171,1.668c-0.114,0.549-0.274,1.086-0.491,1.611c-0.217,0.514-0.48,1.006-0.789,1.474
		c-0.309,0.469-0.663,0.914-1.063,1.303C162.524,284.43,160.319,285.344,158.068,285.344z"/>
	<path style="fill:#FFFFFF;" d="M428.536,84.728c-2.193,0-4.387-0.837-6.061-2.511c-3.347-3.347-3.347-8.774,0-12.121l24.379-24.379
		c3.348-3.347,8.774-3.347,12.122,0c3.347,3.347,3.347,8.774,0,12.121l-24.379,24.379C432.923,83.891,430.729,84.728,428.536,84.728
		z"/>
</g>
<g>
	<path style="fill:#333333;" d="M136.967,337.495c-10.349,10.349-10.349,27.189,0,37.538c5.175,5.175,11.973,7.762,18.769,7.762
		c6.796,0,13.595-2.587,18.769-7.762c10.349-10.349,10.349-27.189,0-37.538C164.155,327.146,147.317,327.146,136.967,337.495z
		 M162.383,362.911c-3.665,3.665-9.629,3.665-13.294,0c-3.666-3.666-3.666-9.629,0-13.295c1.833-1.833,4.24-2.748,6.647-2.748
		s4.815,0.917,6.647,2.748C166.049,353.282,166.049,359.246,162.383,362.911z"/>
	<path style="fill:#333333;" d="M88.937,365.452c-3.348-3.347-8.774-3.347-12.122,0c-3.347,3.347-3.347,8.774,0,12.121l57.61,57.61
		c1.674,1.673,3.868,2.511,6.061,2.511c2.193,0,4.387-0.837,6.061-2.511c3.347-3.347,3.347-8.774,0-12.121L88.937,365.452z"/>
	<path style="fill:#333333;" d="M509.491,95.706l-19.827-19.827c0.353-0.181,0.705-0.363,1.058-0.534
		c3.391-1.625,5.889-4.661,6.858-8.329c1.121-4.248,0.155-9-2.651-13.035c-4.304-6.189-8.568-12.403-11.387-16.525
		c-2.119-3.097-5.904-6.882-8.998-8.997c-3.292-2.251-9.818-6.723-16.525-11.388c-4.036-2.808-8.789-3.774-13.037-2.652
		c-3.668,0.968-6.704,3.468-8.329,6.858c-0.169,0.353-0.353,0.705-0.533,1.057L416.297,2.513c-3.348-3.347-8.775-3.347-12.122,0
		s-3.347,8.774,0,12.121l21.94,21.941c-3.15,3.588-6.539,6.957-9.836,9.976L394.27,24.541c-3.348-3.347-8.774-3.347-12.122,0
		c-3.347,3.347-3.347,8.774,0,12.121l20.855,20.855c-1.17,0.874-2.172,1.601-2.951,2.154c-3.298,2.345-5.568,5.899-6.394,10.006
		l-1.568,7.789c-0.179,0.891-0.528,1.589-1.038,2.072L210.605,251.159c-24.905-11.076-55.778-13.468-87.732-6.658
		c-32.567,6.94-63.414,23.09-84.635,44.309C-4.506,331.553-11.41,396.764,17.505,446.777l-8.13,8.13
		c-3.347,3.347-3.347,8.774,0,12.121c1.674,1.673,3.868,2.511,6.061,2.511s4.387-0.837,6.061-2.511l5.744-5.744
		c1.635,2.112,3.353,4.18,5.136,6.211l-9.443,9.444c-3.347,3.347-3.347,8.774,0,12.121c1.674,1.673,3.868,2.511,6.061,2.511
		s4.387-0.837,6.061-2.511l9.443-9.443c2.031,1.783,4.098,3.5,6.21,5.136l-5.744,5.744c-3.347,3.347-3.347,8.774,0,12.121
		c1.674,1.673,3.868,2.511,6.061,2.511c2.193,0,4.387-0.837,6.061-2.511l8.128-8.128c20.18,11.669,42.83,17.511,65.487,17.51
		c33.49-0.001,66.984-12.75,92.482-38.246c21.214-21.214,37.361-52.055,44.304-84.616c6.811-31.948,4.427-62.814-6.639-87.717
		l171.596-180.482c0.486-0.51,1.184-0.859,2.076-1.039c0.001,0,0.001,0,0.002,0l7.785-1.56c4.116-0.824,7.676-3.096,10.024-6.397
		c0.552-0.777,1.278-1.779,2.151-2.947l20.857,20.856c1.674,1.673,3.868,2.511,6.061,2.511s4.387-0.837,6.061-2.511
		c3.347-3.347,3.347-8.774,0-12.121l-22.013-22.013c3.018-3.297,6.386-6.687,9.976-9.837l21.943,21.943
		c1.674,1.673,3.868,2.511,6.061,2.511s4.387-0.837,6.061-2.511C512.838,104.48,512.838,99.053,509.491,95.706z M399.032,95.607
		l17.35,17.35L221.079,318.373l-27.43-27.43L399.032,95.607z M211.062,461.633c-44.308,44.308-116.399,44.31-160.701,0.009
		c-44.308-44.308-44.308-116.402,0-160.711c37.307-37.307,101.45-52.63,146.556-36.753l-21.449,20.4
		c-1.674,1.593-2.634,3.793-2.663,6.104c-0.029,2.31,0.877,4.534,2.508,6.168l39.86,39.86c1.609,1.608,3.788,2.511,6.061,2.511
		c0.035,0,0.072,0,0.109,0c2.31-0.029,4.511-0.99,6.104-2.665l20.383-21.439C263.684,360.216,248.355,424.34,211.062,461.633z
		 M438.661,101.59l-7.505,1.503c-0.107,0.022-0.211,0.053-0.319,0.075l-22.016-22.016c0.022-0.103,0.053-0.201,0.073-0.305
		l1.512-7.508c9.027-6.46,29.239-22.25,39.731-40.871c6.063,4.206,11.732,8.091,14.733,10.142c1.329,0.909,3.612,3.191,4.523,4.522
		c2.546,3.724,6.265,9.145,10.138,14.727C460.908,72.352,445.12,92.564,438.661,101.59z"/>
</g>
<g>
</g>
<g>
</g>
<g>
</g>
<g>
</g>
<g>
</g>
<g>
</g>
<g>
</g>
<g>
</g>
<g>
</g>
<g>
</g>
<g>
</g>
<g>
</g>
<g>
</g>
<g>
</g>
<g>
</g>
</svg>
