<?xml version="1.0" encoding="iso-8859-1"?>
<!-- Generator: Adobe Illustrator 19.0.0, SVG Export Plug-In . SVG Version: 6.00 Build 0)  -->
<svg version="1.1" id="Layer_1" xmlns="http://www.w3.org/2000/svg" xmlns:xlink="http://www.w3.org/1999/xlink" x="0px" y="0px"
	 viewBox="0 0 512 512" style="enable-background:new 0 0 512 512;" xml:space="preserve">
<path style="fill:#3A88D6;" d="M343.57,262.33c23.952,24.778,38.68,58.514,38.68,95.692c0,76.065-61.669,137.722-137.733,137.722
	s-137.722-61.657-137.722-137.722c0-37.178,14.729-70.914,38.68-95.692c13.869-14.373,30.857-25.73,49.853-32.979
	c15.279-5.862,31.855-9.062,49.188-9.062s33.909,3.2,49.188,9.062C312.713,236.6,329.69,247.957,343.57,262.33z M351.279,358.021
	c0-58.961-47.8-106.761-106.761-106.761s-106.75,47.8-106.75,106.761c0,58.95,47.789,106.75,106.75,106.75
	S351.279,416.971,351.279,358.021z"/>
<path style="fill:#F2F2F2;" d="M244.517,251.26c58.961,0,106.761,47.8,106.761,106.761c0,58.95-47.8,106.75-106.761,106.75
	s-106.75-47.8-106.75-106.75C137.768,299.06,185.556,251.26,244.517,251.26z"/>
<path style="fill:#FFFFFF;" d="M181.956,410.574c-2.705,0-5.368-1.272-7.043-3.652c-10.111-14.368-15.455-31.277-15.455-48.901
	c0-46.906,38.157-85.068,85.06-85.068c11.223,0,22.133,2.153,32.428,6.401c4.392,1.812,6.483,6.842,4.671,11.235
	s-6.841,6.486-11.235,4.671c-8.202-3.384-16.904-5.1-25.864-5.1c-37.414,0-67.854,30.443-67.854,67.862
	c0,14.06,4.26,27.547,12.32,38.999c2.735,3.886,1.801,9.253-2.084,11.987C185.396,410.066,183.667,410.574,181.956,410.574z"/>
<path style="fill:#F7B239;" d="M321.03,166.73v18.95l-32.922,4.738l5.598,38.933c-15.279-5.862-31.855-9.062-49.188-9.062
	s-33.908,3.2-49.188,9.062l5.598-38.933l-32.922-4.738v-18.95H321.03z"/>
<g>
	<polygon style="fill:#F95428;" points="73.633,172.11 73.633,251.994 43.257,247.624 54.511,169.357 	"/>
	<path style="fill:#F95428;" d="M200.927,190.418l-5.598,38.933c-18.996,7.25-35.985,18.606-49.853,32.979l-71.843-10.335V172.11
		l94.373,13.57L200.927,190.418z"/>
	<polygon style="fill:#F95428;" points="434.536,169.357 445.777,247.624 415.402,251.994 415.402,172.11 	"/>
	<path style="fill:#F95428;" d="M415.402,172.11v79.885L343.57,262.33c-13.88-14.373-30.857-25.73-49.865-32.979l-5.598-38.933
		l32.922-4.738L415.402,172.11z"/>
</g>
<g>
	<path style="fill:#333333;" d="M244.52,242.661c-63.608,0-115.357,51.749-115.357,115.357c0,63.608,51.749,115.358,115.357,115.358
		c63.608,0,115.358-51.749,115.358-115.358S308.128,242.661,244.52,242.661z M244.52,456.169c-54.121,0-98.15-44.031-98.15-98.151
		s44.031-98.15,98.15-98.15c54.121,0,98.151,44.031,98.151,98.15C342.671,412.139,298.64,456.169,244.52,456.169z"/>
	<path style="fill:#333333;" d="M82.241,45.24V16.253c0-4.751-3.852-8.603-8.603-8.603c-4.751,0-8.603,3.852-8.603,8.603V45.24"/>
	<path style="fill:#333333;" d="M424.003,68.862V51.961c0-4.751-3.852-8.603-8.603-8.603s-8.603,3.852-8.603,8.603v16.901v17.207
		v78.586l-77.16,11.095v-9.017c0-4.751-3.852-8.603-8.603-8.603H168.004c-4.751,0-8.603,3.852-8.603,8.603v9.017L82.24,164.655
		V77.359H65.033v32.311H51.958c-4.751,0-8.603,3.852-8.603,8.603c0,4.751,3.852,8.603,8.603,8.603h13.076v35.305l-9.301-1.338
		c-2.258-0.322-4.554,0.262-6.38,1.629c-1.827,1.367-3.035,3.405-3.36,5.663l-11.247,78.261c-0.676,4.703,2.588,9.063,7.291,9.739
		l22.998,3.308v184.043L18.862,489.66c-3.36,3.36-3.36,8.807,0,12.166c1.679,1.681,3.882,2.52,6.083,2.52s4.404-0.84,6.083-2.52
		l34.007-34.007v27.923c0,4.751,3.852,8.603,8.603,8.603s8.603-3.852,8.603-8.603v-27.923l34.007,34.007
		c3.36,3.36,8.807,3.36,12.166,0c3.36-3.36,3.36-8.807,0-12.166l-46.173-46.173V261.92l46.523,6.692
		c-19.156,24.744-30.574,55.764-30.574,89.406c0,45.046,20.464,85.395,52.578,112.259l-8.191,22.527
		c-1.624,4.466,0.679,9.402,5.145,11.025c0.97,0.353,1.963,0.521,2.94,0.521c3.515,0,6.815-2.171,8.086-5.666l6.456-17.754
		c22.868,14.808,50.105,23.417,79.317,23.417s56.449-8.609,79.317-23.417l6.456,17.754c1.271,3.495,4.57,5.666,8.086,5.666
		c0.976,0,1.97-0.167,2.94-0.521c4.466-1.624,6.769-6.56,5.145-11.025l-8.191-22.527c32.113-26.864,52.578-67.214,52.578-112.259
		c0-33.641-11.418-64.661-30.574-89.406l46.522-6.692v181.568l-46.173,46.173c-3.36,3.36-3.36,8.807,0,12.166
		c3.36,3.36,8.807,3.36,12.166,0l34.007-34.007v27.923c0,4.751,3.852,8.603,8.603,8.603s8.603-3.852,8.603-8.603V467.82
		l34.007,34.007c1.679,1.679,3.882,2.52,6.083,2.52c2.201,0,4.404-0.84,6.083-2.52c3.36-3.36,3.36-8.807,0-12.166l-46.173-46.173
		V259.445l22.999-3.308c4.703-0.676,7.967-5.037,7.291-9.739l-11.249-78.261c-0.325-2.259-1.534-4.296-3.36-5.663
		c-1.826-1.367-4.122-1.95-6.38-1.629l-9.302,1.338v-35.305h13.076c4.751,0,8.603-3.852,8.603-8.603
		c0-4.751-3.852-8.603-8.603-8.603h-13.076V86.069V68.862H424.003z M176.608,175.335H312.43v2.888l-25.547,3.674
		c-2.259,0.325-4.296,1.534-5.663,3.36c-1.367,1.826-1.954,4.122-1.629,6.38l3.632,25.257c-12.334-3.386-25.31-5.206-38.703-5.206
		c-13.395,0-26.37,1.818-38.703,5.206l3.632-25.257c0.325-2.259-0.262-4.554-1.629-6.38s-3.405-3.035-5.663-3.36l-25.547-3.674
		L176.608,175.335L176.608,175.335z M53.001,240.329l8.799-61.23l3.234,0.465v62.496L53.001,240.329z M82.241,182.038
		l108.951,15.666l-3.673,25.545c-16.843,7.151-32.073,17.376-44.999,29.958l-60.279-8.671L82.241,182.038L82.241,182.038z
		 M244.52,487.141c-71.199,0-129.122-57.924-129.122-129.123s57.924-129.122,129.122-129.122s129.123,57.924,129.123,129.122
		S315.717,487.141,244.52,487.141z M346.519,253.207c-12.926-12.581-28.156-22.807-44.999-29.958l-3.673-25.545l108.95-15.666
		v62.497L346.519,253.207z M427.239,179.099l8.799,61.23l-12.035,1.731v-62.497L427.239,179.099z"/>
</g>
<g>
	<path style="fill:#F7B239;" d="M138.674,55.46H8.603C3.852,55.46,0,51.608,0,46.857s3.852-8.603,8.603-8.603h130.071
		c4.751,0,8.603,3.852,8.603,8.603S143.425,55.46,138.674,55.46z"/>
	<path style="fill:#F7B239;" d="M138.674,86.065H8.603C3.852,86.065,0,82.213,0,77.462c0-4.751,3.852-8.603,8.603-8.603h130.071
		c4.751,0,8.603,3.852,8.603,8.603C147.277,82.213,143.425,86.065,138.674,86.065z"/>
	<path style="fill:#F7B239;" d="M503.397,86.065H327.407c-4.751,0-8.603-3.852-8.603-8.603c0-4.751,3.852-8.603,8.603-8.603h175.989
		c4.751,0,8.603,3.852,8.603,8.603C512,82.213,508.148,86.065,503.397,86.065z"/>
</g>
<g>
	<path style="fill:#FFFFFF;" d="M166.536,219.028c-0.454,0-0.913-0.036-1.375-0.11l-64.238-10.324
		c-4.692-0.754-7.883-5.168-7.129-9.859s5.172-7.881,9.859-7.129l64.238,10.324c4.692,0.754,7.883,5.168,7.129,9.859
		C174.34,216.016,170.686,219.028,166.536,219.028z"/>
	<path style="fill:#FFFFFF;" d="M320.238,219.026c-2.26,0-4.485-0.918-6.08-2.524c-0.401-0.39-0.757-0.837-1.078-1.308
		c-0.31-0.459-0.574-0.964-0.792-1.48c-0.206-0.516-0.379-1.067-0.482-1.606c-0.115-0.562-0.172-1.124-0.172-1.686
		s0.057-1.124,0.172-1.686c0.103-0.539,0.275-1.09,0.482-1.606c0.218-0.516,0.482-1.021,0.792-1.48
		c0.321-0.47,0.677-0.918,1.078-1.308c1.595-1.606,3.82-2.524,6.08-2.524s4.485,0.918,6.08,2.524
		c0.402,0.39,0.757,0.837,1.078,1.308c0.31,0.459,0.574,0.964,0.792,1.48c0.206,0.516,0.379,1.067,0.482,1.606
		c0.115,0.562,0.172,1.124,0.172,1.686s-0.057,1.124-0.172,1.686c-0.103,0.539-0.275,1.09-0.482,1.606
		c-0.218,0.516-0.482,1.021-0.792,1.48c-0.321,0.47-0.677,0.918-1.078,1.308C324.723,218.109,322.498,219.026,320.238,219.026z"/>
	<path style="fill:#FFFFFF;" d="M347.424,214.656c-4.15,0-7.804-3.01-8.484-7.239c-0.754-4.691,2.438-9.106,7.129-9.859
		l37.041-5.952c4.691-0.756,9.106,2.438,9.859,7.129c0.754,4.691-2.438,9.106-7.129,9.859l-37.041,5.952
		C348.338,214.62,347.878,214.656,347.424,214.656z"/>
</g>
<g>
</g>
<g>
</g>
<g>
</g>
<g>
</g>
<g>
</g>
<g>
</g>
<g>
</g>
<g>
</g>
<g>
</g>
<g>
</g>
<g>
</g>
<g>
</g>
<g>
</g>
<g>
</g>
<g>
</g>
</svg>
