<?xml version="1.0" encoding="iso-8859-1"?>
<!-- Generator: Adobe Illustrator 19.0.0, SVG Export Plug-In . SVG Version: 6.00 Build 0)  -->
<svg version="1.1" id="Layer_1" xmlns="http://www.w3.org/2000/svg" xmlns:xlink="http://www.w3.org/1999/xlink" x="0px" y="0px"
	 viewBox="0 0 512 512" style="enable-background:new 0 0 512 512;" xml:space="preserve">
<path style="fill:#F7B239;" d="M444.74,96.941c36.246,42.959,58.086,98.465,58.086,159.058
	c0,136.325-110.51,246.835-246.822,246.835c-136.325,0-246.835-110.51-246.835-246.835c0-136.312,110.51-246.822,246.835-246.822
	c63.393,0,121.198,23.895,164.903,63.173L398.296,94.96c-37.896-33.519-87.728-53.855-142.292-53.855
	c-118.691,0-214.893,96.215-214.893,214.893s96.203,214.893,214.893,214.893c118.679,0,214.893-96.215,214.893-214.893
	c0-51.788-18.318-99.284-48.829-136.386L444.74,96.941z"/>
<path style="fill:#F2F2F2;" d="M422.068,119.613c30.51,37.102,48.829,84.598,48.829,136.386
	c0,118.679-96.215,214.893-214.893,214.893c-118.691,0-214.893-96.215-214.893-214.893S137.313,41.105,256.004,41.105
	c54.564,0,104.396,20.336,142.292,53.855L263.598,229.658c-19.089-9.123-42.653-5.772-58.465,10.04
	c-20.055,20.055-20.055,52.571,0,72.638c20.055,20.055,52.583,20.055,72.638,0c15.812-15.824,19.162-39.376,10.04-58.465
	L422.068,119.613z"/>
<g>
	<path style="fill:#FFFFFF;" d="M273.063,82.658c-0.587,0-1.198-0.061-1.785-0.183c-0.587-0.11-1.162-0.293-1.712-0.514
		c-0.563-0.232-1.088-0.514-1.59-0.844c-0.501-0.342-0.966-0.721-1.395-1.149c-0.416-0.416-0.806-0.893-1.137-1.394
		c-0.33-0.489-0.611-1.027-0.843-1.577c-0.232-0.55-0.404-1.137-0.527-1.712c-0.122-0.599-0.171-1.198-0.171-1.798
		c0-2.421,0.978-4.781,2.677-6.481c0.429-0.428,0.893-0.807,1.395-1.137c0.503-0.33,1.027-0.624,1.59-0.844
		c0.55-0.232,1.125-0.404,1.712-0.526c2.983-0.599,6.15,0.379,8.279,2.507c1.7,1.7,2.678,4.072,2.678,6.481
		c0,0.599-0.062,1.198-0.172,1.798c-0.122,0.575-0.294,1.162-0.526,1.712c-0.232,0.55-0.514,1.088-0.844,1.577
		c-0.33,0.501-0.721,0.978-1.137,1.394c-0.428,0.428-0.891,0.807-1.394,1.149c-0.501,0.33-1.027,0.611-1.591,0.844
		c-0.549,0.22-1.125,0.404-1.711,0.514C274.273,82.596,273.662,82.658,273.063,82.658z"/>
	<path style="fill:#FFFFFF;" d="M80.945,319.677c-3.909,0-7.533-2.52-8.754-6.451c-5.743-18.464-8.654-37.718-8.654-57.229
		c0-102.899,80.445-187.342,183.142-192.245c5.05-0.208,9.356,3.665,9.598,8.724c0.241,5.059-3.664,9.356-8.724,9.598
		C154.652,86.51,81.88,162.906,81.88,255.998c0,17.662,2.633,35.083,7.826,51.782c1.504,4.836-1.197,9.977-6.035,11.481
		C82.766,319.544,81.847,319.677,80.945,319.677z"/>
</g>
<path style="opacity:0.25;fill:#4D4D4D;enable-background:new    ;" d="M446.995,96.399l-24.226,20.871L278.441,241.611
	c-6.449-3.698-13.8-6.053-21.706-6.641c-28.284-2.105-52.918,19.118-55.032,47.41c-2.105,28.284,19.127,52.928,47.41,55.031
	c22.309,1.651,42.339-11.183,50.847-30.553c2.286-5.197,3.74-10.872,4.185-16.857c0.445-5.985-0.153-11.813-1.645-17.29
	c-0.478-1.757-1.053-3.477-1.71-5.158l143.856-123.933l24.291-20.927"/>
<path style="fill:#F95428;" d="M289.892,293.136c-7.047,19.949-26.07,34.233-48.44,34.241c-28.362,0-51.363-23.001-51.363-51.363
	c0.009-28.37,23.001-51.363,51.363-51.363c22.361,0,41.393,14.293,48.44,34.241c1.894,5.352,2.923,11.119,2.923,17.121
	C292.814,282.016,291.785,287.783,289.892,293.136z"/>
<path style="fill:#FFFFFF;" d="M217.323,289.202c-4.408,0-8.297-3.187-9.038-7.68c-1.765-10.698,1.743-21.646,9.384-29.286
	c6.353-6.353,14.8-9.85,23.785-9.85c3.302,0,6.581,0.484,9.75,1.437c4.85,1.459,7.599,6.574,6.139,11.425
	c-1.459,4.85-6.575,7.601-11.425,6.139c-1.453-0.437-2.954-0.659-4.463-0.659c-4.086,0-7.927,1.59-10.815,4.478
	c-3.469,3.469-5.06,8.452-4.256,13.329c0.824,4.998-2.558,9.718-7.556,10.542C218.322,289.162,217.82,289.202,217.323,289.202z"/>
<path style="opacity:0.25;fill:#4D4D4D;enable-background:new    ;" d="M289.892,293.136c1.894-5.352,2.923-11.119,2.923-17.121
	c0-6.001-1.03-11.769-2.923-17.121c-5.09-14.408-16.433-25.861-30.764-31.115c0.068,0.188,0.144,0.373,0.212,0.563
	c1.894,5.352,2.923,11.119,2.923,17.121c0,6.001-1.03,11.769-2.923,17.121c-7.047,19.949-26.07,34.233-48.44,34.243
	c-6.213,0-12.17-1.104-17.683-3.127c7.209,19.653,26.087,33.68,48.236,33.68C263.821,327.369,282.844,313.084,289.892,293.136z"/>
<path style="fill:#CCCCCC;" d="M489.57,27.898c6.689,6.677,6.689,17.524,0,24.213l-44.83,44.83l-22.672,22.672L287.81,253.871
	c-2.446-5.124-5.796-9.93-10.04-14.173c-4.243-4.243-9.049-7.594-14.173-10.04L398.296,94.96l22.611-22.611l44.451-44.451
	c3.351-3.351,7.728-5.014,12.106-5.014C481.842,22.885,486.22,24.548,489.57,27.898z"/>
<path style="fill:#333333;" d="M457.076,97.573l38.981-38.981c4.967-4.966,7.702-11.568,7.702-18.591s-2.734-13.625-7.7-18.591
	c-4.967-4.966-11.57-7.702-18.591-7.702c-7.023,0-13.626,2.736-18.591,7.702l-38.419,38.419C374.423,21.192,316.374,0,256.006,0
	C114.844,0,0,114.839,0,255.994C0,397.156,114.844,512,256.006,512C397.162,512,512,397.156,512,255.994
	C512,198.48,492.546,142.562,457.076,97.573z M471.847,34.38c1.502-1.502,3.496-2.328,5.62-2.328c2.122,0,4.119,0.827,5.622,2.33
	c1.502,1.502,2.327,3.497,2.327,5.62s-0.827,4.119-2.328,5.62L289.494,239.214c-1.598-2.084-3.333-4.095-5.24-6.002
	c-1.906-1.906-3.917-3.642-6.001-5.239L471.847,34.38z M271.286,305.846c-16.451,16.45-43.215,16.449-59.666,0
	c-7.968-7.968-12.356-18.563-12.356-29.833c0-11.269,4.388-21.864,12.356-29.832c8.226-8.225,19.028-12.336,29.833-12.336
	c10.803,0,21.608,4.114,29.832,12.336C287.733,262.632,287.733,289.396,271.286,305.846z M198.65,233.212
	c-23.601,23.601-23.601,62.004,0,85.604c11.801,11.801,27.302,17.701,42.803,17.701s31.002-5.9,42.801-17.701
	c0.001,0,0.001,0,0.001,0c16.942-16.943,21.719-41.512,14.337-62.76l122.629-122.63c26.183,35.284,40.506,78.417,40.506,122.566
	c0,113.435-92.287,205.722-205.721,205.722c-113.435,0-205.722-92.287-205.722-205.722S142.571,50.272,256.006,50.272
	c46.985,0,92.327,16.008,128.747,45.261L261.411,218.874C240.165,211.492,215.594,216.268,198.65,233.212z M256.006,493.657
	c-131.048,0-237.663-106.615-237.663-237.663c0-131.041,106.615-237.651,237.663-237.651c55.504,0,108.897,19.293,151.431,54.505
	l-9.65,9.65c-39.931-32.665-89.937-50.569-141.781-50.569c-123.549,0-224.065,100.516-224.065,224.065
	s100.516,224.065,224.065,224.065s224.065-100.516,224.065-224.065c0-48.992-16.197-96.836-45.75-135.666l9.695-9.695
	c32.078,41.465,49.641,92.693,49.641,145.36C493.657,387.042,387.047,493.657,256.006,493.657z"/>
<g>
	<path style="fill:#666666;" d="M186.291,152.726c-1.837-4.721-7.151-7.061-11.872-5.224c-4.72,1.836-7.06,7.151-5.224,11.872
		l17.12,44.023c1.411,3.629,4.878,5.85,8.55,5.85c1.105,0,2.229-0.202,3.321-0.626c4.72-1.836,7.06-7.151,5.224-11.872
		L186.291,152.726z"/>
	<path style="fill:#666666;" d="M159.636,238.243l-41.577-19.566c-4.586-2.16-10.047-0.19-12.203,4.394
		c-2.157,4.583-0.19,10.047,4.394,12.203l41.577,19.566c1.262,0.594,2.591,0.876,3.898,0.876c3.442,0,6.742-1.948,8.304-5.269
		C166.187,245.864,164.221,240.399,159.636,238.243z"/>
	<path style="fill:#666666;" d="M229.103,429.359c5.065,0,9.171-4.106,9.171-9.171v-53.806c0-5.065-4.106-9.171-9.171-9.171
		c-5.065,0-9.171,4.106-9.171,9.171v53.806C219.932,425.253,224.038,429.359,229.103,429.359z"/>
	<path style="fill:#666666;" d="M302.299,378.978c1.784,2.548,4.63,3.913,7.522,3.913c1.815,0,3.65-0.538,5.251-1.658
		c4.15-2.904,5.159-8.624,2.255-12.773l-17.12-24.457c-2.904-4.149-8.624-5.16-12.773-2.254c-4.15,2.904-5.159,8.624-2.255,12.773
		L302.299,378.978z"/>
	<path style="fill:#666666;" d="M319.595,309.519h24.457c5.066,0,9.171-4.106,9.171-9.171s-4.105-9.171-9.171-9.171h-24.457
		c-5.066,0-9.171,4.106-9.171,9.171S314.53,309.519,319.595,309.519z"/>
</g>
<g>
</g>
<g>
</g>
<g>
</g>
<g>
</g>
<g>
</g>
<g>
</g>
<g>
</g>
<g>
</g>
<g>
</g>
<g>
</g>
<g>
</g>
<g>
</g>
<g>
</g>
<g>
</g>
<g>
</g>
</svg>
