<?xml version="1.0" encoding="iso-8859-1"?>
<!-- Generator: Adobe Illustrator 19.0.0, SVG Export Plug-In . SVG Version: 6.00 Build 0)  -->
<svg version="1.1" id="Layer_1" xmlns="http://www.w3.org/2000/svg" xmlns:xlink="http://www.w3.org/1999/xlink" x="0px" y="0px"
	 viewBox="0 0 512.001 512.001" style="enable-background:new 0 0 512.001 512.001;" xml:space="preserve">
<g>
	<path style="fill:#F7B239;" d="M55.461,18.245c6.422,6.436,8.839,15.345,7.237,23.65c-0.97,4.975-3.373,9.724-7.237,13.575
		c-3.808,3.808-8.502,6.197-13.406,7.181c-8.347,1.686-17.341-0.717-23.805-7.181c-10.286-10.272-10.286-26.939,0-37.225
		C28.522,7.973,45.189,7.973,55.461,18.245z"/>
	<path style="fill:#F7B239;" d="M256.004,223.931l-32.841,31.253L42.715,65.56l-0.66-2.909c4.904-0.984,9.598-3.373,13.406-7.181
		c3.864-3.85,6.267-8.6,7.237-13.575l2.867,0.815L256.004,223.931z"/>
	<path style="fill:#F7B239;" d="M501.459,470.707c0,7.869-2.993,15.739-9.008,21.739c-12.226,12.226-32.11,11.973-44.026-0.548
		L277.448,312.223l-21.444-22.54l32.827-34.499l22.512,21.416l180.561,171.82C498.269,454.477,501.459,462.585,501.459,470.707z"/>
	<path style="fill:#F7B239;" d="M493.744,18.245c10.286,10.286,10.286,26.953,0,37.225c-6.464,6.464-15.472,8.867-23.805,7.181
		c-4.918-0.984-9.598-3.387-13.406-7.181c-3.808-3.794-6.197-8.488-7.181-13.392c-1.686-8.347,0.717-17.355,7.181-23.833
		C466.806,7.973,483.472,7.973,493.744,18.245z"/>
</g>
<g>
	<path style="opacity:0.25;fill:#4D4D4D;enable-background:new    ;" d="M493.744,18.245c-7.879-7.879-19.513-9.691-29.145-5.483
		c2.926,1.277,5.673,3.09,8.066,5.483c10.286,10.286,10.286,26.953,0,37.225c-2.392,2.392-5.133,4.224-8.059,5.503
		c1.724,0.752,3.512,1.314,5.333,1.678c8.333,1.686,17.341-0.717,23.805-7.181C504.031,45.198,504.031,28.531,493.744,18.245z"/>
	<path style="opacity:0.25;fill:#4D4D4D;enable-background:new    ;" d="M55.462,18.245c-7.879-7.879-19.513-9.691-29.145-5.483
		c2.926,1.277,5.673,3.09,8.066,5.483c10.286,10.286,10.286,26.953,0,37.225c-2.392,2.392-5.133,4.224-8.059,5.503
		c1.724,0.752,3.512,1.314,5.333,1.678c8.333,1.686,17.341-0.717,23.805-7.181C65.749,45.198,65.749,28.531,55.462,18.245z"/>
</g>
<path style="fill:#F7B239;" d="M469.939,62.651l-0.66,2.909L288.831,255.184l-32.827,34.499L63.569,491.899
	c-11.917,12.521-31.801,12.774-44.026,0.548c-6.014-6.014-9.008-13.884-9.008-21.739c0-8.122,3.19-16.231,9.556-22.287
	l203.073-193.236l32.841-31.253L446.43,42.71l2.923-0.632c0.984,4.904,3.373,9.598,7.181,13.392
	C460.342,59.264,465.021,61.667,469.939,62.651z"/>
<path style="fill:#333333;" d="M499.17,440.785L303.736,254.819L476.114,73.674c9.112-0.237,18.152-3.815,25.089-10.754l0,0
	c14.369-14.37,14.369-37.752,0-52.121c-14.371-14.37-37.752-14.371-52.122,0c-6.733,6.734-10.53,15.615-10.771,25.098
	L256.004,209.382L73.687,35.889c-0.243-9.48-4.04-18.36-10.771-25.091C55.954,3.837,46.699,0.004,36.855,0.004
	s-19.1,3.835-26.06,10.795S0,27.015,0,36.859s3.835,19.1,10.795,26.06l0,0c6.737,6.735,15.622,10.532,25.11,10.771l172.357,181.121
	L12.829,440.79c-8.131,7.736-12.685,18.178-12.824,29.401s4.155,21.776,12.091,29.713c7.812,7.812,18.157,12.095,29.183,12.095
	c0.176,0,0.351,0,0.527-0.003c11.224-0.139,21.665-4.694,29.403-12.823l184.8-194.199l184.785,194.19
	c7.74,8.134,18.183,12.688,29.406,12.827c0.176,0.001,0.351,0.003,0.527,0.003c11.023,0,21.368-4.283,29.172-12.087
	c7.805-7.788,12.103-18.157,12.103-29.201C512,459.284,507.443,448.656,499.17,440.785z M463.987,25.704
	c3.076-3.075,7.116-4.613,11.156-4.613c4.04,0,8.08,1.539,11.156,4.613c6.151,6.151,6.151,16.16,0,22.311
	c-6.152,6.151-16.16,6.151-22.313,0c-2.981-2.981-4.622-6.942-4.622-11.156C459.366,32.646,461.008,28.683,463.987,25.704z
	 M25.701,48.015c-2.981-2.979-4.622-6.942-4.622-11.156s1.641-8.176,4.622-11.155c2.979-2.981,6.941-4.622,11.155-4.622
	c4.214,0,8.176,1.641,11.156,4.622c2.981,2.979,4.62,6.941,4.62,11.155s-1.64,8.176-4.62,11.156
	c-2.981,2.981-6.942,4.62-11.156,4.62C32.643,52.636,28.68,50.996,25.701,48.015L25.701,48.015z M58.405,66.758
	c1.588-1.149,3.099-2.425,4.511-3.838c1.416-1.416,2.695-2.931,3.846-4.522L240.715,223.93l-17.183,16.351L58.405,66.758z
	 M55.939,484.639c-3.787,3.981-8.899,6.21-14.394,6.279c-5.465,0.052-10.659-2.035-14.546-5.919
	c-3.886-3.886-5.988-9.051-5.919-14.546c0.067-5.495,2.298-10.605,6.279-14.393L445.238,58.403c1.151,1.591,2.43,3.104,3.843,4.519
	c1.422,1.422,2.936,2.697,4.516,3.838L55.939,484.639z M485.001,484.995c-3.886,3.886-9.064,5.988-14.542,5.92
	c-5.495-0.067-10.608-2.299-14.398-6.281L270.556,289.686l18.649-19.598L484.64,456.056c4.05,3.855,6.281,9.057,6.281,14.651
	C490.921,476.111,488.822,481.182,485.001,484.995z"/>
<polygon style="opacity:0.25;fill:#4D4D4D;enable-background:new    ;" points="311.343,276.6 310.809,277.162 277.982,311.661 
	277.448,312.223 256.004,289.683 288.831,255.184 "/>
<g>
</g>
<g>
</g>
<g>
</g>
<g>
</g>
<g>
</g>
<g>
</g>
<g>
</g>
<g>
</g>
<g>
</g>
<g>
</g>
<g>
</g>
<g>
</g>
<g>
</g>
<g>
</g>
<g>
</g>
</svg>
