<?xml version="1.0" encoding="iso-8859-1"?>
<!-- Generator: Adobe Illustrator 19.0.0, SVG Export Plug-In . SVG Version: 6.00 Build 0)  -->
<svg version="1.1" id="Layer_1" xmlns="http://www.w3.org/2000/svg" xmlns:xlink="http://www.w3.org/1999/xlink" x="0px" y="0px"
	 viewBox="0 0 512 512" style="enable-background:new 0 0 512 512;" xml:space="preserve">
<path style="fill:#F7B239;" d="M95.552,447.238l-22.254,31.65c-7.665-5.27-15.025-11.366-21.927-18.269s-13-14.263-18.258-21.916
	l31.65-22.254L95.552,447.238z"/>
<path style="fill:#F95428;" d="M502.404,41.192c2.199,3.157,1.807,6.685-0.795,7.937C484.2,57.48,468.5,78.198,463.743,84.894
	c-0.991,1.404-2.482,2.33-4.29,2.689l-7.077,1.426c-1.394,0.283-2.678,0.773-3.811,1.459l-27.033-27.044l-0.011-0.011
	c0.686-1.121,1.176-2.406,1.459-3.8l1.426-7.077c0.37-1.807,1.296-3.288,2.689-4.279c6.696-4.758,27.425-20.457,35.765-37.866
	c1.252-2.613,4.79-2.994,7.948-0.795c5.542,3.854,11.138,7.687,15.068,10.387c2.014,1.372,4.769,4.126,6.141,6.14
	C494.717,30.054,498.55,35.65,502.404,41.192z"/>
<path style="fill:#4D4D4D;" d="M421.532,63.424l27.033,27.044c-0.806,0.479-1.546,1.067-2.188,1.753L285.418,261.521l-25.324,26.631
	l-36.222-36.222l45.564-43.332L419.768,65.613c0.686-0.653,1.274-1.383,1.753-2.199L421.532,63.424z"/>
<path style="fill:#F95428;" d="M305.962,275.936c14.023,1.078,23.245,15.493,18.683,28.797c-2.286,6.728-6.043,12.934-11.279,18.171
	c-5.019,5.019-12.684,8.547-21.72,10.681c-26.609,6.26-44.769,31.116-43.223,58.422c1.818,32.259-8.274,63.495-29.483,84.715
	c-36.135,36.135-97.039,35.667-145.641,2.167l22.254-31.65l-30.79-30.79l-31.65,22.254C-0.399,390.101-0.856,329.197,35.28,293.061
	c19.924-19.924,48.71-30.049,78.868-29.701c27.741,0.338,51.356-19.271,56.527-46.533c1.992-10.539,5.749-19.543,11.41-25.204
	c20.316-20.305,55.221-18.334,77.954,4.398c2.254,2.254,6.249,7.904,9.385,12.564l0.011,0.011l-45.564,43.332l36.222,36.222
	l25.324-26.631c1.187,2.646,2.863,5.106,5.03,7.273C294.77,273.116,300.312,275.5,305.962,275.936z"/>
<g>
	<path style="fill:#FFFFFF;" d="M35.052,382.321c-4.051,0-7.566-3.011-8.09-7.136c-3.471-27.287,4.191-52.591,21.021-69.42
		c13.229-13.229,32.274-21.714,53.625-23.89c4.488-0.456,8.494,2.809,8.952,7.295c0.457,4.487-2.809,8.494-7.296,8.952
		c-17.623,1.798-33.154,8.613-43.734,19.191c-13.231,13.232-19.197,33.574-16.368,55.811c0.569,4.474-2.596,8.562-7.07,9.13
		C35.743,382.299,35.395,382.321,35.052,382.321z"/>
	<path style="fill:#FFFFFF;" d="M163.087,282.141c-7.057,0-10.769-8.762-5.881-13.83c2.511-2.604,6.542-3.235,9.731-1.537
		c3.01,1.604,4.732,5.019,4.234,8.396C170.589,279.112,167.073,282.141,163.087,282.141z"/>
	<path style="fill:#FFFFFF;" d="M181.211,264.385c-1.704,0-3.423-0.531-4.892-1.633c-3.608-2.706-4.34-7.824-1.635-11.432
		c6.944-9.262,11.532-19.733,13.636-31.122c3.325-17.999,19.39-24.707,28.735-24.707c6.24,0,12.686,1.623,18.64,4.696
		c4.009,2.068,5.581,6.992,3.514,11.001c-2.066,4.008-6.991,5.581-11.001,3.513c-3.651-1.882-7.508-2.879-11.154-2.879
		c-2.099,0-10.953,2.019-12.676,11.342c-2.565,13.887-8.16,26.656-16.628,37.951C186.147,263.256,183.695,264.385,181.211,264.385z"
		/>
	<path style="fill:#FFFFFF;" d="M448.391,66.516c-2.089,0-4.18-0.797-5.774-2.392c-3.189-3.189-3.189-8.358,0-11.547l23.136-23.136
		c3.189-3.189,8.359-3.189,11.547,0c3.189,3.189,3.189,8.358,0,11.547l-23.136,23.136C452.571,65.719,450.482,66.516,448.391,66.516
		z"/>
</g>
<g>
	<path style="fill:#333333;" d="M509.107,36.526c-3.839-5.521-7.663-11.09-10.345-15.013c-1.948-2.848-5.427-6.328-8.276-8.274
		c-3.691-2.524-9.292-6.367-15.015-10.346c-3.758-2.614-8.187-3.512-12.158-2.465c-3.44,0.908-6.287,3.253-7.813,6.433
		c-7.546,15.742-27.272,30.573-33.139,34.743c-3.072,2.184-5.19,5.496-5.962,9.326l-1.425,7.078
		c-0.147,0.732-0.428,1.299-0.833,1.684L270.666,196.153c-1.978-2.665-3.61-4.657-4.854-5.901
		c-25.882-25.882-66.031-27.857-89.502-4.399c-6.526,6.526-11.25,16.714-13.658,29.457c-4.402,23.203-24.453,39.894-47.814,39.894
		c-0.198,0-0.397-0.001-0.597-0.003c-33.051-0.385-63.96,11.314-84.737,32.092C-15.438,332.235-8.22,412.581,45.596,466.397
		c30.081,30.081,68.438,45.606,104.281,45.603c28.288-0.002,55.012-9.677,74.837-29.502c22.251-22.263,33.863-55.411,31.86-90.949
		c-1.338-23.628,14.198-44.661,36.948-50.014c11.089-2.618,19.707-6.943,25.618-12.854c6.023-6.023,10.477-13.196,13.229-21.297
		c3.029-8.834,1.798-18.412-3.378-26.279c-5.102-7.756-13.267-12.607-22.401-13.309c-3.909-0.302-7.591-1.997-10.368-4.775
		c-0.168-0.168-0.318-0.348-0.477-0.522L452.292,97.846c0.387-0.406,0.955-0.687,1.689-0.834l7.076-1.418
		c3.836-0.769,7.153-2.887,9.34-5.964c4.17-5.866,19.001-25.591,34.742-33.136c3.18-1.524,5.524-4.371,6.432-7.812
		C512.618,44.715,511.72,40.284,509.107,36.526z M421.651,75.092l15.246,15.247L259.944,276.453l-24.378-24.378L421.651,75.092z
		 M44.601,440.609l19.243-13.534l21.083,21.085l-13.53,19.237c-4.927-3.811-9.696-7.988-14.255-12.547
		C52.589,450.294,48.41,445.531,44.601,440.609z M284.673,274.571c5.532,5.532,12.869,8.909,20.663,9.51
		c4.059,0.311,7.707,2.499,10.011,6.001c2.377,3.614,2.95,7.989,1.566,12.027c-1.948,5.732-5.084,10.786-9.322,15.025
		c-3.681,3.681-9.844,6.623-17.817,8.506c-30.472,7.169-51.292,35.276-49.505,66.83c1.742,30.9-8.138,59.505-27.104,78.482
		c-16.686,16.686-39.243,24.803-63.318,24.802c-21.494-0.001-44.193-6.48-64.991-19.102l17.381-24.713
		c2.283-3.247,1.902-7.665-0.906-10.472l-30.794-30.794c-2.807-2.807-7.225-3.188-10.472-0.906l-24.716,17.383
		c-26.759-44.088-25.88-96.727,5.704-128.311c17.688-17.688,44.29-27.634,72.995-27.31c0.268,0.003,0.532,0.004,0.799,0.004
		c31.2-0.001,57.983-22.25,63.851-53.186c1.771-9.373,5.025-16.812,9.158-20.946c17.101-17.092,46.892-15.119,66.408,4.396
		c0.737,0.737,2.226,2.577,4.47,5.702l-40.49,38.51c-1.595,1.517-2.51,3.614-2.538,5.815s0.835,4.32,2.391,5.876l36.22,36.22
		c1.532,1.532,3.609,2.392,5.774,2.392c0.034,0,0.069,0,0.103-0.001c2.2-0.027,4.297-0.943,5.815-2.539l18.464-19.42
		C284.543,274.424,284.603,274.502,284.673,274.571z M457.449,79.662l-6.674,1.337c-0.033,0.007-0.065,0.016-0.098,0.023
		l-19.707-19.708c0.005-0.028,0.014-0.056,0.021-0.085l1.344-6.676c8.224-5.897,26.308-20.068,35.888-36.815
		c5.023,3.484,9.781,6.747,13.05,8.982c1.18,0.807,3.204,2.831,4.012,4.011c2.366,3.46,5.611,8.19,8.979,13.046
		C477.516,53.357,463.346,71.436,457.449,79.662z"/>
	<path style="fill:#333333;" d="M218.52,371.338c-2.854-4.777-9.611-5.381-13.163-1.095c-5.237,6.319-11.479,17.273-14.44,35.327
		c-2.429,14.816-6.708,23.47-9.768,28.045c-1.881,2.812-1.841,6.488,0.147,9.226c0.001,0.001,0.001,0.001,0.001,0.001
		c3.302,4.667,10.261,4.597,13.442-0.155c4.359-6.513,9.486-17.349,12.295-34.475c2.102-12.824,6.069-20.689,9.026-25.029
		c0.668-0.982,1.316-1.831,1.922-2.559c2.123-2.553,2.408-6.157,0.706-9.007L218.52,371.338z"/>
	<path style="fill:#333333;" d="M140.613,306.839c4.751-3.18,4.821-10.139,0.154-13.442l0,0c-2.759-1.952-6.421-1.977-9.235-0.103
		c-4.53,3.018-13.173,7.286-28.037,9.724c-32.266,5.291-41.851,21.064-42.839,22.845c-2.185,3.944-0.76,8.915,3.186,11.1h0.001
		c3.945,2.185,8.914,0.76,11.1-3.186l0,0c0.058-0.105,6.897-10.659,31.197-14.644C123.265,316.326,134.1,311.199,140.613,306.839z"
		/>
	<path style="fill:#333333;" d="M93.634,378.338c-3.189-3.189-8.359-3.189-11.547,0c-3.189,3.189-3.189,8.358,0,11.547
		l40.033,40.033c1.594,1.595,3.684,2.392,5.774,2.392s4.18-0.797,5.774-2.392c3.189-3.189,3.189-8.358,0-11.547L93.634,378.338z"/>
	<path style="fill:#333333;" d="M120.578,351.394c-3.189-3.189-8.359-3.189-11.547,0c-3.189,3.189-3.189,8.358,0,11.547
		l40.033,40.033c1.594,1.595,3.684,2.392,5.774,2.392s4.18-0.797,5.774-2.392c3.189-3.189,3.189-8.358,0-11.547L120.578,351.394z"/>
	<path style="fill:#333333;" d="M180.626,371.409l-40.033-40.033c-3.189-3.189-8.359-3.189-11.547,0
		c-3.189,3.189-3.189,8.358,0,11.547l40.033,40.033c1.594,1.595,3.684,2.392,5.774,2.392s4.18-0.797,5.774-2.392
		C183.816,379.769,183.816,374.598,180.626,371.409z"/>
</g>
<g>
</g>
<g>
</g>
<g>
</g>
<g>
</g>
<g>
</g>
<g>
</g>
<g>
</g>
<g>
</g>
<g>
</g>
<g>
</g>
<g>
</g>
<g>
</g>
<g>
</g>
<g>
</g>
<g>
</g>
</svg>
