<?xml version="1.0" encoding="iso-8859-1"?>
<!-- Generator: Adobe Illustrator 19.0.0, SVG Export Plug-In . SVG Version: 6.00 Build 0)  -->
<svg version="1.1" id="Layer_1" xmlns="http://www.w3.org/2000/svg" xmlns:xlink="http://www.w3.org/1999/xlink" x="0px" y="0px"
	 viewBox="0 0 512 512" style="enable-background:new 0 0 512 512;" xml:space="preserve">
<polygon style="fill:#3A88D6;" points="503.872,15.246 423.216,71.132 401.111,55.883 398.111,40.005 "/>
<polygon style="fill:#F7B239;" points="423.216,71.132 311.521,238.064 273.592,294.751 246.971,276.382 285.289,221.569 
	401.111,55.883 "/>
<polygon style="fill:#3A88D6;" points="311.976,238.367 250.014,496.752 190.966,397.598 8.124,411.678 284.943,221.33 
	285.289,221.569 246.971,276.382 273.592,294.751 311.521,238.064 "/>
<g>
	<path style="fill:#333333;" d="M511.3,11.948c-1.583-3.565-5.477-5.501-9.274-4.613L396.259,32.091
		c-4.236,0.992-6.939,5.145-6.13,9.419l2.369,12.519L280.109,214.794L3.521,404.98c-3.027,2.082-4.28,5.935-3.056,9.399
		s4.616,5.672,8.282,5.393l177.813-13.687l56.477,94.827c1.479,2.483,4.146,3.967,6.977,3.967c0.405,0,0.814-0.03,1.223-0.092
		c3.268-0.497,5.908-2.923,6.678-6.137l61.915-258.394L429.114,76.929l79.389-55.006C511.709,19.701,512.884,15.514,511.3,11.948z
		 M403.146,67.151l8.869,6.118L271.424,283.386l-13.117-9.049L403.146,67.151z M246.775,475.438l-48.835-81.996
		c-1.579-2.651-4.528-4.183-7.603-3.942L37.609,401.257L253.569,252.76l-13.261,18.969c-1.239,1.773-1.72,3.967-1.336,6.095
		s1.601,4.016,3.381,5.245l26.627,18.369c1.367,0.942,2.977,1.436,4.613,1.436c0.508,0,1.017-0.048,1.523-0.144
		c2.136-0.407,4.019-1.655,5.228-3.461l13.522-20.209L246.775,475.438z M423.21,61.255L408.475,51.09l-0.937-4.954l56.617-13.251
		L423.21,61.255z"/>
	<path style="fill:#333333;" d="M223.026,367.896l-26.628-18.368c-3.694-2.547-8.752-1.618-11.298,2.074
		c-2.547,3.693-1.618,8.751,2.075,11.298l26.628,18.368c1.408,0.971,3.014,1.437,4.604,1.437c2.58,0,5.119-1.227,6.694-3.511
		C227.648,375.503,226.719,370.444,223.026,367.896z"/>
	<path style="fill:#333333;" d="M210.89,328.591l26.629,18.366c1.408,0.971,3.014,1.437,4.604,1.437
		c2.581,0,5.119-1.227,6.694-3.511c2.547-3.693,1.618-8.752-2.075-11.298l-26.629-18.366c-3.695-2.547-8.753-1.618-11.298,2.075
		C206.267,320.986,207.196,326.044,210.89,328.591z"/>
	<path style="fill:#333333;" d="M244.88,413.703c-2.674-6.474-12.133-6.578-14.939-0.147c-1.375,3.154-0.581,6.956,1.978,9.268
		c2.736,2.472,6.901,2.768,9.971,0.735C245.058,421.461,246.36,417.211,244.88,413.703
		C244.675,413.205,245.086,414.19,244.88,413.703z"/>
	<path style="fill:#333333;" d="M252.494,389.345c-1.403-3.398-5.05-5.476-8.692-4.93c-3.275,0.491-5.961,2.984-6.712,6.204
		c-1.575,6.757,5.89,12.307,11.911,8.894C252.505,397.526,254.066,393.071,252.494,389.345
		C252.288,388.847,252.7,389.832,252.494,389.345z"/>
</g>
<path style="fill:#FFFFFF;" d="M102.488,386.465c-2.585,0-5.125-1.23-6.701-3.521c-2.542-3.696-1.605-8.754,2.091-11.295
	l110.229-75.797c3.698-2.542,8.754-1.605,11.296,2.09c2.542,3.696,1.605,8.754-2.091,11.295l-110.229,75.797
	C105.677,386.002,104.074,386.465,102.488,386.465z"/>
<g>
</g>
<g>
</g>
<g>
</g>
<g>
</g>
<g>
</g>
<g>
</g>
<g>
</g>
<g>
</g>
<g>
</g>
<g>
</g>
<g>
</g>
<g>
</g>
<g>
</g>
<g>
</g>
<g>
</g>
</svg>
