<?xml version="1.0" encoding="iso-8859-1"?>
<!-- Generator: Adobe Illustrator 19.0.0, SVG Export Plug-In . SVG Version: 6.00 Build 0)  -->
<svg version="1.1" id="Layer_1" xmlns="http://www.w3.org/2000/svg" xmlns:xlink="http://www.w3.org/1999/xlink" x="0px" y="0px"
	 viewBox="0 0 512 512" style="enable-background:new 0 0 512 512;" xml:space="preserve">
<g>
	<rect x="403.717" y="58.174" style="fill:#F7B239;" width="73.846" height="60.131"/>
	<rect x="329.859" y="58.174" style="fill:#F7B239;" width="73.858" height="60.131"/>
	<polygon style="fill:#F7B239;" points="403.72,185.834 403.72,428.084 329.862,428.084 329.862,402.331 329.862,185.834 	"/>
	<polygon style="fill:#F7B239;" points="477.566,185.834 477.566,453.825 403.72,453.825 403.72,428.084 403.72,185.834 	"/>
	<polygon style="fill:#F7B239;" points="329.862,185.834 329.862,402.331 256.004,402.331 256.004,376.59 256.004,185.834 	"/>
	<rect x="256.001" y="58.174" style="fill:#F7B239;" width="73.858" height="60.131"/>
	<rect x="182.13" y="58.174" style="fill:#F7B239;" width="73.87" height="60.131"/>
	<polygon style="fill:#F7B239;" points="256.004,185.834 256.004,376.59 182.134,376.59 182.134,350.861 182.134,185.834 	"/>
	<polygon style="fill:#F7B239;" points="182.134,185.834 182.134,350.861 108.288,350.861 108.288,325.108 108.288,185.834 	"/>
	<rect x="108.285" y="58.174" style="fill:#F7B239;" width="73.846" height="60.131"/>
	<rect x="34.43" y="58.174" style="fill:#F7B239;" width="73.858" height="60.131"/>
	<rect x="34.43" y="185.835" style="fill:#F7B239;" width="73.858" height="139.273"/>
</g>
<g>
	<rect x="85.933" y="57.106" style="opacity:0.26;fill:#4D4D4D;enable-background:new    ;" width="18.626" height="269.679"/>
	<rect x="159.791" y="58.722" style="opacity:0.26;fill:#4D4D4D;enable-background:new    ;" width="18.626" height="290.743"/>
	<rect x="233.649" y="55.782" style="opacity:0.26;fill:#4D4D4D;enable-background:new    ;" width="18.626" height="321.209"/>
	<rect x="307.507" y="62.771" style="opacity:0.26;fill:#4D4D4D;enable-background:new    ;" width="18.626" height="339.334"/>
	<rect x="381.365" y="57.155" style="opacity:0.26;fill:#4D4D4D;enable-background:new    ;" width="18.626" height="370.857"/>
	<rect x="455.223" y="60.221" style="opacity:0.26;fill:#4D4D4D;enable-background:new    ;" width="18.626" height="391.277"/>
</g>
<polygon style="fill:#3A88D6;" points="502.894,118.305 502.894,185.834 477.566,185.834 403.72,185.834 329.862,185.834 
	256.004,185.834 182.134,185.834 108.288,185.834 34.43,185.834 9.114,185.834 9.114,118.305 34.43,118.305 108.288,118.305 
	182.134,118.305 256.004,118.305 329.862,118.305 403.72,118.305 477.566,118.305 "/>
<polygon style="opacity:0.25;fill:#4D4D4D;enable-background:new    ;" points="502.894,118.305 502.894,185.834 500.994,185.834 
	495.457,185.834 489.919,185.834 484.381,185.834 478.842,185.834 473.303,185.834 467.765,185.834 465.868,185.834 
	465.868,118.305 467.765,118.305 473.303,118.305 478.842,118.305 484.381,118.305 489.919,118.305 495.457,118.305 
	500.994,118.305 "/>
<path style="fill:#333333;" d="M502.889,109.199h-16.216V58.175c0-5.032-4.078-9.111-9.111-9.111H34.433
	c-5.032,0-9.111,4.079-9.111,9.111v51.024H9.111c-5.032,0-9.111,4.079-9.111,9.111v67.525c0,5.032,4.079,9.111,9.111,9.111h16.211
	v130.165c0,5.032,4.079,9.111,9.111,9.111h64.748v16.635c0,5.032,4.079,9.111,9.111,9.111h64.735v16.62
	c0,5.032,4.079,9.111,9.111,9.111h64.748v16.635c0,5.032,4.079,9.111,9.111,9.111h64.748v16.634c0,5.032,4.078,9.111,9.111,9.111
	h64.75v16.635c0,5.032,4.078,9.111,9.111,9.111h73.846c5.033,0,9.111-4.079,9.111-9.111V194.946h16.216
	c5.033,0,9.111-4.079,9.111-9.111V118.31C512,113.279,507.922,109.199,502.889,109.199z M468.452,109.199h-55.624V67.286h55.624
	V109.199z M394.606,109.199h-55.639V67.286h55.639V109.199z M320.747,109.199h-55.638V67.286h55.638V109.199z M246.887,109.199
	H191.25V67.286h55.638V109.199z M173.028,109.199h-55.624V67.286h55.624V109.199z M43.543,67.286h55.638v41.913H43.543V67.286z
	 M43.543,316V194.946h55.638V316H43.543z M117.403,341.746v-146.8h55.624v146.8H117.403z M191.25,367.478V194.946h55.638v172.53
	H191.25V367.478z M265.109,393.222V194.946h55.638v198.276H265.109z M338.968,418.968V194.946h55.639v224.022H338.968z
	 M468.452,444.714h-55.624V194.946h55.624V444.714z M493.778,176.725H18.222v-49.304h475.557V176.725z"/>
<g>
	<path style="fill:#FFFFFF;" d="M58.118,104.764c-5.032,0-9.111-4.079-9.111-9.111V80.59c0-5.032,4.079-9.111,9.111-9.111
		s9.111,4.079,9.111,9.111v15.063C67.229,100.685,63.15,104.764,58.118,104.764z"/>
	<path style="fill:#FFFFFF;" d="M58.118,301.071c-5.032,0-9.111-4.079-9.111-9.111v-81.794c0-5.032,4.079-9.111,9.111-9.111
		s9.111,4.079,9.111,9.111v81.794C67.229,296.992,63.15,301.071,58.118,301.071z"/>
	<path style="fill:#FFFFFF;" d="M131.871,104.764c-5.032,0-9.111-4.079-9.111-9.111V80.59c0-5.032,4.079-9.111,9.111-9.111
		c5.032,0,9.111,4.079,9.111,9.111v15.063C140.981,100.685,136.902,104.764,131.871,104.764z"/>
	<path style="fill:#FFFFFF;" d="M131.871,334.274c-5.032,0-9.111-4.079-9.111-9.111V210.165c0-5.032,4.079-9.111,9.111-9.111
		c5.032,0,9.111,4.079,9.111,9.111v114.999C140.981,330.195,136.902,334.274,131.871,334.274z"/>
	<path style="fill:#FFFFFF;" d="M205.624,104.764c-5.032,0-9.111-4.079-9.111-9.111V80.59c0-5.032,4.079-9.111,9.111-9.111
		c5.032,0,9.111,4.079,9.111,9.111v15.063C214.735,100.685,210.656,104.764,205.624,104.764z"/>
	<path style="fill:#FFFFFF;" d="M205.624,354.521c-5.032,0-9.111-4.079-9.111-9.111V210.166c0-5.032,4.079-9.111,9.111-9.111
		c5.032,0,9.111,4.079,9.111,9.111V345.41C214.735,350.442,210.656,354.521,205.624,354.521z"/>
	<path style="fill:#FFFFFF;" d="M279.376,104.764c-5.033,0-9.111-4.079-9.111-9.111V80.59c0-5.032,4.078-9.111,9.111-9.111
		c5.033,0,9.111,4.079,9.111,9.111v15.063C288.487,100.685,284.408,104.764,279.376,104.764z"/>
	<path style="fill:#FFFFFF;" d="M279.376,386.105c-5.033,0-9.111-4.079-9.111-9.111V210.166c0-5.032,4.078-9.111,9.111-9.111
		c5.033,0,9.111,4.079,9.111,9.111v166.828C288.487,382.026,284.408,386.105,279.376,386.105z"/>
	<path style="fill:#FFFFFF;" d="M353.129,104.764c-5.033,0-9.111-4.079-9.111-9.111V80.59c0-5.032,4.078-9.111,9.111-9.111
		s9.111,4.079,9.111,9.111v15.063C362.24,100.685,358.16,104.764,353.129,104.764z"/>
	<path style="fill:#FFFFFF;" d="M353.129,412.02c-5.033,0-9.111-4.079-9.111-9.111V210.166c0-5.032,4.078-9.111,9.111-9.111
		s9.111,4.079,9.111,9.111V402.91C362.24,407.94,358.16,412.02,353.129,412.02z"/>
	<path style="fill:#FFFFFF;" d="M426.882,104.764c-5.033,0-9.111-4.079-9.111-9.111V80.59c0-5.032,4.078-9.111,9.111-9.111
		c5.033,0,9.111,4.079,9.111,9.111v15.063C435.993,100.685,431.914,104.764,426.882,104.764z"/>
	<path style="fill:#FFFFFF;" d="M426.882,437.935c-5.033,0-9.111-4.079-9.111-9.111V210.166c0-5.032,4.078-9.111,9.111-9.111
		c5.033,0,9.111,4.079,9.111,9.111v218.659C435.993,433.856,431.914,437.935,426.882,437.935z"/>
	<path style="fill:#FFFFFF;" d="M34.916,171.941c-5.032,0-9.111-4.079-9.111-9.111v-21.866c0-5.032,4.079-9.111,9.111-9.111
		s9.111,4.079,9.111,9.111v21.866C44.027,167.862,39.948,171.941,34.916,171.941z"/>
</g>
<g>
</g>
<g>
</g>
<g>
</g>
<g>
</g>
<g>
</g>
<g>
</g>
<g>
</g>
<g>
</g>
<g>
</g>
<g>
</g>
<g>
</g>
<g>
</g>
<g>
</g>
<g>
</g>
<g>
</g>
</svg>
