<?xml version="1.0" encoding="iso-8859-1"?>
<!-- Generator: Adobe Illustrator 19.0.0, SVG Export Plug-In . SVG Version: 6.00 Build 0)  -->
<svg version="1.1" id="Layer_1" xmlns="http://www.w3.org/2000/svg" xmlns:xlink="http://www.w3.org/1999/xlink" x="0px" y="0px"
	 viewBox="0 0 512 512" style="enable-background:new 0 0 512 512;" xml:space="preserve">
<path style="fill:#F95428;" d="M77.702,466.041l-0.371,2.023l-47.725,34.321L9.597,482.389l34.334-47.725l2.023-0.384
	c1.063,2.599,2.637,5.018,4.737,7.131l19.881,19.894C72.684,463.417,75.104,464.991,77.702,466.041z"/>
<path style="fill:#F7B239;" d="M495.652,132.954c9,9,9,23.594,0,32.593l-0.986,0.973c-8.232,8.231-21.11,8.936-30.135,2.112
	c-0.858-0.627-1.677-1.344-2.445-2.112L345.476,49.909c-0.781-0.781-1.485-1.587-2.125-2.445
	c-6.811-9.025-6.094-21.929,2.125-30.135l0.973-0.986c9-9,23.594-9,32.593,0L495.652,132.954z"/>
<path style="opacity:0.25;fill:#4D4D4D;enable-background:new    ;" d="M495.652,132.954l-59.528-59.528c9,9,9,23.594,0,32.593
	l-0.986,0.973c-8.231,8.231-21.11,8.936-30.135,2.112c-0.858-0.627-1.677-1.344-2.445-2.112l59.528,59.528
	c0.768,0.768,1.587,1.485,2.445,2.112c9.025,6.823,21.904,6.119,30.135-2.112l0.986-0.973
	C504.652,156.547,504.652,141.953,495.652,132.954z"/>
<path style="fill:#F7B239;" d="M345.476,49.909L462.086,166.52c0.768,0.768,1.587,1.485,2.445,2.112l-0.141,0.192
	c0,0-63.407-7.463-104.436,33.566L101.04,461.304c-6.311,6.311-15.567,7.886-23.337,4.737c-2.599-1.05-5.018-2.624-7.131-4.737
	l-19.881-19.894c-2.099-2.112-3.674-4.532-4.737-7.131c-3.149-7.771-1.575-17.013,4.737-23.325l258.902-258.914
	c41.029-41.029,33.579-104.436,33.579-104.436l0.179-0.141C343.991,48.322,344.695,49.128,345.476,49.909z"/>
<path style="fill:#FFFFFF;" d="M338.957,171.003c-2.107,0-4.228-0.691-6.001-2.111c-4.136-3.317-4.801-9.361-1.484-13.497
	c10.975-13.685,19.174-30.047,24.369-48.63c1.426-5.107,6.717-8.091,11.831-6.662c5.107,1.427,8.088,6.725,6.661,11.833
	c-5.895,21.091-15.278,39.754-27.88,55.472C344.558,169.773,341.769,171.003,338.957,171.003z"/>
<g style="opacity:0.25;">
	<path style="fill:#4D4D4D;" d="M462.086,166.52l-21.763-21.763l-21.648-21.648c0,0-39.455,16.489-80.484,57.518L79.277,439.542
		c-6.311,6.311-15.567,7.886-23.337,4.737c-2.174-0.878-4.209-2.146-6.056-3.765c0.268,0.3,0.521,0.609,0.809,0.897l19.881,19.894
		c2.112,2.112,4.532,3.687,7.131,4.737c7.771,3.149,17.026,1.575,23.337-4.737L359.956,202.39
		c41.029-41.029,104.436-33.566,104.436-33.566l0.141-0.192C463.674,168.005,462.854,167.288,462.086,166.52z"/>
</g>
<g>
	<path style="fill:#333333;" d="M512,149.248c0-8.721-3.395-16.917-9.562-23.083L385.828,9.553
		C373.099-3.174,352.388-3.176,339.66,9.554l-0.979,0.979c-6.164,6.165-9.562,14.364-9.562,23.083
		c0,6.028,1.626,11.806,4.664,16.836c0.748,9.978,2.736,61.092-30.975,94.802L43.898,404.161
		c-7.163,7.164-10.065,16.973-8.777,26.31L1.808,476.779c-2.749,3.82-2.322,9.069,1.004,12.396l20.005,20.005
		c1.86,1.859,4.318,2.813,6.793,2.813c1.955,0,3.92-0.594,5.605-1.808l46.306-33.314c1.424,0.197,2.854,0.33,4.289,0.33
		c7.975,0,15.951-3.037,22.023-9.107L366.74,209.185c33.552-33.552,84.798-31.689,94.809-30.969
		c5.029,3.035,10.802,4.657,16.825,4.657c8.721,0,16.919-3.396,23.084-9.562l0.981-0.981h-0.001
		C508.605,166.165,512,157.967,512,149.248z M30.624,489.83l-8.462-8.463l22.97-31.929l17.422,17.422L30.624,489.83z
		 M353.16,195.605L94.251,454.514c-2.254,2.256-5.254,3.497-8.444,3.497c-3.189,0-6.188-1.242-8.443-3.497l-19.887-19.887
		c-4.656-4.656-4.656-12.232,0-16.887l258.909-258.909c27.666-27.666,35-64.075,36.567-87.857l88.063,88.063
		C417.234,160.604,380.827,167.94,353.16,195.605z M488.861,158.753L488.861,158.753l-0.982,0.981
		c-2.537,2.539-5.913,3.938-9.505,3.938c-3.591,0-6.965-1.398-9.504-3.938L352.258,43.122c-5.242-5.241-5.242-13.768,0.001-19.012
		l0.979-0.979c2.537-2.539,5.913-3.937,9.505-3.937c3.591,0,6.965,1.398,9.504,3.937l116.613,116.613
		c2.539,2.539,3.937,5.914,3.937,9.504C492.797,152.839,491.401,156.214,488.861,158.753z"/>
	<path style="fill:#333333;" d="M302.601,214.577c-1.424-3.646-5.215-6.019-9.093-5.925c-4.109,0.1-7.742,2.889-8.947,6.807
		c-2.66,8.644,7.553,15.797,14.829,10.555C302.927,223.466,304.3,218.593,302.601,214.577
		C302.371,213.988,302.846,215.153,302.601,214.577z"/>
	<path style="fill:#333333;" d="M129.177,388.015c-0.481-1.169-1.194-2.217-2.074-3.124c-5.982-5.816-16.381-1.642-16.399,6.798
		c-0.017,8.123,9.916,12.519,15.983,7.168C129.739,396.166,130.673,391.762,129.177,388.015
		C128.935,387.426,129.407,388.591,129.177,388.015z"/>
	<path style="fill:#333333;" d="M172.537,344.655c-1.5-3.625-5.181-6.019-9.105-5.925c-4.187,0.101-7.887,3.005-9.012,7.032
		c-1.007,3.61,0.251,7.608,3.157,9.98c3.316,2.706,8.107,2.882,11.609,0.426C172.795,353.638,174.263,348.737,172.537,344.655
		C172.293,344.067,172.781,345.231,172.537,344.655z"/>
	<path style="fill:#333333;" d="M215.897,301.295c-1.534-3.622-5.153-6.021-9.105-5.925c-4.186,0.101-7.89,3.006-9.012,7.032
		c-2.37,8.503,7.499,15.417,14.728,10.435C216.155,310.325,217.62,305.39,215.897,301.295
		C215.652,300.72,216.139,301.872,215.897,301.295z"/>
	<path style="fill:#333333;" d="M255.709,253.623c-3.738-2.527-8.927-1.988-12.11,1.191c-2.619,2.615-3.5,6.625-2.222,10.094
		c1.4,3.806,5.172,6.401,9.243,6.298c4.049-0.102,7.663-2.828,8.901-6.672C260.803,260.552,259.261,255.906,255.709,253.623
		C255.198,253.277,256.246,253.968,255.709,253.623z"/>
</g>
<g>
	<path style="fill:#FFFFFF;" d="M363.923,43.188c-0.627,0-1.255-0.064-1.882-0.192c-0.603-0.115-1.216-0.307-1.792-0.55
		c-0.576-0.23-1.139-0.525-1.651-0.871c-0.525-0.358-1.024-0.755-1.459-1.203c-1.792-1.779-2.816-4.25-2.816-6.785
		s1.024-5.005,2.816-6.785c0.435-0.448,0.933-0.845,1.459-1.203c0.512-0.346,1.075-0.64,1.651-0.883
		c0.576-0.23,1.191-0.422,1.792-0.538c1.242-0.256,2.522-0.256,3.762,0c0.603,0.115,1.216,0.307,1.792,0.538
		c0.576,0.243,1.139,0.538,1.651,0.883c0.525,0.358,1.024,0.755,1.459,1.203c1.792,1.779,2.816,4.25,2.816,6.785
		c0,2.535-1.024,5.005-2.816,6.785c-0.435,0.448-0.933,0.845-1.459,1.203c-0.512,0.346-1.075,0.64-1.651,0.871
		c-0.576,0.243-1.191,0.435-1.792,0.55C365.177,43.124,364.55,43.188,363.923,43.188z"/>
	<path style="fill:#FFFFFF;" d="M67.05,432.36c-0.626,0-1.253-0.064-1.882-0.192c-0.602-0.115-1.216-0.307-1.791-0.538
		c-0.576-0.243-1.141-0.538-1.651-0.883c-0.525-0.358-1.025-0.755-1.461-1.203c-0.448-0.435-0.845-0.935-1.202-1.459
		c-0.347-0.512-0.64-1.075-0.883-1.651c-0.23-0.576-0.422-1.191-0.538-1.792c-0.128-0.627-0.192-1.255-0.192-1.882
		c0-0.627,0.065-1.255,0.192-1.882c0.115-0.602,0.307-1.216,0.538-1.792c0.243-0.576,0.538-1.139,0.883-1.651
		c0.357-0.525,0.755-1.024,1.202-1.459c0.435-0.448,0.935-0.845,1.461-1.191c0.511-0.358,1.075-0.653,1.651-0.883
		c0.575-0.243,1.191-0.435,1.791-0.55c1.242-0.256,2.522-0.256,3.764,0c0.602,0.115,1.215,0.307,1.791,0.55
		c0.576,0.23,1.141,0.525,1.651,0.883c0.525,0.346,1.024,0.742,1.461,1.191c0.448,0.435,0.844,0.935,1.202,1.459
		c0.347,0.512,0.64,1.075,0.883,1.651c0.23,0.576,0.422,1.191,0.538,1.792c0.128,0.627,0.191,1.255,0.191,1.882
		c0,0.627-0.064,1.255-0.191,1.882c-0.115,0.602-0.307,1.216-0.538,1.792c-0.243,0.576-0.538,1.139-0.883,1.651
		c-0.358,0.525-0.755,1.024-1.202,1.459c-0.437,0.448-0.935,0.845-1.461,1.203c-0.511,0.346-1.075,0.64-1.651,0.883
		c-0.576,0.23-1.191,0.422-1.791,0.538C68.306,432.295,67.677,432.36,67.05,432.36z"/>
</g>
<g>
</g>
<g>
</g>
<g>
</g>
<g>
</g>
<g>
</g>
<g>
</g>
<g>
</g>
<g>
</g>
<g>
</g>
<g>
</g>
<g>
</g>
<g>
</g>
<g>
</g>
<g>
</g>
<g>
</g>
</svg>
