<?xml version="1.0" encoding="iso-8859-1"?>
<!-- Generator: Adobe Illustrator 19.0.0, SVG Export Plug-In . SVG Version: 6.00 Build 0)  -->
<svg version="1.1" id="Layer_1" xmlns="http://www.w3.org/2000/svg" xmlns:xlink="http://www.w3.org/1999/xlink" x="0px" y="0px"
	 viewBox="0 0 512 512" style="enable-background:new 0 0 512 512;" xml:space="preserve">
<rect x="24.217" y="440.391" transform="matrix(-0.7071 0.7071 -0.7071 -0.7071 404.8317 770.7057)" style="fill:#4D4D4D;" width="37.162" height="57.61"/>
<path style="fill:#F7B239;" d="M502.713,61.844L82.217,482.34l-5.91-5.91l-40.736-40.736l-5.91-5.91l52.791-52.791
	c0.347,0.372,0.694,0.743,1.053,1.103c12.427,12.427,32.559,12.427,44.973,0l-23.565-23.565L450.157,9.289L502.713,61.844z"/>
<g style="opacity:0.25;">
	<polygon style="fill:#4D4D4D;" points="484.036,43.167 63.54,463.663 76.307,476.43 82.217,482.34 502.713,61.844 	"/>
</g>
<g>
	<path style="fill:#333333;" d="M509.278,55.277L456.724,2.722c-3.629-3.628-9.511-3.63-13.141,0L98.346,347.959
		c-3.629,3.629-3.629,9.513,0,13.14l15.575,15.576c-8.016,3.001-17.41,1.285-23.846-5.15c-0.253-0.253-0.498-0.512-0.738-0.776
		c-1.708-1.884-4.115-2.985-6.657-3.047c-2.556-0.083-4.999,0.921-6.797,2.718l-52.791,52.791
		c-3.406,3.406-3.615,8.798-0.627,12.448L2.722,455.402C0.979,457.144,0,459.508,0,461.972s0.979,4.828,2.722,6.57l40.735,40.735
		c1.742,1.743,4.106,2.722,6.57,2.722s4.828-0.979,6.57-2.722l19.744-19.744c1.652,1.349,3.725,2.095,5.876,2.095
		c2.464,0,4.828-0.979,6.57-2.722l420.491-420.49C512.907,64.788,512.907,58.904,509.278,55.277z M50.027,489.567l-27.594-27.594
		l13.14-13.139l27.594,27.594L50.027,489.567z M82.217,469.196l-39.414-39.414l40.145-40.145
		c15.979,10.828,37.959,9.174,52.105-4.972c1.743-1.742,2.722-4.106,2.722-6.57c0-2.464-0.979-4.828-2.722-6.57l-16.996-16.996
		L450.152,22.433l39.414,39.414L82.217,469.196z"/>
	<path style="fill:#333333;" d="M369.865,116.956c-3.467,2.063-5.226,6.312-4.237,10.227c1.032,4.089,4.8,7.027,9.016,7.027
		c4.137,0,7.83-2.833,8.943-6.808C385.812,119.451,376.893,112.775,369.865,116.956z"/>
	<path style="fill:#333333;" d="M306.057,180.434c-3.161,2.553-4.263,7.024-2.715,10.768c1.417,3.428,4.86,5.736,8.573,5.736
		c4.656,0,8.624-3.567,9.216-8.157C322.184,180.639,312.395,175.314,306.057,180.434z"/>
	<path style="fill:#333333;" d="M337.747,148.819c-3.193,2.354-4.536,6.615-3.283,10.375c1.249,3.748,4.839,6.387,8.81,6.387
		c4.46,0,8.393-3.317,9.158-7.709C353.845,149.773,344.346,143.954,337.747,148.819z"/>
	<path style="fill:#333333;" d="M442.133,54.231c-3.465-2.072-8.017-1.623-11.013,1.083c-6.174,5.578-2.063,16.182,6.239,16.182
		c4.305,0,8.115-3.078,9.058-7.261C447.288,60.368,445.536,56.265,442.133,54.231z"/>
	<path style="fill:#333333;" d="M275.099,211.485c-3.245,2.343-4.595,6.642-3.356,10.433c1.228,3.756,4.862,6.378,8.816,6.378
		c4.222,0,7.965-2.954,9.005-7.032C291.67,212.996,281.95,206.538,275.099,211.485z"/>
	<path style="fill:#333333;" d="M399.694,86.74c-6.068,5.631-1.946,16.114,6.307,16.114c4.469,0,8.376-3.307,9.147-7.699
		C416.648,86.611,406.068,80.825,399.694,86.74z"/>
	<path style="fill:#333333;" d="M211.771,274.693c-6.394,5.484-2.34,16.318,6.073,16.318c4.553,0,8.498-3.431,9.188-7.921
		C228.312,274.751,218.142,269.228,211.771,274.693z"/>
	<path style="fill:#333333;" d="M243.645,242.915c-3.369,2.501-4.637,7.128-3.03,11.002c1.425,3.433,4.867,5.736,8.586,5.736
		c4.302,0,8.096-3.066,9.054-7.249C260.151,244.131,250.386,237.91,243.645,242.915z"/>
</g>
<g>
	<path style="fill:#FFFFFF;" d="M68.088,439.675c-2.378,0-4.756-0.907-6.57-2.722c-3.629-3.629-3.629-9.513,0-13.14l21.342-21.342
		c3.629-3.629,9.513-3.629,13.14,0c3.629,3.629,3.629,9.513,0,13.14l-21.342,21.343C72.843,438.768,70.466,439.675,68.088,439.675z"
		/>
	<path style="fill:#FFFFFF;" d="M145.687,362.076c-2.378,0-4.756-0.907-6.57-2.722c-3.629-3.629-3.629-9.513,0-13.14l42.684-42.684
		c3.629-3.629,9.513-3.629,13.14,0c3.629,3.629,3.629,9.513,0,13.14l-42.684,42.684
		C150.443,361.169,148.064,362.076,145.687,362.076z"/>
</g>
<g>
</g>
<g>
</g>
<g>
</g>
<g>
</g>
<g>
</g>
<g>
</g>
<g>
</g>
<g>
</g>
<g>
</g>
<g>
</g>
<g>
</g>
<g>
</g>
<g>
</g>
<g>
</g>
<g>
</g>
</svg>
