<?xml version="1.0" encoding="iso-8859-1"?>
<!-- Generator: Adobe Illustrator 19.0.0, SVG Export Plug-In . SVG Version: 6.00 Build 0)  -->
<svg version="1.1" id="Layer_1" xmlns="http://www.w3.org/2000/svg" xmlns:xlink="http://www.w3.org/1999/xlink" x="0px" y="0px"
	 viewBox="0 0 511.998 511.998" style="enable-background:new 0 0 511.998 511.998;" xml:space="preserve">
<path style="fill:#F95428;" d="M472.606,220.819v55.718c0,11.734-9.517,21.251-21.263,21.251H60.651
	c-11.734,0-21.251-9.518-21.251-21.251v-55.718c0-11.746,9.517-21.263,21.251-21.263h390.692
	C463.089,199.556,472.606,209.073,472.606,220.819z"/>
<g>
	<polygon style="fill:#CCCCCC;" points="481.614,328.297 468.671,370.397 43.323,370.397 30.38,328.297 	"/>
	<rect x="25.343" y="141.6" style="fill:#CCCCCC;" width="461.32" height="27.45"/>
</g>
<path style="fill:#F7B239;" d="M503.114,169.048v159.249h-21.5H30.38H8.892V169.048h16.451h461.32H503.114z M472.606,276.537
	v-55.718c0-11.746-9.517-21.263-21.263-21.263H60.651c-11.734,0-21.251,9.518-21.251,21.263v55.718
	c0,11.734,9.517,21.251,21.251,21.251h390.692C463.089,297.789,472.606,288.271,472.606,276.537z"/>
<g>
	<path style="fill:#333333;" d="M503.111,160.163h-7.556v-18.568c0-4.909-3.979-8.889-8.889-8.889H25.343
		c-4.91,0-8.889,3.98-8.889,8.889v18.568H8.889c-4.91,0-8.889,3.98-8.889,8.889v159.249c0,4.909,3.979,8.889,8.889,8.889h14.927
		l11.01,35.823c1.147,3.731,4.594,6.278,8.497,6.278h425.346c3.903,0,7.35-2.546,8.497-6.278l11.01-35.823h14.933
		c4.91,0,8.889-3.98,8.889-8.889V169.052C512,164.143,508.02,160.163,503.111,160.163z M34.232,150.484h443.544v9.679H34.232
		V150.484z M462.102,361.512H49.892l-7.475-24.322h427.161L462.102,361.512z M494.221,319.412H17.779V177.942h476.443V319.412z"/>
	<path style="fill:#333333;" d="M60.656,306.682h390.688c16.623,0,30.148-13.524,30.148-30.147v-55.716
		c0-16.623-13.524-30.147-30.148-30.147H60.656c-16.623,0-30.148,13.524-30.148,30.147v55.716
		C30.508,293.158,44.032,306.682,60.656,306.682z M48.287,220.819c0-6.82,5.549-12.368,12.369-12.368h390.688
		c6.82,0,12.369,5.548,12.369,12.368v55.716c0,6.82-5.549,12.368-12.369,12.368H60.656c-6.82,0-12.369-5.548-12.369-12.368
		C48.287,276.535,48.287,220.819,48.287,220.819z"/>
	<path style="fill:#333333;" d="M72.681,252.074c1.51,3.667,5.372,5.886,9.296,5.419c3.672-0.436,6.73-3.223,7.562-6.812
		c1.726-7.447-6.522-13.505-13.141-9.667C72.632,243.198,70.979,248.054,72.681,252.074
		C72.907,252.619,72.456,251.541,72.681,252.074z"/>
	<path style="fill:#333333;" d="M426.168,256.068c3.434,2.259,8.08,1.887,11.069-0.954c2.444-2.322,3.368-5.942,2.334-9.149
		c-1.171-3.63-4.634-6.174-8.459-6.174c-3.76,0-7.179,2.452-8.402,6C421.418,249.534,422.848,253.878,426.168,256.068
		C426.654,256.388,425.682,255.748,426.168,256.068z"/>
</g>
<g>
	<path style="fill:#FFFFFF;" d="M292.745,234.39H106.262c-4.91,0-8.889-3.98-8.889-8.889c0-4.909,3.979-8.889,8.889-8.889h186.484
		c4.91,0,8.889,3.98,8.889,8.889C301.635,230.41,297.656,234.39,292.745,234.39z"/>
	<path style="fill:#FFFFFF;" d="M73.476,234.39c-0.581,0-1.162-0.059-1.742-0.178c-0.558-0.107-1.126-0.284-1.659-0.51
		c-0.533-0.213-1.055-0.486-1.529-0.806c-0.486-0.332-0.948-0.699-1.351-1.114c-1.659-1.647-2.608-3.935-2.608-6.282
		c0-0.581,0.059-1.162,0.177-1.742c0.108-0.557,0.284-1.126,0.498-1.659c0.225-0.533,0.499-1.055,0.818-1.529
		c0.332-0.486,0.699-0.948,1.114-1.351c0.403-0.415,0.853-0.782,1.351-1.114c0.474-0.32,0.996-0.593,1.529-0.818
		c0.533-0.213,1.102-0.391,1.659-0.498c1.15-0.237,2.335-0.237,3.483,0c0.557,0.107,1.126,0.284,1.659,0.498
		c0.532,0.225,1.055,0.498,1.529,0.818c0.485,0.332,0.948,0.699,1.351,1.114c0.415,0.403,0.782,0.865,1.114,1.351
		c0.32,0.474,0.593,0.996,0.817,1.529c0.213,0.533,0.391,1.102,0.498,1.659c0.12,0.581,0.178,1.162,0.178,1.742
		c0,2.347-0.948,4.634-2.608,6.282c-0.403,0.415-0.865,0.782-1.351,1.114c-0.474,0.32-0.997,0.593-1.529,0.806
		c-0.533,0.225-1.103,0.403-1.659,0.51C74.637,234.331,74.056,234.39,73.476,234.39z"/>
</g>
<g>
</g>
<g>
</g>
<g>
</g>
<g>
</g>
<g>
</g>
<g>
</g>
<g>
</g>
<g>
</g>
<g>
</g>
<g>
</g>
<g>
</g>
<g>
</g>
<g>
</g>
<g>
</g>
<g>
</g>
</svg>
