<?xml version="1.0" encoding="iso-8859-1"?>
<!-- Generator: Adobe Illustrator 19.0.0, SVG Export Plug-In . SVG Version: 6.00 Build 0)  -->
<svg version="1.1" id="Layer_1" xmlns="http://www.w3.org/2000/svg" xmlns:xlink="http://www.w3.org/1999/xlink" x="0px" y="0px"
	 viewBox="0 0 512.001 512.001" style="enable-background:new 0 0 512.001 512.001;" xml:space="preserve">
<path style="fill:#F7B239;" d="M146.533,20.344l8.402-1.67c35.986-3.984,71.073,12.999,90.286,43.679l47.357,75.639
	c5.918,9.459,19.509,9.966,26.125,0.972l19.869-27.024c8.92-12.122,25.396-15.874,38.681-8.793
	c10.156,5.411,16.064,15.863,16.064,26.77c0,3.762-0.708,7.578-2.177,11.255l-133.934,334.26v1.025h29.539l27.478,27.615H167.628
	l-2.811-27.615L118.781,23.451c-0.793-6.996,3.752-13.475,10.59-15.134c1.11-0.264,2.219-0.391,3.297-0.391
	C139.6,7.926,145.72,13.115,146.533,20.344z M155.876,104.089v0.032l41.312,370.287l24.519-47.156l25.206-48.488l25.195-48.456
	l25.206-48.478v-0.011l25.206-48.478l48.182-92.685c2.304-4.449,0.349-9.924-4.27-11.9c-1.384-0.592-2.854-0.793-4.27-0.634
	c-2.579,0.264-4.978,1.68-6.426,4.005l-18.516,29.729c-5.242,8.423-12.587,14.352-20.778,17.766
	c-9.66,4.048-20.503,4.597-30.49,1.638c-9.808-2.885-18.791-9.163-25.016-18.822l-9.459-14.68l-37.201-57.714l-2.336-3.625
	c-5.622-8.719-15.282-13.982-25.65-13.972c-1.078,0-2.135,0.053-3.181,0.169c-0.486,0.053-0.972,0.116-1.458,0.19
	c-14.616,2.251-25.798,14.902-25.787,30.152L155.876,104.089z"/>
<g>
	<path style="fill:#B3B3B3;" d="M213.83,428.141L173.776,73.707l15.752-1.781l40.054,354.435c0.034,0.296,0.05,0.593,0.05,0.89
		l-7.972,0.005L213.83,428.141z"/>
	<path style="fill:#B3B3B3;" d="M239.036,379.653l-32.635-288.72l15.752-1.781l32.635,288.72c0.034,0.296,0.05,0.593,0.05,0.89
		l-8.021,0.011L239.036,379.653z"/>
	<path style="fill:#B3B3B3;" d="M264.232,331.197l-20.631-182.549l15.752-1.781l20.631,182.549c0.034,0.296,0.051,0.593,0.051,0.89
		l-7.973,0.005L264.232,331.197z"/>
	
		<rect x="241.034" y="223.635" transform="matrix(-0.1123 -0.9937 0.9937 -0.1123 94.2913 547.3569)" style="fill:#B3B3B3;" width="101.206" height="15.852"/>
	<path style="fill:#B3B3B3;" d="M314.643,234.232l-6.077-53.72l15.751-1.783l6.077,53.72c0.034,0.296,0.051,0.594,0.051,0.891
		l-7.972,0.005L314.643,234.232z"/>
</g>
<path style="fill:#333333;" d="M401.244,129.918c0-14.168-7.765-27.106-20.262-33.765c-16.636-8.868-37.615-4.103-48.796,11.093
	l-19.867,27.023c-1.574,2.139-4.015,3.304-6.648,3.21c-2.646-0.099-4.969-1.445-6.376-3.692l-47.357-75.639
	c-20.7-33.056-59.12-51.641-97.877-47.351l0,0l-2.308,0.429C147.992,4.483,140.818,0,132.667,0c-1.715,0-3.442,0.204-5.167,0.615
	c-10.701,2.597-17.834,12.797-16.606,23.638l46.036,453.009l2.811,27.615c0.412,4.046,3.818,7.123,7.885,7.123h146.595
	c3.202,0,6.091-1.927,7.32-4.884s0.558-6.363-1.7-8.633l-27.478-27.615c-1.487-1.495-3.509-2.336-5.618-2.336H268.51
	l129.991-324.419C400.321,139.557,401.244,134.782,401.244,129.918z M383.783,138.226l-133.934,334.26
	c-0.375,0.937-0.569,1.938-0.569,2.949v1.025c0,4.377,3.549,7.926,7.926,7.926h26.245l11.704,11.763H174.788l-2.086-20.49
	L126.656,22.559c-0.341-3.011,1.63-5.822,4.55-6.53c3.619-0.861,7.052,1.658,7.451,5.194l50.609,453.658
	c0.138,2.362,1.333,4.619,3.394,6.052c1.369,0.951,2.948,1.416,4.517,1.416c2.111,0,4.205-0.84,5.751-2.464
	c0.57-0.598,1.037-1.278,1.391-2.01l100.027-192.389c0.042-0.081,0.082-0.163,0.122-0.244l73.27-140.94
	c2.109-4.072,2.432-8.883,0.885-13.2c-1.547-4.316-4.854-7.827-9.076-9.634c-2.606-1.114-5.466-1.536-8.193-1.231
	c-5.126,0.525-9.625,3.332-12.346,7.7l-18.517,29.731c-4.129,6.635-10.042,11.696-17.111,14.644
	c-7.941,3.327-16.881,3.807-25.19,1.343c-8.552-2.515-15.671-7.88-20.588-15.511l-48.998-76.021
	c-7.109-11.025-19.173-17.603-32.272-17.603c-1.444,0.006-2.764,0.07-4.073,0.216c-0.6,0.066-1.202,0.144-1.811,0.237
	c-7.62,1.173-14.465,4.626-19.889,9.591l-5.339-47.864l0.867-0.172c32.651-3.51,64.977,12.183,82.418,40.033l47.356,75.636
	c4.172,6.669,11.357,10.826,19.218,11.122c7.861,0.284,15.346-3.314,20.015-9.659l19.867-27.021
	c6.544-8.895,18.826-11.689,28.569-6.495c7.319,3.899,11.865,11.476,11.865,19.775C385.391,132.759,384.849,135.556,383.783,138.226
	z M163.792,102.953c-0.007-11.045,8.189-20.637,19.058-22.31c0.372-0.057,0.743-0.106,1.135-0.148
	c0.741-0.081,1.541-0.113,2.337-0.12c7.695,0,14.781,3.865,18.956,10.338l48.996,76.02c6.908,10.72,17.363,18.58,29.426,22.128
	c11.786,3.493,24.504,2.809,35.79-1.921c10.119-4.217,18.576-11.442,24.458-20.892l18.517-29.73
	c0.143-0.228,0.353-0.295,0.579-0.318c0.083-0.01,0.176,0.004,0.27,0.044c0.07,0.03,0.284,0.122,0.387,0.409
	c0.103,0.287-0.003,0.491-0.032,0.548l-73.386,141.161c-0.042,0.08-0.082,0.162-0.122,0.244l-87.985,169.227l-38.377-343.988
	L163.792,102.953z"/>
<path style="fill:#FFFFFF;" d="M169.939,63.235c-3.959,0-7.38-2.96-7.861-6.989L160,38.808c-0.518-4.347,2.586-8.291,6.933-8.809
	c4.346-0.526,8.29,2.585,8.809,6.933l2.079,17.438c0.518,4.347-2.586,8.291-6.933,8.809
	C170.569,63.217,170.252,63.235,169.939,63.235z"/>
<g>
</g>
<g>
</g>
<g>
</g>
<g>
</g>
<g>
</g>
<g>
</g>
<g>
</g>
<g>
</g>
<g>
</g>
<g>
</g>
<g>
</g>
<g>
</g>
<g>
</g>
<g>
</g>
<g>
</g>
</svg>
