<?xml version="1.0" encoding="iso-8859-1"?>
<!-- Generator: Adobe Illustrator 19.0.0, SVG Export Plug-In . SVG Version: 6.00 Build 0)  -->
<svg version="1.1" id="Layer_1" xmlns="http://www.w3.org/2000/svg" xmlns:xlink="http://www.w3.org/1999/xlink" x="0px" y="0px"
	 viewBox="0 0 512 512" style="enable-background:new 0 0 512 512;" xml:space="preserve">
<polygon style="fill:#4D4D4D;" points="503.255,97.606 503.255,414.391 471.75,414.391 471.738,414.391 471.738,157.117 
	412.122,157.117 385.447,157.117 358.76,157.117 325.819,157.117 299.144,157.117 272.458,157.117 212.853,157.117 153.226,157.117 
	126.551,157.117 99.864,157.117 40.26,157.117 40.26,414.391 8.754,414.391 8.754,97.606 40.26,97.606 79.362,97.606 471.75,97.606 
	"/>
<polygon style="fill:#F2F2F2;" points="471.738,157.117 471.738,414.391 385.447,414.391 385.447,308.929 412.122,308.929 
	412.122,157.117 "/>
<polygon style="fill:#4D4D4D;" points="412.122,157.117 412.122,308.929 385.447,308.929 358.76,308.929 358.76,157.117 
	385.447,157.117 "/>
<polygon style="fill:#F2F2F2;" points="385.447,308.929 385.447,414.391 299.144,414.391 299.144,308.929 325.819,308.929 
	325.819,157.117 358.76,157.117 358.76,308.929 "/>
<polygon style="fill:#4D4D4D;" points="325.819,157.117 325.819,308.929 299.144,308.929 272.458,308.929 272.458,157.117 
	299.144,157.117 "/>
<g>
	<polygon style="fill:#F2F2F2;" points="299.144,308.929 299.144,414.391 212.853,414.391 212.853,157.117 272.458,157.117 
		272.458,308.929 	"/>
	<polygon style="fill:#F2F2F2;" points="212.853,157.117 212.853,414.391 126.551,414.391 126.551,308.929 153.226,308.929 
		153.226,157.117 	"/>
</g>
<polygon style="fill:#4D4D4D;" points="153.226,157.117 153.226,308.929 126.551,308.929 99.864,308.929 99.864,157.117 
	126.551,157.117 "/>
<polygon style="fill:#F2F2F2;" points="126.551,308.929 126.551,414.391 40.26,414.391 40.26,157.117 99.864,157.117 
	99.864,308.929 "/>
<path style="fill:#333333;" d="M503.248,88.852H8.752C3.918,88.852,0,92.771,0,97.604v316.792c0,4.833,3.918,8.752,8.752,8.752
	h494.497c4.833,0,8.752-3.918,8.752-8.752V97.604C512,92.771,508.082,88.852,503.248,88.852z M108.62,300.176V165.864h35.855
	v134.313H108.62V300.176z M99.869,317.679h17.927v87.965H49.009v-239.78h42.108v143.064
	C91.117,313.761,95.036,317.679,99.869,317.679z M135.3,317.679h17.928c4.833,0,8.752-3.918,8.752-8.752V165.864h42.119v239.782
	H135.3V317.679z M221.601,165.864h42.108v143.064c0,4.833,3.918,8.752,8.752,8.752h17.927v87.965H221.6V165.864H221.601z
	 M281.213,300.176V165.864h35.855v134.313h-35.855V300.176z M307.891,317.679h17.928c4.833,0,8.752-3.918,8.752-8.752V165.864h15.44
	v143.064c0,4.833,3.918,8.752,8.752,8.752h17.927v87.965h-68.798L307.891,317.679L307.891,317.679z M367.514,300.176V165.864h35.855
	v134.313h-35.855V300.176z M394.193,405.645v-87.965h17.928c4.833,0,8.752-3.918,8.752-8.752V165.864h42.119v239.782h-68.798
	V405.645z M494.497,405.645h-14.003V157.113c0-4.833-3.918-8.752-8.752-8.752H40.257c-4.833,0-8.752,3.918-8.752,8.752v248.533
	H17.503v-299.29h476.994V405.645z"/>
<g>
	<path style="fill:#FFFFFF;" d="M118.313,294.238c-4.833,0-8.752-3.918-8.752-8.752v-75.847c0-4.833,3.918-8.752,8.752-8.752
		s8.752,3.918,8.752,8.752v75.847C127.064,290.319,123.146,294.238,118.313,294.238z"/>
	<path style="fill:#FFFFFF;" d="M118.313,189.218c-2.31,0-4.563-0.934-6.184-2.567c-1.634-1.622-2.567-3.886-2.567-6.184
		c0-2.299,0.934-4.563,2.567-6.184c1.622-1.634,3.874-2.567,6.184-2.567c2.299,0,4.563,0.934,6.184,2.567
		c1.634,1.622,2.567,3.886,2.567,6.184c0,2.299-0.934,4.563-2.567,6.184C122.874,188.285,120.61,189.218,118.313,189.218z"/>
	<path style="fill:#FFFFFF;" d="M289.844,294.238c-4.833,0-8.752-3.918-8.752-8.752v-75.847c0-4.833,3.918-8.752,8.752-8.752
		s8.752,3.918,8.752,8.752v75.847C298.596,290.319,294.677,294.238,289.844,294.238z"/>
	<path style="fill:#FFFFFF;" d="M289.844,189.218c-0.572,0-1.144-0.058-1.715-0.175c-0.548-0.105-1.109-0.28-1.634-0.49
		c-0.525-0.222-1.039-0.49-1.505-0.805c-0.478-0.327-0.934-0.688-1.33-1.097c-0.408-0.397-0.77-0.852-1.097-1.33
		c-0.315-0.467-0.583-0.98-0.805-1.505c-0.21-0.525-0.385-1.085-0.49-1.634c-0.117-0.572-0.175-1.144-0.175-1.715
		c0-0.572,0.058-1.144,0.175-1.715c0.105-0.548,0.28-1.109,0.49-1.634c0.222-0.525,0.49-1.039,0.805-1.505
		c0.327-0.478,0.688-0.934,1.097-1.33c0.397-0.408,0.852-0.77,1.33-1.097c0.467-0.315,0.98-0.583,1.505-0.805
		c0.525-0.21,1.085-0.385,1.634-0.49c1.132-0.233,2.299-0.233,3.431,0c0.548,0.105,1.109,0.28,1.634,0.49
		c0.525,0.222,1.039,0.49,1.505,0.805c0.478,0.327,0.934,0.688,1.33,1.097c0.408,0.397,0.77,0.852,1.097,1.33
		c0.315,0.467,0.583,0.98,0.793,1.505c0.222,0.525,0.397,1.085,0.502,1.634c0.117,0.572,0.175,1.144,0.175,1.715
		c0,0.572-0.058,1.144-0.175,1.715c-0.105,0.548-0.28,1.109-0.502,1.634c-0.21,0.525-0.478,1.039-0.793,1.505
		c-0.327,0.478-0.688,0.934-1.097,1.33c-0.397,0.408-0.852,0.77-1.33,1.097c-0.467,0.315-0.98,0.583-1.505,0.805
		c-0.525,0.21-1.085,0.385-1.634,0.49C290.988,189.16,290.415,189.218,289.844,189.218z"/>
	<path style="fill:#FFFFFF;" d="M376.194,294.238c-4.833,0-8.752-3.918-8.752-8.752v-75.847c0-4.833,3.918-8.752,8.752-8.752
		s8.752,3.918,8.752,8.752v75.847C384.945,290.319,381.027,294.238,376.194,294.238z"/>
	<path style="fill:#FFFFFF;" d="M376.194,189.218c-0.572,0-1.144-0.058-1.704-0.175c-0.56-0.105-1.12-0.28-1.645-0.49
		c-0.525-0.222-1.039-0.49-1.505-0.805c-0.478-0.327-0.934-0.688-1.33-1.097c-1.634-1.622-2.567-3.886-2.567-6.184
		c0-0.572,0.058-1.144,0.175-1.715c0.105-0.548,0.28-1.109,0.49-1.634c0.222-0.525,0.49-1.039,0.805-1.505
		c0.327-0.478,0.688-0.934,1.097-1.33c0.397-0.408,0.852-0.77,1.33-1.097c0.467-0.315,0.98-0.583,1.505-0.805
		c0.525-0.21,1.085-0.385,1.645-0.49c1.12-0.233,2.287-0.233,3.419,0c0.548,0.105,1.109,0.28,1.634,0.49
		c0.525,0.222,1.039,0.49,1.505,0.805c0.478,0.327,0.933,0.688,1.33,1.097c0.408,0.397,0.77,0.852,1.097,1.33
		c0.315,0.467,0.583,0.98,0.805,1.505c0.21,0.525,0.385,1.085,0.49,1.634c0.117,0.572,0.175,1.144,0.175,1.715
		c0,2.31-0.933,4.563-2.567,6.184C380.755,188.285,378.491,189.218,376.194,189.218z"/>
	<path style="fill:#FFFFFF;" d="M203.495,128.54c-0.572,0-1.144-0.058-1.715-0.175c-0.548-0.105-1.109-0.28-1.634-0.49
		c-0.525-0.222-1.039-0.49-1.505-0.805c-0.478-0.327-0.934-0.688-1.33-1.097c-0.408-0.397-0.77-0.852-1.085-1.33
		c-0.315-0.467-0.595-0.98-0.805-1.505c-0.222-0.525-0.397-1.085-0.502-1.634c-0.117-0.572-0.175-1.144-0.175-1.715
		s0.058-1.144,0.175-1.715c0.105-0.548,0.28-1.109,0.502-1.634c0.21-0.525,0.49-1.039,0.805-1.505
		c0.315-0.478,0.677-0.934,1.085-1.33c0.397-0.408,0.852-0.77,1.33-1.097c0.467-0.315,0.98-0.583,1.505-0.805
		c0.525-0.21,1.085-0.385,1.634-0.49c1.132-0.233,2.299-0.233,3.431,0c0.548,0.105,1.109,0.28,1.634,0.49
		c0.525,0.222,1.039,0.49,1.505,0.805c0.478,0.327,0.934,0.688,1.33,1.097c0.408,0.397,0.77,0.852,1.097,1.33
		c0.315,0.467,0.583,0.98,0.805,1.505c0.21,0.525,0.385,1.085,0.49,1.634c0.117,0.572,0.175,1.144,0.175,1.715
		s-0.058,1.144-0.175,1.715c-0.105,0.548-0.28,1.109-0.49,1.634c-0.222,0.525-0.49,1.039-0.805,1.505
		c-0.327,0.478-0.688,0.934-1.097,1.33C208.056,127.607,205.793,128.54,203.495,128.54z"/>
	<path style="fill:#FFFFFF;" d="M173.156,128.54H34.297c-4.833,0-8.752-3.918-8.752-8.752c0-4.833,3.918-8.752,8.752-8.752h138.859
		c4.833,0,8.752,3.918,8.752,8.752C181.908,124.622,177.989,128.54,173.156,128.54z"/>
</g>
<g>
</g>
<g>
</g>
<g>
</g>
<g>
</g>
<g>
</g>
<g>
</g>
<g>
</g>
<g>
</g>
<g>
</g>
<g>
</g>
<g>
</g>
<g>
</g>
<g>
</g>
<g>
</g>
<g>
</g>
</svg>
