<?xml version="1.0" encoding="iso-8859-1"?>
<!-- Generator: Adobe Illustrator 19.0.0, SVG Export Plug-In . SVG Version: 6.00 Build 0)  -->
<svg version="1.1" id="Layer_1" xmlns="http://www.w3.org/2000/svg" xmlns:xlink="http://www.w3.org/1999/xlink" x="0px" y="0px"
	 viewBox="0 0 512.001 512.001" style="enable-background:new 0 0 512.001 512.001;" xml:space="preserve">
<g>
	<polygon style="fill:#F2F2F2;" points="192.461,402.331 203.493,391.299 203.67,391.476 165.218,429.928 72.698,337.409 
		111.15,298.956 154.042,341.848 143.01,352.869 	"/>
	<polygon style="fill:#F2F2F2;" points="243.889,351.257 203.67,391.476 203.493,391.299 214.039,380.753 164.577,331.302 
		154.042,341.848 111.15,298.956 151.37,258.737 	"/>
	<polygon style="fill:#F2F2F2;" points="273.142,321.65 283.931,310.861 284.108,311.038 243.889,351.257 151.37,258.737 
		191.589,218.518 234.48,261.41 223.68,272.199 	"/>
	<polygon style="fill:#F2F2F2;" points="313.35,281.442 334.929,259.864 335.105,260.04 284.108,311.038 283.931,310.861 
		294.71,300.083 245.258,250.632 234.48,261.41 191.589,218.518 231.797,178.31 274.346,220.859 274.688,221.202 263.899,231.98 	
		"/>
	<polygon style="fill:#F2F2F2;" points="364.535,230.61 335.105,260.04 334.929,259.864 285.466,210.413 274.688,221.202 
		274.346,220.859 231.797,178.31 272.016,138.091 	"/>
	
		<rect x="310.312" y="99.708" transform="matrix(-0.7071 0.7071 -0.7071 -0.7071 692.9109 43.2399)" style="fill:#F2F2F2;" width="54.376" height="130.838"/>
</g>
<g>
	<polygon style="fill:#4D4D4D;" points="214.039,380.753 203.493,391.299 192.461,402.331 143.01,352.869 154.042,341.848 
		164.577,331.302 	"/>
	<polygon style="fill:#4D4D4D;" points="294.71,300.083 283.931,310.861 273.142,321.65 223.68,272.199 234.48,261.41 
		245.258,250.632 	"/>
	<polygon style="fill:#4D4D4D;" points="334.929,259.864 313.35,281.442 263.899,231.98 274.688,221.202 285.466,210.413 	"/>
</g>
<polygon style="fill:#3A88D6;" points="401.817,120.72 463.891,229.65 189.822,503.718 48.105,362.002 72.698,337.409 
	165.218,429.928 203.67,391.476 243.889,351.257 284.108,311.038 335.105,260.04 364.535,230.61 402.988,192.158 310.468,99.639 
	401.817,8.279 433.445,39.906 "/>
<g>
	<path style="fill:#333333;" d="M471.092,225.546l-60.118-105.49l30.183-77.133c1.199-3.064,0.47-6.547-1.856-8.874L407.677,2.426
		c-3.236-3.235-8.479-3.235-11.713,0L42.248,356.141c-3.235,3.235-3.235,8.479,0,11.712l141.72,141.721
		c1.554,1.554,3.66,2.426,5.857,2.426s4.302-0.872,5.857-2.426l274.071-274.071C472.39,232.864,472.94,228.788,471.092,225.546z
		 M192.466,390.615l-37.742-37.742l9.858-9.858l37.743,37.742L192.466,390.615z M137.154,358.729l43.778,43.778l-15.709,15.709
		l-80.812-80.813l26.737-26.737l31.177,31.177l-5.172,5.172C133.919,350.251,133.919,355.494,137.154,358.729z M214.217,369.222
		l-43.778-43.778c-1.554-1.554-3.66-2.426-5.857-2.426c-2.198,0-4.302,0.872-5.857,2.426l-4.687,4.687l-31.177-31.177l28.506-28.506
		l80.813,80.813L214.217,369.222z M243.892,339.547l-80.813-80.813l28.505-28.506l31.177,31.177l-4.935,4.935
		c-1.553,1.553-2.425,3.66-2.425,5.856c0,2.197,0.872,4.304,2.425,5.856l43.778,43.779L243.892,339.547z M273.139,309.941
		l-37.742-37.742l9.859-9.858l37.742,37.742L273.139,309.941z M294.891,288.548l-43.777-43.778c-3.236-3.235-8.479-3.235-11.713,0
		l-4.923,4.923l-31.178-31.177l28.497-28.497l31.177,31.177l-4.93,4.93c-3.235,3.235-3.235,8.479,0,11.712l43.778,43.778
		L294.891,288.548z M313.356,269.724l-37.742-37.742l9.858-9.858l37.743,37.742L313.356,269.724z M335.108,248.331l-43.778-43.778
		c-1.554-1.554-3.66-2.426-5.857-2.426c-2.198,0-4.302,0.872-5.857,2.426l-4.929,4.929l-31.177-31.177l28.501-28.501l80.813,80.812
		L335.108,248.331z M364.536,218.902l-80.813-80.813l26.74-26.74l80.813,80.812L364.536,218.902z M189.824,492.005L59.817,361.997
		l12.881-12.881l86.669,86.669c1.554,1.554,3.66,2.426,5.857,2.426c2.198,0,4.302-0.872,5.857-2.426l237.767-237.767
		c3.235-3.235,3.235-8.479,0-11.712l-86.669-86.669l79.642-79.642l21.937,21.937l-29.651,75.771
		c-0.911,2.329-0.721,4.946,0.518,7.118l58.948,103.437L189.824,492.005z"/>
	<path style="fill:#333333;" d="M200.28,454.168c-1.323-3.125-4.443-5.183-7.851-5.1c-3.463,0.084-6.571,2.385-7.655,5.676
		c-1.152,3.493,0.201,7.438,3.26,9.484c2.843,1.902,6.704,1.827,9.466-0.19C200.569,461.799,201.727,457.682,200.28,454.168
		C200.07,453.671,200.489,454.676,200.28,454.168z"/>
	<path style="fill:#333333;" d="M239.428,415.02c-2.831-6.692-12.695-6.665-15.354,0.161c-1.174,3.014-0.455,6.583,1.849,8.872
		c2.528,2.512,6.478,3.119,9.645,1.497C239.357,423.61,241.049,418.955,239.428,415.02
		C239.218,414.523,239.637,415.528,239.428,415.02z"/>
	<path style="fill:#333333;" d="M278.576,375.872c-1.971-4.68-7.812-6.538-12.11-3.798c-4.428,2.824-5.01,9.107-1.396,12.831
		c2.752,2.675,7.016,3.191,10.286,1.134C278.728,383.919,280.096,379.545,278.576,375.872
		C278.366,375.375,278.785,376.38,278.576,375.872z"/>
	<path style="fill:#333333;" d="M210.583,429.641c-3.579,0.761-6.321,3.778-6.63,7.44c-0.282,3.332,1.554,6.573,4.532,8.074
		c6.79,3.42,14.347-3.767,11.302-10.714C218.25,430.934,214.344,428.886,210.583,429.641"/>
	<path style="fill:#333333;" d="M259.007,395.451c-1.257-2.983-4.165-5-7.406-5.109c-3.639-0.123-6.946,2.253-8.102,5.677
		c-2.379,7.046,5.518,13.436,11.944,9.797C259.056,403.772,260.535,399.282,259.007,395.451
		C258.797,394.955,259.206,395.948,259.007,395.451z"/>
	<path style="fill:#333333;" d="M298.144,356.303c-1.203-2.997-4.192-5.001-7.4-5.109c-3.611-0.121-6.976,2.251-8.1,5.677
		c-2.31,7.042,5.482,13.457,11.948,9.797C298.164,364.647,299.744,360.101,298.144,356.303
		C297.945,355.807,298.354,356.8,298.144,356.303z"/>
	<path style="fill:#333333;" d="M364.5,273.76l-53.62,53.62c-3.235,3.235-3.235,8.479,0,11.712c1.618,1.617,3.738,2.426,5.857,2.426
		s4.239-0.808,5.857-2.426l53.62-53.62c3.234-3.235,3.234-8.479,0-11.712C372.979,270.526,367.736,270.526,364.5,273.76z"/>
	<path style="fill:#333333;" d="M410.311,239.662c1.618,1.617,3.738,2.426,5.857,2.426c2.119,0,4.239-0.808,5.857-2.426l7.288-7.288
		c3.235-3.235,3.235-8.479,0-11.712c-3.236-3.235-8.479-3.235-11.713,0l-7.288,7.288
		C407.077,231.184,407.077,236.428,410.311,239.662z"/>
	<path style="fill:#333333;" d="M391.7,246.56l-7.288,7.288c-3.235,3.235-3.235,8.479,0,11.712c1.618,1.617,3.738,2.426,5.857,2.426
		c2.119,0,4.239-0.808,5.857-2.426l7.288-7.288c3.235-3.235,3.235-8.479,0-11.712C400.179,243.327,394.936,243.327,391.7,246.56z"/>
</g>
<rect x="203.462" y="383.105" transform="matrix(-0.7071 -0.7071 0.7071 -0.7071 70.7918 812.0967)" width="0.25" height="16.565"/>
<rect x="283.903" y="302.663" transform="matrix(-0.7082 -0.706 0.706 -0.7082 265.6496 731.6838)" width="0.25" height="16.565"/>
<g>
	<path style="fill:#FFFFFF;" d="M364.226,91.202c-2.119,0-4.239-0.808-5.857-2.426c-3.235-3.235-3.235-8.479,0-11.712l35.338-35.338
		c3.236-3.235,8.479-3.235,11.713,0c3.235,3.235,3.235,8.479,0,11.712l-35.338,35.338C368.466,90.393,366.345,91.202,364.226,91.202
		z"/>
	<path style="fill:#FFFFFF;" d="M306.25,149.178c-2.119,0-4.239-0.808-5.857-2.426c-3.235-3.235-3.235-8.479,0-11.712l6.626-6.626
		c3.236-3.235,8.479-3.235,11.713,0c3.235,3.235,3.235,8.479,0,11.712l-6.626,6.626C310.489,148.37,308.369,149.178,306.25,149.178z
		"/>
	<path style="fill:#FFFFFF;" d="M267.047,188.381c-2.119,0-4.239-0.808-5.857-2.426c-3.235-3.235-3.235-8.479,0-11.712l6.626-6.626
		c3.236-3.235,8.479-3.235,11.713,0c3.235,3.235,3.235,8.479,0,11.712l-6.626,6.626
		C271.286,187.573,269.166,188.381,267.047,188.381z"/>
	<path style="fill:#FFFFFF;" d="M227.843,227.585c-2.119,0-4.239-0.808-5.857-2.426c-3.235-3.235-3.235-8.479,0-11.712l6.626-6.626
		c3.236-3.235,8.479-3.235,11.713,0c3.235,3.235,3.235,8.479,0,11.712l-6.626,6.626
		C232.083,226.776,229.963,227.585,227.843,227.585z"/>
	<path style="fill:#FFFFFF;" d="M184.775,270.653c-2.119,0-4.239-0.808-5.857-2.426c-3.235-3.235-3.235-8.479,0-11.712l6.626-6.626
		c3.236-3.235,8.479-3.235,11.713,0c3.235,3.235,3.235,8.479,0,11.712l-6.626,6.626
		C189.015,269.845,186.894,270.653,184.775,270.653z"/>
	<path style="fill:#FFFFFF;" d="M148.885,306.543c-2.119,0-4.239-0.808-5.857-2.426c-3.235-3.235-3.235-8.479,0-11.712l6.626-6.626
		c3.236-3.235,8.479-3.235,11.713,0s3.235,8.479,0,11.712l-6.626,6.626C153.124,305.735,151.004,306.543,148.885,306.543z"/>
	<path style="fill:#FFFFFF;" d="M108.025,347.403c-2.119,0-4.239-0.808-5.857-2.426c-3.235-3.235-3.235-8.479,0-11.712l6.626-6.626
		c3.236-3.235,8.479-3.235,11.713,0c3.235,3.235,3.235,8.479,0,11.712l-6.626,6.626
		C112.265,346.594,110.144,347.403,108.025,347.403z"/>
	<path style="fill:#FFFFFF;" d="M346.557,108.871c-2.187,0-4.318-0.883-5.853-2.429c-0.388-0.375-0.729-0.806-1.038-1.259
		c-0.298-0.442-0.552-0.928-0.762-1.425c-0.199-0.497-0.363-1.027-0.464-1.546c-0.11-0.541-0.165-1.082-0.165-1.623
		c0-0.541,0.055-1.082,0.165-1.623c0.101-0.519,0.265-1.049,0.464-1.546c0.21-0.497,0.465-0.983,0.762-1.425
		c0.309-0.453,0.652-0.883,1.038-1.259c0.375-0.387,0.805-0.729,1.259-1.038c0.442-0.298,0.928-0.552,1.425-0.762
		c0.497-0.199,1.027-0.364,1.546-0.464c2.693-0.541,5.554,0.342,7.476,2.264c0.387,0.375,0.729,0.806,1.038,1.259
		c0.298,0.442,0.552,0.928,0.761,1.425c0.199,0.497,0.364,1.027,0.464,1.546c0.112,0.541,0.166,1.082,0.166,1.623
		c0,0.541-0.055,1.082-0.166,1.623c-0.099,0.519-0.265,1.049-0.464,1.546c-0.209,0.497-0.464,0.983-0.761,1.425
		c-0.309,0.453-0.653,0.883-1.038,1.259C350.875,107.987,348.733,108.871,346.557,108.871z"/>
</g>
<g>
</g>
<g>
</g>
<g>
</g>
<g>
</g>
<g>
</g>
<g>
</g>
<g>
</g>
<g>
</g>
<g>
</g>
<g>
</g>
<g>
</g>
<g>
</g>
<g>
</g>
<g>
</g>
<g>
</g>
</svg>
