<?xml version="1.0" encoding="iso-8859-1"?>
<!-- Generator: Adobe Illustrator 19.0.0, SVG Export Plug-In . SVG Version: 6.00 Build 0)  -->
<svg version="1.1" id="Layer_1" xmlns="http://www.w3.org/2000/svg" xmlns:xlink="http://www.w3.org/1999/xlink" x="0px" y="0px"
	 viewBox="0 0 512 512" style="enable-background:new 0 0 512 512;" xml:space="preserve">
<g>
	<path style="fill:#F7B239;" d="M8.853,156.027h270.393c0,64.991-45.847,119.259-106.953,132.238
		c-9.106,1.949-18.554,2.964-28.238,2.964c-11.031,0-21.742-1.323-32.005-3.815C52.834,273.041,8.853,219.671,8.853,156.027z"/>
	<path style="fill:#F7B239;" d="M503.142,355.972H232.749c0-64.979,45.847-119.259,106.964-132.238
		c9.106-1.949,18.554-2.964,28.238-2.964c11.019,0,21.742,1.323,31.994,3.826C459.173,238.957,503.142,292.327,503.142,355.972z"/>
</g>
<path style="fill:#CC582F;" d="M179.84,451.681c1.004,21.506-16.168,39.481-37.686,39.481c-21.53,0-38.69-17.975-37.71-39.481
	l7.606-164.267c10.263,2.492,20.975,3.815,32.005,3.815c9.684,0,19.132-1.016,28.238-2.964v0.012L179.84,451.681z"/>
<g style="opacity:0.25;">
	<path style="fill:#4D4D4D;" d="M116.892,291.229c4.595,0,9.135-0.236,13.614-0.685c-6.287-0.627-12.45-1.672-18.456-3.13
		l-0.172,3.713C113.543,291.188,115.213,291.229,116.892,291.229z"/>
	<path style="fill:#4D4D4D;" d="M179.84,451.681l-7.547-163.405v-0.012c-8.725,1.867-17.767,2.867-27.027,2.949l7.411,160.468
		c0.781,16.715-9.421,31.292-24.107,36.96c4.21,1.625,8.788,2.521,13.584,2.521C163.672,491.163,180.844,473.188,179.84,451.681z"/>
</g>
<path style="fill:#F95428;" d="M279.246,156.027H8.853c0-74.664,60.539-135.191,135.202-135.191S279.246,81.363,279.246,156.027z"/>
<path style="opacity:0.25;fill:#4D4D4D;enable-background:new    ;" d="M144.055,20.836c-9.723,0-19.203,1.035-28.344,2.986
	c61.054,13.027,106.846,67.265,106.846,132.205c0,64.957-45.8,119.202-106.858,132.217c9.145,1.953,18.626,2.986,28.356,2.986
	c9.684,0,19.132-1.016,28.238-2.964c61.106-12.979,106.953-67.247,106.953-132.238C279.246,81.363,218.719,20.836,144.055,20.836z"
	/>
<g>
	<path style="fill:#FFFFFF;" d="M62.282,229.939c-2.605,0-5.185-1.143-6.934-3.34c-9.678-12.151-16.642-25.88-20.694-40.804
		c-1.281-4.721,1.506-9.587,6.226-10.869c4.721-1.284,9.587,1.506,10.869,6.226c3.417,12.58,9.289,24.158,17.454,34.409
		c3.048,3.826,2.416,9.398-1.409,12.447C66.164,229.308,64.216,229.939,62.282,229.939z"/>
	<path style="fill:#FFFFFF;" d="M44.113,134.295c-0.857,0-1.73-0.125-2.594-0.39c-4.678-1.43-7.31-6.383-5.88-11.061
		c11.171-36.53,40.954-65.635,77.726-75.955c4.709-1.32,9.599,1.425,10.922,6.134c1.322,4.71-1.425,9.599-6.134,10.922
		c-31.022,8.706-56.148,33.26-65.571,64.079C51.414,131.841,47.905,134.295,44.113,134.295z"/>
	<path style="fill:#FFFFFF;" d="M144.055,60.4c-0.579,0-1.157-0.059-1.736-0.177c-0.555-0.106-1.122-0.283-1.653-0.496
		c-0.531-0.224-1.051-0.496-1.524-0.815c-0.484-0.331-0.945-0.697-1.346-1.11c-0.413-0.402-0.779-0.862-1.11-1.346
		c-0.319-0.472-0.59-0.992-0.815-1.524c-0.213-0.531-0.39-1.098-0.496-1.653c-0.118-0.579-0.177-1.157-0.177-1.736
		c0-0.579,0.059-1.157,0.177-1.736c0.106-0.555,0.283-1.122,0.496-1.653c0.224-0.531,0.496-1.051,0.815-1.524
		c0.331-0.484,0.697-0.945,1.11-1.346c0.402-0.413,0.862-0.779,1.346-1.11c0.472-0.319,0.992-0.591,1.524-0.803
		c0.531-0.224,1.098-0.402,1.653-0.508c2.882-0.579,5.941,0.366,7.995,2.421c0.413,0.402,0.779,0.862,1.098,1.346
		c0.319,0.472,0.602,0.992,0.815,1.524c0.224,0.531,0.402,1.098,0.508,1.653c0.118,0.579,0.177,1.157,0.177,1.736
		c0,0.579-0.059,1.157-0.177,1.736c-0.106,0.555-0.283,1.122-0.508,1.653c-0.213,0.531-0.496,1.051-0.815,1.524
		c-0.319,0.484-0.685,0.945-1.098,1.346C148.673,59.455,146.382,60.4,144.055,60.4z"/>
</g>
<path style="fill:#3A88D6;" d="M232.749,355.972h270.393c0,74.664-60.527,135.191-135.191,135.191
	C293.276,491.163,232.749,430.636,232.749,355.972z"/>
<path style="fill:#CC582F;" d="M369.841,20.836c21.53,0,38.702,17.975,37.71,39.481l-7.606,164.279
	c-10.251-2.504-20.975-3.826-31.994-3.826c-9.684,0-19.132,1.016-28.238,2.964l-7.558-163.417
	C331.151,38.811,348.323,20.836,369.841,20.836z"/>
<g>
	<path style="fill:#FFFFFF;" d="M286.178,429.873c-2.605,0-5.185-1.143-6.934-3.34c-9.678-12.15-16.642-25.878-20.694-40.804
		c-1.281-4.721,1.506-9.587,6.226-10.869c4.72-1.281,9.587,1.506,10.869,6.226c3.417,12.581,9.289,24.158,17.454,34.409
		c3.048,3.826,2.416,9.398-1.409,12.447C290.062,429.242,288.113,429.873,286.178,429.873z"/>
	<path style="fill:#FFFFFF;" d="M268.01,334.229c-0.857,0-1.73-0.125-2.594-0.39c-4.678-1.43-7.31-6.383-5.88-11.061
		c11.171-36.531,40.954-65.635,77.726-75.955c4.71-1.324,9.599,1.425,10.922,6.135c1.322,4.71-1.425,9.599-6.135,10.922
		c-31.022,8.706-56.147,33.26-65.571,64.079C275.311,331.774,271.802,334.229,268.01,334.229z"/>
	<path style="fill:#FFFFFF;" d="M367.952,260.334c-2.338,0-4.618-0.945-6.259-2.598c-1.653-1.642-2.598-3.933-2.598-6.259
		c0-2.338,0.945-4.618,2.598-6.259c1.642-1.653,3.921-2.598,6.259-2.598c2.327,0,4.618,0.945,6.259,2.598
		c1.653,1.642,2.598,3.933,2.598,6.259s-0.945,4.618-2.598,6.259C372.57,259.389,370.278,260.334,367.952,260.334z"/>
</g>
<path style="opacity:0.25;fill:#4D4D4D;enable-background:new    ;" d="M367.952,220.77c-9.723,0-19.203,1.035-28.344,2.986
	c61.054,13.027,106.846,67.265,106.846,132.205c0,64.957-45.8,119.202-106.858,132.217c9.145,1.953,18.626,2.986,28.356,2.986
	c9.684,0,19.132-1.016,28.238-2.964c61.106-12.979,106.953-67.247,106.953-132.238C503.142,281.297,442.615,220.77,367.952,220.77z"
	/>
<g>
	<path style="fill:#333333;" d="M181.476,295.144c61.344-16.519,106.629-72.623,106.629-139.113
		c0-79.43-64.621-144.053-144.053-144.053S0,76.601,0,156.033c0,65.127,43.448,120.289,102.877,138.046l-7.276,157.196
		c-0.59,12.842,3.973,25.035,12.851,34.331c8.878,9.296,20.846,14.415,33.701,14.415c12.857,0,24.826-5.123,33.705-14.425
		c8.875-9.298,13.433-21.489,12.835-34.323L181.476,295.144z M144.053,29.695c66.685,0,121.46,51.935,126.022,117.48H18.031
		C22.593,81.63,77.368,29.695,144.053,29.695z M18.031,164.89h252.044c-4.562,65.545-59.338,117.48-126.022,117.48
		S22.593,230.434,18.031,164.89z M163.044,473.365c-5.504,5.766-12.921,8.941-20.89,8.941c-7.969,0-15.387-3.173-20.89-8.934
		c-5.504-5.762-8.332-13.321-7.966-21.28l7.126-153.956c7.691,1.274,15.582,1.949,23.629,1.949c6.735,0,13.362-0.476,19.854-1.375
		l7.091,153.384C171.369,460.049,168.544,467.603,163.044,473.365z"/>
	<path style="fill:#333333;" d="M409.123,217.922l7.276-157.196c0.591-12.842-3.973-25.035-12.851-34.331
		S382.703,11.98,369.846,11.98c-12.856,0-24.826,5.123-33.705,14.425c-8.875,9.298-13.433,21.489-12.835,34.323l7.217,156.129
		c-61.344,16.519-106.629,72.623-106.629,139.113c0,79.43,64.622,144.053,144.053,144.053S512,435.4,512,355.969
		C512,290.842,468.552,235.68,409.123,217.922z M341.002,59.905c-0.371-7.953,2.454-15.507,7.953-21.269
		c5.504-5.766,12.923-8.941,20.89-8.941c7.969,0,15.389,3.173,20.891,8.934c5.502,5.762,8.332,13.319,7.965,21.279l-7.126,153.956
		c-7.691-1.274-15.582-1.949-23.629-1.949c-6.735,0-13.362,0.476-19.854,1.375L341.002,59.905z M367.947,229.631
		c66.685,0,121.46,51.935,126.022,117.48H241.925C246.487,281.566,301.264,229.631,367.947,229.631z M367.947,482.306
		c-66.685,0-121.46-51.935-126.022-117.48h252.045C489.407,430.371,434.632,482.306,367.947,482.306z"/>
</g>
<g style="opacity:0.25;">
	<path style="fill:#4D4D4D;" d="M344.602,220.77c4.595,0,9.135,0.236,13.614,0.685c-6.287,0.627-12.45,1.672-18.456,3.13
		l-0.172-3.713C341.253,220.81,342.923,220.77,344.602,220.77z"/>
	<path style="fill:#4D4D4D;" d="M407.55,60.317l-7.547,163.405v0.012c-8.725-1.867-17.767-2.867-27.027-2.949l7.411-160.468
		c0.781-16.715-9.421-31.292-24.107-36.96c4.21-1.625,8.788-2.521,13.584-2.521C391.382,20.836,408.554,38.811,407.55,60.317z"/>
</g>
<g>
	<path style="fill:#FFFFFF;" d="M360.634,175.419c-4.696,0-8.611-3.688-8.84-8.429l-3.718-76.807
		c-0.236-4.886,3.532-9.039,8.418-9.276c4.886-0.234,9.038,3.532,9.276,8.418l3.718,76.807c0.236,4.886-3.532,9.039-8.418,9.276
		C360.924,175.415,360.778,175.419,360.634,175.419z"/>
	<path style="fill:#FFFFFF;" d="M356.39,72.906c-0.579,0-1.157-0.059-1.736-0.177c-0.555-0.106-1.122-0.283-1.653-0.496
		c-0.531-0.224-1.051-0.496-1.523-0.815c-0.484-0.331-0.945-0.697-1.346-1.11c-0.413-0.402-0.779-0.862-1.11-1.346
		c-0.319-0.472-0.591-0.992-0.815-1.524c-0.213-0.531-0.39-1.098-0.496-1.653c-0.118-0.579-0.177-1.157-0.177-1.736
		c0-2.327,0.945-4.618,2.598-6.259c0.402-0.413,0.862-0.779,1.346-1.11c0.472-0.319,0.992-0.591,1.523-0.815
		c0.531-0.213,1.098-0.39,1.653-0.496c1.146-0.236,2.327-0.236,3.472,0c0.555,0.106,1.122,0.283,1.653,0.496
		c0.531,0.224,1.051,0.496,1.523,0.815c0.484,0.331,0.945,0.697,1.346,1.11c0.413,0.402,0.779,0.862,1.11,1.346
		c0.319,0.472,0.591,0.992,0.815,1.524c0.213,0.531,0.39,1.098,0.496,1.653c0.118,0.579,0.177,1.157,0.177,1.736
		c0,0.579-0.059,1.157-0.177,1.736c-0.106,0.555-0.283,1.122-0.496,1.653c-0.224,0.531-0.496,1.051-0.815,1.524
		c-0.331,0.484-0.697,0.945-1.11,1.346C361.007,71.962,358.716,72.906,356.39,72.906z"/>
	<path style="fill:#FFFFFF;" d="M128.461,461.224c-0.144,0-0.289-0.004-0.436-0.011c-4.886-0.236-8.656-4.39-8.418-9.276
		l3.718-76.807c0.236-4.886,4.379-8.646,9.276-8.418c4.886,0.236,8.656,4.39,8.418,9.276l-3.718,76.807
		C137.072,457.535,133.157,461.224,128.461,461.224z"/>
	<path style="fill:#FFFFFF;" d="M132.706,358.711c-2.327,0-4.618-0.945-6.259-2.598c-0.413-0.402-0.779-0.862-1.11-1.346
		c-0.319-0.472-0.591-0.992-0.815-1.523c-0.213-0.531-0.39-1.098-0.496-1.653c-0.118-0.579-0.177-1.157-0.177-1.736
		c0-0.579,0.059-1.157,0.177-1.736c0.106-0.555,0.283-1.122,0.496-1.653c0.224-0.531,0.496-1.051,0.815-1.523
		c0.331-0.484,0.697-0.945,1.11-1.346c1.642-1.653,3.921-2.598,6.259-2.598c2.327,0,4.618,0.945,6.259,2.598
		c0.413,0.402,0.779,0.862,1.11,1.346c0.319,0.472,0.59,0.992,0.815,1.523c0.213,0.531,0.39,1.098,0.496,1.653
		c0.118,0.579,0.177,1.157,0.177,1.736c0,0.579-0.059,1.157-0.177,1.736c-0.106,0.555-0.283,1.122-0.496,1.653
		c-0.224,0.531-0.496,1.051-0.815,1.523c-0.331,0.484-0.697,0.945-1.11,1.346C137.324,357.767,135.032,358.711,132.706,358.711z"/>
</g>
<g>
</g>
<g>
</g>
<g>
</g>
<g>
</g>
<g>
</g>
<g>
</g>
<g>
</g>
<g>
</g>
<g>
</g>
<g>
</g>
<g>
</g>
<g>
</g>
<g>
</g>
<g>
</g>
<g>
</g>
</svg>
