<?xml version="1.0" encoding="iso-8859-1"?>
<!-- Generator: Adobe Illustrator 19.0.0, SVG Export Plug-In . SVG Version: 6.00 Build 0)  -->
<svg version="1.1" id="Layer_1" xmlns="http://www.w3.org/2000/svg" xmlns:xlink="http://www.w3.org/1999/xlink" x="0px" y="0px"
	 viewBox="0 0 512.002 512.002" style="enable-background:new 0 0 512.002 512.002;" xml:space="preserve">
<g>
	<path style="fill:#F2F2F2;" d="M240.914,360.068V460.35H188.19l9.356-67.443l4.91-35.428v-0.012
		C215.27,358.826,228.098,359.696,240.914,360.068z"/>
	<path style="fill:#F2F2F2;" d="M323.805,460.35h-52.712V360.068c12.815-0.371,25.642-1.242,38.457-2.6v0.012l4.91,35.428
		L323.805,460.35z"/>
</g>
<g>
	<path style="fill:#F95428;" d="M271.094,360.079v100.27h-30.181v-100.27v-0.012c10.053,0.302,20.117,0.302,30.181,0V360.079z"/>
	<polygon style="fill:#F95428;" points="353.152,460.35 360.477,503.299 151.531,503.299 158.856,460.35 188.19,460.35 
		240.914,460.35 271.094,460.35 323.807,460.35 	"/>
</g>
<polygon style="opacity:0.25;fill:#4D4D4D;enable-background:new    ;" points="353.151,460.35 323.805,460.35 302.075,460.35 
	309.401,503.299 360.477,503.299 "/>
<path style="fill:#CCCCCC;" d="M219.439,9.992c12.188-0.882,24.377-1.323,36.565-1.323c12.188,0,24.377,0.441,36.565,1.323
	c12.188,0.871,24.377,2.194,36.565,3.947c5.85,0.847,11.713,1.799,17.575,2.844c14.429,2.577,25.34,14.533,26.733,29.136
	c8.892,92.377,8.892,184.754,0,277.142c-1.393,14.591-12.305,26.548-26.733,29.125c-12.386,2.217-24.772,3.982-37.157,5.282
	c-12.815,1.358-25.642,2.229-38.457,2.6c-10.064,0.302-20.128,0.302-30.181,0c-12.815-0.371-25.642-1.242-38.457-2.6
	c-12.386-1.3-24.772-3.065-37.157-5.282c-14.429-2.577-25.34-14.533-26.745-29.125c-4.434-46.188-6.663-92.377-6.663-138.565
	s2.217-92.389,6.663-138.577c1.405-14.603,12.316-26.559,26.745-29.136c5.862-1.045,11.713-1.997,17.575-2.844
	C195.062,12.186,207.25,10.863,219.439,9.992z"/>
<g>
	<path style="opacity:0.25;fill:#4D4D4D;enable-background:new    ;" d="M202.456,357.469c12.815,1.358,25.642,2.229,38.457,2.6
		v35.985c-12.815-0.371-25.642-1.242-38.457-2.6c-1.637-0.174-3.273-0.348-4.91-0.546l4.91-35.428V357.469z"/>
	<path style="opacity:0.25;fill:#4D4D4D;enable-background:new    ;" d="M314.461,392.907c-1.637,0.197-3.273,0.371-4.91,0.546
		c-12.815,1.358-25.642,2.229-38.457,2.6v-35.985c12.815-0.371,25.642-1.242,38.457-2.6v0.012L314.461,392.907z"/>
	<path style="opacity:0.25;fill:#4D4D4D;enable-background:new    ;" d="M373.442,45.919c-1.393-14.603-12.305-26.559-26.733-29.136
		c-5.862-1.045-11.724-1.997-17.575-2.844c-12.188-1.753-24.377-3.076-36.565-3.947c-12.188-0.882-24.377-1.323-36.565-1.323
		c-10.061,0-20.12,0.318-30.181,0.919c2.128,0.127,4.257,0.251,6.384,0.404c12.188,0.871,24.377,2.194,36.565,3.947
		c5.85,0.847,11.713,1.799,17.575,2.844c14.429,2.577,25.34,14.533,26.733,29.136c8.892,92.377,8.892,184.754,0,277.142
		c-1.393,14.591-12.305,26.548-26.733,29.125c-12.386,2.217-24.772,3.982-37.157,5.282c-7.787,0.825-15.577,1.448-23.367,1.911
		c5.031,0.298,10.062,0.544,15.09,0.69c10.053,0.302,20.117,0.302,30.181,0c12.815-0.371,25.642-1.242,38.457-2.6
		c12.386-1.3,24.772-3.065,37.157-5.282c14.429-2.577,25.34-14.533,26.733-29.125C382.334,230.674,382.334,138.296,373.442,45.919z"
		/>
</g>
<g>
	<path style="fill:#333333;" d="M382.114,45.083c-1.775-18.458-15.705-33.619-33.877-36.871c-61.203-10.95-123.268-10.95-184.472,0
		c-18.171,3.251-32.102,18.413-33.877,36.871c-8.893,92.502-8.893,186.306,0,278.808c1.775,18.458,15.705,33.619,33.877,36.871
		c9.596,1.717,19.216,3.133,28.848,4.311l-12.005,86.567H158.85c-4.244,0-7.869,3.06-8.582,7.242l-7.325,42.95
		c-0.432,2.528,0.274,5.118,1.928,7.079c1.654,1.961,4.088,3.091,6.654,3.091h208.945c2.564,0,5-1.131,6.654-3.091
		c1.654-1.959,2.36-4.549,1.928-7.079l-7.324-42.95c-0.713-4.184-4.338-7.242-8.582-7.242H331.39l-11.996-86.567
		c9.63-1.178,19.248-2.593,28.842-4.31c18.171-3.251,32.101-18.413,33.876-36.871C391.007,231.39,391.007,137.585,382.114,45.083z
		 M209.934,366.932c7.42,0.658,14.846,1.152,22.275,1.492v83.217h-34.022L209.934,366.932z M249.62,451.639v-82.736
		c2.127,0.026,4.254,0.071,6.381,0.071c2.129,0,4.259-0.045,6.388-0.071v82.736H249.62z M350.155,494.589H161.842l4.354-25.538
		h179.603L350.155,494.589z M313.811,451.639h-34.01v-83.217c7.428-0.34,14.854-0.833,22.272-1.492L313.811,451.639z
		 M345.171,343.621c-59.17,10.585-119.172,10.585-178.339,0c-10.517-1.882-18.581-10.681-19.611-21.397
		c-0.879-9.139-1.645-18.294-2.347-27.457h30.525c4.808,0,8.706-3.898,8.706-8.706c0-4.808-3.898-8.706-8.706-8.706h-31.755
		c-0.353-5.479-0.674-10.96-0.965-16.445h32.72c4.808,0,8.706-3.898,8.706-8.706c0-4.808-3.898-8.706-8.706-8.706h-33.537
		c-0.224-5.48-0.417-10.961-0.578-16.445h34.115c4.808,0,8.706-3.898,8.706-8.706c0-4.808-3.898-8.706-8.706-8.706h-34.522
		c-0.095-5.481-0.159-10.963-0.193-16.445h34.715c4.808,0,8.706-3.898,8.706-8.706c0-4.808-3.898-8.706-8.706-8.706h-34.715
		c0.033-5.482,0.098-10.964,0.193-16.445h34.522c4.808,0,8.706-3.898,8.706-8.706c0-4.808-3.898-8.706-8.706-8.706h-34.116
		c0.161-5.484,0.354-10.965,0.578-16.445h33.538c4.808,0,8.706-3.898,8.706-8.706c0-4.808-3.898-8.706-8.706-8.706h-32.72
		c0.29-5.485,0.612-10.966,0.965-16.445h31.755c4.808,0,8.706-3.898,8.706-8.706c0-4.808-3.898-8.706-8.706-8.706h-30.526
		c0.703-9.166,1.47-18.323,2.348-27.466c1.03-10.717,9.094-19.515,19.611-21.397c2.443-0.436,4.89-0.829,7.336-1.229v7.884
		c0,4.808,3.898,8.706,8.706,8.706s8.706-3.898,8.706-8.706V21.566c6.379-0.821,12.763-1.535,19.153-2.112v12.549
		c0,4.808,3.898,8.706,8.706,8.706c4.808,0,8.706-3.898,8.706-8.706V18.216c6.382-0.354,12.767-0.595,19.153-0.706v14.498
		c0,4.808,3.898,8.706,8.706,8.706c4.808,0,8.706-3.898,8.706-8.706V17.51c6.387,0.11,12.771,0.353,19.153,0.706v13.792
		c0,4.808,3.898,8.706,8.706,8.706c4.808,0,8.706-3.898,8.706-8.706V19.459c6.39,0.577,12.775,1.291,19.153,2.112v10.438
		c0,4.808,3.898,8.706,8.706,8.706c4.808,0,8.706-3.898,8.706-8.706v-7.884c2.444,0.4,4.888,0.792,7.329,1.228
		c10.517,1.882,18.581,10.681,19.611,21.397c0.879,9.141,1.645,18.3,2.348,27.466h-30.519c-4.808,0-8.706,3.898-8.706,8.706
		c0,4.808,3.898,8.706,8.706,8.706h31.748c0.353,5.479,0.674,10.96,0.965,16.445H336.61c-4.808,0-8.706,3.898-8.706,8.706
		c0,4.808,3.898,8.706,8.706,8.706h33.531c0.224,5.48,0.417,10.961,0.578,16.445h-34.108c-4.808,0-8.706,3.898-8.706,8.706
		s3.898,8.706,8.706,8.706h34.517c0.095,5.481,0.159,10.963,0.193,16.445h-34.708c-4.808,0-8.706,3.898-8.706,8.706
		s3.898,8.706,8.706,8.706h34.708c-0.033,5.482-0.098,10.964-0.193,16.445h-34.517c-4.808,0-8.706,3.898-8.706,8.706
		s3.898,8.706,8.706,8.706h34.108c-0.161,5.484-0.354,10.965-0.578,16.445h-33.53c-4.808,0-8.706,3.898-8.706,8.706
		c0,4.808,3.898,8.706,8.706,8.706h32.713c-0.29,5.485-0.612,10.966-0.965,16.445h-31.748c-4.808,0-8.706,3.898-8.706,8.706
		s3.898,8.706,8.706,8.706h30.518c-0.703,9.162-1.468,18.318-2.347,27.457C363.751,332.942,355.687,341.741,345.171,343.621z"/>
	<path style="fill:#333333;" d="M305.409,74.215h-98.808c-4.808,0-8.706,3.898-8.706,8.706s3.898,8.706,8.706,8.706h98.808
		c4.808,0,8.706-3.898,8.706-8.706S310.217,74.215,305.409,74.215z"/>
	<path style="fill:#333333;" d="M305.409,108.072h-98.808c-4.808,0-8.706,3.898-8.706,8.706s3.898,8.706,8.706,8.706h98.808
		c4.808,0,8.706-3.898,8.706-8.706S310.217,108.072,305.409,108.072z"/>
	<path style="fill:#333333;" d="M305.409,141.929h-98.808c-4.808,0-8.706,3.898-8.706,8.706c0,4.808,3.898,8.706,8.706,8.706h98.808
		c4.808,0,8.706-3.898,8.706-8.706C314.115,145.827,310.217,141.929,305.409,141.929z"/>
	<path style="fill:#333333;" d="M305.409,175.785h-98.808c-4.808,0-8.706,3.898-8.706,8.706s3.898,8.706,8.706,8.706h98.808
		c4.808,0,8.706-3.898,8.706-8.706S310.217,175.785,305.409,175.785z"/>
	<path style="fill:#333333;" d="M305.409,209.642h-98.808c-4.808,0-8.706,3.898-8.706,8.706s3.898,8.706,8.706,8.706h98.808
		c4.808,0,8.706-3.898,8.706-8.706S310.217,209.642,305.409,209.642z"/>
	<path style="fill:#333333;" d="M305.409,243.5h-98.808c-4.808,0-8.706,3.898-8.706,8.706s3.898,8.706,8.706,8.706h98.808
		c4.808,0,8.706-3.898,8.706-8.706S310.217,243.5,305.409,243.5z"/>
	<path style="fill:#333333;" d="M305.409,277.356h-98.808c-4.808,0-8.706,3.898-8.706,8.706c0,4.808,3.898,8.706,8.706,8.706h98.808
		c4.808,0,8.706-3.898,8.706-8.706C314.115,281.254,310.217,277.356,305.409,277.356z"/>
</g>
<g>
	<path style="fill:#FFFFFF;" d="M166.284,57.295c-2.287,0-4.539-0.929-6.152-2.554c-0.406-0.395-0.766-0.847-1.091-1.323
		c-0.313-0.464-0.58-0.975-0.801-1.497c-0.209-0.522-0.383-1.08-0.488-1.625c-0.116-0.569-0.174-1.138-0.174-1.706
		c0-2.287,0.929-4.539,2.554-6.152c0.395-0.406,0.836-0.766,1.323-1.091c0.464-0.313,0.975-0.58,1.497-0.801
		c0.522-0.209,1.08-0.383,1.625-0.488c2.832-0.569,5.839,0.348,7.859,2.38c0.406,0.395,0.766,0.836,1.08,1.323
		c0.313,0.464,0.592,0.975,0.801,1.497c0.221,0.522,0.395,1.08,0.499,1.625c0.116,0.569,0.174,1.138,0.174,1.706
		s-0.058,1.138-0.174,1.706c-0.104,0.546-0.279,1.103-0.499,1.625c-0.209,0.522-0.488,1.033-0.801,1.497
		c-0.313,0.476-0.673,0.929-1.08,1.323C170.823,56.366,168.571,57.295,166.284,57.295z"/>
	<path style="fill:#FFFFFF;" d="M165.252,318.005c-4.463,0-8.264-3.413-8.662-7.942c-3.68-41.783-5.546-84.03-5.546-125.565
		c0-37.184,1.493-74.969,4.437-112.308c0.378-4.793,4.571-8.382,9.363-7.994c4.793,0.377,8.373,4.57,7.994,9.363
		c-2.908,36.885-4.382,74.209-4.382,110.939c0,41.029,1.843,82.761,5.48,124.038c0.421,4.79-3.119,9.015-7.909,9.436
		C165.768,317.993,165.509,318.005,165.252,318.005z"/>
</g>
<g>
</g>
<g>
</g>
<g>
</g>
<g>
</g>
<g>
</g>
<g>
</g>
<g>
</g>
<g>
</g>
<g>
</g>
<g>
</g>
<g>
</g>
<g>
</g>
<g>
</g>
<g>
</g>
<g>
</g>
</svg>
