<?xml version="1.0" encoding="iso-8859-1"?>
<!-- Generator: Adobe Illustrator 19.0.0, SVG Export Plug-In . SVG Version: 6.00 Build 0)  -->
<svg version="1.1" id="Layer_1" xmlns="http://www.w3.org/2000/svg" xmlns:xlink="http://www.w3.org/1999/xlink" x="0px" y="0px"
	 viewBox="0 0 512 512" style="enable-background:new 0 0 512 512;" xml:space="preserve">
<g>
	<path style="fill:#F7B239;" d="M100.782,294.804c12.128,0,22.009,9.869,22.009,22.009s-9.881,22.009-22.009,22.009
		c-12.14,0-22.009-9.869-22.009-22.009C78.773,304.674,88.642,294.804,100.782,294.804z"/>
	<path style="fill:#F7B239;" d="M411.225,294.804c12.128,0,22.009,9.869,22.009,22.009s-9.881,22.009-22.009,22.009
		c-12.14,0-22.009-9.869-22.009-22.009C389.216,304.674,399.086,294.804,411.225,294.804z"/>
	<rect x="436.127" y="73.557" style="fill:#F7B239;" width="35.33" height="32.434"/>
</g>
<g>
	<path style="fill:#808080;" d="M503.316,105.99v332.452H364.925l-26.48-36.28h-19.889V105.99H400.8h35.33h35.33H503.316z
		 M473.777,316.813c0-34.543-28.009-62.552-62.552-62.552c-34.554,0-62.552,28.009-62.552,62.552s27.998,62.552,62.552,62.552
		C445.768,379.365,473.777,351.356,473.777,316.813z"/>
	<rect x="193.448" y="105.991" style="fill:#808080;" width="125.104" height="296.172"/>
	<path style="fill:#808080;" d="M193.451,105.99v296.172h-19.901l-26.48,36.28H8.691V105.99h31.855h35.33h35.33
		C111.207,105.99,193.451,105.99,193.451,105.99z M163.334,316.813c0-34.543-28.009-62.552-62.552-62.552
		c-34.554,0-62.552,28.009-62.552,62.552s27.998,62.552,62.552,62.552C135.324,379.365,163.334,351.356,163.334,316.813z"/>
</g>
<path style="fill:#4D4D4D;" d="M100.782,254.261c34.543,0,62.552,28.009,62.552,62.552s-28.009,62.552-62.552,62.552
	c-34.554,0-62.552-28.009-62.552-62.552C38.23,282.271,66.228,254.261,100.782,254.261z M122.791,316.813
	c0-12.14-9.881-22.009-22.009-22.009c-12.14,0-22.009,9.869-22.009,22.009s9.869,22.009,22.009,22.009
	C112.91,338.822,122.791,328.953,122.791,316.813z"/>
<path style="fill:#FFFFFF;" d="M55.605,325.501c-4.799,0-8.688-3.89-8.688-8.688c0-29.701,24.162-53.864,53.864-53.864
	c4.799,0,8.688,3.89,8.688,8.688c0,4.798-3.889,8.688-8.688,8.688c-20.12,0-36.489,16.369-36.489,36.489
	C64.293,321.611,60.404,325.501,55.605,325.501z"/>
<path style="fill:#4D4D4D;" d="M411.225,254.261c34.543,0,62.552,28.009,62.552,62.552s-28.009,62.552-62.552,62.552
	c-34.554,0-62.552-28.009-62.552-62.552S376.671,254.261,411.225,254.261z M433.234,316.813c0-12.14-9.881-22.009-22.009-22.009
	c-12.14,0-22.009,9.869-22.009,22.009s9.869,22.009,22.009,22.009C423.353,338.822,433.234,328.953,433.234,316.813z"/>
<g>
	<path style="fill:#333333;" d="M503.312,97.303h-23.167V73.557c0-4.798-3.889-8.688-8.688-8.688h-35.33
		c-4.799,0-8.688,3.89-8.688,8.688v23.747h-17.955v-9.846c0-4.798-3.889-8.688-8.688-8.688s-8.688,3.89-8.688,8.688v9.846H119.891
		v-9.846c0-4.798-3.889-8.688-8.688-8.688c-4.799,0-8.688,3.89-8.688,8.688v9.846H84.561v-9.846c0-4.798-3.889-8.688-8.688-8.688
		s-8.688,3.89-8.688,8.688v9.846H49.231v-9.846c0-4.798-3.889-8.688-8.688-8.688s-8.688,3.89-8.688,8.688v9.846H8.688
		c-4.799,0-8.688,3.89-8.688,8.688v332.453c0,4.798,3.889,8.688,8.688,8.688h138.385c2.775,0,5.382-1.325,7.019-3.567l23.876-32.719
		h156.066l23.876,32.719c1.636,2.241,4.243,3.567,7.019,3.567h138.384c4.799,0,8.688-3.89,8.688-8.688V105.991
		C512,101.193,508.111,97.303,503.312,97.303z M444.815,82.244h17.955v15.059h-17.955V82.244z M309.864,114.679v278.792H202.136
		V114.679H309.864z M173.552,393.471c-2.775,0-5.382,1.325-7.019,3.567l-23.876,32.718H17.376V114.679H184.76v278.792H173.552z
		 M494.624,429.756H369.343l-23.876-32.718c-1.636-2.241-4.243-3.567-7.019-3.567H327.24V114.679h167.385V429.756z"/>
	<path style="fill:#333333;" d="M100.778,245.575c-39.282,0-71.24,31.958-71.24,71.24c0,39.282,31.958,71.24,71.24,71.24
		s71.24-31.958,71.24-71.24S140.06,245.575,100.778,245.575z M100.778,370.679c-29.702,0-53.864-24.164-53.864-53.864
		s24.162-53.864,53.864-53.864s53.864,24.164,53.864,53.864C154.643,346.515,130.48,370.679,100.778,370.679z"/>
	<path style="fill:#333333;" d="M100.778,286.118c-16.926,0-30.697,13.771-30.697,30.697s13.771,30.697,30.697,30.697
		s30.697-13.771,30.697-30.697S117.704,286.118,100.778,286.118z M100.778,330.136c-7.345,0-13.321-5.976-13.321-13.321
		c0-7.345,5.976-13.321,13.321-13.321c7.345,0,13.321,5.976,13.321,13.321C114.1,324.16,108.124,330.136,100.778,330.136z"/>
	<path style="fill:#333333;" d="M411.222,245.575c-39.282,0-71.24,31.958-71.24,71.24c0,39.282,31.958,71.24,71.24,71.24
		s71.24-31.958,71.24-71.24S450.503,245.575,411.222,245.575z M411.222,370.679c-29.702,0-53.864-24.164-53.864-53.864
		s24.162-53.864,53.864-53.864s53.864,24.164,53.864,53.864C465.086,346.515,440.924,370.679,411.222,370.679z"/>
	<path style="fill:#333333;" d="M411.222,286.118c-16.926,0-30.697,13.771-30.697,30.697s13.771,30.697,30.697,30.697
		s30.697-13.771,30.697-30.697S428.148,286.118,411.222,286.118z M411.222,330.136c-7.345,0-13.321-5.976-13.321-13.321
		c0-7.345,5.976-13.321,13.321-13.321s13.321,5.976,13.321,13.321C424.543,324.16,418.567,330.136,411.222,330.136z"/>
	<path style="fill:#333333;" d="M37.647,141.321h20.851c4.799,0,8.688-3.89,8.688-8.688c0-4.798-3.889-8.688-8.688-8.688H37.647
		c-4.799,0-8.688,3.89-8.688,8.688C28.959,137.431,32.848,141.321,37.647,141.321z"/>
	<path style="fill:#333333;" d="M37.647,168.35h20.851c4.799,0,8.688-3.89,8.688-8.688s-3.889-8.688-8.688-8.688H37.647
		c-4.799,0-8.688,3.89-8.688,8.688S32.848,168.35,37.647,168.35z"/>
	<path style="fill:#333333;" d="M37.647,195.379h20.851c4.799,0,8.688-3.89,8.688-8.688c0-4.798-3.889-8.688-8.688-8.688H37.647
		c-4.799,0-8.688,3.89-8.688,8.688C28.959,191.489,32.848,195.379,37.647,195.379z"/>
	<path style="fill:#333333;" d="M37.647,222.407h20.851c4.799,0,8.688-3.89,8.688-8.688s-3.889-8.688-8.688-8.688H37.647
		c-4.799,0-8.688,3.89-8.688,8.688S32.848,222.407,37.647,222.407z"/>
	<path style="fill:#333333;" d="M151.251,135.957c1.355,3.201,4.534,5.367,8.029,5.363c3.543-0.005,6.801-2.237,8.089-5.532
		c2.839-7.265-4.988-14.326-11.931-10.933C151.4,126.828,149.502,131.799,151.251,135.957
		C151.472,136.478,151.032,135.436,151.251,135.957z"/>
	<path style="fill:#333333;" d="M151.251,162.982c1.363,3.294,4.681,5.436,8.238,5.359c3.658-0.079,6.937-2.553,8.056-6.027
		c2.342-7.268-5.545-13.796-12.267-10.352C151.342,153.978,149.528,158.891,151.251,162.982
		C151.472,163.514,151.032,162.46,151.251,162.982z"/>
	<path style="fill:#333333;" d="M151.251,190.018c1.392,3.289,4.794,5.505,8.375,5.354c3.519-0.147,6.68-2.528,7.848-5.842
		c1.175-3.338,0.103-7.187-2.59-9.473c-2.867-2.434-7.085-2.652-10.257-0.683c-3.656,2.269-4.854,6.891-3.313,10.789"/>
	<path style="fill:#333333;" d="M151.251,217.043c1.337,3.157,4.409,5.283,7.848,5.36c3.693,0.081,7.109-2.283,8.351-5.756
		c2.642-7.389-5.537-14.353-12.419-10.501C151.259,208.257,149.567,213.038,151.251,217.043
		C151.472,217.564,151.032,216.522,151.251,217.043z"/>
	<path style="fill:#333333;" d="M125.767,135.957c0.446,1.052,1.082,2.007,1.877,2.826c2.605,2.525,6.559,3.265,9.862,1.703
		c3.114-1.473,5.107-4.769,4.969-8.213c-0.287-7.159-9.092-10.901-14.456-6.131C125.303,128.557,124.352,132.594,125.767,135.957
		C125.988,136.478,125.548,135.436,125.767,135.957z"/>
	<path style="fill:#333333;" d="M125.767,162.982c0.438,1.059,1.08,2.006,1.877,2.826c5.404,5.245,14.861,1.493,14.84-6.151
		c-0.021-7.626-9.421-11.393-14.84-6.139C125.23,156.004,124.409,159.757,125.767,162.982
		C125.988,163.514,125.548,162.46,125.767,162.982z"/>
	<path style="fill:#333333;" d="M125.767,190.018c1.394,3.291,4.799,5.498,8.379,5.353c3.554-0.144,6.747-2.58,7.882-5.942
		c1.128-3.344,0.001-7.168-2.699-9.426c-2.869-2.399-7.05-2.585-10.201-0.622c-3.645,2.272-4.839,6.888-3.299,10.781"/>
	<path style="fill:#333333;" d="M125.767,217.043c0.446,1.052,1.082,2.007,1.877,2.826c2.605,2.525,6.559,3.265,9.862,1.703
		c3.114-1.473,5.107-4.769,4.969-8.213c-0.287-7.159-9.092-10.901-14.456-6.131C125.303,209.643,124.352,213.68,125.767,217.043
		C125.988,217.564,125.548,216.522,125.767,217.043z"/>
	<path style="fill:#333333;" d="M444.815,132.633c0,4.798,3.889,8.688,8.688,8.688h20.851c4.799,0,8.688-3.89,8.688-8.688
		c0-4.798-3.889-8.688-8.688-8.688h-20.851C448.703,123.946,444.815,127.836,444.815,132.633z"/>
	<path style="fill:#333333;" d="M474.353,150.974h-20.851c-4.799,0-8.688,3.89-8.688,8.688s3.889,8.688,8.688,8.688h20.851
		c4.799,0,8.688-3.89,8.688-8.688S479.152,150.974,474.353,150.974z"/>
	<path style="fill:#333333;" d="M474.353,178.003h-20.851c-4.799,0-8.688,3.89-8.688,8.688c0,4.798,3.889,8.688,8.688,8.688h20.851
		c4.799,0,8.688-3.89,8.688-8.688C483.041,181.893,479.152,178.003,474.353,178.003z"/>
	<path style="fill:#333333;" d="M474.353,205.032h-20.851c-4.799,0-8.688,3.89-8.688,8.688s3.889,8.688,8.688,8.688h20.851
		c4.799,0,8.688-3.89,8.688-8.688S479.152,205.032,474.353,205.032z"/>
	<path style="fill:#333333;" d="M344.699,135.957c1.456,3.439,5.001,5.649,8.747,5.333c3.362-0.285,6.311-2.557,7.452-5.729
		c2.643-7.351-5.426-14.218-12.265-10.583C344.759,127.036,342.99,131.897,344.699,135.957
		C344.92,136.478,344.48,135.436,344.699,135.957z"/>
	<path style="fill:#333333;" d="M344.699,162.982c0.438,1.059,1.08,2.006,1.877,2.826c2.729,2.649,6.865,3.307,10.24,1.512
		c3.048-1.621,4.916-5.059,4.556-8.507c-0.754-7.203-9.631-10.303-14.796-5.296C344.162,156.004,343.341,159.757,344.699,162.982
		C344.92,163.514,344.48,162.46,344.699,162.982z"/>
	<path style="fill:#333333;" d="M347.897,193.91c6.065,3.993,14.373-1.027,13.448-8.281c-0.906-7.103-9.678-10.021-14.769-5.086
		C342.843,184.388,343.357,190.922,347.897,193.91z"/>
	<path style="fill:#333333;" d="M344.699,217.043c2.339,5.523,9.888,7.224,14.167,2.815c4.789-4.654,2.298-12.951-4.033-14.563
		C348.071,203.573,341.986,210.595,344.699,217.043C344.92,217.564,344.48,216.522,344.699,217.043z"/>
	<path style="fill:#333333;" d="M370.183,135.957c1.387,3.276,4.664,5.449,8.241,5.357c3.489-0.089,6.618-2.312,7.88-5.556
		c1.322-3.396,0.308-7.365-2.457-9.731c-2.809-2.404-6.929-2.724-10.104-0.85C370.104,127.328,368.544,132.062,370.183,135.957
		C370.404,136.478,369.964,135.436,370.183,135.957z"/>
	<path style="fill:#333333;" d="M370.183,162.982c0.438,1.059,1.08,2.006,1.877,2.826c3.395,3.296,8.907,3.371,12.29,0
		c2.905-2.894,3.331-7.561,1.077-10.97c-2.343-3.543-7.1-4.835-10.929-3.023C370.389,153.759,368.406,158.763,370.183,162.982
		C370.404,163.514,369.964,162.46,370.183,162.982z"/>
	<path style="fill:#333333;" d="M370.183,190.018c1.472,3.477,5.096,5.698,8.878,5.319c3.626-0.363,6.673-3.019,7.568-6.538
		c0.931-3.66-0.72-7.627-3.959-9.56c-3.414-2.038-7.776-1.443-10.61,1.303C369.63,183.045,368.847,186.776,370.183,190.018
		C370.404,190.539,369.964,189.485,370.183,190.018z"/>
	<path style="fill:#333333;" d="M370.183,217.043c1.387,3.276,4.664,5.449,8.241,5.357c3.489-0.089,6.618-2.312,7.88-5.556
		c2.945-7.562-5.631-14.696-12.561-10.571C370.111,208.436,368.538,213.133,370.183,217.043
		C370.404,217.564,369.964,216.522,370.183,217.043z"/>
	<path style="fill:#333333;" d="M229.937,150.588h52.127c4.799,0,8.688-3.89,8.688-8.688c0-4.798-3.889-8.688-8.688-8.688h-52.127
		c-4.799,0-8.688,3.89-8.688,8.688C221.249,146.698,225.138,150.588,229.937,150.588z"/>
	<path style="fill:#333333;" d="M229.937,179.548h52.127c4.799,0,8.688-3.89,8.688-8.688c0-4.798-3.889-8.688-8.688-8.688h-52.127
		c-4.799,0-8.688,3.89-8.688,8.688C221.249,175.658,225.138,179.548,229.937,179.548z"/>
	<path style="fill:#333333;" d="M282.063,191.131h-52.127c-4.799,0-8.688,3.89-8.688,8.688s3.889,8.688,8.688,8.688h52.127
		c4.799,0,8.688-3.89,8.688-8.688S286.862,191.131,282.063,191.131z"/>
	<path style="fill:#333333;" d="M241.559,244.589c-3.511,0.731-6.264,3.538-6.865,7.083c-0.641,3.788,1.385,7.646,4.854,9.284
		c3.287,1.552,7.282,0.844,9.852-1.714c2.598-2.587,3.265-6.665,1.662-9.95C249.36,245.805,245.367,243.823,241.559,244.589"/>
	<path style="fill:#333333;" d="M251.277,276.815c-2.348-5.67-9.802-7.058-14.167-2.826c-4.934,5.082-2.019,13.86,5.083,14.768
		C248.656,289.582,253.81,282.831,251.277,276.815C251.056,276.282,251.496,277.336,251.277,276.815z"/>
	<path style="fill:#333333;" d="M241.559,298.638c-3.637,0.754-6.45,3.757-6.917,7.446c-0.477,3.773,1.641,7.468,5.1,9.009
		c3.309,1.473,7.266,0.695,9.777-1.914c2.548-2.647,3.136-6.732,1.461-9.992C249.236,299.791,245.309,297.884,241.559,298.638"/>
	<path style="fill:#333333;" d="M251.277,330.864c-1.347-3.183-4.479-5.309-7.944-5.354c-3.815-0.049-7.273,2.522-8.387,6.157
		c-1.034,3.38,0.171,7.154,2.932,9.342c2.892,2.294,7.043,2.456,10.125,0.449C251.457,339.212,252.881,334.674,251.277,330.864
		C251.056,330.343,251.496,331.386,251.277,330.864z"/>
	<path style="fill:#333333;" d="M276.762,249.778c-1.41-3.331-4.804-5.538-8.445-5.353c-3.793,0.193-7.066,2.899-8.002,6.569
		c-0.837,3.284,0.398,6.83,3.047,8.929c3.006,2.383,7.385,2.459,10.483,0.207C277.051,257.802,278.303,253.443,276.762,249.778
		C276.54,249.257,276.98,250.3,276.762,249.778z"/>
	<path style="fill:#333333;" d="M273.564,272.911c-3.802-2.502-9.063-1.648-11.789,2.033c-2.557,3.453-2.166,8.264,0.818,11.333
		c3.802,3.691,10.217,3.246,13.271-1.18C278.584,281.159,277.585,275.565,273.564,272.911
		C273.089,272.598,274.038,273.224,273.564,272.911z"/>
	<path style="fill:#333333;" d="M276.762,303.84c-2.39-5.644-9.78-7.08-14.167-2.826c-4.811,4.956-2.184,13.479,4.661,14.703
		C273.856,316.897,279.366,310.026,276.762,303.84C276.54,303.318,276.98,304.361,276.762,303.84z"/>
	<path style="fill:#333333;" d="M276.762,330.864c-1.41-3.331-4.804-5.538-8.445-5.353c-3.793,0.193-7.066,2.899-8.002,6.569
		c-0.837,3.284,0.398,6.83,3.047,8.929c3.006,2.383,7.385,2.459,10.483,0.207C277.051,338.888,278.303,334.529,276.762,330.864
		C276.54,330.343,276.98,331.386,276.762,330.864z"/>
	<path style="fill:#333333;" d="M391.44,407.317c-1.378-3.26-4.642-5.434-8.197-5.36c-3.717,0.078-7.053,2.603-8.135,6.163
		c-2.287,7.525,6.256,14.022,12.905,9.887C391.569,415.795,393.07,411.192,391.44,407.317
		C391.219,406.796,391.659,407.838,391.44,407.317z"/>
	<path style="fill:#333333;" d="M420.4,407.317c-1.381-3.265-4.664-5.449-8.23-5.357c-3.628,0.093-6.897,2.514-8.034,5.959
		c-2.534,7.675,6.335,14.438,13.068,9.953C420.595,415.608,421.984,411.083,420.4,407.317
		C420.178,406.796,420.618,407.838,420.4,407.317z"/>
	<path style="fill:#333333;" d="M449.359,407.317c-1.354-3.201-4.52-5.363-8.017-5.363c-3.633,0-6.961,2.348-8.18,5.765
		c-1.242,3.476-0.09,7.454,2.799,9.744c2.95,2.34,7.259,2.467,10.343,0.307C449.61,415.453,450.897,411.054,449.359,407.317
		C449.138,406.796,449.578,407.85,449.359,407.317z"/>
	<path style="fill:#333333;" d="M478.318,407.317c-1.409-3.33-4.804-5.538-8.445-5.353c-3.632,0.185-6.824,2.684-7.887,6.157
		c-1.014,3.312,0.123,7.046,2.799,9.237c2.917,2.387,7.195,2.612,10.336,0.512C478.517,415.599,479.907,411.094,478.318,407.317
		C478.097,406.796,478.537,407.838,478.318,407.317z"/>
	<path style="fill:#333333;" d="M49.721,407.317c-1.355-3.203-4.518-5.363-8.017-5.363c-3.634,0-6.959,2.346-8.18,5.765
		c-1.242,3.476-0.09,7.454,2.799,9.744c2.95,2.34,7.258,2.467,10.343,0.307C49.972,415.453,51.259,411.054,49.721,407.317
		C49.5,406.796,49.94,407.85,49.721,407.317z"/>
	<path style="fill:#333333;" d="M78.68,407.317c-2.969-7.02-13.317-6.994-16.106,0.169c-2.84,7.294,5.084,14.459,12.061,10.875
		C78.583,416.331,80.409,411.426,78.68,407.317C78.459,406.796,78.899,407.838,78.68,407.317z"/>
	<path style="fill:#333333;" d="M107.639,407.317c-2.942-6.955-13.116-7.016-16.045,0c-1.484,3.556-0.356,7.819,2.689,10.179
		c2.802,2.172,6.75,2.42,9.798,0.599C107.715,415.925,109.285,411.229,107.639,407.317
		C107.418,406.796,107.858,407.838,107.639,407.317z"/>
	<path style="fill:#333333;" d="M136.599,407.317c-2.974-7.031-13.334-6.997-16.121,0.198c-1.362,3.516-0.225,7.612,2.721,9.948
		c2.791,2.212,6.77,2.451,9.821,0.638C136.663,415.937,138.249,411.241,136.599,407.317
		C136.377,406.796,136.818,407.838,136.599,407.317z"/>
</g>
<g>
	<path style="fill:#FFFFFF;" d="M107.153,140.764H81.958c-4.799,0-8.688-3.89-8.688-8.688s3.889-8.688,8.688-8.688h25.195
		c4.799,0,8.688,3.89,8.688,8.688S111.952,140.764,107.153,140.764z"/>
	<path style="fill:#FFFFFF;" d="M428.022,140.764h-25.195c-4.799,0-8.688-3.89-8.688-8.688s3.889-8.688,8.688-8.688h25.195
		c4.799,0,8.688,3.89,8.688,8.688S432.821,140.764,428.022,140.764z"/>
	<path style="fill:#FFFFFF;" d="M262.954,231.117h-46.335c-4.799,0-8.688-3.89-8.688-8.688s3.889-8.688,8.688-8.688h46.335
		c4.799,0,8.688,3.89,8.688,8.688S267.753,231.117,262.954,231.117z"/>
	<path style="fill:#FFFFFF;" d="M284.963,231.117c-0.568,0-1.135-0.058-1.703-0.174c-0.546-0.104-1.1-0.278-1.622-0.498
		c-0.521-0.209-1.031-0.475-1.494-0.788c-0.475-0.324-0.927-0.683-1.321-1.089c-0.407-0.394-0.765-0.846-1.089-1.321
		c-0.313-0.463-0.579-0.973-0.799-1.494c-0.208-0.521-0.381-1.077-0.487-1.622c-0.116-0.568-0.173-1.135-0.173-1.703
		s0.058-1.135,0.173-1.703c0.105-0.544,0.278-1.1,0.487-1.622c0.22-0.521,0.488-1.031,0.799-1.494
		c0.324-0.475,0.683-0.927,1.089-1.321c0.394-0.405,0.844-0.765,1.321-1.089c0.463-0.313,0.973-0.579,1.494-0.799
		c0.521-0.209,1.077-0.382,1.622-0.487c1.124-0.232,2.282-0.232,3.404,0c0.544,0.104,1.1,0.278,1.622,0.487
		c0.52,0.22,1.031,0.487,1.494,0.799c0.474,0.324,0.927,0.683,1.321,1.089c0.405,0.394,0.765,0.846,1.089,1.321
		c0.313,0.463,0.579,0.973,0.798,1.494c0.208,0.521,0.382,1.077,0.487,1.622c0.117,0.568,0.174,1.135,0.174,1.703
		s-0.058,1.135-0.174,1.703c-0.104,0.544-0.278,1.1-0.487,1.622c-0.219,0.521-0.487,1.031-0.798,1.494
		c-0.324,0.475-0.685,0.927-1.089,1.321c-0.394,0.405-0.846,0.765-1.321,1.089c-0.463,0.313-0.974,0.579-1.494,0.788
		c-0.521,0.22-1.078,0.394-1.622,0.498C286.097,231.059,285.53,231.117,284.963,231.117z"/>
	<path style="fill:#FFFFFF;" d="M366.049,325.501c-4.799,0-8.688-3.89-8.688-8.688c0-29.701,24.162-53.864,53.864-53.864
		c4.799,0,8.688,3.89,8.688,8.688c0,4.798-3.889,8.688-8.688,8.688c-20.12,0-36.489,16.369-36.489,36.489
		C374.737,321.611,370.848,325.501,366.049,325.501z"/>
</g>
<g>
</g>
<g>
</g>
<g>
</g>
<g>
</g>
<g>
</g>
<g>
</g>
<g>
</g>
<g>
</g>
<g>
</g>
<g>
</g>
<g>
</g>
<g>
</g>
<g>
</g>
<g>
</g>
<g>
</g>
</svg>
