<?xml version="1.0" encoding="iso-8859-1"?>
<!-- Generator: Adobe Illustrator 19.0.0, SVG Export Plug-In . SVG Version: 6.00 Build 0)  -->
<svg version="1.1" id="Layer_1" xmlns="http://www.w3.org/2000/svg" xmlns:xlink="http://www.w3.org/1999/xlink" x="0px" y="0px"
	 viewBox="0 0 512.001 512.001" style="enable-background:new 0 0 512.001 512.001;" xml:space="preserve">
<rect x="132.146" y="9.457" style="fill:#3A88D6;" width="247.69" height="92.223"/>
<g>
	<rect x="403.484" y="131.717" style="fill:#4D4D4D;" width="30.443" height="60.495"/>
	<rect x="403.484" y="219.113" style="fill:#4D4D4D;" width="30.443" height="60.507"/>
	<rect x="78.062" y="219.113" style="fill:#4D4D4D;" width="30.455" height="60.507"/>
	<rect x="78.062" y="131.717" style="fill:#4D4D4D;" width="30.455" height="60.495"/>
</g>
<g>
	<path style="fill:#F95428;" d="M165.243,146.443c14.383,0,26.043,11.66,26.043,26.043c0,14.396-11.66,26.056-26.043,26.056
		c-14.396,0-26.056-11.66-26.056-26.056C139.187,158.103,150.847,146.443,165.243,146.443z"/>
	<path style="fill:#F95428;" d="M256.004,146.443c14.383,0,26.043,11.66,26.043,26.043c0,14.396-11.66,26.056-26.043,26.056
		c-14.396,0-26.056-11.66-26.056-26.056C229.948,158.103,241.608,146.443,256.004,146.443z"/>
	<path style="fill:#F95428;" d="M346.765,146.443c14.383,0,26.043,11.66,26.043,26.043c0,14.396-11.66,26.056-26.043,26.056
		c-14.396,0-26.056-11.66-26.056-26.056C320.709,158.103,332.369,146.443,346.765,146.443z"/>
</g>
<rect x="146.328" y="290.221" style="fill:#4D4D4D;" width="219.339" height="174.501"/>
<path style="fill:#F7B239;" d="M403.491,279.622v199.46c0,12.959-10.501,23.459-23.459,23.459H131.976
	c-12.959,0-23.459-10.501-23.459-23.459v-199.46v-60.507v-26.901V131.72v-6.58c0-12.946,10.501-23.459,23.459-23.459h0.176h247.69
	h0.189c12.959,0,23.459,10.513,23.459,23.459v6.58v60.495v26.901L403.491,279.622L403.491,279.622z M372.808,172.486
	c0-14.383-11.66-26.043-26.043-26.043c-14.396,0-26.056,11.66-26.056,26.043c0,14.396,11.66,26.056,26.056,26.056
	C361.148,198.543,372.808,186.882,372.808,172.486z M365.673,464.725V290.224H146.334v174.501H365.673z M282.047,172.486
	c0-14.383-11.66-26.043-26.043-26.043c-14.396,0-26.056,11.66-26.056,26.043c0,14.396,11.66,26.056,26.056,26.056
	C270.387,198.543,282.047,186.882,282.047,172.486z M191.286,172.486c0-14.383-11.66-26.043-26.043-26.043
	c-14.396,0-26.056,11.66-26.056,26.043c0,14.396,11.66,26.056,26.056,26.056C179.626,198.543,191.286,186.882,191.286,172.486z"/>
<g>
	<path style="fill:#333333;" d="M365.671,280.773H146.332c-5.221,0-9.454,4.233-9.454,9.454v174.501
		c0,5.221,4.233,9.454,9.454,9.454h219.339c5.223,0,9.454-4.233,9.454-9.454V290.228
		C375.125,285.006,370.892,280.773,365.671,280.773z M356.217,455.274H155.786V299.682h200.431V455.274z"/>
	<path style="fill:#333333;" d="M185.097,350.063h141.808c5.223,0,9.454-4.233,9.454-9.454s-4.232-9.454-9.454-9.454H185.097
		c-5.221,0-9.454,4.233-9.454,9.454S179.875,350.063,185.097,350.063z"/>
	<path style="fill:#333333;" d="M185.097,386.932h141.808c5.223,0,9.454-4.233,9.454-9.454s-4.232-9.454-9.454-9.454H185.097
		c-5.221,0-9.454,4.233-9.454,9.454S179.875,386.932,185.097,386.932z"/>
	<path style="fill:#333333;" d="M185.097,423.803h141.808c5.223,0,9.454-4.233,9.454-9.454s-4.232-9.454-9.454-9.454H185.097
		c-5.221,0-9.454,4.233-9.454,9.454S179.875,423.803,185.097,423.803z"/>
	<path style="fill:#333333;" d="M433.938,201.673c5.223,0,9.454-4.233,9.454-9.454v-60.505c0-5.221-4.232-9.454-9.454-9.454h-21.13
		c-1.191-13.653-10.75-24.939-23.508-28.692V9.454c0-5.221-4.232-9.454-9.454-9.454h-247.69c-5.221,0-9.454,4.233-9.454,9.454
		v84.114c-12.758,3.753-22.317,15.039-23.508,28.692H78.063c-5.221,0-9.454,4.233-9.454,9.454v60.505
		c0,5.221,4.233,9.454,9.454,9.454h20.996v7.987H78.063c-5.221,0-9.454,4.233-9.454,9.454v60.505c0,5.221,4.233,9.454,9.454,9.454
		h20.996v190.015c0,18.148,14.764,32.912,32.912,32.912h248.057c18.147,0,32.912-14.765,32.912-32.912V289.072h20.996
		c5.223,0,9.454-4.233,9.454-9.454v-60.505c0-5.221-4.232-9.454-9.454-9.454H412.94v-7.987h20.999V201.673z M424.484,182.764
		h-11.542v-41.596h11.542V182.764z M141.609,18.909h228.781V92.23H141.609C141.609,92.23,141.609,18.909,141.609,18.909z
		 M87.517,182.764v-41.596h11.542v41.596H87.517z M87.517,270.163v-41.596h11.542v41.596H87.517z M394.034,479.088
		c0,7.722-6.281,14.004-14.004,14.004H131.972c-7.721,0-14.004-6.283-14.004-14.004V125.142c0-7.722,6.283-14.004,14.004-14.004
		h0.184h247.69h0.184c7.722,0,14.004,6.283,14.004,14.004V479.088z M424.484,228.568v41.596h-11.542v-41.596H424.484z"/>
	<path style="fill:#333333;" d="M165.24,207.994c19.578,0,35.507-15.927,35.507-35.507c0-19.578-15.927-35.507-35.507-35.507
		s-35.507,15.927-35.507,35.507C129.734,192.067,145.661,207.994,165.24,207.994z M165.24,155.891
		c9.152,0,16.598,7.445,16.598,16.598c0,9.152-7.445,16.598-16.598,16.598c-9.153,0-16.598-7.445-16.598-16.598
		C148.642,163.336,156.087,155.891,165.24,155.891z"/>
	<path style="fill:#333333;" d="M256.001,207.994c19.578,0,35.507-15.927,35.507-35.507c0-19.578-15.929-35.507-35.507-35.507
		s-35.507,15.927-35.507,35.507C220.495,192.067,236.422,207.994,256.001,207.994z M256.001,155.891
		c9.153,0,16.598,7.445,16.598,16.598c0,9.152-7.445,16.598-16.598,16.598c-9.152,0-16.598-7.445-16.598-16.598
		C239.403,163.336,246.848,155.891,256.001,155.891z"/>
	<path style="fill:#333333;" d="M346.762,136.983c-19.578,0-35.507,15.927-35.507,35.507c0,19.578,15.929,35.507,35.507,35.507
		s35.507-15.927,35.507-35.507S366.34,136.983,346.762,136.983z M346.762,189.086c-9.153,0-16.598-7.445-16.598-16.598
		c0-9.152,7.445-16.598,16.598-16.598s16.598,7.445,16.598,16.598C363.36,181.641,355.914,189.086,346.762,189.086z"/>
	<path style="fill:#333333;" d="M210.2,32.249h-42.019c-5.221,0-9.454,4.233-9.454,9.454s4.233,9.454,9.454,9.454H210.2
		c5.221,0,9.454-4.233,9.454-9.454S215.421,32.249,210.2,32.249z"/>
	<path style="fill:#333333;" d="M210.2,59.982h-42.019c-5.221,0-9.454,4.233-9.454,9.454s4.233,9.454,9.454,9.454H210.2
		c5.221,0,9.454-4.233,9.454-9.454S215.421,59.982,210.2,59.982z"/>
	<path style="fill:#333333;" d="M343.821,32.249h-42.02c-5.223,0-9.454,4.233-9.454,9.454s4.232,9.454,9.454,9.454h42.02
		c5.223,0,9.454-4.233,9.454-9.454S349.043,32.249,343.821,32.249z"/>
	<path style="fill:#333333;" d="M343.821,59.982h-42.02c-5.223,0-9.454,4.233-9.454,9.454s4.232,9.454,9.454,9.454h42.02
		c5.223,0,9.454-4.233,9.454-9.454S349.043,59.982,343.821,59.982z"/>
</g>
<g>
	<path style="fill:#FFFFFF;" d="M137.133,273.357c-5.221,0-9.454-4.233-9.454-9.454v-39.078c0-5.221,4.233-9.454,9.454-9.454
		s9.454,4.233,9.454,9.454v39.078C146.587,269.124,142.354,273.357,137.133,273.357z"/>
	<path style="fill:#FFFFFF;" d="M137.132,137.593c-0.618,0-1.235-0.063-1.84-0.189c-0.605-0.113-1.21-0.303-1.777-0.529
		c-0.567-0.24-1.122-0.529-1.626-0.87c-0.517-0.353-1.008-0.744-1.437-1.185c-0.441-0.429-0.832-0.92-1.185-1.437
		c-0.34-0.504-0.63-1.059-0.87-1.626c-0.227-0.567-0.416-1.172-0.529-1.777c-0.126-0.605-0.189-1.223-0.189-1.84
		c0-0.618,0.063-1.235,0.189-1.853c0.113-0.592,0.303-1.198,0.529-1.765c0.24-0.567,0.529-1.122,0.87-1.626
		c0.353-0.517,0.744-1.008,1.185-1.437c1.752-1.765,4.198-2.773,6.681-2.773c2.483,0,4.929,1.008,6.681,2.773
		c0.441,0.429,0.832,0.92,1.185,1.437c0.34,0.504,0.63,1.059,0.87,1.626c0.227,0.567,0.416,1.172,0.529,1.765
		c0.126,0.618,0.189,1.235,0.189,1.853c0,2.483-1.008,4.929-2.773,6.681c-0.429,0.441-0.92,0.832-1.437,1.185
		c-0.504,0.34-1.059,0.63-1.626,0.87c-0.567,0.227-1.172,0.416-1.765,0.529C138.367,137.531,137.75,137.593,137.132,137.593z"/>
</g>
<g>
</g>
<g>
</g>
<g>
</g>
<g>
</g>
<g>
</g>
<g>
</g>
<g>
</g>
<g>
</g>
<g>
</g>
<g>
</g>
<g>
</g>
<g>
</g>
<g>
</g>
<g>
</g>
<g>
</g>
</svg>
