<?xml version="1.0" encoding="iso-8859-1"?>
<!-- Generator: Adobe Illustrator 19.0.0, SVG Export Plug-In . SVG Version: 6.00 Build 0)  -->
<svg version="1.1" id="Layer_1" xmlns="http://www.w3.org/2000/svg" xmlns:xlink="http://www.w3.org/1999/xlink" x="0px" y="0px"
	 viewBox="0 0 511.999 511.999" style="enable-background:new 0 0 511.999 511.999;" xml:space="preserve">
<path style="fill:#F7B239;" d="M353.144,298.946v144.655c0,8.774-7.104,15.878-15.866,15.878h-2.035
	c-8.762,0-15.878-7.104-15.878-15.878v-1.011V299.958v-1.011c0-8.774,7.116-15.878,15.878-15.878h2.035
	C346.04,283.068,353.144,290.172,353.144,298.946z"/>
<path style="opacity:0.25;fill:#4D4D4D;enable-background:new    ;" d="M337.278,418.314h-2.035
	c-8.762,0-15.878-7.104-15.878-15.878v40.154v1.011c0,8.774,7.116,15.878,15.878,15.878h2.035c8.762,0,15.866-7.104,15.866-15.878
	v-41.165C353.144,411.21,346.04,418.314,337.278,418.314z"/>
<path style="fill:#F7B239;" d="M361.601,175.156l-23.464,23.452L159.232,377.513c-2.458,2.458-3.693,5.693-3.693,8.927
	c0,3.164,1.176,6.328,3.54,8.774c5.293,5.469,14.231,5.093,18.936-0.894c2.893-3.681,5.881-7.28,8.951-10.797
	c17.466-20.006,37.684-37.284,59.972-51.374c22.3-14.09,46.67-24.981,72.427-32.191V442.59
	c-31.627-11.291-66.947-1.858-88.729,23.711l-2.952,3.47c-18.536,21.747-45.235,33.45-72.463,33.45
	c-13.714,0-27.557-2.964-40.565-9.103c-62.454-29.451-73.709-113.534-21.218-158.392l152.253-130.082l28.345-24.217L408.247,66.762
	c3.258-2.787,4.905-6.728,4.905-10.668c0-3.576-1.353-7.163-4.105-9.915c-2.74-2.74-6.328-4.105-9.915-4.105
	s-7.175,1.364-9.915,4.105c-6.963,6.963-18.254,6.963-25.205,0l-12.738-12.726l8.915-8.915C370.681,14.035,384.43,8.79,398.191,8.79
	s27.522,5.246,38.013,15.749c20.983,20.983,20.983,55.02,0,76.003L361.601,175.156z"/>
<g>
	<path style="opacity:0.25;fill:#4D4D4D;enable-background:new    ;" d="M318.424,300.228c0.306-0.094,0.623-0.188,0.941-0.271
		V442.59c-31.627-11.291-66.947-1.858-88.729,23.711l-2.952,3.47c-18.536,21.747-45.235,33.45-72.463,33.45
		c-13.714,0-27.557-2.964-40.565-9.103c-17.125-8.08-30.404-20.265-39.566-34.614c6.669,5.21,14.231,9.762,22.653,13.443
		c14.02,6.139,28.945,9.103,43.729,9.103c29.357,0,58.137-11.703,78.12-33.45l3.187-3.47c23.476-25.57,61.548-35.002,95.645-23.711
		V300.228z"/>
	<path style="opacity:0.25;fill:#4D4D4D;enable-background:new    ;" d="M448.777,71.878c-1.847,10.503-6.822,20.559-14.925,28.663
		l-74.603,74.615l-23.464,23.452L157.033,377.36c-4.693,1.317-0.592,27.535-4.296,23.983c-2.552-2.446-23.743-20.349-9.288-45.001
		l192.865-178.904l25.299-23.452l80.425-74.615C444.567,77.018,446.813,74.513,448.777,71.878z"/>
</g>
<g>
	<path style="fill:#FFFFFF;" d="M164.854,317.565c-2.329,0-4.599-0.941-6.234-2.588c-0.412-0.4-0.776-0.859-1.106-1.341
		c-0.318-0.47-0.588-0.988-0.812-1.517c-0.223-0.529-0.388-1.094-0.506-1.647c-0.106-0.576-0.165-1.153-0.165-1.729
		s0.059-1.153,0.165-1.729c0.118-0.553,0.282-1.117,0.506-1.647c0.223-0.529,0.494-1.047,0.812-1.517
		c0.329-0.482,0.694-0.941,1.106-1.341c1.635-1.647,3.905-2.588,6.234-2.588c2.317,0,4.587,0.941,6.234,2.588
		c1.647,1.635,2.588,3.917,2.588,6.234c0,0.576-0.059,1.153-0.176,1.729c-0.106,0.553-0.282,1.117-0.506,1.647
		c-0.212,0.529-0.494,1.047-0.812,1.517c-0.318,0.482-0.682,0.941-1.094,1.341C169.453,316.624,167.171,317.565,164.854,317.565z"/>
	<path style="fill:#FFFFFF;" d="M99.218,457.888c-2.718,0-5.397-1.251-7.126-3.613c-7.67-10.482-12.463-22.537-14.244-35.83
		c-3.59-26.779,6.131-52.203,26.67-69.756l33.171-28.341c3.704-3.165,9.272-2.729,12.437,0.977
		c3.165,3.704,2.727,9.272-0.977,12.437l-33.17,28.339c-15.899,13.587-23.424,33.27-20.645,53.999
		c1.386,10.341,5.086,19.679,10.996,27.757c2.877,3.932,2.022,9.45-1.91,12.327C102.849,457.334,101.026,457.888,99.218,457.888z"/>
	<path style="fill:#FFFFFF;" d="M223.669,391.533c-2.353,0-4.701-0.936-6.438-2.789c-3.332-3.554-3.151-9.138,0.403-12.468
		c11.799-11.059,24.724-21.055,38.417-29.712c10.804-6.826,22.206-12.888,33.892-18.022c4.459-1.959,9.664,0.069,11.624,4.529
		c1.959,4.46-0.068,9.664-4.529,11.624c-10.883,4.78-21.501,10.427-31.561,16.783c-12.749,8.061-24.787,17.371-35.776,27.67
		C227.997,390.742,225.829,391.533,223.669,391.533z"/>
	<path style="fill:#FFFFFF;" d="M206.466,409.362c-0.576,0-1.164-0.059-1.729-0.176c-0.565-0.118-1.117-0.282-1.647-0.506
		c-0.541-0.223-1.047-0.494-1.529-0.812c-0.482-0.318-0.929-0.682-1.341-1.094c-0.4-0.412-0.776-0.859-1.094-1.341
		c-0.318-0.482-0.588-0.988-0.812-1.517c-0.223-0.541-0.388-1.094-0.506-1.658c-0.118-0.565-0.165-1.141-0.165-1.717
		s0.047-1.153,0.165-1.729c0.118-0.565,0.282-1.117,0.506-1.647c0.223-0.529,0.494-1.047,0.812-1.529s0.694-0.929,1.094-1.341
		c0.412-0.4,0.859-0.776,1.341-1.094c0.482-0.318,0.988-0.588,1.529-0.812c0.529-0.223,1.082-0.388,1.647-0.506
		c1.141-0.223,2.305-0.223,3.446,0c0.565,0.118,1.117,0.282,1.647,0.506c0.541,0.223,1.047,0.494,1.529,0.812
		c0.482,0.318,0.929,0.694,1.341,1.094c0.4,0.412,0.776,0.859,1.094,1.341c0.318,0.482,0.588,1,0.812,1.529s0.388,1.082,0.506,1.647
		c0.106,0.576,0.165,1.153,0.165,1.729s-0.059,1.153-0.165,1.717c-0.118,0.565-0.282,1.117-0.506,1.658
		c-0.223,0.529-0.494,1.035-0.812,1.517s-0.694,0.929-1.094,1.341c-0.412,0.412-0.859,0.776-1.341,1.094
		c-0.482,0.318-0.988,0.588-1.529,0.812c-0.529,0.223-1.082,0.388-1.647,0.506C207.619,409.304,207.031,409.362,206.466,409.362z"/>
</g>
<g>
	<path style="fill:#333333;" d="M442.435,106.782c24.396-24.396,24.396-64.09,0-88.485c-24.393-24.395-64.09-24.396-88.485,0
		l-2.677,2.677l-9.716-9.715c-3.445-3.446-9.03-3.445-12.474,0c-3.445,3.445-3.445,9.03,0,12.474l15.953,15.952l12.733,12.733
		c10.389,10.389,27.294,10.39,37.684,0c0.982-0.983,2.29-1.524,3.679-1.524c1.39,0,2.697,0.541,3.68,1.524
		c1.401,1.401,1.554,3.036,1.521,3.885c-0.033,0.849-0.314,2.466-1.82,3.753L274.507,169.422l-12.713-12.713
		c-3.445-3.445-9.031-3.445-12.474,0c-3.445,3.445-3.445,9.03,0,12.474l11.733,11.733l-14.884,12.717l-5.911-5.911l0.853-0.853
		c3.445-3.445,3.445-9.03,0-12.474c-3.445-3.445-9.03-3.445-12.474,0l-15.29,15.29c-3.445,3.445-3.445,9.03,0,12.474
		c1.722,1.722,3.98,2.584,6.237,2.584c2.257,0,4.515-0.861,6.237-2.584l1.963-1.963l4.932,4.932L87.712,329.019
		c-26.941,23.017-40.216,57.728-35.512,92.849s26.646,65.114,58.694,80.231c14.157,6.678,29.256,9.901,44.22,9.9
		c29.8,0,59.068-12.784,79.282-36.512l2.951-3.464c18.103-21.253,47.214-30.032,73.881-22.748
		c2.572,10.891,12.351,19.03,24.016,19.03h2.028c13.619,0,24.699-11.079,24.699-24.698V298.941
		c0-13.619-11.079-24.699-24.699-24.699h-2.028c-11.616,0-21.358,8.071-23.981,18.891c-50.793,15.375-95.967,44.529-130.939,84.586
		c-3.161,3.621-6.271,7.372-9.241,11.149c-0.887,1.128-2.071,1.35-2.697,1.382c-0.652,0.031-1.908-0.074-2.964-1.168
		c-1.433-1.483-1.413-3.875,0.046-5.334l172.667-172.667l13.469,13.469c1.722,1.722,3.98,2.584,6.237,2.584
		c2.257,0,4.515-0.861,6.237-2.584c3.445-3.445,3.445-9.03,0-12.474l-13.469-13.469l10.985-10.985l8.414,8.414l-0.864,0.864
		c-3.445,3.445-3.445,9.03,0,12.474c1.722,1.722,3.98,2.584,6.237,2.584c2.257,0,4.515-0.861,6.237-2.584l15.29-15.29
		c3.445-3.445,3.445-9.03,0-12.474c-3.445-3.445-9.031-3.445-12.474,0l-1.95,1.95l-8.414-8.414L442.435,106.782z M328.189,298.941
		c0-3.891,3.165-7.057,7.057-7.057h2.028c3.891,0,7.057,3.165,7.057,7.057v144.665c0,3.891-3.165,7.056-7.057,7.056h-2.028
		c-3.891,0-7.057-3.165-7.057-7.056V298.941z M338.135,186.133l-5.962-5.962c-3.445-3.445-9.03-3.445-12.474,0
		c-3.445,3.445-3.445,9.03,0,12.474l5.962,5.962L152.994,371.275c-8.22,8.22-8.335,21.708-0.258,30.068
		c4.315,4.465,10.335,6.844,16.548,6.528c6.156-0.314,11.866-3.264,15.666-8.094c2.785-3.541,5.7-7.058,8.665-10.452
		c31.443-36.016,71.683-62.636,116.931-77.472v119.124c-31.686-6.571-65.298,4.565-86.629,29.607l-2.951,3.464
		c-25.213,29.598-67.381,38.684-102.545,22.098c-26.61-12.552-44.829-37.456-48.735-66.617
		c-3.906-29.162,7.117-57.982,29.486-77.094l146.055-124.787l9.722,9.722c1.722,1.722,3.98,2.584,6.237,2.584
		s4.515-0.861,6.237-2.584c3.445-3.445,3.445-9.03,0-12.474l-8.742-8.742l14.884-12.718l7.659,7.659
		c1.722,1.722,3.98,2.584,6.237,2.584s4.515-0.861,6.237-2.584c3.445-3.445,3.445-9.03,0-12.474l-6.679-6.679L413.971,73.472
		c4.828-4.125,7.74-10.129,7.988-16.474c0.249-6.347-2.183-12.56-6.674-17.052c-4.315-4.315-10.053-6.691-16.156-6.691
		c-6.103,0-11.84,2.377-16.154,6.691c-1.701,1.701-3.961,2.637-6.366,2.637c-2.405,0-4.666-0.936-6.367-2.637l-6.495-6.496
		l2.677-2.677c17.518-17.516,46.018-17.518,63.536,0c8.485,8.486,13.159,19.768,13.159,31.768s-4.674,23.282-13.159,31.768
		l-68.366,68.365l-5.962-5.962c-3.444-3.445-9.029-3.445-12.474,0c-3.445,3.445-3.445,9.03,0,12.474l5.962,5.962L338.135,186.133z"
		/>
	<path style="fill:#333333;" d="M243.056,251.534c-1.415-3.349-4.783-5.536-8.424-5.433c-3.826,0.109-7.192,2.777-8.217,6.458
		c-2.134,7.672,6.657,14.066,13.316,9.733C243.241,260.01,244.654,255.401,243.056,251.534
		C242.833,251.006,243.28,252.075,243.056,251.534z"/>
	<path style="fill:#333333;" d="M220.533,274.059c-1.39-3.287-4.661-5.473-8.242-5.439c-3.808,0.035-7.23,2.61-8.339,6.254
		c-2.324,7.636,6.342,14.244,13.104,10.04C220.659,282.671,222.193,277.987,220.533,274.059
		C220.31,273.53,220.757,274.588,220.533,274.059z"/>
	<path style="fill:#333333;" d="M199.421,295.182c-1.406-3.403-4.907-5.616-8.585-5.439c-3.698,0.179-6.956,2.755-8.015,6.291
		c-2.283,7.624,6.412,14.221,13.162,9.963C199.588,303.725,201,299.121,199.421,295.182
		C199.198,294.641,199.633,295.711,199.421,295.182z"/>
</g>
<g>
</g>
<g>
</g>
<g>
</g>
<g>
</g>
<g>
</g>
<g>
</g>
<g>
</g>
<g>
</g>
<g>
</g>
<g>
</g>
<g>
</g>
<g>
</g>
<g>
</g>
<g>
</g>
<g>
</g>
</svg>
