<?xml version="1.0" encoding="iso-8859-1"?>
<!-- Generator: Adobe Illustrator 19.0.0, SVG Export Plug-In . SVG Version: 6.00 Build 0)  -->
<svg version="1.1" id="Layer_1" xmlns="http://www.w3.org/2000/svg" xmlns:xlink="http://www.w3.org/1999/xlink" x="0px" y="0px"
	 viewBox="0 0 511.998 511.998" style="enable-background:new 0 0 511.998 511.998;" xml:space="preserve">
<rect x="449.267" y="16.778" transform="matrix(-0.7071 0.7071 -0.7071 -0.7071 833.1301 -244.3967)" style="fill:#F7B239;" width="35.828" height="67.141"/>
<polygon style="fill:#E0B08C;" points="419.698,28.192 477.191,87.815 249.244,315.762 190.686,257.215 217.063,230.838 
	244.975,202.926 265.604,182.297 298.357,149.533 348.108,99.793 390.575,57.314 408.784,39.117 "/>
<path style="fill:#F7B239;" d="M190.686,257.215l58.558,58.547c-24.136,24.136-35.991,57.931-32.237,91.86
	c2.891,26.097-4.034,50.883-21.525,68.374C159.905,511.573,94.131,503.471,48.559,457.9S-5.114,346.554,30.452,310.977
	c17.491-17.491,42.277-24.416,68.385-21.536C132.755,293.195,166.55,281.351,190.686,257.215z"/>
<g>
	<path style="fill:#FFFFFF;" d="M40.978,406.763c-3.404,0-6.608-2.083-7.872-5.46c-2.826-7.551-4.736-15.246-5.675-22.872
		c-2.708-21.977,3.009-41.288,16.095-54.379c10.961-10.962,26.169-16.755,43.978-16.755c3.037,0,6.164,0.176,9.298,0.521
		c4.857,0.537,9.78,0.809,14.633,0.809c15.611,0,30.899-2.744,45.44-8.155c4.35-1.616,9.188,0.595,10.809,4.946
		c1.618,4.35-0.595,9.188-4.945,10.807c-16.423,6.111-33.685,9.211-51.303,9.211c-5.468,0-11.011-0.306-16.477-0.911
		c-2.522-0.279-5.03-0.42-7.453-0.42c-13.256,0-24.352,4.091-32.093,11.832c-9.348,9.35-13.361,23.711-11.3,40.438
		c0.779,6.315,2.372,12.721,4.738,19.035c1.627,4.346-0.578,9.189-4.926,10.816C42.952,406.59,41.956,406.763,40.978,406.763z"/>
	<path style="fill:#FFFFFF;" d="M183.828,305.05c-2.207,0-4.37-0.896-5.939-2.454c-0.393-0.392-0.74-0.818-1.043-1.289
		c-0.303-0.448-0.56-0.941-0.772-1.445c-0.213-0.504-0.37-1.031-0.482-1.569c-0.113-0.549-0.168-1.098-0.168-1.647
		s0.056-1.098,0.168-1.636c0.112-0.538,0.268-1.076,0.482-1.58c0.212-0.504,0.471-0.997,0.772-1.445
		c0.304-0.459,0.65-0.896,1.043-1.277c1.949-1.95,4.863-2.846,7.586-2.297c0.538,0.101,1.064,0.269,1.569,0.482
		c0.515,0.202,0.997,0.459,1.457,0.773c0.459,0.303,0.885,0.65,1.277,1.042c0.382,0.381,0.74,0.818,1.043,1.277
		c0.303,0.448,0.56,0.941,0.772,1.445c0.213,0.504,0.37,1.042,0.483,1.58c0.112,0.538,0.157,1.087,0.157,1.636
		c0,2.219-0.896,4.381-2.454,5.95c-0.392,0.381-0.817,0.728-1.277,1.042c-0.459,0.303-0.941,0.56-1.457,0.773
		c-0.504,0.202-1.031,0.37-1.569,0.471C184.938,304.994,184.377,305.05,183.828,305.05z"/>
	<path style="fill:#FFFFFF;" d="M457.459,49.157c-0.549,0-1.098-0.056-1.636-0.168c-0.538-0.101-1.065-0.269-1.58-0.471
		c-0.504-0.213-0.986-0.471-1.445-0.773c-0.459-0.314-0.896-0.661-1.277-1.053c-1.569-1.558-2.465-3.72-2.465-5.939
		c0-0.549,0.056-1.098,0.167-1.647c0.113-0.527,0.269-1.064,0.483-1.569c0.202-0.504,0.471-0.997,0.772-1.445
		c0.304-0.459,0.65-0.896,1.043-1.277c0.381-0.392,0.817-0.74,1.277-1.053c0.459-0.303,0.941-0.56,1.445-0.773
		c0.515-0.202,1.042-0.37,1.58-0.471c1.087-0.224,2.196-0.224,3.283,0c0.538,0.101,1.064,0.269,1.569,0.471
		c0.503,0.213,0.997,0.471,1.457,0.773c0.459,0.314,0.885,0.661,1.277,1.053c1.559,1.558,2.454,3.731,2.454,5.939
		c0,0.549-0.056,1.098-0.158,1.647c-0.112,0.527-0.268,1.064-0.482,1.569c-0.214,0.504-0.471,0.997-0.773,1.445
		c-0.303,0.471-0.661,0.896-1.042,1.277c-0.392,0.392-0.817,0.74-1.277,1.053c-0.459,0.303-0.954,0.56-1.457,0.773
		c-0.504,0.202-1.031,0.37-1.569,0.471C458.557,49.101,458.008,49.157,457.459,49.157z"/>
</g>
<g>
	<path style="fill:#333333;" d="M70.273,382.793c-3.282-3.282-8.602-3.282-11.885,0c-3.282,3.282-3.282,8.603,0,11.884
		l53.389,53.391c1.642,1.642,3.792,2.462,5.943,2.462c2.15,0,4.302-0.82,5.943-2.462c3.282-3.282,3.282-8.603,0-11.884
		L70.273,382.793z"/>
	<path style="fill:#333333;" d="M99.395,353.671c-3.283-3.282-8.603-3.282-11.885,0c-3.282,3.282-3.282,8.603,0,11.884
		l53.391,53.389c1.642,1.64,3.793,2.462,5.943,2.462s4.302-0.82,5.943-2.462c3.282-3.282,3.282-8.603,0-11.884L99.395,353.671z"/>
	<path style="fill:#333333;" d="M120.024,333.044c-3.283-3.282-8.603-3.282-11.885,0c-3.282,3.282-3.282,8.603,0,11.884
		l53.389,53.389c1.642,1.64,3.793,2.462,5.943,2.462s4.302-0.82,5.943-2.462c3.282-3.282,3.282-8.603,0-11.884L120.024,333.044z"/>
	<path style="fill:#333333;" d="M509.535,55.479l-47.48-47.481c-1.577-1.577-3.713-2.462-5.943-2.462
		c-2.23,0-4.366,0.885-5.943,2.462L430.687,27.48l-4.935-5.117c-1.564-1.624-3.717-2.549-5.972-2.569c-0.026,0-0.052,0-0.076,0
		c-2.228,0-4.366,0.885-5.943,2.462l-4.977,4.977L391.67,10.12c-3.283-3.282-8.603-3.282-11.885,0s-3.282,8.603,0,11.884
		l17.113,17.113l-6.316,6.316l-17.113-17.111c-3.283-3.282-8.603-3.282-11.885,0s-3.282,8.603,0,11.884l17.113,17.113
		l-30.583,30.583L331,70.791c-3.283-3.282-8.603-3.282-11.885,0c-3.282,3.282-3.282,8.603,0,11.884l17.113,17.113l-37.865,37.865
		l-17.111-17.111c-3.283-3.282-8.603-3.282-11.885,0c-3.282,3.282-3.282,8.603,0,11.884l17.113,17.113L265.6,170.414l-17.111-17.111
		c-3.283-3.282-8.603-3.282-11.885,0c-3.282,3.282-3.282,8.603,0,11.884l17.113,17.113l-8.742,8.742l-17.111-17.111
		c-3.283-3.282-8.603-3.282-11.885,0c-3.282,3.282-3.282,8.603,0,11.884l17.113,17.113l-16.023,16.023l-17.111-17.111
		c-3.283-3.282-8.603-3.282-11.885,0c-3.282,3.282-3.282,8.603,0,11.884l17.113,17.113l-20.432,20.432
		c-22.446,22.446-53.42,33.322-84.989,29.825c-29.797-3.295-56.51,5.206-75.244,23.941c-37.203,37.205-31.252,104.252,12.32,152.704
		l-3.927,3.926c-3.283,3.282-3.283,8.603-0.001,11.885c1.642,1.64,3.792,2.462,5.943,2.462c2.15,0,4.302-0.82,5.942-2.461
		l3.929-3.929c26.954,24.239,59.659,36.842,89.783,36.84c24.027,0,46.412-8.013,62.921-24.521
		c18.734-18.734,27.236-45.456,23.94-75.243c-3.493-31.564,7.379-62.542,29.826-84.989L509.538,67.362
		c1.575-1.575,2.461-3.713,2.461-5.942C511.998,59.191,511.111,57.054,509.535,55.479z M208.658,408.547
		c2.723,24.612-4.067,46.457-19.121,61.51c-32.241,32.241-92.82,24.12-135.038-18.099c-42.221-42.22-50.34-102.799-18.1-135.039
		c12.878-12.878,30.726-19.709,51.026-19.709c3.429,0,6.928,0.195,10.482,0.588c33.858,3.741,67.146-6.74,92.577-28.906
		l47.079,47.079C215.397,341.402,204.911,374.685,208.658,408.547z M249.246,303.882l-46.672-46.672L419.593,40.19l45.824,47.52
		L249.246,303.882z M478.259,74.868l-35.594-35.594l13.447-13.447l35.596,35.594L478.259,74.868z"/>
</g>
<g>
</g>
<g>
</g>
<g>
</g>
<g>
</g>
<g>
</g>
<g>
</g>
<g>
</g>
<g>
</g>
<g>
</g>
<g>
</g>
<g>
</g>
<g>
</g>
<g>
</g>
<g>
</g>
<g>
</g>
</svg>
