<?xml version="1.0" encoding="iso-8859-1"?>
<!-- Generator: Adobe Illustrator 19.0.0, SVG Export Plug-In . SVG Version: 6.00 Build 0)  -->
<svg version="1.1" id="Layer_1" xmlns="http://www.w3.org/2000/svg" xmlns:xlink="http://www.w3.org/1999/xlink" x="0px" y="0px"
	 viewBox="0 0 512.001 512.001" style="enable-background:new 0 0 512.001 512.001;" xml:space="preserve">
<g>
	<polygon style="fill:#F7B239;" points="384.49,60.752 384.49,170.635 256.003,60.752 	"/>
	<polygon style="fill:#F7B239;" points="384.49,170.635 256.003,170.635 256.003,60.752 	"/>
	<polygon style="fill:#F7B239;" points="256.003,60.752 256.003,170.635 127.504,170.635 	"/>
	<polygon style="fill:#F7B239;" points="256.003,60.752 127.504,170.635 127.504,60.752 	"/>
</g>
<path style="fill:#333333;" d="M390.093,54.21l-60.99-52.144c-3.619-3.092-9.054-2.666-12.144,0.95
	c-3.092,3.615-2.667,9.052,0.949,12.144l43.258,36.983h-96.554V34.685c0-4.757-3.855-8.613-8.613-8.613
	c-4.757,0-8.613,3.856-8.613,8.613v17.459h-96.554l43.257-36.983c3.615-3.092,4.04-8.528,0.95-12.144
	c-3.092-3.616-8.528-4.04-12.144-0.95L121.906,54.21c-1.914,1.637-3.016,4.029-3.016,6.547v109.874c0,4.757,3.856,8.613,8.613,8.613
	h119.883v264.315l-61.947,53.299c-3.606,3.102-4.014,8.541-0.911,12.147c1.703,1.98,4.111,2.995,6.532,2.995
	c1.989,0,3.987-0.686,5.614-2.084l50.712-43.632v37.103c0,4.757,3.856,8.613,8.613,8.613c4.758,0,8.613-3.856,8.613-8.613v-37.103
	l50.711,43.632c3.605,3.103,9.044,2.694,12.147-0.911c3.102-3.606,2.694-9.044-0.912-12.147l-61.946-53.299V179.243h119.883
	c4.758,0,8.613-3.856,8.613-8.613V60.757C393.109,58.238,392.007,55.846,390.093,54.21z M279.325,69.37h96.556v82.563L279.325,69.37
	z M232.672,69.37l-96.556,82.563V69.37H232.672z M150.83,162.017l96.556-82.563v82.563H150.83z M264.612,79.454l96.556,82.563
	h-96.556V79.454L264.612,79.454z"/>
<path style="fill:#FFFFFF;" d="M184.799,96.101h-31.008c-4.757,0-8.613-3.856-8.613-8.613c0-4.757,3.856-8.613,8.613-8.613h31.008
	c4.757,0,8.613,3.856,8.613,8.613C193.413,92.244,189.556,96.101,184.799,96.101z"/>
<g>
</g>
<g>
</g>
<g>
</g>
<g>
</g>
<g>
</g>
<g>
</g>
<g>
</g>
<g>
</g>
<g>
</g>
<g>
</g>
<g>
</g>
<g>
</g>
<g>
</g>
<g>
</g>
<g>
</g>
</svg>
