<?xml version="1.0" encoding="iso-8859-1"?>
<!-- Generator: Adobe Illustrator 19.0.0, SVG Export Plug-In . SVG Version: 6.00 Build 0)  -->
<svg version="1.1" id="Layer_1" xmlns="http://www.w3.org/2000/svg" xmlns:xlink="http://www.w3.org/1999/xlink" x="0px" y="0px"
	 viewBox="0 0 512 512" style="enable-background:new 0 0 512 512;" xml:space="preserve">
<g>
	<circle style="fill:#F7B239;" cx="215.155" cy="63.037" r="17.699"/>
	<circle style="fill:#F7B239;" cx="296.844" cy="63.037" r="17.699"/>
</g>
<g>
	<rect x="48.722" y="340.466" style="fill:#F2F2F2;" width="67.039" height="161.322"/>
	<polygon style="fill:#F2F2F2;" points="204.693,340.472 204.693,340.785 167.076,340.785 167.076,427.007 185.878,427.007 
		185.878,427.607 185.878,501.794 115.761,501.794 115.761,340.472 	"/>
	<polygon style="fill:#F2F2F2;" points="255.994,427.007 255.994,501.794 185.878,501.794 185.878,427.607 185.878,427.007 
		204.693,427.007 204.693,340.785 204.693,340.472 255.994,340.472 255.994,340.785 237.192,340.785 237.192,427.007 	"/>
	<polygon style="fill:#F2F2F2;" points="326.11,340.472 326.11,501.794 255.994,501.794 255.994,427.007 274.81,427.007 
		274.81,340.785 255.994,340.785 255.994,340.472 	"/>
	<polygon style="fill:#F2F2F2;" points="396.24,427.007 396.24,501.794 326.11,501.794 326.11,340.472 396.24,340.472 
		396.24,340.785 377.86,340.785 377.86,427.007 	"/>
	<polygon style="fill:#F2F2F2;" points="463.279,340.472 463.279,501.794 396.24,501.794 396.24,427.007 415.464,427.007 
		415.464,340.785 396.24,340.785 396.24,340.472 	"/>
	<rect x="396.232" y="122.629" style="fill:#F2F2F2;" width="67.053" height="161.322"/>
	<polygon style="fill:#F2F2F2;" points="396.226,122.635 396.226,283.957 326.11,283.957 326.11,209.77 326.11,209.17 
		344.926,209.17 344.926,122.948 344.926,122.635 	"/>
	<polygon style="fill:#F2F2F2;" points="344.926,122.635 344.926,122.948 307.308,122.948 307.308,209.17 326.11,209.17 
		326.11,209.77 326.11,283.957 256.007,283.957 256.007,209.17 274.796,209.17 274.796,122.948 256.007,122.948 256.007,122.635 	
		"/>
	<polygon style="fill:#F2F2F2;" points="256.007,209.17 256.007,283.957 185.878,283.957 185.878,122.635 256.007,122.635 
		256.007,122.948 237.192,122.948 237.192,209.17 	"/>
	<polygon style="fill:#F2F2F2;" points="185.878,122.635 185.878,283.957 115.761,283.957 115.761,209.17 134.141,209.17 
		134.141,122.948 115.761,122.948 115.761,122.635 	"/>
	<polygon style="fill:#F2F2F2;" points="115.761,209.17 115.761,283.957 48.722,283.957 48.722,122.635 115.761,122.635 
		115.761,122.948 96.537,122.948 96.537,209.17 	"/>
</g>
<g>
	<polygon style="fill:#4D4D4D;" points="415.464,340.785 415.464,427.007 396.24,427.007 377.86,427.007 377.86,340.785 
		396.24,340.785 	"/>
	<polygon style="fill:#4D4D4D;" points="274.81,340.785 274.81,427.007 255.994,427.007 237.192,427.007 237.192,340.785 
		255.994,340.785 	"/>
</g>
<g>
	<polygon style="fill:#F95428;" points="115.761,283.957 185.878,283.957 256.007,283.957 326.11,283.957 396.226,283.957 
		463.279,283.957 499.454,283.957 501.782,283.957 501.782,501.794 463.279,501.794 463.279,340.472 396.24,340.472 326.11,340.472 
		255.994,340.472 204.693,340.472 115.761,340.472 48.722,340.472 48.722,501.794 10.206,501.794 10.206,283.957 48.722,283.957 	
		"/>
	<path style="fill:#F95428;" d="M501.782,10.217v273.739h-2.328h-36.175V122.635h-67.053h-51.301h-88.918h-70.13h-70.116H48.722
		v161.322H10.206V10.217H501.782z M314.538,63.043c0-9.775-7.924-17.699-17.699-17.699c-9.775,0-17.699,7.924-17.699,17.699
		s7.924,17.699,17.699,17.699C306.614,80.742,314.538,72.818,314.538,63.043z M232.849,63.043c0-9.775-7.924-17.699-17.699-17.699
		s-17.699,7.924-17.699,17.699s7.924,17.699,17.699,17.699S232.849,72.818,232.849,63.043z"/>
</g>
<g>
	<polygon style="fill:#4D4D4D;" points="344.926,122.948 344.926,209.17 326.11,209.17 307.308,209.17 307.308,122.948 	"/>
	<polygon style="fill:#4D4D4D;" points="274.796,122.948 274.796,209.17 256.007,209.17 237.192,209.17 237.192,122.948 
		256.007,122.948 	"/>
	<polygon style="fill:#4D4D4D;" points="204.693,340.785 204.693,427.007 185.878,427.007 167.076,427.007 167.076,340.785 	"/>
	<polygon style="fill:#4D4D4D;" points="134.141,122.948 134.141,209.17 115.761,209.17 96.537,209.17 96.537,122.948 
		115.761,122.948 	"/>
</g>
<rect x="386.034" y="340.466" width="20.422" height="0.313"/>
<rect x="245.788" y="340.466" width="20.422" height="0.313"/>
<rect x="105.556" y="122.629" width="20.422" height="0.313"/>
<rect x="245.802" y="122.629" width="20.422" height="0.313"/>
<g>
	<path style="fill:#FFFFFF;" d="M305.933,320.703H40.444c-5.641,0-10.211-4.572-10.211-10.211s4.57-10.211,10.211-10.211h265.489
		c5.641,0,10.211,4.572,10.211,10.211S311.574,320.703,305.933,320.703z"/>
	<path style="fill:#FFFFFF;" d="M335.886,320.703c-2.682,0-5.323-1.089-7.216-2.995c-0.478-0.463-0.899-0.994-1.28-1.552
		c-0.368-0.545-0.681-1.144-0.939-1.756c-0.245-0.613-0.448-1.266-0.572-1.92c-0.136-0.654-0.203-1.321-0.203-1.988
		c0-0.667,0.068-1.334,0.203-2.001c0.124-0.64,0.327-1.293,0.572-1.906c0.259-0.613,0.573-1.212,0.939-1.756
		c0.381-0.558,0.803-1.089,1.28-1.552c2.368-2.383,5.88-3.472,9.217-2.791c0.64,0.123,1.293,0.327,1.906,0.572
		c0.611,0.259,1.212,0.572,1.756,0.939c0.557,0.381,1.089,0.803,1.552,1.28c0.477,0.463,0.899,0.994,1.28,1.552
		c0.368,0.545,0.681,1.144,0.938,1.756c0.245,0.613,0.449,1.266,0.572,1.906c0.137,0.667,0.204,1.334,0.204,2.001
		c0,0.667-0.068,1.334-0.204,1.988c-0.123,0.654-0.327,1.307-0.572,1.92c-0.257,0.613-0.572,1.212-0.938,1.756
		c-0.381,0.558-0.805,1.089-1.28,1.552c-0.463,0.477-0.994,0.899-1.552,1.28c-0.545,0.368-1.145,0.681-1.756,0.926
		c-0.613,0.259-1.268,0.463-1.906,0.585C337.22,320.635,336.553,320.703,335.886,320.703z"/>
</g>
<g>
	<path style="fill:#333333;" d="M48.722,89.592c4.093,0,7.863-2.543,9.421-6.317c1.729-4.187,0.437-9.18-3.156-11.958
		c-7.33-5.668-18.198,1.022-16.256,10.158C39.723,86.138,43.947,89.592,48.722,89.592z"/>
	<path style="fill:#333333;" d="M77.095,87.863c3.668,2.479,8.671,2.222,12.094-0.558c3.333-2.708,4.613-7.322,3.18-11.366
		c-3.014-8.507-15.371-8.939-18.965-0.649C71.485,79.717,72.988,85.221,77.095,87.863C77.638,88.23,76.523,87.495,77.095,87.863z"/>
	<path style="fill:#333333;" d="M107.36,83.289c0.523,1.233,1.273,2.347,2.206,3.308c6.436,6.238,17.664,1.643,17.435-7.466
		c-0.223-8.852-11.144-13.077-17.435-6.979C106.679,75.126,105.858,79.438,107.36,83.289
		C107.62,83.901,107.116,82.662,107.36,83.289z"/>
	<path style="fill:#333333;" d="M141.397,83.274c1.735,4.189,6.193,6.809,10.705,6.237c4.234-0.536,7.74-3.743,8.684-7.899
		c1.013-4.463-1.19-9.195-5.254-11.291c-3.952-2.037-8.749-1.253-11.929,1.83C140.732,75.11,139.869,79.446,141.397,83.274
		C141.657,83.901,141.153,82.662,141.397,83.274z"/>
	<path style="fill:#333333;" d="M39.286,53.322c2.893,6.988,12.806,8.301,17.479,2.355c2.839-3.611,2.814-8.863,0.027-12.498
		c-3.082-4.02-8.946-5.099-13.294-2.524c-4.481,2.655-5.907,8.129-4.136,12.844"/>
	<path style="fill:#333333;" d="M73.323,53.322c1.645,3.971,5.767,6.569,10.07,6.294c4.019-0.256,7.63-2.96,8.976-6.76
		c1.453-4.098,0.113-8.816-3.334-11.487c-3.381-2.619-8.113-2.84-11.731-0.572C73.12,43.422,71.508,48.773,73.323,53.322
		C73.583,53.948,73.079,52.709,73.323,53.322z"/>
	<path style="fill:#333333;" d="M107.36,53.322c1.607,3.882,5.649,6.483,9.849,6.306c4.135-0.174,7.872-2.978,9.232-6.881
		c1.364-3.912,0.091-8.43-3.052-11.112c-3.368-2.874-8.328-3.126-12.061-0.81c-4.34,2.69-5.626,8.061-3.892,12.674"/>
	<path style="fill:#333333;" d="M141.397,53.322c1.733,4.187,6.191,6.81,10.7,6.237c4.236-0.538,7.745-3.74,8.689-7.899
		c1.013-4.464-1.19-9.197-5.257-11.291c-3.952-2.035-8.745-1.254-11.927,1.83C140.732,45.157,139.869,49.493,141.397,53.322
		C141.657,53.948,141.153,52.709,141.397,53.322z"/>
	<path style="fill:#333333;" d="M351.733,83.274c3.149,7.605,13.952,8.41,18.184,1.347c2.302-3.842,1.785-8.884-1.254-12.178
		c-3.12-3.383-8.257-4.214-12.308-2.068C351.745,72.817,349.816,78.472,351.733,83.274
		C351.992,83.901,351.488,82.662,351.733,83.274z"/>
	<path style="fill:#333333;" d="M385.77,83.289c1.673,3.951,5.83,6.584,10.128,6.276c4.17-0.298,7.887-3.257,9.085-7.268
		c1.283-4.293-0.496-9.13-4.291-11.522c-3.677-2.319-8.626-2.053-11.984,0.728c-3.617,2.997-4.324,7.696-2.863,11.955"/>
	<path style="fill:#333333;" d="M419.807,83.274c1.627,3.929,5.735,6.551,9.989,6.297c4.216-0.252,7.997-3.212,9.212-7.266
		c1.208-4.031-0.278-8.592-3.661-11.104c-3.661-2.718-8.91-2.651-12.478,0.2c-3.652,2.918-4.584,7.8-2.988,12.052"/>
	<path style="fill:#333333;" d="M457.601,87.863c6.949,4.575,16.492-0.877,15.857-9.232c-0.655-8.618-11.279-12.437-17.408-6.479
		C451.662,76.673,452.27,84.344,457.601,87.863C458.16,88.23,457.044,87.495,457.601,87.863z"/>
	<path style="fill:#333333;" d="M351.733,53.337c1.691,3.993,5.834,6.606,10.185,6.271c4.452-0.342,8.206-3.609,9.201-7.947
		c2.045-8.907-8.271-15.72-15.725-10.654C351.405,43.716,350,48.897,351.733,53.337C351.992,53.948,351.488,52.709,351.733,53.337z"
		/>
	<path style="fill:#333333;" d="M389.542,57.91c7.781,5.259,18.17-2.545,15.428-11.451c-1.281-4.165-5.15-7.133-9.517-7.239
		c-4.35-0.105-8.399,2.666-9.858,6.765C384.047,50.331,385.674,55.364,389.542,57.91C390.086,58.278,388.983,57.542,389.542,57.91z"
		/>
	<path style="fill:#333333;" d="M419.807,53.322c1.624,3.922,5.728,6.543,9.973,6.298c4.129-0.238,7.83-3.081,9.146-6.999
		c1.372-4.084-0.123-8.803-3.577-11.371c-3.612-2.683-8.782-2.659-12.35,0.093c-3.752,2.893-4.735,7.852-3.118,12.157"/>
	<path style="fill:#333333;" d="M457.601,57.91c6.61,4.351,15.713-0.325,15.884-8.271c0.195-9.082-11.012-13.686-17.435-7.44
		C451.66,46.72,452.273,54.395,457.601,57.91C458.16,58.278,457.044,57.542,457.601,57.91z"/>
	<path style="fill:#333333;" d="M501.789,0.001H10.211C4.57,0.001,0,4.573,0,10.212v491.576c0,5.639,4.57,10.211,10.211,10.211
		h491.578c5.641,0,10.211-4.572,10.211-10.211V10.212C512,4.573,507.428,0.001,501.789,0.001z M491.578,20.423V273.74H473.49
		V122.631c0-5.639-4.57-10.211-10.211-10.211H48.721c-5.641,0-10.211,4.572-10.211,10.211v151.111H20.422V20.423H491.578z
		 M106.744,198.959v-65.804h17.189v65.804H106.744z M96.533,219.382h9.016v54.358H58.932V132.842h27.39v76.329
		C86.322,214.81,90.894,219.382,96.533,219.382z M125.971,219.382h8.173c5.641,0,10.211-4.572,10.211-10.211v-76.329h31.317v140.9
		h-49.701V219.382z M196.094,132.842h30.887v76.329c0,5.639,4.57,10.211,10.211,10.211h8.603v54.358h-49.701V132.842z
		 M247.403,198.959v-65.804h17.189v65.804H247.403z M266.217,219.382h8.586c5.641,0,10.211-4.572,10.211-10.211v-76.329H297.1
		v76.329c0,5.639,4.57,10.211,10.211,10.211h8.595v54.358h-49.687v-54.358H266.217z M317.522,198.959v-65.804h17.189v65.804H317.522
		z M336.327,219.382h8.595c5.641,0,10.211-4.572,10.211-10.211v-76.329h30.889v140.9h-49.694v-54.36H336.327z M406.443,132.842
		h46.624v140.9h-46.624V132.842z M453.067,491.577H406.45v-54.358h9.017c5.641,0,10.211-4.572,10.211-10.211v-76.329h27.389V491.577
		z M388.067,416.796v-65.805h17.189v65.805H388.067z M377.856,437.219h8.172v54.358h-49.701v-140.9h31.318v76.329
		C367.645,432.647,372.217,437.219,377.856,437.219z M315.904,491.577h-49.701v-54.358h8.605c5.641,0,10.211-4.572,10.211-10.211
		v-76.329h30.885V491.577z M247.41,416.796v-65.805h17.189v65.805H247.41z M237.199,437.219h8.584v54.358h-49.689v-54.358h8.595
		c5.641,0,10.211-4.572,10.211-10.211v-76.329h12.087v76.329C226.988,432.647,231.558,437.219,237.199,437.219z M177.289,416.796
		v-65.805h17.189v65.805H177.289z M167.078,437.219h8.595v54.358h-49.694v-140.9h30.889v76.329
		C156.867,432.647,161.438,437.219,167.078,437.219z M105.556,491.577H58.932v-140.9h46.624V491.577z M473.489,491.577V340.466
		c0-5.639-4.57-10.211-10.211-10.211H48.721c-5.641,0-10.211,4.572-10.211,10.211v151.111H20.422V294.162h471.156v197.415H473.489z"
		/>
	<path style="fill:#333333;" d="M215.155,90.949c15.39,0,27.91-12.52,27.91-27.91s-12.52-27.91-27.91-27.91
		s-27.91,12.52-27.91,27.91S199.766,90.949,215.155,90.949z M215.155,55.55c4.129,0,7.488,3.359,7.488,7.488
		s-3.359,7.488-7.488,7.488s-7.488-3.359-7.488-7.488S211.025,55.55,215.155,55.55z"/>
	<path style="fill:#333333;" d="M296.844,90.949c15.39,0,27.91-12.52,27.91-27.91s-12.52-27.91-27.91-27.91
		c-15.39,0-27.91,12.52-27.91,27.91S281.455,90.949,296.844,90.949z M296.844,55.55c4.129,0,7.488,3.359,7.488,7.488
		s-3.359,7.488-7.488,7.488c-4.129,0-7.488-3.359-7.488-7.488S292.714,55.55,296.844,55.55z"/>
</g>
<g>
</g>
<g>
</g>
<g>
</g>
<g>
</g>
<g>
</g>
<g>
</g>
<g>
</g>
<g>
</g>
<g>
</g>
<g>
</g>
<g>
</g>
<g>
</g>
<g>
</g>
<g>
</g>
<g>
</g>
</svg>
