<?xml version="1.0" encoding="iso-8859-1"?>
<!-- Generator: Adobe Illustrator 19.0.0, SVG Export Plug-In . SVG Version: 6.00 Build 0)  -->
<svg version="1.1" id="Layer_1" xmlns="http://www.w3.org/2000/svg" xmlns:xlink="http://www.w3.org/1999/xlink" x="0px" y="0px"
	 viewBox="0 0 512 512" style="enable-background:new 0 0 512 512;" xml:space="preserve">
<path style="fill:#E6E6E6;" d="M256.003,82.598c95.765,0,173.4,77.636,173.4,173.4s-77.636,173.401-173.4,173.401
	c-95.776,0-173.412-77.636-173.412-173.401S160.227,82.598,256.003,82.598z"/>
<g>
	<path style="fill:#F7B239;" d="M54.442,216.579c-2.479,12.766-3.776,25.937-3.776,39.42c0,13.484,1.297,26.655,3.776,39.42
		c-1.923,0.301-3.892,0.44-5.896,0.44c-22.01,0-39.86-17.851-39.86-39.86c0-22.01,17.851-39.86,39.86-39.86
		C50.55,216.138,52.519,216.277,54.442,216.579z"/>
	<path style="fill:#F7B239;" d="M141.368,426.388l-0.012,0.012c-1.147,1.564-2.444,3.07-3.869,4.483
		c-15.557,15.557-40.799,15.557-56.368-0.012c-15.557-15.557-15.557-40.799,0-56.368c1.413-1.413,2.908-2.711,4.483-3.857
		l0.012-0.012C100.431,392.609,119.394,411.572,141.368,426.388z"/>
	<path style="fill:#F7B239;" d="M295.424,457.56c0.301,1.923,0.44,3.881,0.44,5.885c0,22.021-17.851,39.872-39.872,39.872
		c-22.01,0-39.849-17.851-39.849-39.872c0-2.004,0.139-3.962,0.429-5.885c12.766,2.479,25.948,3.776,39.432,3.776
		S282.67,460.039,295.424,457.56z"/>
	<path style="fill:#F7B239;" d="M430.875,374.503c15.569,15.569,15.569,40.81,0,56.379c-15.569,15.557-40.81,15.557-56.379-0.012
		c-1.413-1.413-2.699-2.908-3.846-4.471l-0.012-0.023c21.975-14.816,40.926-33.767,55.742-55.742l0.012,0.012
		C427.968,371.792,429.462,373.078,430.875,374.503z"/>
	<path style="fill:#F7B239;" d="M463.461,216.138c21.998,0,39.849,17.851,39.849,39.86c0,22.01-17.851,39.86-39.849,39.86
		c-2.004,0-3.985-0.139-5.908-0.44c2.479-12.766,3.776-25.937,3.776-39.42c0-13.484-1.297-26.655-3.776-39.42
		C459.476,216.277,461.457,216.138,463.461,216.138z"/>
	<path style="fill:#F7B239;" d="M430.875,81.116c15.569,15.569,15.569,40.81,0.012,56.379c-1.425,1.413-2.919,2.711-4.495,3.857
		l-0.012,0.012c-14.816-21.975-33.767-40.926-55.742-55.742l0.012-0.023c1.147-1.564,2.444-3.058,3.857-4.483
		C390.065,65.558,415.306,65.558,430.875,81.116z"/>
	<path style="fill:#F7B239;" d="M295.864,48.541c0,2.004-0.139,3.985-0.44,5.908c-12.754-2.491-25.936-3.788-39.42-3.788
		c-13.484,0-26.666,1.297-39.432,3.776c-0.29-1.935-0.429-3.892-0.429-5.896c0-22.01,17.839-39.849,39.849-39.849
		C278.013,8.693,295.864,26.532,295.864,48.541z"/>
	<path style="fill:#F7B239;" d="M141.357,85.599l0.012,0.012c-21.975,14.816-40.938,33.779-55.754,55.754l-0.023-0.023
		c-1.564-1.147-3.058-2.433-4.471-3.846c-15.557-15.569-15.557-40.81,0-56.368c15.569-15.569,40.81-15.569,56.368-0.012
		C138.913,82.54,140.21,84.035,141.357,85.599z"/>
</g>
<path style="fill:#F95428;" d="M457.553,216.579c2.479,12.766,3.776,25.937,3.776,39.42c0,13.484-1.297,26.655-3.776,39.42
	c-5.329,27.408-16.113,52.881-31.172,75.215c-14.816,21.975-33.767,40.926-55.742,55.742
	c-22.334,15.059-47.807,25.844-75.215,31.184c-12.754,2.479-25.937,3.776-39.42,3.776c-13.484,0-26.666-1.297-39.432-3.776
	c-27.408-5.34-52.869-16.113-75.203-31.172c-21.975-14.816-40.938-33.779-55.754-55.754c-15.059-22.334-25.844-47.807-31.172-75.215
	c-2.479-12.766-3.776-25.936-3.776-39.42c0-13.484,1.297-26.655,3.776-39.42c5.329-27.408,16.113-52.881,31.172-75.215
	c14.816-21.975,33.779-40.938,55.754-55.754c22.334-15.059,47.795-25.832,75.203-31.172c12.766-2.479,25.948-3.776,39.432-3.776
	s26.666,1.297,39.42,3.788c27.408,5.329,52.881,16.113,75.215,31.172c21.975,14.816,40.926,33.767,55.742,55.742
	C441.44,163.698,452.224,189.171,457.553,216.579z M429.404,255.999c0-95.765-77.636-173.4-173.4-173.4
	c-95.776,0-173.412,77.636-173.412,173.4s77.636,173.401,173.412,173.401C351.768,429.399,429.404,351.764,429.404,255.999z"/>
<g>
	<path style="fill:#FFFFFF;" d="M256.003,119.088c-0.568,0-1.135-0.058-1.703-0.174c-0.544-0.104-1.1-0.278-1.622-0.487
		c-0.521-0.22-1.031-0.487-1.494-0.799c-0.475-0.324-0.927-0.683-1.321-1.089c-1.622-1.61-2.548-3.857-2.548-6.14
		c0-0.568,0.058-1.135,0.174-1.703c0.104-0.544,0.278-1.1,0.487-1.622c0.22-0.521,0.487-1.031,0.799-1.494
		c0.324-0.475,0.683-0.927,1.089-1.321c0.394-0.405,0.846-0.765,1.321-1.089c0.463-0.313,0.973-0.579,1.494-0.799
		c0.521-0.209,1.077-0.382,1.622-0.487c1.124-0.232,2.282-0.232,3.394,0c0.556,0.104,1.112,0.278,1.633,0.487
		c0.521,0.22,1.031,0.487,1.494,0.799c0.475,0.324,0.927,0.683,1.321,1.089c0.405,0.394,0.765,0.846,1.089,1.321
		c0.313,0.463,0.579,0.973,0.799,1.494c0.208,0.521,0.382,1.077,0.487,1.622c0.116,0.568,0.174,1.135,0.174,1.703
		c0,2.294-0.927,4.529-2.548,6.14c-0.394,0.405-0.846,0.765-1.321,1.089c-0.463,0.313-0.973,0.579-1.494,0.799
		c-0.521,0.209-1.077,0.382-1.633,0.487C257.139,119.03,256.571,119.088,256.003,119.088z"/>
	<path style="fill:#FFFFFF;" d="M113.347,293.994c-4.039,0-7.658-2.832-8.501-6.943c-2.084-10.157-3.14-20.604-3.14-31.052
		c0-72.93,51.831-136.496,123.244-151.147c4.708-0.961,9.293,2.065,10.256,6.765c0.964,4.701-2.064,9.293-6.765,10.256
		c-63.368,13-109.36,69.408-109.36,134.125c0,9.278,0.937,18.551,2.786,27.561c0.965,4.701-2.064,9.292-6.764,10.256
		C114.513,293.936,113.926,293.994,113.347,293.994z"/>
</g>
<g>
	<path style="fill:#333333;" d="M255.999,73.908C155.592,73.908,73.907,155.595,73.907,256s81.687,182.092,182.092,182.092
		S438.091,356.405,438.091,256S356.405,73.908,255.999,73.908z M255.999,420.717c-90.825,0-164.716-73.892-164.716-164.716
		S165.174,91.284,255.999,91.284S420.715,165.176,420.715,256S346.824,420.717,255.999,420.717z"/>
	<path style="fill:#333333;" d="M512,255.994c0-26.427-21.231-47.974-47.529-48.517c-5.39-23.166-14.563-44.891-26.813-64.508
		c18.278-18.976,18.071-49.279-0.643-67.993c-9.166-9.168-21.357-14.216-34.324-14.216c-12.661,0-24.572,4.824-33.66,13.582
		c-19.616-12.25-41.342-21.423-64.508-26.813C303.98,21.23,282.427,0,255.994,0c-26.427,0-47.973,21.23-48.517,47.528
		c-23.166,5.39-44.891,14.562-64.508,26.812c-9.088-8.757-20.996-13.579-33.654-13.579c-0.001,0-0.003,0-0.006,0
		c-12.968,0.001-25.162,5.053-34.331,14.224c-18.708,18.708-18.912,49.005-0.636,67.982c-12.251,19.617-21.425,41.344-26.815,64.51
		C21.229,208.022,0,229.569,0,255.994c0,26.432,21.229,47.985,47.527,48.53c5.39,23.166,14.563,44.893,26.813,64.509
		c-8.756,9.088-13.579,20.997-13.579,33.656c0,12.968,5.048,25.158,14.216,34.324c9.171,9.171,21.363,14.222,34.331,14.224
		c0.002,0,0.003,0,0.006,0c12.657,0,24.566-4.822,33.653-13.578c19.616,12.25,41.343,21.423,64.509,26.813
		C208.027,490.772,229.571,512,255.993,512c26.429,0,47.979-21.229,48.53-47.528c23.166-5.39,44.893-14.563,64.51-26.815
		c9.381,9.031,21.517,13.559,33.662,13.559c12.43,0,24.859-4.731,34.321-14.193c9.171-9.171,14.223-21.364,14.223-34.335
		c0-12.658-4.822-24.568-13.579-33.658c12.25-19.616,21.422-41.342,26.812-64.507C490.77,303.981,512,282.428,512,255.994z
		 M494.624,255.994c0,15.722-11.694,28.756-26.837,30.872c1.463-10.082,2.235-20.384,2.235-30.865
		c0-10.481-0.771-20.784-2.235-30.867C482.93,227.25,494.624,240.278,494.624,255.994z M402.69,78.136
		c8.327,0,16.153,3.241,22.039,9.126c5.889,5.889,9.133,13.719,9.134,22.048c0.001,6.895-2.226,13.442-6.332,18.833
		c-12.382-16.569-27.104-31.292-43.674-43.674C389.248,80.364,395.797,78.136,402.69,78.136z M255.994,17.376
		c15.722,0,28.756,11.694,30.872,26.837c-10.083-1.463-20.385-2.235-30.867-2.235c-10.48,0-20.783,0.771-30.864,2.233
		C227.25,29.07,240.278,17.376,255.994,17.376z M87.263,87.271c5.889-5.889,13.719-9.133,22.048-9.134c0.001,0,0.001,0,0.003,0
		c6.891,0,13.437,2.226,18.827,6.331c-16.567,12.381-31.289,27.102-43.67,43.669C75.205,115.931,76.131,98.405,87.263,87.271z
		 M17.376,255.994c0-15.715,11.693-28.743,26.833-30.859c-1.463,10.082-2.235,20.384-2.235,30.865
		c0,10.481,0.771,20.783,2.235,30.866C29.069,284.749,17.376,271.715,17.376,255.994z M109.314,433.863c0,0-0.002,0-0.003,0
		c-8.328-0.001-16.158-3.245-22.048-9.134c-5.886-5.886-9.126-13.712-9.126-22.039c0-6.892,2.226-13.439,6.331-18.83
		c12.382,16.569,27.104,31.291,43.673,43.673C122.752,431.636,116.207,433.863,109.314,433.863z M255.994,494.624
		c-15.711,0-28.736-11.693-30.857-26.834c10.082,1.462,20.383,2.233,30.863,2.233c10.481,0,20.784-0.771,30.866-2.235
		C284.742,482.931,271.711,494.624,255.994,494.624z M433.862,402.689c0,8.328-3.243,16.159-9.133,22.048
		c-11.132,11.13-28.655,12.054-40.865,2.791c16.566-12.381,31.287-27.102,43.667-43.669
		C431.635,389.25,433.862,395.798,433.862,402.689z M255.999,452.647c-108.432,0-196.647-88.215-196.647-196.647
		S147.567,59.354,255.999,59.354s196.647,88.215,196.647,196.647S364.431,452.647,255.999,452.647z"/>
</g>
<g>
</g>
<g>
</g>
<g>
</g>
<g>
</g>
<g>
</g>
<g>
</g>
<g>
</g>
<g>
</g>
<g>
</g>
<g>
</g>
<g>
</g>
<g>
</g>
<g>
</g>
<g>
</g>
<g>
</g>
</svg>
