<?xml version="1.0" encoding="iso-8859-1"?>
<!-- Generator: Adobe Illustrator 19.0.0, SVG Export Plug-In . SVG Version: 6.00 Build 0)  -->
<svg version="1.1" id="Layer_1" xmlns="http://www.w3.org/2000/svg" xmlns:xlink="http://www.w3.org/1999/xlink" x="0px" y="0px"
	 viewBox="0 0 512 512" style="enable-background:new 0 0 512 512;" xml:space="preserve">
<g>
	<path style="fill:#F7B239;" d="M239.932,450.054c7.804,7.804,7.804,20.454,0,28.246c-7.804,7.804-20.454,7.804-28.246,0
		l-4.683-4.67l-27.21-27.21l-28.77-28.77l-27.197-27.197L98.94,365.566l-18.044-18.044l13.561-13.561l14.685-14.697l18.044,18.056
		h0.012l24.874,24.874l27.197,27.21h0.012l28.77,28.77l27.197,27.21h0.012L239.932,450.054z"/>
	<path style="fill:#F7B239;" d="M261.023,365.204l27.197,27.21l4.683,4.67c7.792,7.804,7.792,20.454,0,28.258
		c-7.804,7.792-20.454,7.792-28.258,0l-4.683-4.67l-27.197-27.21l-28.77-28.77l-27.21-27.21l-24.874-24.874l-18.056-18.056
		l14.135-14.123l14.123-14.123l18.044,18.044l24.887,24.874l27.197,27.21L261.023,365.204z"/>
	<path style="fill:#F7B239;" d="M312.945,367.702l-27.21-27.21l-28.77-28.77l-27.21-27.21l-24.874-24.874l-18.056-18.056
		l14.123-14.123l14.123-14.123l18.056,18.056l24.887,24.887l27.197,27.197l28.77,28.77l27.21,27.21l4.67,4.67
		c7.804,7.804,7.804,20.441,0,28.246s-20.441,7.804-28.246,0L312.945,367.702z"/>
</g>
<g style="opacity:0.25;">
	<path style="fill:#4D4D4D;" d="M347.11,345.375l-4.67-4.67l-27.21-27.21l-4.333-4.333c7.805,7.804,7.805,20.441,0,28.246
		c-7.804,7.804-20.441,7.804-28.246,0l4.333,4.333l27.21,27.21l4.67,4.67c7.804,7.804,20.441,7.804,28.246,0
		S354.914,353.179,347.11,345.375z"/>
</g>
<g style="opacity:0.25;">
	<path style="fill:#4D4D4D;" d="M292.166,397.821l-4.67-4.67l-27.21-27.21l-4.333-4.333c7.804,7.804,7.804,20.441,0,28.246
		c-7.804,7.804-20.441,7.804-28.246,0l4.333,4.333l27.21,27.21l4.67,4.67c7.804,7.804,20.441,7.804,28.246,0
		S299.971,405.625,292.166,397.821z"/>
</g>
<g style="opacity:0.25;">
	<path style="fill:#4D4D4D;" d="M238.471,450.267l-4.67-4.67l-27.21-27.21l-4.333-4.333c7.804,7.804,7.804,20.441,0,28.246
		c-7.804,7.804-20.441,7.804-28.246,0l4.333,4.333l27.21,27.21l4.67,4.67c7.804,7.805,20.441,7.805,28.246,0
		C246.276,470.708,246.276,458.071,238.471,450.267z"/>
</g>
<g>
	<polygon style="fill:#F7B239;" points="312.945,367.702 288.22,392.414 261.023,365.204 285.735,340.492 	"/>
	<polygon style="fill:#F7B239;" points="232.765,393.463 259.962,420.672 235.262,445.384 235.25,445.384 208.053,418.175 	"/>
	<polygon style="fill:#F7B239;" points="256.965,311.722 232.24,336.434 205.043,309.224 229.755,284.512 	"/>
	<polygon style="fill:#F7B239;" points="203.994,364.692 179.282,389.404 179.27,389.404 152.073,362.195 176.785,337.483 	"/>
	<polygon style="fill:#F7B239;" points="98.94,365.566 123.827,390.453 112.051,402.216 44.945,462.217 23.617,440.889 	"/>
	<polygon style="fill:#F7B239;" points="229.755,284.512 205.043,309.224 180.156,284.35 204.881,259.638 	"/>
	
		<rect x="134.506" y="319.816" transform="matrix(-0.7071 0.7071 -0.7071 -0.7071 498.0263 468.5194)" style="fill:#F7B239;" width="34.947" height="35.176"/>
	<path style="fill:#F7B239;" d="M179.794,446.421l27.21,27.21l-11.775,11.775c-11.476,11.476-26.535,17.22-41.582,17.232
		c-15.06-0.012-30.107-5.744-41.595-17.232c-22.964-22.976-22.964-60.213,0-83.189l11.775-11.763l27.197,27.197l-11.775,11.775
		c-7.929,7.929-7.929,20.841,0,28.77c7.942,7.929,20.854,7.929,28.783,0L179.794,446.421z"/>
	<path style="fill:#F7B239;" d="M336.658,196.902c1.773-0.15,3.534-0.237,5.307-0.237c15.06,0.012,30.107,5.744,41.595,17.232
		c22.964,22.964,22.976,60.201,0,83.177l-42.369,42.369v0.013l-27.21-27.21v-0.012l42.369-42.356c7.929-7.929,7.929-20.841,0-28.783
		c-7.929-7.929-20.841-7.929-28.77,0l-42.369,42.369v0.012l-27.197-27.197v-0.012l42.356-42.369
		C310.51,203.758,323.422,198.088,336.658,196.902z"/>
	<path style="fill:#F7B239;" d="M484.119,136.277c7.417,7.417,7.417,19.455,0,26.872c-7.417,7.417-19.443,7.417-26.86,0
		l-3.659-3.659L339.542,45.445l-3.659-3.659c-7.417-7.43-7.417-19.455,0-26.872c3.709-3.709,8.579-5.557,13.436-5.557
		c4.87,0,9.728,1.848,13.436,5.557L484.119,136.277z"/>
</g>
<path style="opacity:0.25;fill:#4D4D4D;enable-background:new    ;" d="M484.119,136.277l-44.142-44.142
	c7.417,7.417,7.417,19.455,0,26.872c-7.417,7.417-19.443,7.417-26.86,0l-3.659-3.659L335.843,41.74
	c0.015,0.015,0.026,0.031,0.041,0.046l3.659,3.659L453.6,159.491l3.659,3.659c7.417,7.417,19.443,7.417,26.86,0
	S491.536,143.694,484.119,136.277z"/>
<path style="fill:#F7B239;" d="M339.542,45.445L453.6,159.491c0,0-70.89-8.354-116.942,37.412
	c-13.236,1.186-26.148,6.855-36.288,16.995l-42.356,42.369v0.012l-24.887-24.887v-0.012l68.754-68.754
	C347.921,116.585,339.542,45.445,339.542,45.445z"/>
<path style="opacity:0.25;fill:#4D4D4D;enable-background:new    ;" d="M433.812,139.705c-0.115-0.014-70.925-8.316-116.94,37.412
	c-35.076,32.579-65.882,72.126-65.882,72.126l-3.116-3.103l12.206,12.206v-0.012l42.356-42.369
	c10.14-10.14,23.051-15.809,36.288-16.995c46.053-45.765,116.942-37.412,116.942-37.412L433.812,139.705z"/>
<path style="fill:#333333;" d="M490.743,129.66L369.378,8.294c-11.057-11.057-29.053-11.059-40.11,0
	c-11.059,11.057-11.059,29.051,0,40.11l1.231,1.231c0.867,13.642,1.862,69.268-35.24,106.369l-62.135,62.136l-11.427-11.427
	c-1.756-1.757-4.138-2.743-6.622-2.743c-2.484,0-4.866,0.986-6.622,2.743l-7.502,7.502L184.9,198.165l7.502-7.502
	c3.657-3.658,3.657-9.588,0-13.244c-3.657-3.659-9.588-3.657-13.244,0l-28.25,28.248c-3.657,3.657-3.657,9.588,0,13.244
	c1.828,1.829,4.226,2.743,6.622,2.743s4.794-0.914,6.622-2.743l7.502-7.502l16.051,16.051l-7.502,7.502
	c-3.657,3.657-3.657,9.588,0,13.244l11.427,11.426l-11.473,11.473l-11.426-11.426c-3.656-3.659-9.586-3.658-13.244,0l-7.502,7.502
	l-16.051-16.051l7.502-7.502c3.657-3.658,3.657-9.588,0-13.244c-3.658-3.657-9.588-3.657-13.244,0l-28.251,28.25
	c-3.657,3.658-3.657,9.588,0,13.244c1.828,1.828,4.226,2.743,6.622,2.743s4.794-0.914,6.622-2.743l7.502-7.502l16.051,16.051
	l-7.502,7.502c-1.757,1.756-2.743,4.138-2.743,6.622s0.986,4.866,2.743,6.622l11.427,11.427l-11.473,11.473l-11.427-11.426
	c-3.657-3.657-9.588-3.657-13.244,0l-8.068,8.068l-16.051-16.051l8.068-8.068c3.657-3.658,3.657-9.588,0-13.244
	c-3.657-3.658-9.588-3.658-13.244,0L44.977,311.6c-3.657,3.658-3.657,9.588,0,13.244c1.828,1.828,4.226,2.743,6.622,2.743
	s4.794-0.914,6.622-2.743l6.937-6.937l16.051,16.051l-6.937,6.937c-3.657,3.657-3.657,9.588,0,13.244l11.426,11.426l-68.702,68.704
	c-3.657,3.657-3.657,9.588,0,13.244l5.091,5.091l-6.393,6.395c-3.657,3.657-3.657,9.588,0,13.244
	c1.828,1.829,4.226,2.743,6.622,2.743s4.794-0.914,6.622-2.743l6.393-6.395l2.988,2.989c1.823,1.823,4.221,2.743,6.623,2.743
	c2.228,0,4.459-0.79,6.241-2.384l34.544-30.882c-1.542,19.243,5.014,39.02,19.701,53.709c12.869,12.869,29.989,19.963,48.219,19.976
	c18.218-0.012,35.337-7.106,48.205-19.976l5.25-5.248c5.407,4.482,12.053,6.733,18.703,6.733c7.514,0,15.027-2.861,20.747-8.58l0,0
	c10.781-10.783,11.391-27.935,1.846-39.449l11.664-11.663c5.251,4.363,11.797,6.739,18.71,6.739c7.837,0,15.206-3.052,20.747-8.594
	l0,0c5.542-5.542,8.594-12.909,8.594-20.746c0-6.913-2.378-13.459-6.741-18.71l11.657-11.657c5.251,4.363,11.797,6.739,18.71,6.739
	c7.837,0,15.204-3.052,20.746-8.592c5.542-5.542,8.594-12.909,8.594-20.747c0-6.913-2.378-13.457-6.741-18.71l35.839-35.839
	c26.585-26.585,26.585-69.841,0-96.426c-8.415-8.415-18.653-14.342-29.824-17.453c35.116-22.733,77.395-21.986,89.056-21.274
	l1.223,1.222c5.357,5.357,12.48,8.308,20.056,8.308s14.699-2.951,20.056-8.306l0,0c5.357-5.357,8.306-12.48,8.306-20.056
	C499.05,142.138,496.1,135.016,490.743,129.66z M204.876,272.877l11.637,11.637l-11.473,11.473l-11.637-11.637L204.876,272.877z
	 M274.261,365.209l11.473-11.473l13.959,13.959l-11.473,11.473L274.261,365.209z M261.016,351.964l-15.529-15.529l11.473-11.473
	l15.529,15.529L261.016,351.964z M232.243,323.191l-13.959-13.959l11.473-11.473l13.959,13.959L232.243,323.191z M151.909,325.843
	l11.637,11.637l-11.473,11.473l-11.637-11.637L151.909,325.843z M221.294,418.176l11.473-11.473l13.959,13.959l-11.473,11.473
	L221.294,418.176z M208.05,404.931l-15.529-15.529l11.473-11.473l15.529,15.529L208.05,404.931z M179.276,376.158l-13.959-13.959
	l11.473-11.473l13.959,13.959L179.276,376.158z M45.301,449.331l-8.44-8.44l62.081-62.081l11.637,11.637l-4.966,4.966
	L45.301,449.331z M153.649,493.269c-13.219-0.009-25.64-5.155-34.975-14.49c-19.281-19.281-19.281-50.654,0-69.937l5.151-5.151
	l13.959,13.959l-5.15,5.151c-5.604,5.604-8.691,13.065-8.691,21.01s3.087,15.404,8.691,21.01c5.792,5.793,13.4,8.689,21.008,8.689
	s15.217-2.896,21.01-8.689l5.15-5.151l13.959,13.959l-5.151,5.151C179.275,488.113,166.854,493.259,153.649,493.269z
	 M145.878,436.046l5.151-5.151l15.529,15.529l-5.15,5.151c-4.281,4.282-11.248,4.282-15.529,0c-2.067-2.067-3.205-4.825-3.205-7.764
	C142.674,440.871,143.81,438.113,145.878,436.046z M233.309,471.683c-4.137,4.137-10.869,4.137-15.005,0L94.138,347.517
	l15.005-15.005l124.166,124.166C237.445,460.816,237.445,467.546,233.309,471.683L233.309,471.683z M286.275,418.717
	L286.275,418.717c-2.004,2.004-4.668,3.107-7.502,3.107c-2.833,0-5.498-1.104-7.502-3.107L147.104,294.551l15.005-15.005
	l124.166,124.167c2.004,2.003,3.107,4.668,3.107,7.501S288.279,416.712,286.275,418.717z M339.242,365.75L339.242,365.75
	c-2.004,2.004-4.668,3.108-7.502,3.108s-5.498-1.103-7.502-3.107L200.071,241.585l15.005-15.005l124.166,124.166
	c2.003,2.004,3.107,4.669,3.107,7.502C342.348,361.082,341.246,363.746,339.242,365.75z M298.455,283.469l35.748-35.747
	c2.067-2.067,4.824-3.205,7.763-3.205s5.698,1.139,7.764,3.205c2.067,2.067,3.204,4.824,3.204,7.765s-1.138,5.698-3.204,7.765
	L313.982,299L298.455,283.469z M391.42,255.483c0,13.209-5.143,25.629-14.486,34.972l-35.747,35.747l-13.959-13.959l35.748-35.748
	c11.584-11.584,11.584-30.434,0-42.017c-5.604-5.605-13.065-8.691-21.01-8.691s-15.404,3.087-21.008,8.691l-35.747,35.747
	l-13.959-13.959l35.747-35.747c8.188-8.187,19.018-13.26,30.494-14.285c1.543-0.137,3.007-0.205,4.468-0.205
	c13.219,0.009,25.64,5.155,34.975,14.49C386.274,229.858,391.419,242.276,391.42,255.483z M332.432,187.974
	c-14.575,2.052-28.202,8.822-38.679,19.299l-35.747,35.747l-11.637-11.637l62.135-62.136c31.98-31.98,39.512-74.502,40.812-100.796
	l81.269,81.269C405.008,150.986,364.079,158.152,332.432,187.974z M477.499,156.524
	C477.499,156.525,477.499,156.525,477.499,156.524c-1.819,1.821-4.238,2.822-6.811,2.822s-4.991-1.001-6.811-2.821L342.512,35.16
	c-3.755-3.755-3.755-9.865,0-13.621c1.878-1.877,4.344-2.816,6.81-2.816c2.466,0,4.932,0.939,6.811,2.816l121.365,121.367
	c1.819,1.819,2.821,4.237,2.821,6.809C480.32,152.287,479.319,154.706,477.499,156.524z"/>
<g>
	<path style="fill:#FFFFFF;" d="M350.906,39.676c-2.472,0-4.883-0.999-6.618-2.747c-0.437-0.425-0.824-0.912-1.174-1.424
		c-0.337-0.499-0.624-1.049-0.862-1.611c-0.225-0.562-0.412-1.161-0.524-1.748c-0.125-0.612-0.187-1.224-0.187-1.836
		c0-2.46,0.999-4.882,2.747-6.618c2.173-2.173,5.407-3.172,8.454-2.56c0.587,0.112,1.186,0.3,1.748,0.524
		c0.562,0.237,1.111,0.524,1.611,0.862c0.512,0.35,0.999,0.737,1.424,1.174c1.748,1.736,2.747,4.158,2.747,6.618
		c0,0.612-0.062,1.224-0.187,1.836c-0.112,0.587-0.3,1.186-0.524,1.748c-0.237,0.562-0.524,1.111-0.862,1.611
		c-0.35,0.512-0.737,0.999-1.174,1.424c-0.425,0.437-0.912,0.824-1.424,1.174c-0.499,0.337-1.049,0.624-1.611,0.862
		c-0.562,0.225-1.161,0.412-1.748,0.524C352.13,39.614,351.518,39.676,350.906,39.676z"/>
	<path style="fill:#FFFFFF;" d="M221.039,255.704c-0.612,0-1.224-0.062-1.836-0.187c-0.587-0.112-1.186-0.3-1.748-0.524
		c-0.562-0.237-1.111-0.524-1.611-0.862c-0.512-0.35-0.999-0.737-1.424-1.174c-1.748-1.736-2.747-4.146-2.747-6.618
		c0-0.612,0.062-1.224,0.187-1.836c0.112-0.587,0.3-1.186,0.524-1.748c0.237-0.562,0.524-1.111,0.862-1.611
		c0.35-0.512,0.737-0.999,1.174-1.424c0.425-0.437,0.912-0.824,1.424-1.174c0.499-0.337,1.049-0.624,1.611-0.862
		c0.562-0.225,1.161-0.412,1.748-0.524c3.059-0.612,6.281,0.387,8.454,2.56c0.437,0.425,0.824,0.912,1.174,1.424
		c0.337,0.499,0.624,1.049,0.862,1.611c0.225,0.562,0.412,1.161,0.524,1.748c0.125,0.612,0.187,1.224,0.187,1.836
		c0,2.46-0.999,4.882-2.747,6.618C225.922,254.705,223.512,255.704,221.039,255.704z"/>
	<path style="fill:#FFFFFF;" d="M113.65,363.094c-0.612,0-1.224-0.062-1.836-0.187c-0.587-0.112-1.186-0.3-1.748-0.524
		c-0.562-0.237-1.111-0.524-1.611-0.862c-0.512-0.35-0.999-0.737-1.424-1.174c-0.437-0.425-0.824-0.912-1.174-1.424
		c-0.337-0.499-0.624-1.049-0.849-1.611c-0.237-0.562-0.425-1.161-0.537-1.748c-0.125-0.612-0.187-1.224-0.187-1.836
		c0-0.612,0.062-1.224,0.187-1.836c0.112-0.587,0.3-1.186,0.537-1.748c0.225-0.562,0.512-1.111,0.849-1.611
		c0.35-0.512,0.737-0.999,1.174-1.424c0.425-0.437,0.912-0.824,1.424-1.174c0.499-0.337,1.049-0.624,1.611-0.849
		c0.562-0.237,1.161-0.425,1.748-0.537c1.211-0.25,2.46-0.25,3.671,0c0.587,0.112,1.186,0.3,1.748,0.537
		c0.562,0.225,1.111,0.512,1.611,0.849c0.512,0.35,0.999,0.737,1.424,1.174c0.437,0.425,0.824,0.912,1.174,1.424
		c0.337,0.499,0.624,1.049,0.862,1.611c0.225,0.562,0.412,1.161,0.524,1.748c0.125,0.612,0.187,1.224,0.187,1.836
		c0,0.612-0.062,1.224-0.187,1.836c-0.112,0.587-0.3,1.186-0.524,1.748c-0.237,0.562-0.524,1.111-0.862,1.611
		c-0.35,0.512-0.737,0.999-1.174,1.424c-0.425,0.437-0.912,0.824-1.424,1.174c-0.499,0.337-1.049,0.624-1.611,0.862
		c-0.562,0.225-1.161,0.412-1.748,0.524C114.873,363.031,114.262,363.094,113.65,363.094z"/>
	<path style="fill:#FFFFFF;" d="M168.593,309.399c-0.612,0-1.224-0.062-1.836-0.187c-0.587-0.112-1.186-0.3-1.748-0.524
		c-0.562-0.237-1.111-0.524-1.611-0.862c-0.512-0.35-0.999-0.737-1.424-1.174c-0.437-0.425-0.824-0.912-1.174-1.424
		c-0.337-0.499-0.624-1.049-0.849-1.611c-0.237-0.562-0.425-1.161-0.537-1.748c-0.125-0.612-0.187-1.224-0.187-1.836
		s0.062-1.224,0.187-1.836c0.112-0.587,0.3-1.186,0.537-1.748c0.225-0.562,0.512-1.111,0.849-1.611
		c0.35-0.512,0.737-0.999,1.174-1.424c0.425-0.437,0.912-0.824,1.424-1.174c0.499-0.337,1.049-0.624,1.611-0.862
		c0.562-0.225,1.161-0.412,1.748-0.524c3.047-0.624,6.281,0.375,8.454,2.56c0.437,0.425,0.824,0.912,1.174,1.424
		c0.337,0.499,0.624,1.049,0.849,1.611c0.237,0.562,0.425,1.161,0.537,1.748c0.125,0.612,0.187,1.224,0.187,1.836
		s-0.062,1.224-0.187,1.836c-0.112,0.587-0.3,1.186-0.537,1.748c-0.225,0.562-0.512,1.111-0.849,1.611
		c-0.35,0.512-0.737,0.999-1.174,1.424C173.476,308.4,171.053,309.399,168.593,309.399z"/>
	<path style="fill:#FFFFFF;" d="M349.651,138.326c-2.009,0-4.033-0.644-5.743-1.974c-4.083-3.175-4.819-9.059-1.642-13.142
		c5.86-7.535,8.745-20.104,9.362-24.313c0.751-5.111,5.506-8.661,10.609-7.918c5.112,0.739,8.662,5.471,7.932,10.584
		c-0.116,0.814-2.966,20.094-13.118,33.146C355.204,137.082,352.442,138.326,349.651,138.326z"/>
</g>
<g>
</g>
<g>
</g>
<g>
</g>
<g>
</g>
<g>
</g>
<g>
</g>
<g>
</g>
<g>
</g>
<g>
</g>
<g>
</g>
<g>
</g>
<g>
</g>
<g>
</g>
<g>
</g>
<g>
</g>
</svg>
