<?xml version="1.0" encoding="iso-8859-1"?>
<!-- Generator: Adobe Illustrator 19.0.0, SVG Export Plug-In . SVG Version: 6.00 Build 0)  -->
<svg version="1.1" id="Layer_1" xmlns="http://www.w3.org/2000/svg" xmlns:xlink="http://www.w3.org/1999/xlink" x="0px" y="0px"
	 viewBox="0 0 512 512" style="enable-background:new 0 0 512 512;" xml:space="preserve">
<path style="fill:#F7B239;" d="M276.485,430.911c11.248,6.906,18.747,19.307,18.747,33.465c0,21.668-17.561,39.229-39.229,39.229
	s-39.229-17.561-39.229-39.229c0-14.158,7.499-26.559,18.747-33.465c5.954-3.66,12.972-5.764,20.482-5.764
	S270.531,427.251,276.485,430.911z"/>
<path style="opacity:0.25;fill:#4D4D4D;enable-background:new    ;" d="M276.485,430.911c-5.954-3.66-12.972-5.764-20.482-5.764
	c-5.681,0-11.078,1.208-15.948,3.379c1.568,0.7,3.083,1.494,4.534,2.385c11.248,6.906,18.747,19.307,18.747,33.465
	c0,15.987-9.565,29.729-23.281,35.84c4.874,2.171,10.267,3.389,15.948,3.389c21.668,0,39.229-17.561,39.229-39.229
	C295.232,450.218,287.733,437.816,276.485,430.911z"/>
<path style="fill:#F7B239;" d="M346.817,28.876v175.975c0,43.034-30.085,79.151-70.332,88.463v137.597
	c-5.954-3.66-12.972-5.764-20.482-5.764s-14.527,2.104-20.482,5.764V293.314c-40.236-9.312-70.343-45.429-70.343-88.463V28.876
	c0-5.663,2.294-10.778,5.999-14.483s8.831-5.999,14.483-5.999c11.315,0,20.482,9.166,20.482,20.482v175.975
	c0,27.197,21.903,49.391,48.999,49.85c27.891,0.481,50.712-22.832,50.712-50.723V28.876c0-5.663,2.294-10.778,5.999-14.483
	s8.819-5.999,14.483-5.999C337.651,8.394,346.817,17.561,346.817,28.876z"/>
<path style="fill:#333333;" d="M326.335,0c-15.923,0-28.877,12.954-28.877,28.876v175.102c0,11.339-4.674,22.436-12.823,30.446
	c-7.988,7.851-18.408,12.09-29.354,11.885c-22.464-0.385-40.741-18.982-40.741-41.458V28.876C214.541,12.953,201.587,0,185.665,0
	c-15.923,0-28.877,12.954-28.877,28.876v175.975c0,22.528,7.791,44.598,21.939,62.145c12.507,15.514,29.508,26.975,48.402,32.752
	v126.789c-11.387,8.71-18.751,22.428-18.751,37.839c0,26.26,21.365,47.625,47.625,47.625s47.625-21.365,47.625-47.625
	c0-15.408-7.361-29.123-18.745-37.834V299.748c18.892-5.776,35.891-17.238,48.396-32.752c14.144-17.546,21.933-39.616,21.933-62.144
	V28.876C355.212,12.954,342.258,0,326.335,0z M256.002,495.212c-17.003,0-30.837-13.834-30.837-30.837
	c0-17.003,13.832-30.837,30.837-30.837s30.837,13.834,30.837,30.837C286.839,481.378,273.007,495.212,256.002,495.212z
	 M338.424,204.852c0,18.98-6.299,36.825-18.215,51.608c-11.578,14.364-27.777,24.548-45.613,28.677
	c-3.805,0.881-6.502,4.271-6.502,8.178v124.996c-3.864-1.015-7.915-1.56-12.092-1.56c-4.175,0-8.224,0.544-12.085,1.558V293.314
	c0-3.907-2.695-7.297-6.502-8.178c-17.838-4.129-34.039-14.313-45.619-28.677c-11.92-14.784-18.22-32.63-18.22-51.607V28.876
	c0-6.665,5.424-12.088,12.089-12.088s12.088,5.423,12.088,12.088v175.975c0,31.575,25.678,57.704,57.243,58.244
	c15.486,0.263,30.185-5.664,41.41-16.698c11.339-11.146,17.842-26.607,17.842-42.418V28.876c0-6.665,5.423-12.088,12.089-12.088
	c6.665,0,12.089,5.423,12.089,12.088V204.852z"/>
<g>
	<path style="fill:#FFFFFF;" d="M242.013,463.917c-0.548,0-1.097-0.056-1.645-0.168c-0.527-0.101-1.063-0.269-1.567-0.47
		c-0.504-0.213-0.996-0.47-1.444-0.772c-0.459-0.313-0.895-0.66-1.276-1.052c-0.393-0.381-0.739-0.817-1.052-1.276
		c-0.302-0.448-0.56-0.94-0.772-1.444c-0.201-0.504-0.368-1.041-0.47-1.567c-0.112-0.548-0.167-1.097-0.167-1.645
		s0.056-1.097,0.167-1.645c0.102-0.526,0.269-1.063,0.47-1.567c0.213-0.504,0.471-0.996,0.772-1.444
		c0.313-0.459,0.66-0.895,1.052-1.276c0.381-0.392,0.816-0.739,1.276-1.052c0.448-0.302,0.94-0.56,1.444-0.772
		c0.504-0.201,1.041-0.369,1.567-0.47c1.086-0.224,2.205-0.224,3.289,0c0.526,0.101,1.063,0.269,1.567,0.47
		c0.503,0.213,0.996,0.47,1.444,0.772c0.458,0.313,0.895,0.66,1.276,1.052c0.392,0.381,0.739,0.817,1.052,1.276
		c0.302,0.448,0.56,0.94,0.771,1.444c0.201,0.504,0.369,1.041,0.47,1.567c0.113,0.548,0.168,1.097,0.168,1.645
		s-0.056,1.097-0.168,1.645c-0.101,0.526-0.269,1.063-0.47,1.567c-0.212,0.504-0.47,0.996-0.771,1.444
		c-0.313,0.459-0.661,0.895-1.052,1.276c-0.381,0.392-0.817,0.739-1.276,1.052c-0.448,0.302-0.941,0.56-1.444,0.772
		c-0.504,0.201-1.042,0.369-1.567,0.47C243.11,463.86,242.563,463.917,242.013,463.917z"/>
	<path style="fill:#FFFFFF;" d="M182.135,121.435c-0.548,0-1.097-0.056-1.645-0.168c-0.527-0.101-1.063-0.269-1.567-0.47
		c-0.504-0.213-0.996-0.47-1.444-0.772c-0.47-0.313-0.895-0.66-1.276-1.052c-0.393-0.381-0.739-0.817-1.052-1.276
		c-0.302-0.448-0.56-0.94-0.772-1.444c-0.201-0.504-0.368-1.041-0.47-1.567c-0.112-0.548-0.167-1.097-0.167-1.645
		s0.056-1.097,0.167-1.645c0.102-0.526,0.269-1.063,0.47-1.567c0.213-0.504,0.471-0.996,0.772-1.444
		c0.313-0.459,0.66-0.895,1.052-1.276c0.381-0.392,0.806-0.739,1.276-1.052c0.448-0.302,0.94-0.56,1.444-0.772
		c0.504-0.201,1.041-0.369,1.567-0.47c1.086-0.224,2.205-0.224,3.289,0c0.526,0.101,1.063,0.269,1.567,0.47
		c0.503,0.213,0.996,0.47,1.444,0.772c0.458,0.313,0.895,0.66,1.276,1.052c0.392,0.381,0.739,0.817,1.041,1.276
		c0.313,0.448,0.572,0.94,0.783,1.444c0.201,0.504,0.369,1.041,0.47,1.567c0.113,0.548,0.168,1.097,0.168,1.645
		s-0.056,1.097-0.168,1.645c-0.101,0.526-0.269,1.063-0.47,1.567c-0.212,0.504-0.47,0.996-0.783,1.444
		c-0.302,0.459-0.649,0.895-1.041,1.276c-0.381,0.392-0.817,0.739-1.276,1.052c-0.448,0.302-0.941,0.56-1.444,0.772
		c-0.504,0.201-1.042,0.369-1.567,0.47C183.232,121.378,182.684,121.435,182.135,121.435z"/>
	<path style="fill:#FFFFFF;" d="M182.135,94.015c-4.637,0-8.394-3.758-8.394-8.394V30.219c0-4.636,3.757-8.394,8.394-8.394
		c4.637,0,8.394,3.758,8.394,8.394V85.62C190.529,90.256,186.772,94.015,182.135,94.015z"/>
	<path style="fill:#FFFFFF;" d="M324.052,85.62c-4.637,0-8.394-3.758-8.394-8.394V30.219c0-4.636,3.757-8.394,8.394-8.394
		s8.394,3.758,8.394,8.394v47.007C332.446,81.862,328.689,85.62,324.052,85.62z"/>
</g>
<g>
</g>
<g>
</g>
<g>
</g>
<g>
</g>
<g>
</g>
<g>
</g>
<g>
</g>
<g>
</g>
<g>
</g>
<g>
</g>
<g>
</g>
<g>
</g>
<g>
</g>
<g>
</g>
<g>
</g>
</svg>
