<?xml version="1.0" encoding="iso-8859-1"?>
<!-- Generator: Adobe Illustrator 19.0.0, SVG Export Plug-In . SVG Version: 6.00 Build 0)  -->
<svg version="1.1" id="Layer_1" xmlns="http://www.w3.org/2000/svg" xmlns:xlink="http://www.w3.org/1999/xlink" x="0px" y="0px"
	 viewBox="0 0 511.999 511.999" style="enable-background:new 0 0 511.999 511.999;" xml:space="preserve">
<rect x="108.679" y="349.531" transform="matrix(-0.7071 0.7071 -0.7071 -0.7071 484.8658 577.5365)" style="fill:#E0B08C;" width="28.285" height="79.312"/>
<path style="fill:#4D4D4D;" d="M225.771,286.231c14.145,14.134,14.145,37.056,0,51.202c-14.134,14.134-37.056,14.134-51.202,0
	c-14.134-14.145-14.134-37.068,0-51.202C188.715,272.086,211.637,272.086,225.771,286.231z"/>
<path style="fill:#CC582F;" d="M503.086,59.5l-49.574,43.268c-3.337,2.922-7.043,5.368-10.998,7.292
	c-3.955,1.924-8.171,3.326-12.53,4.157l-32.198-32.198c1.651-8.718,5.606-16.842,11.449-23.54l43.268-49.574
	c11.426,4.786,21.687,11.723,30.274,20.321C491.375,37.825,498.3,48.074,503.086,59.5z"/>
<path style="fill:#E0B08C;" d="M246.081,222.701L397.785,82.019l32.198,32.198L289.313,265.921l-15.903,17.138
	c0.321-11.473-3.884-23.065-12.649-31.818c-8.753-8.765-20.345-12.97-31.818-12.649L246.081,222.701z"/>
<path style="fill:#CC582F;" d="M289.313,265.921c17.649,27.483,20.773,56.368,1.96,75.181c-7.459,7.459-20.143,15.119-35.144,21.189
	c-16.699,6.782-29.004,21.521-32.673,39.17c-7.364,35.358-23.825,69.088-39.657,84.908c-32.056,32.068-86.429,15.606-130.1-28.065
	s-60.133-98.044-28.065-130.1c15.82-15.832,49.551-32.293,84.908-39.657c17.649-3.67,32.388-15.975,39.17-32.673
	c6.081-14.989,13.73-27.685,21.188-35.144c18.813-18.813,47.698-15.701,75.181,1.972l-17.138,15.891
	c11.473-0.321,23.065,3.884,31.818,12.649c8.765,8.753,12.97,20.345,12.649,31.818L289.313,265.921z M225.771,337.433
	c14.145-14.145,14.145-37.068,0-51.202c-14.134-14.145-37.056-14.145-51.202,0c-14.134,14.134-14.134,37.056,0,51.202
	C188.715,351.566,211.637,351.566,225.771,337.433z M140.863,427.222l20.001-20.001l-56.083-56.083L84.78,371.139L140.863,427.222z"
	/>
<g>
	<path style="fill:#333333;" d="M232.072,279.929c-17.591-17.589-46.208-17.589-63.799,0c-17.587,17.589-17.587,46.208,0,63.797
		c8.796,8.796,20.346,13.192,31.899,13.192c11.552,0,23.105-4.398,31.899-13.192c8.521-8.521,13.212-19.849,13.212-31.899
		C245.284,299.778,240.592,288.45,232.072,279.929L232.072,279.929z M219.474,331.129c-10.642,10.643-27.961,10.643-38.602,0
		c-10.643-10.643-10.643-27.961,0-38.602c5.321-5.321,12.31-7.982,19.301-7.982c6.991,0,13.98,2.66,19.301,7.981
		c5.156,5.156,7.994,12.011,7.994,19.301C227.468,319.119,224.63,325.974,219.474,331.129z"/>
	<path style="fill:#333333;" d="M111.081,344.844c-3.479-3.478-9.118-3.479-12.598,0l-20,20c-3.479,3.479-3.479,9.118,0,12.597
		l56.076,56.077c1.671,1.67,3.936,2.609,6.3,2.609s4.627-0.938,6.3-2.609l20-20c3.479-3.479,3.479-9.118,0-12.597L111.081,344.844z
		 M140.858,414.621L97.38,371.142l7.402-7.402l43.478,43.479L140.858,414.621z"/>
	<path style="fill:#333333;" d="M506.682,68.188l2.266-1.978c2.891-2.523,3.841-6.613,2.359-10.152
		c-10.54-25.165-30.203-44.827-55.366-55.366c-3.537-1.482-7.629-0.532-10.152,2.359l-1.978,2.266l-0.355-0.355
		c-3.479-3.479-9.119-3.48-12.597,0c-3.48,3.479-3.48,9.118-0.001,12.597l1.21,1.21l-7.08,8.111l-0.354-0.354
		c-3.479-3.479-9.119-3.48-12.597,0c-3.48,3.479-3.48,9.118-0.001,12.597l1.21,1.21l-7.08,8.111l-0.125-0.125
		c-3.48-3.479-9.12-3.48-12.597,0c-3.48,3.479-3.48,9.118-0.001,12.597l1.936,1.936c-2.525,4.564-4.462,9.446-5.704,14.537
		L244.954,211.596c-31.058-17.687-60.746-16.774-80.352,2.83c-8.342,8.345-16.562,21.873-23.142,38.091
		c-5.693,14.018-17.928,24.225-32.733,27.305c-35.758,7.447-71.682,24.358-89.391,42.078C1.982,339.249-3.96,363.783,2.604,390.985
		c5.914,24.497,21.822,50.641,44.795,73.615c22.975,22.974,49.117,38.882,73.615,44.795c7.224,1.744,14.259,2.605,21.022,2.605
		c18.703,0,35.318-6.589,48.058-19.332c17.724-17.71,34.636-53.635,42.082-89.395c3.08-14.802,13.287-27.038,27.293-32.727
		c16.197-6.553,29.727-14.773,38.102-23.147c19.592-19.593,20.508-49.281,2.83-80.35l134.208-144.724
		c5.092-1.242,9.973-3.181,14.537-5.705l1.937,1.937c1.739,1.739,4.019,2.609,6.298,2.609s4.56-0.869,6.3-2.609
		c3.479-3.479,3.479-9.119-0.001-12.597l-0.125-0.125l8.11-7.079l1.209,1.209c1.74,1.74,4.019,2.609,6.299,2.609
		c2.279,0,4.56-0.869,6.298-2.609c3.48-3.479,3.48-9.118,0.001-12.597l-0.355-0.355l8.111-7.08l1.21,1.21
		c1.74,1.74,4.019,2.609,6.3,2.609c2.279,0,4.56-0.869,6.298-2.609c3.48-3.479,3.48-9.118,0.001-12.597L506.682,68.188z
		 M492.209,57.174l-44.55,38.886c-4.347,3.795-9.451,6.605-14.94,8.292l-25.071-25.071c1.688-5.49,4.498-10.593,8.292-14.941
		l38.886-44.55C471.004,28.001,483.999,40.997,492.209,57.174z M397.552,94.383l20.066,20.066L279.106,263.813
		c-2.588-7.032-6.674-13.504-12.044-18.875c-5.37-5.371-11.841-9.456-18.875-12.043L397.552,94.383z M284.975,334.799
		c-6.627,6.626-18.358,13.635-32.197,19.234c-19.53,7.931-33.753,24.982-38.043,45.607c-6.691,32.133-22.001,65.204-37.237,80.427
		c-16.395,16.401-37.49,15.584-52.304,12.008c-21.355-5.155-44.51-19.387-65.197-40.074c-20.688-20.688-34.919-43.843-40.074-65.197
		c-3.576-14.812-4.394-35.909,12.011-52.308c15.218-15.23,48.289-30.54,80.421-37.232c20.626-4.29,37.677-18.511,45.61-38.045
		c5.621-13.859,12.632-25.594,19.231-32.194c12.565-12.562,32.229-13.34,53.928-2.605l-8.244,7.645
		c-2.721,2.523-3.592,6.468-2.189,9.902c1.405,3.435,4.802,5.642,8.498,5.533c9.541-0.276,18.53,3.292,25.272,10.036
		c6.744,6.744,10.308,15.719,10.036,25.273c-0.106,3.709,2.1,7.094,5.533,8.498c1.091,0.447,2.235,0.663,3.368,0.663
		c2.431,0,4.814-0.995,6.534-2.852l7.643-8.243C298.306,302.582,297.528,322.247,284.975,334.799z"/>
</g>
<g>
	<path style="fill:#FFFFFF;" d="M38.964,391.119c-4.02,0-7.668-2.74-8.652-6.82c-4.266-17.675-1.176-31.89,9.184-42.246
		c10.528-10.536,35.595-24.731,67.854-32.687c4.777-1.177,9.603,1.739,10.782,6.516c1.177,4.777-1.74,9.604-6.516,10.782
		c-27.492,6.779-50.751,19.21-59.52,27.986c-7.664,7.662-6.219,18.206-4.467,25.47c1.156,4.783-1.786,9.594-6.568,10.749
		C40.359,391.038,39.656,391.119,38.964,391.119z"/>
	<path style="fill:#FFFFFF;" d="M135.625,318.798c-3.891,0-7.377-2.611-8.515-6.317c-1.103-3.594,0.265-7.645,3.33-9.823
		c6.378-4.53,15.41,1.12,13.933,8.886C143.584,315.699,139.871,318.798,135.625,318.798z"/>
	<path style="fill:#FFFFFF;" d="M184.242,259.008c-1.569,0-3.158-0.414-4.599-1.285c-4.21-2.544-5.562-8.021-3.017-12.231
		c2.772-4.587,5.583-8.358,8.131-10.905c4.557-4.558,10.771-6.967,17.969-6.967c4.921,0,8.908,3.988,8.908,8.908
		s-3.987,8.908-8.908,8.908c-3.246,0-4.62,0.998-5.37,1.748c-0.711,0.711-2.668,2.867-5.481,7.523
		C190.2,257.476,187.258,259.008,184.242,259.008z"/>
	<path style="fill:#FFFFFF;" d="M428.198,83.527c-2.09,0-4.188-0.732-5.881-2.221c-3.693-3.25-4.052-8.879-0.802-12.572
		l26.129-29.692c3.25-3.694,8.877-4.052,12.572-0.803c3.693,3.25,4.052,8.879,0.802,12.572l-26.129,29.692
		C433.127,82.504,430.669,83.527,428.198,83.527z"/>
</g>
<g>
</g>
<g>
</g>
<g>
</g>
<g>
</g>
<g>
</g>
<g>
</g>
<g>
</g>
<g>
</g>
<g>
</g>
<g>
</g>
<g>
</g>
<g>
</g>
<g>
</g>
<g>
</g>
<g>
</g>
</svg>
