<?xml version="1.0" encoding="iso-8859-1"?>
<!-- Generator: Adobe Illustrator 19.0.0, SVG Export Plug-In . SVG Version: 6.00 Build 0)  -->
<svg version="1.1" id="Layer_1" xmlns="http://www.w3.org/2000/svg" xmlns:xlink="http://www.w3.org/1999/xlink" x="0px" y="0px"
	 viewBox="0 0 512 512" style="enable-background:new 0 0 512 512;" xml:space="preserve">
<g>
	<path style="fill:#4D4D4D;" d="M504.053,170.11v162.607c0,12.096-11.12,21.138-22.951,18.668V151.05h3.88
		C495.519,151.05,504.053,159.584,504.053,170.11z"/>
	<polygon style="fill:#4D4D4D;" points="395.203,151.05 395.203,333.491 359.669,326.091 359.669,151.05 	"/>
</g>
<path style="fill:#E6E6E6;" d="M395.203,151.05v-22.283c0-13.156,10.675-23.82,23.831-23.82h38.248
	c13.156,0,23.82,10.664,23.82,23.82v22.283v200.335v31.845c0,13.156-10.664,23.82-23.82,23.82h-38.248
	c-13.156,0-23.831-10.664-23.831-23.82v-49.739V151.05z"/>
<path style="fill:#F7B239;" d="M359.669,326.091v29.492c0,13.166-10.664,23.831-23.82,23.831H297.59
	c-13.156,0-23.82-10.664-23.82-23.831v-47.386V151.05v-22.283c0-13.156,10.664-23.82,23.82-23.82h38.258
	c13.156,0,23.82,10.664,23.82,23.82v22.283V326.091z"/>
<polygon style="fill:#4D4D4D;" points="273.77,151.05 273.77,308.197 238.236,300.787 238.226,300.787 238.226,151.05 
	238.236,151.05 "/>
<path style="fill:#3A88D6;" d="M238.226,300.787v27.159c0,13.156-10.664,23.82-23.82,23.82h-38.248
	c-13.156,0-23.82-10.664-23.82-23.82v-45.054V151.05v-22.283c0-13.156,10.664-23.82,23.82-23.82h38.248
	c13.156,0,23.82,10.664,23.82,23.82v22.283V300.787z"/>
<polygon style="fill:#4D4D4D;" points="152.337,151.05 152.337,282.893 116.793,275.493 116.793,151.05 "/>
<path style="fill:#F95428;" d="M116.793,275.493v24.806c0,13.156-10.664,23.82-23.82,23.82H54.725
	c-13.156,0-23.82-10.664-23.82-23.82v-42.7V151.05v-22.283c0-13.156,10.664-23.82,23.82-23.82h38.248
	c13.156,0,23.82,10.664,23.82,23.82v22.283V275.493z"/>
<path style="fill:#4D4D4D;" d="M30.905,151.05v106.549l-7.781-1.622c-8.841-1.845-15.17-9.626-15.17-18.658V170.11
	c0-10.527,8.534-19.06,19.06-19.06H30.905z"/>
<g>
	<path style="fill:#333333;" d="M489.052,143.406v-14.638c0-17.52-14.253-31.773-31.773-31.773h-38.249
		c-17.52,0-31.773,14.254-31.773,31.773v14.331h-19.641v-14.331c0-17.52-14.253-31.773-31.773-31.773h-38.249
		c-17.52,0-31.773,14.254-31.773,31.773v14.331H246.18v-14.331c0-17.52-14.253-31.773-31.773-31.773h-38.25
		c-17.52,0-31.773,14.254-31.773,31.773v14.331h-19.64v-14.331c0-17.52-14.253-31.773-31.773-31.773H54.723
		c-17.519,0-31.773,14.254-31.773,31.773v14.638C9.975,145.371,0,156.598,0,170.113v67.204c0,12.728,9.044,23.851,21.505,26.446
		l1.445,0.301V300.3c0,17.52,14.253,31.773,31.773,31.773h38.25c17.52,0,31.773-14.253,31.773-31.773v-15.03l19.64,4.089v38.585
		c0,17.519,14.253,31.773,31.773,31.773h38.25c17.519,0,31.773-14.253,31.773-31.773v-17.378l19.641,4.096v40.926
		c0,17.519,14.253,31.773,31.773,31.773h38.249c17.52,0,31.773-14.253,31.773-31.773v-19.721l19.641,4.089v43.276
		c0,17.519,14.253,31.773,31.773,31.773h38.249c17.52,0,31.773-14.253,31.773-31.773v-23.811c4.698-0.712,9.177-2.65,12.975-5.739
		c6.337-5.153,9.971-12.792,9.971-20.959v-162.61C512,156.599,502.026,145.372,489.052,143.406z M15.901,237.316v-67.204
		c0-4.692,2.928-8.705,7.049-10.333v87.875C18.775,246.006,15.901,241.917,15.901,237.316z M108.843,300.3
		c0,8.752-7.12,15.872-15.872,15.872H54.723c-8.751,0-15.872-7.12-15.872-15.872V128.768c0-8.752,7.12-15.872,15.872-15.872h38.25
		c8.752,0,15.872,7.121,15.872,15.872V300.3H108.843z M124.744,269.028V159.001h19.64v114.116L124.744,269.028z M230.279,327.944
		c0,8.751-7.12,15.872-15.872,15.872h-38.25c-8.752,0-15.872-7.12-15.872-15.872V128.767c0-8.752,7.12-15.872,15.872-15.872h38.25
		c8.751,0,15.872,7.121,15.872,15.872V327.944z M246.18,294.323V159.001h19.641v139.418L246.18,294.323z M351.715,355.588
		c0,8.751-7.12,15.872-15.872,15.872h-38.249c-8.752,0-15.872-7.12-15.872-15.872V128.767c0-8.752,7.12-15.872,15.872-15.872h38.249
		c8.752,0,15.872,7.121,15.872,15.872L351.715,355.588L351.715,355.588z M367.616,319.625V159.001h19.641v164.713L367.616,319.625z
		 M473.151,383.232c0,8.751-7.12,15.872-15.872,15.872h-38.249c-8.752,0-15.872-7.12-15.872-15.872V128.767
		c0-8.752,7.12-15.872,15.872-15.872h38.249c8.752,0,15.872,7.121,15.872,15.872L473.151,383.232L473.151,383.232z M496.099,332.722
		c0,3.359-1.495,6.503-4.103,8.622c-0.9,0.731-1.895,1.298-2.944,1.712V159.782c4.119,1.627,7.045,5.641,7.045,10.332v162.609
		H496.099z"/>
	<path style="fill:#333333;" d="M80.495,156.637c-2.73-6.82-12.845-6.189-14.941,0.73c-2.12,6.999,5.923,12.952,12.015,8.916
		C80.681,164.223,81.951,160.083,80.495,156.637C80.305,156.16,80.697,157.114,80.495,156.637z"/>
	<path style="fill:#333333;" d="M80.495,266.345c-2.551-6.366-11.869-6.372-14.603-0.177c-1.407,3.187-0.533,7.044,2.132,9.293
		c2.46,2.076,6.04,2.457,8.88,0.939C80.47,274.496,82.036,270.075,80.495,266.345C80.305,265.868,80.697,266.832,80.495,266.345z"/>
	<path style="fill:#333333;" d="M324.061,156.637c-0.408-0.968-0.985-1.834-1.717-2.587c-2.896-2.815-7.515-3.093-10.668-0.52
		c-3.23,2.636-3.803,7.447-1.389,10.818c2.248,3.14,6.61,4.145,10.04,2.411C323.96,164.92,325.65,160.4,324.061,156.637
		C323.859,156.16,324.262,157.114,324.061,156.637z"/>
	<path style="fill:#333333;" d="M324.061,304.508c-1.29-3.054-4.399-5.067-7.73-4.898c-3.18,0.162-6.016,2.268-7.093,5.261
		c-2.466,6.856,5.225,13.2,11.5,9.54C324.104,312.446,325.581,308.11,324.061,304.508
		C323.859,304.031,324.262,304.985,324.061,304.508z"/>
	<path style="fill:#333333;" d="M202.628,156.637c-2.724-6.458-12.193-6.402-14.753,0.18c-1.242,3.195-0.225,6.988,2.488,9.102
		c2.573,2.005,6.181,2.257,8.987,0.587C202.721,164.499,204.078,160.257,202.628,156.637
		C202.426,156.16,202.819,157.114,202.628,156.637z"/>
	<path style="fill:#333333;" d="M193.734,280.677c-3.211,0.67-5.742,3.237-6.293,6.482c-0.586,3.458,1.276,7.001,4.442,8.498
		c2.995,1.415,6.673,0.784,9.016-1.558c2.379-2.379,2.994-6.099,1.52-9.117C200.866,281.796,197.215,279.975,193.734,280.677"/>
	<path style="fill:#333333;" d="M445.493,156.637c-1.205-3.012-4.308-4.985-7.532-4.906c-3.46,0.084-6.543,2.484-7.46,5.823
		c-0.865,3.147,0.318,6.637,2.979,8.553c2.728,1.963,6.456,2.004,9.216,0.088C445.711,164.104,446.927,160.03,445.493,156.637
		C445.303,156.16,445.695,157.114,445.493,156.637z"/>
	<path style="fill:#333333;" d="M445.493,337.901c-1.179-2.942-4.182-4.907-7.337-4.908c-3.318,0-6.372,2.142-7.482,5.271
		c-1.125,3.169-0.102,6.84,2.556,8.92c2.734,2.139,6.614,2.253,9.465,0.276C445.713,345.367,446.927,341.296,445.493,337.901
		C445.303,337.424,445.695,338.378,445.493,337.901z"/>
</g>
<g>
	<path style="fill:#FFFFFF;" d="M54.587,291.797c-4.391,0-7.951-3.56-7.951-7.951v-122.97c0-4.391,3.56-7.951,7.951-7.951
		s7.951,3.56,7.951,7.951v122.97C62.538,288.238,58.978,291.797,54.587,291.797z"/>
	<path style="fill:#FFFFFF;" d="M54.587,142.325c-0.519,0-1.039-0.053-1.558-0.159c-0.498-0.095-1.007-0.254-1.484-0.445
		c-0.477-0.201-0.943-0.445-1.368-0.731c-0.435-0.297-0.848-0.625-1.208-0.996c-0.371-0.36-0.7-0.774-0.996-1.208
		c-0.286-0.424-0.53-0.89-0.721-1.368c-0.201-0.477-0.36-0.986-0.456-1.484c-0.106-0.519-0.159-1.039-0.159-1.558
		s0.053-1.039,0.159-1.558c0.095-0.498,0.254-1.007,0.456-1.484c0.191-0.477,0.435-0.943,0.721-1.368
		c0.297-0.435,0.625-0.848,0.996-1.208c0.36-0.371,0.774-0.7,1.208-0.996c0.424-0.286,0.89-0.53,1.368-0.731
		c0.477-0.191,0.986-0.35,1.484-0.445c1.028-0.212,2.088-0.212,3.106,0c0.509,0.095,1.018,0.254,1.495,0.445
		c0.477,0.201,0.943,0.445,1.368,0.731c0.435,0.297,0.848,0.625,1.208,0.996c0.371,0.36,0.7,0.774,0.996,1.208
		c0.286,0.424,0.53,0.89,0.731,1.368c0.191,0.477,0.35,0.986,0.445,1.484c0.106,0.519,0.159,1.039,0.159,1.558
		s-0.053,1.039-0.159,1.558c-0.095,0.498-0.254,1.007-0.445,1.484c-0.201,0.477-0.445,0.943-0.731,1.368
		c-0.297,0.435-0.625,0.848-0.996,1.208c-0.36,0.371-0.774,0.7-1.208,0.996c-0.424,0.286-0.89,0.53-1.368,0.731
		c-0.477,0.191-0.986,0.35-1.495,0.445C55.626,142.272,55.106,142.325,54.587,142.325z"/>
	<path style="fill:#FFFFFF;" d="M174.377,312.999c-4.391,0-7.951-3.56-7.951-7.951V160.877c0-4.391,3.56-7.951,7.951-7.951
		s7.951,3.56,7.951,7.951v144.172C182.327,309.439,178.767,312.999,174.377,312.999z"/>
	<path style="fill:#FFFFFF;" d="M174.377,142.325c-2.088,0-4.145-0.848-5.618-2.332c-1.484-1.474-2.332-3.53-2.332-5.618
		c0-2.088,0.848-4.145,2.332-5.618c1.474-1.484,3.53-2.332,5.618-2.332c2.088,0,4.145,0.848,5.618,2.332
		c1.484,1.474,2.332,3.53,2.332,5.618c0,2.088-0.848,4.145-2.332,5.618C178.522,141.477,176.465,142.325,174.377,142.325z"/>
	<path style="fill:#FFFFFF;" d="M295.226,342.682c-4.391,0-7.951-3.56-7.951-7.951V160.877c0-4.391,3.56-7.951,7.951-7.951
		s7.951,3.56,7.951,7.951v173.854C303.177,339.122,299.617,342.682,295.226,342.682z"/>
	<path style="fill:#FFFFFF;" d="M295.226,142.325c-0.519,0-1.039-0.053-1.558-0.159c-0.498-0.095-1.007-0.254-1.484-0.445
		c-0.477-0.201-0.943-0.445-1.368-0.731c-0.435-0.297-0.848-0.625-1.208-0.996c-0.371-0.36-0.7-0.774-0.996-1.208
		c-0.286-0.424-0.53-0.89-0.731-1.368c-0.191-0.477-0.35-0.986-0.445-1.484c-0.106-0.519-0.159-1.039-0.159-1.558
		s0.053-1.039,0.159-1.548c0.095-0.509,0.254-1.018,0.445-1.495c0.201-0.477,0.445-0.943,0.731-1.368
		c0.297-0.435,0.625-0.848,0.996-1.208c0.36-0.371,0.774-0.7,1.208-0.996c0.424-0.286,0.89-0.53,1.368-0.721
		c0.477-0.201,0.986-0.36,1.484-0.456c1.028-0.212,2.088-0.212,3.117,0c0.498,0.095,1.007,0.254,1.484,0.456
		c0.477,0.191,0.943,0.435,1.367,0.721c0.435,0.297,0.848,0.625,1.209,0.996c0.371,0.36,0.7,0.774,0.996,1.208
		c0.286,0.424,0.53,0.89,0.731,1.368c0.191,0.477,0.35,0.986,0.445,1.495c0.106,0.509,0.159,1.028,0.159,1.548
		s-0.053,1.039-0.159,1.558c-0.095,0.498-0.254,1.007-0.445,1.484c-0.201,0.477-0.445,0.943-0.731,1.368
		c-0.297,0.435-0.625,0.848-0.996,1.208c-0.36,0.371-0.774,0.7-1.209,0.996c-0.424,0.286-0.89,0.53-1.367,0.731
		c-0.477,0.191-0.986,0.35-1.484,0.445C296.265,142.272,295.746,142.325,295.226,142.325z"/>
	<path style="fill:#FFFFFF;" d="M418.196,377.664c-4.391,0-7.951-3.56-7.951-7.951V160.877c0-4.391,3.56-7.951,7.951-7.951
		c4.391,0,7.951,3.56,7.951,7.951v208.837C426.147,374.105,422.587,377.664,418.196,377.664z"/>
	<path style="fill:#FFFFFF;" d="M418.196,142.325c-0.519,0-1.039-0.053-1.548-0.159c-0.509-0.095-1.018-0.254-1.495-0.445
		c-0.477-0.201-0.944-0.445-1.368-0.731c-0.435-0.297-0.848-0.625-1.209-0.996c-1.484-1.474-2.332-3.52-2.332-5.618
		c0-0.519,0.053-1.039,0.159-1.558c0.095-0.498,0.254-1.007,0.445-1.484c0.201-0.477,0.445-0.943,0.731-1.368
		c0.297-0.435,0.625-0.848,0.996-1.209c0.36-0.371,0.774-0.7,1.209-0.996c0.424-0.286,0.89-0.53,1.368-0.731
		c0.477-0.191,0.986-0.35,1.495-0.445c1.018-0.212,2.078-0.212,3.106,0c0.498,0.095,1.007,0.254,1.484,0.445
		c0.477,0.201,0.943,0.445,1.368,0.731c0.435,0.297,0.848,0.625,1.209,0.996c0.371,0.36,0.7,0.774,0.996,1.209
		c0.286,0.424,0.53,0.89,0.731,1.368c0.191,0.477,0.35,0.986,0.445,1.484c0.106,0.519,0.159,1.039,0.159,1.558
		c0,2.088-0.848,4.145-2.332,5.618c-0.36,0.371-0.774,0.7-1.209,0.996c-0.424,0.286-0.89,0.53-1.368,0.731
		c-0.477,0.191-0.986,0.35-1.484,0.445C419.235,142.272,418.716,142.325,418.196,142.325z"/>
</g>
<g>
</g>
<g>
</g>
<g>
</g>
<g>
</g>
<g>
</g>
<g>
</g>
<g>
</g>
<g>
</g>
<g>
</g>
<g>
</g>
<g>
</g>
<g>
</g>
<g>
</g>
<g>
</g>
<g>
</g>
</svg>
