<?xml version="1.0" encoding="iso-8859-1"?>
<!-- Generator: Adobe Illustrator 19.0.0, SVG Export Plug-In . SVG Version: 6.00 Build 0)  -->
<svg version="1.1" id="Layer_1" xmlns="http://www.w3.org/2000/svg" xmlns:xlink="http://www.w3.org/1999/xlink" x="0px" y="0px"
	 viewBox="0 0 512 512" style="enable-background:new 0 0 512 512;" xml:space="preserve">
<g>
	<polygon style="fill:#F7B239;" points="436.873,230.52 436.873,263.492 421.961,263.492 382.716,263.492 367.792,263.492 
		367.792,230.52 382.716,230.52 421.961,230.52 	"/>
	<polygon style="fill:#F7B239;" points="333.265,230.52 333.265,263.492 318.341,263.492 279.095,263.492 264.184,263.492 
		264.184,230.52 279.095,230.52 318.341,230.52 	"/>
	<polygon style="fill:#F7B239;" points="229.644,230.52 229.644,263.492 214.732,263.492 175.475,263.492 160.563,263.492 
		160.563,230.52 175.475,230.52 214.732,230.52 	"/>
	<polygon style="fill:#F7B239;" points="421.961,9.338 421.961,47.139 402.333,47.139 382.716,47.139 382.716,9.338 	"/>
	<polygon style="fill:#F7B239;" points="318.341,9.338 318.341,47.139 298.724,47.139 279.095,47.139 279.095,9.338 	"/>
	<polygon style="fill:#F7B239;" points="214.732,9.338 214.732,47.139 195.104,47.139 175.475,47.139 175.475,9.338 	"/>
	<polygon style="fill:#F7B239;" points="195.104,117.377 214.732,117.377 214.732,230.52 175.475,230.52 175.475,117.377 	"/>
	<polygon style="fill:#F7B239;" points="298.724,117.377 318.341,117.377 318.341,230.52 279.095,230.52 279.095,117.377 	"/>
	<polygon style="fill:#F7B239;" points="402.333,117.377 421.961,117.377 421.961,230.52 382.716,230.52 382.716,117.377 	"/>
	<path style="fill:#F7B239;" d="M421.961,299.364v19.392c0,5.414-2.203,10.319-5.75,13.878c-3.547,3.547-8.451,5.738-13.878,5.738
		c-10.829,0-19.616-8.775-19.616-19.616v-19.392v-35.872h39.245V299.364z"/>
	<path style="fill:#F7B239;" d="M214.732,299.364v19.392c0,5.414-2.191,10.319-5.75,13.878c-3.547,3.547-8.464,5.738-13.878,5.738
		c-10.841,0-19.629-8.775-19.629-19.616v-19.392v-35.872h39.258V299.364z"/>
</g>
<path style="fill:#F95428;" d="M40.45,254.356h22.902v16.903c0,7.767,3.149,14.787,8.227,19.878
	c5.091,5.078,12.111,8.227,19.878,8.227h70.711h13.306v19.392c0,10.841,8.788,19.616,19.629,19.616
	c5.414,0,10.331-2.191,13.878-5.738c3.56-3.56,5.75-8.464,5.75-13.878v-19.392h64.363v19.392c0,10.841,8.788,19.616,19.629,19.616
	c5.414,0,10.318-2.191,13.866-5.738c3.56-3.56,5.75-8.464,5.75-13.878v-19.392h64.363h0.012v19.392
	c0,10.841,8.788,19.616,19.616,19.616c5.427,0,10.331-2.191,13.878-5.738c3.547-3.56,5.75-8.464,5.75-13.878v-19.392h38.996
	c21.197,0,37.303,19.355,33.134,40.141C475.458,432.559,393.296,502.66,294.754,502.66c-72.367,0-135.908-37.826-171.917-94.783
	c-7.045-11.128-16.741-20.027-27.968-26.139c-11.227-6.124-23.973-9.447-37.154-9.447c-10.816,0-20.612-4.394-27.694-11.476
	c-1.481-1.481-2.937-3.622-4.294-5.999c-4.829-8.514-7.182-18.21-7.182-28.006v-72.454L40.45,254.356L40.45,254.356z"/>
<g style="opacity:0.25;">
	<path style="fill:#4D4D4D;" d="M460.958,299.364h-20.335c-0.02,0.103-0.032,0.208-0.053,0.311
		C421.937,392.728,339.774,462.83,241.232,462.83c-33.441,0-64.989-8.092-92.816-22.402c36.97,38.355,88.861,62.232,146.337,62.232
		c98.542,0,180.705-70.101,199.338-163.155C498.261,318.719,482.155,299.364,460.958,299.364z"/>
</g>
<g>
	<path style="fill:#FFFFFF;" d="M116.601,336.082H91.458c-9.899,0-19.387-2.163-28.202-6.43c-4.64-2.247-6.582-7.829-4.335-12.471
		c2.247-4.641,7.828-6.582,12.471-4.335c6.258,3.03,13.011,4.564,20.068,4.564h25.144c5.156,0,9.335,4.18,9.335,9.335
		S121.757,336.082,116.601,336.082z"/>
	<path style="fill:#FFFFFF;" d="M45.927,312.334c-2.452,0-4.867-0.996-6.597-2.726c-1.743-1.743-2.738-4.145-2.738-6.609
		c0-0.597,0.062-1.22,0.187-1.817c0.112-0.597,0.299-1.182,0.535-1.743c0.224-0.573,0.51-1.108,0.846-1.618
		c0.349-0.51,0.734-0.983,1.17-1.419c0.423-0.436,0.909-0.822,1.419-1.158c0.498-0.336,1.046-0.622,1.606-0.859
		c0.56-0.236,1.158-0.411,1.755-0.535c3.025-0.61,6.248,0.386,8.414,2.552c0.436,0.436,0.821,0.909,1.17,1.419
		c0.336,0.51,0.622,1.046,0.859,1.618c0.224,0.56,0.411,1.145,0.523,1.743c0.124,0.597,0.187,1.22,0.187,1.817
		c0,2.464-0.996,4.867-2.738,6.609C50.794,311.338,48.379,312.334,45.927,312.334z"/>
	<path style="fill:#FFFFFF;" d="M380.171,369.536c-1.49,0-3.002-0.357-4.406-1.112c-5.101-2.737-9.74-6.233-13.789-10.394
		c-3.596-3.694-3.516-9.605,0.178-13.201c3.694-3.596,9.604-3.518,13.201,0.178c2.715,2.789,5.824,5.133,9.238,6.967
		c4.543,2.437,6.25,8.097,3.811,12.64C386.72,367.751,383.499,369.536,380.171,369.536z"/>
	<path style="fill:#FFFFFF;" d="M298.724,375.091c-15.367,0-30.262-6.409-40.868-17.584c-3.549-3.739-3.394-9.648,0.346-13.197
		c3.74-3.549,9.649-3.396,13.197,0.346c7.201,7.588,16.904,11.766,27.325,11.766c3.439,0,6.837-0.457,10.098-1.357
		c4.969-1.37,10.111,1.546,11.482,6.516s-1.546,10.111-6.516,11.482C308.91,374.409,303.841,375.091,298.724,375.091z"/>
	<path style="fill:#FFFFFF;" d="M195.104,375.091c-15.781,0-30.951-6.703-41.618-18.389c-3.476-3.808-3.208-9.712,0.601-13.188
		c3.806-3.476,9.711-3.208,13.188,0.601c7.14,7.82,17.283,12.306,27.829,12.306c2.354,0,4.704-0.214,6.985-0.639
		c5.072-0.945,9.941,2.406,10.882,7.474c0.941,5.068-2.406,9.941-7.474,10.882C202.092,374.771,198.596,375.091,195.104,375.091z"/>
	<path style="fill:#FFFFFF;" d="M160.383,359.743c-2.533,0-5.057-1.024-6.899-3.043c-0.657-0.722-1.298-1.46-1.918-2.214
		c-3.272-3.984-2.697-9.867,1.287-13.139c3.983-3.274,9.865-2.696,13.139,1.287c0.416,0.505,0.845,1.001,1.286,1.484
		c3.475,3.81,3.204,9.714-0.605,13.189C164.882,358.937,162.628,359.743,160.383,359.743z"/>
</g>
<path style="fill:#F7B239;" d="M318.341,299.364v19.392c0,5.414-2.191,10.319-5.75,13.878c-3.547,3.547-8.451,5.738-13.866,5.738
	c-10.841,0-19.629-8.775-19.629-19.616v-19.392v-35.872h39.245V299.364z"/>
<path style="fill:#333333;" d="M494.372,305.859c-8.24-10.057-20.417-15.825-33.408-15.825h-29.669v-17.212h5.579
	c5.156,0,9.335-4.18,9.335-9.335v-32.968c0-5.156-4.18-9.335-9.335-9.335h-5.579V117.377c0-5.156-4.18-9.335-9.335-9.335h-10.289
	V90.074h7.468c5.156,0,9.335-4.18,9.335-9.335c0-5.156-4.18-9.335-9.335-9.335h-7.468V56.468h10.289c5.156,0,9.335-4.18,9.335-9.335
	V9.335c0-5.156-4.18-9.335-9.335-9.335h-39.248c-5.156,0-9.335,4.18-9.335,9.335v37.798c0,5.156,4.18,9.335,9.335,9.335h10.289
	v14.935h-7.467c-5.156,0-9.335,4.18-9.335,9.335s4.18,9.335,9.335,9.335h7.467v17.968h-10.289c-5.156,0-9.335,4.18-9.335,9.335
	v103.806h-5.579c-5.156,0-9.335,4.18-9.335,9.335v32.968c0,5.156,4.18,9.335,9.335,9.335h5.579v17.212h-45.696v-17.212h5.579
	c5.156,0,9.335-4.18,9.335-9.335v-32.968c0-5.156-4.18-9.335-9.335-9.335h-5.579V117.377c0-5.156-4.18-9.335-9.335-9.335h-10.289
	V90.074h7.467c5.156,0,9.335-4.18,9.335-9.335c0-5.156-4.18-9.335-9.335-9.335h-7.467V56.468h10.289c5.156,0,9.335-4.18,9.335-9.335
	V9.335c0-5.156-4.18-9.335-9.335-9.335h-39.249c-5.156,0-9.335,4.18-9.335,9.335v37.798c0,5.156,4.18,9.335,9.335,9.335h10.29
	v14.935h-7.468c-5.156,0-9.335,4.18-9.335,9.335s4.18,9.335,9.335,9.335h7.468v17.968h-10.29c-5.156,0-9.335,4.18-9.335,9.335
	v103.806h-5.579c-5.156,0-9.335,4.18-9.335,9.335v32.968c0,5.156,4.18,9.335,9.335,9.335h5.579v17.212h-45.696v-17.212h5.579
	c5.156,0,9.335-4.18,9.335-9.335v-32.968c0-5.156-4.18-9.335-9.335-9.335h-5.579V117.377c0-5.156-4.18-9.335-9.335-9.335h-10.29
	V90.074h7.468c5.156,0,9.335-4.18,9.335-9.335c0-5.156-4.18-9.335-9.335-9.335h-7.468V56.468h10.29c5.156,0,9.335-4.18,9.335-9.335
	V9.335c0-5.156-4.18-9.335-9.335-9.335h-39.249c-5.156,0-9.335,4.18-9.335,9.335v37.798c0,5.156,4.18,9.335,9.335,9.335h10.289
	v14.935h-7.467c-5.156,0-9.335,4.18-9.335,9.335s4.18,9.335,9.335,9.335h7.467v17.968h-10.289c-5.156,0-9.335,4.18-9.335,9.335
	v103.806h-5.58c-5.156,0-9.335,4.18-9.335,9.335v32.968c0,5.156,4.18,9.335,9.335,9.335h5.579v17.212H91.463
	c-5.011,0-9.729-1.953-13.268-5.485c-3.549-3.556-5.502-8.275-5.502-13.285v-16.903c0-5.156-4.18-9.335-9.335-9.335H49.784V59.002
	h13.867c5.156,0,9.335-4.18,9.335-9.335s-4.18-9.335-9.335-9.335H17.247c-5.156,0-9.335,4.18-9.335,9.335s4.18,9.335,9.335,9.335
	h13.867v186.023H18.55c-5.156,0-9.335,4.18-9.335,9.335v72.454c0,11.65,2.904,22.927,8.409,32.633
	c1.944,3.405,3.841,6.013,5.802,7.972c9.163,9.163,21.343,14.211,34.295,14.211c11.419,0,22.721,2.873,32.692,8.312
	c10.007,5.447,18.494,13.377,24.54,22.927C154.195,474.942,221.414,512,294.76,512c101.007,0,188.691-71.772,208.49-170.654
	C505.774,328.761,502.538,315.826,494.372,305.859z M392.047,18.67h20.577v19.127h-20.577V18.67z M288.431,18.67h20.579v19.127
	h-20.579V18.67z M184.816,18.67h20.579v19.127h-20.579V18.67z M377.133,254.152v-14.298h50.406v14.298H377.133z M392.047,126.712
	h20.577v94.471h-20.577V126.712z M412.625,272.822v45.93c0,5.673-4.615,10.289-10.289,10.289c-5.673,0-10.289-4.615-10.289-10.289
	v-45.93L412.625,272.822L412.625,272.822z M273.517,254.152v-14.298h50.406v14.298H273.517z M288.431,126.712h20.579v94.471h-20.579
	V126.712z M309.009,272.822v45.93c0,5.673-4.615,10.289-10.289,10.289s-10.29-4.615-10.29-10.289v-45.93L309.009,272.822
	L309.009,272.822z M169.901,254.152v-14.298h50.406v14.298H169.901z M184.816,126.712h20.579v94.471h-20.579V126.712z
	 M205.393,272.822v45.93c0,5.673-4.615,10.289-10.29,10.289c-5.675,0-10.289-4.615-10.289-10.289v-45.93L205.393,272.822
	L205.393,272.822z M484.944,337.677C466.885,427.867,386.901,493.33,294.76,493.33c-66.906,0-128.226-33.808-164.03-90.442
	c-7.744-12.234-18.601-22.381-31.385-29.34c-12.698-6.927-27.092-10.587-41.625-10.587c-7.965,0-15.457-3.104-21.094-8.741
	c-0.342-0.344-1.301-1.423-2.776-4.005c-3.903-6.881-5.966-14.972-5.966-23.399v-63.118h26.139v7.568
	c0,9.989,3.89,19.39,10.969,26.487c7.08,7.064,16.481,10.953,26.471,10.953h74.682v10.048c0,15.968,12.991,28.959,28.959,28.959
	s28.96-12.991,28.96-28.959v-10.048h45.696v10.048c0,15.968,12.992,28.959,28.96,28.959s28.959-12.991,28.959-28.959v-10.048h45.696
	v10.048c0,15.968,12.991,28.959,28.959,28.959c15.968,0,28.959-12.991,28.959-28.959v-10.048h29.669
	c7.374,0,14.287,3.276,18.965,8.987C484.536,323.314,486.364,330.597,484.944,337.677z"/>
<g>
	<path style="fill:#FFFFFF;" d="M195.104,151.158c-0.61,0-1.22-0.062-1.83-0.187c-0.585-0.112-1.182-0.299-1.743-0.523
		c-0.56-0.236-1.108-0.523-1.606-0.859c-0.51-0.349-0.996-0.734-1.419-1.17c-0.436-0.423-0.822-0.909-1.17-1.419
		c-0.336-0.498-0.622-1.046-0.859-1.606c-0.224-0.56-0.411-1.158-0.523-1.743c-0.124-0.61-0.187-1.22-0.187-1.83
		c0-0.61,0.062-1.22,0.187-1.817c0.112-0.597,0.299-1.195,0.523-1.755c0.236-0.56,0.523-1.108,0.859-1.606
		c0.349-0.51,0.734-0.996,1.17-1.419c0.423-0.436,0.909-0.822,1.419-1.17c0.498-0.336,1.046-0.622,1.606-0.859
		c0.56-0.224,1.158-0.411,1.743-0.523c1.207-0.249,2.452-0.249,3.659,0c0.585,0.112,1.182,0.299,1.743,0.523
		c0.56,0.236,1.108,0.523,1.606,0.859c0.523,0.349,0.996,0.734,1.419,1.17c0.436,0.423,0.822,0.909,1.17,1.419
		c0.336,0.498,0.622,1.046,0.859,1.606c0.224,0.56,0.411,1.158,0.523,1.755c0.124,0.597,0.187,1.207,0.187,1.817
		c0,2.452-0.996,4.867-2.738,6.597c-0.423,0.436-0.896,0.822-1.419,1.17c-0.498,0.336-1.046,0.622-1.606,0.859
		c-0.56,0.224-1.158,0.411-1.743,0.523C196.323,151.096,195.713,151.158,195.104,151.158z"/>
	<path style="fill:#FFFFFF;" d="M298.712,151.158c-0.597,0-1.22-0.062-1.817-0.187c-0.597-0.112-1.182-0.299-1.743-0.523
		c-0.573-0.236-1.108-0.523-1.618-0.859c-0.51-0.349-0.983-0.734-1.419-1.17c-0.423-0.423-0.822-0.909-1.158-1.419
		c-0.336-0.498-0.622-1.046-0.859-1.606c-0.236-0.56-0.411-1.158-0.535-1.743c-0.112-0.61-0.174-1.22-0.174-1.83
		c0-0.61,0.062-1.22,0.174-1.817c0.124-0.597,0.299-1.195,0.535-1.755s0.523-1.108,0.859-1.606c0.336-0.51,0.734-0.996,1.158-1.419
		c0.436-0.436,0.909-0.822,1.419-1.17c0.51-0.336,1.046-0.622,1.618-0.859c0.56-0.224,1.145-0.411,1.743-0.523
		c1.207-0.249,2.44-0.249,3.647,0c0.597,0.112,1.182,0.299,1.743,0.523c0.573,0.236,1.108,0.523,1.618,0.859
		c0.51,0.349,0.983,0.734,1.419,1.17c0.423,0.423,0.822,0.909,1.158,1.419c0.336,0.498,0.622,1.046,0.859,1.606
		c0.237,0.56,0.411,1.158,0.535,1.755s0.174,1.207,0.174,1.817c0,2.452-0.996,4.867-2.726,6.597
		c-0.436,0.436-0.909,0.822-1.419,1.17c-0.51,0.336-1.046,0.622-1.618,0.859c-0.56,0.224-1.145,0.411-1.743,0.523
		C299.944,151.096,299.322,151.158,298.712,151.158z"/>
	<path style="fill:#FFFFFF;" d="M402.345,151.158c-0.61,0-1.232-0.062-1.83-0.187c-0.597-0.112-1.182-0.299-1.743-0.523
		c-0.573-0.236-1.108-0.523-1.618-0.859c-0.51-0.349-0.983-0.734-1.419-1.17c-1.73-1.73-2.738-4.145-2.738-6.597
		c0-0.61,0.062-1.22,0.187-1.817c0.124-0.597,0.299-1.195,0.535-1.755c0.237-0.56,0.523-1.108,0.859-1.606
		c0.336-0.51,0.734-0.996,1.158-1.419c0.436-0.436,0.909-0.822,1.419-1.17c0.51-0.336,1.046-0.622,1.618-0.859
		c0.56-0.224,1.145-0.411,1.743-0.523c1.207-0.249,2.44-0.249,3.647,0c0.597,0.112,1.182,0.299,1.743,0.523
		c0.573,0.236,1.108,0.523,1.618,0.859c0.51,0.349,0.983,0.734,1.419,1.17c0.423,0.423,0.822,0.909,1.158,1.419
		c0.336,0.498,0.622,1.046,0.859,1.606c0.237,0.56,0.411,1.158,0.535,1.755s0.187,1.207,0.187,1.817c0,0.61-0.062,1.22-0.187,1.83
		c-0.124,0.585-0.299,1.182-0.535,1.743c-0.236,0.56-0.523,1.108-0.859,1.606c-0.336,0.51-0.734,0.996-1.158,1.419
		c-0.436,0.436-0.909,0.822-1.419,1.17c-0.51,0.336-1.046,0.622-1.618,0.859c-0.56,0.224-1.145,0.411-1.743,0.523
		C403.565,151.096,402.943,151.158,402.345,151.158z"/>
</g>
<g>
</g>
<g>
</g>
<g>
</g>
<g>
</g>
<g>
</g>
<g>
</g>
<g>
</g>
<g>
</g>
<g>
</g>
<g>
</g>
<g>
</g>
<g>
</g>
<g>
</g>
<g>
</g>
<g>
</g>
</svg>
