<?xml version="1.0" encoding="iso-8859-1"?>
<!-- Generator: Adobe Illustrator 19.0.0, SVG Export Plug-In . SVG Version: 6.00 Build 0)  -->
<svg version="1.1" id="Layer_1" xmlns="http://www.w3.org/2000/svg" xmlns:xlink="http://www.w3.org/1999/xlink" x="0px" y="0px"
	 viewBox="0 0 512 512" style="enable-background:new 0 0 512 512;" xml:space="preserve">
<g>
	<polygon style="fill:#E6E6E6;" points="502.674,394.877 502.674,443.432 9.326,443.432 9.326,394.877 28.748,394.877 
		483.252,394.877 	"/>
	<rect x="9.326" y="68.574" style="fill:#E6E6E6;" width="493.349" height="48.555"/>
</g>
<g>
	<rect x="419.627" y="68.574" style="opacity:0.25;fill:#4D4D4D;enable-background:new    ;" width="83.048" height="48.555"/>
	<rect x="419.627" y="394.871" style="opacity:0.25;fill:#4D4D4D;enable-background:new    ;" width="83.048" height="48.555"/>
</g>
<rect x="28.748" y="117.117" style="fill:#F95428;" width="454.505" height="277.754"/>
<rect x="400.739" y="117.117" style="opacity:0.25;fill:#4D4D4D;enable-background:new    ;" width="82.513" height="277.754"/>
<path style="fill:#F7B239;" d="M491.441,121.59l-16.373-8.931l-67.565,123.868l-67.565-123.868l-8.187,4.465l-8.187-4.465
	l-67.565,123.868l-67.562-123.868l-8.187,4.465l-8.187-4.465l-67.565,123.868L36.937,112.658l-16.373,8.931l73.315,134.412
	l-73.315,134.41l16.373,8.931l67.565-123.868l67.565,123.868l8.187-4.465l8.187,4.465l67.563-123.868l67.565,123.868l8.187-4.465
	l8.187,4.465l67.565-123.868l67.565,123.868l16.373-8.931L418.127,256L491.441,121.59z M180.251,375.404l-65.129-119.402
	l65.129-119.402l65.129,119.402L180.251,375.404z M331.754,375.404l-65.129-119.402l65.129-119.402l65.129,119.402L331.754,375.404z
	"/>
<path style="fill:#333333;" d="M502.674,126.449c5.15,0,9.326-4.175,9.326-9.326V68.568c0-5.15-4.175-9.326-9.326-9.326H9.326
	C4.175,59.242,0,63.418,0,68.568v48.555c0,5.15,4.175,9.326,9.326,9.326h10.097v259.102H9.326c-5.15,0-9.326,4.175-9.326,9.326
	v48.555c0,5.15,4.175,9.326,9.326,9.326h493.349c5.15,0,9.326-4.175,9.326-9.326v-48.555c0-5.15-4.175-9.326-9.326-9.326h-10.096
	V126.449C492.578,126.449,502.674,126.449,502.674,126.449z M18.651,77.894h474.698v29.904H18.651V77.894z M473.927,126.449v259.102
	H38.073V126.449C38.073,126.449,473.927,126.449,473.927,126.449z M493.349,434.106H18.651v-29.904h474.698V434.106z"/>
<g>
	<path style="fill:#FFFFFF;" d="M71.148,150.434c-0.597,0-1.219-0.062-1.815-0.174c-0.597-0.124-1.181-0.298-1.741-0.535
		c-0.572-0.236-1.107-0.522-1.616-0.858c-0.51-0.336-0.982-0.734-1.417-1.156c-0.423-0.435-0.821-0.908-1.156-1.417
		c-0.336-0.51-0.622-1.044-0.858-1.616c-0.236-0.56-0.41-1.144-0.535-1.741c-0.124-0.597-0.187-1.219-0.187-1.828
		c0-0.609,0.062-1.219,0.187-1.815c0.124-0.597,0.298-1.181,0.535-1.753c0.236-0.56,0.522-1.094,0.858-1.604
		c0.336-0.51,0.734-0.982,1.156-1.417c0.435-0.435,0.908-0.821,1.417-1.156c0.51-0.336,1.044-0.634,1.616-0.858
		c0.56-0.236,1.144-0.41,1.741-0.535c3.034-0.609,6.242,0.385,8.418,2.549c0.423,0.435,0.821,0.908,1.156,1.417
		s0.622,1.044,0.858,1.604c0.236,0.572,0.41,1.156,0.535,1.753c0.112,0.597,0.174,1.219,0.174,1.815
		c0,2.462-0.995,4.862-2.723,6.603C76.01,149.44,73.61,150.434,71.148,150.434z"/>
	<path style="fill:#FFFFFF;" d="M34.219,100.586c-0.609,0-1.231-0.062-1.828-0.174c-0.597-0.124-1.181-0.298-1.741-0.535
		c-0.572-0.236-1.107-0.522-1.616-0.858c-0.51-0.336-0.982-0.734-1.417-1.156c-0.423-0.435-0.821-0.908-1.156-1.417
		c-0.336-0.51-0.622-1.044-0.858-1.616c-0.236-0.56-0.41-1.144-0.535-1.741c-0.112-0.597-0.174-1.219-0.174-1.828
		s0.062-1.219,0.174-1.815c0.124-0.597,0.298-1.181,0.535-1.753c0.236-0.56,0.522-1.094,0.858-1.604s0.734-0.982,1.156-1.417
		c0.435-0.435,0.908-0.821,1.417-1.156c0.51-0.336,1.044-0.622,1.616-0.858c0.56-0.236,1.144-0.41,1.741-0.535
		c3.034-0.609,6.254,0.385,8.418,2.549c0.435,0.435,0.821,0.908,1.156,1.417c0.336,0.51,0.622,1.044,0.858,1.604
		c0.236,0.572,0.41,1.156,0.535,1.753c0.124,0.597,0.187,1.206,0.187,1.815s-0.062,1.231-0.187,1.828
		c-0.124,0.597-0.298,1.181-0.535,1.741c-0.236,0.572-0.522,1.107-0.858,1.616c-0.336,0.51-0.734,0.982-1.156,1.417
		c-0.435,0.423-0.908,0.821-1.417,1.156s-1.044,0.622-1.616,0.858c-0.56,0.236-1.144,0.41-1.741,0.535
		C35.437,100.524,34.828,100.586,34.219,100.586z"/>
	<path style="fill:#FFFFFF;" d="M34.219,426.969c-0.609,0-1.231-0.062-1.828-0.186c-0.597-0.112-1.181-0.298-1.741-0.522
		c-0.572-0.236-1.107-0.522-1.616-0.858c-0.51-0.348-0.982-0.734-1.417-1.169c-0.423-0.423-0.821-0.895-1.156-1.418
		c-0.336-0.497-0.622-1.044-0.858-1.604c-0.236-0.56-0.41-1.156-0.535-1.741c-0.112-0.609-0.174-1.219-0.174-1.828
		s0.062-1.219,0.174-1.828c0.124-0.584,0.298-1.181,0.535-1.741c0.236-0.56,0.522-1.107,0.858-1.604
		c0.336-0.51,0.734-0.995,1.156-1.418c0.435-0.435,0.908-0.821,1.417-1.156c0.51-0.336,1.044-0.634,1.616-0.858
		c0.56-0.236,1.144-0.423,1.741-0.535c3.034-0.622,6.254,0.385,8.418,2.549c0.435,0.423,0.821,0.908,1.156,1.418
		c0.336,0.497,0.622,1.044,0.858,1.604c0.236,0.56,0.41,1.156,0.535,1.741c0.124,0.609,0.187,1.219,0.187,1.828
		s-0.062,1.219-0.187,1.828c-0.124,0.584-0.298,1.181-0.535,1.741c-0.236,0.56-0.522,1.107-0.858,1.604
		c-0.336,0.522-0.734,0.995-1.156,1.418c-0.435,0.435-0.908,0.821-1.417,1.169c-0.51,0.336-1.044,0.622-1.616,0.858
		c-0.56,0.224-1.144,0.41-1.741,0.522C35.437,426.906,34.828,426.969,34.219,426.969z"/>
	<path style="fill:#FFFFFF;" d="M138.297,150.438H96.56c-5.15,0-9.326-4.175-9.326-9.326c0-5.15,4.175-9.326,9.326-9.326h41.738
		c5.15,0,9.326,4.175,9.326,9.326C147.623,146.263,143.448,150.438,138.297,150.438z"/>
	<path style="fill:#FFFFFF;" d="M271.549,150.438h-41.033c-5.15,0-9.326-4.175-9.326-9.326c0-5.15,4.175-9.326,9.326-9.326h41.033
		c5.15,0,9.326,4.175,9.326,9.326C280.874,146.263,276.699,150.438,271.549,150.438z"/>
</g>
<g>
</g>
<g>
</g>
<g>
</g>
<g>
</g>
<g>
</g>
<g>
</g>
<g>
</g>
<g>
</g>
<g>
</g>
<g>
</g>
<g>
</g>
<g>
</g>
<g>
</g>
<g>
</g>
<g>
</g>
</svg>
