<?xml version="1.0" encoding="iso-8859-1"?>
<!-- Generator: Adobe Illustrator 19.0.0, SVG Export Plug-In . SVG Version: 6.00 Build 0)  -->
<svg version="1.1" id="Layer_1" xmlns="http://www.w3.org/2000/svg" xmlns:xlink="http://www.w3.org/1999/xlink" x="0px" y="0px"
	 viewBox="0 0 512 512" style="enable-background:new 0 0 512 512;" xml:space="preserve">
<path style="fill:#4D4D4D;" d="M221.386,240.059c8.808,0,15.939,7.131,15.939,15.939s-7.131,15.951-15.939,15.951
	c-8.808,0-15.951-7.143-15.951-15.951C205.435,247.191,212.578,240.059,221.386,240.059z"/>
<g>
	<circle style="fill:#F7B239;" cx="54.914" cy="88.541" r="15.349"/>
	<circle style="fill:#F7B239;" cx="54.914" cy="423.858" r="15.349"/>
	<polygon style="fill:#F7B239;" points="457.525,398.001 457.525,440.506 423.285,440.506 423.285,398.001 440.405,398.001 	"/>
	<polygon style="fill:#F7B239;" points="466.971,91.02 466.971,164.223 440.405,164.223 413.839,164.223 413.839,91.02 	"/>
</g>
<path style="fill:#3A88D6;" d="M440.405,398.001h-17.12v42.505h34.24v-42.505H440.405z M440.405,164.223h26.566V91.02h-53.131
	v73.203H440.405z M503.147,43.474v425.05H8.861V43.474C8.861,43.474,503.147,43.474,503.147,43.474z M402.894,255.999
	c0-100.241-81.267-181.508-181.508-181.508S39.878,155.758,39.878,255.999s81.267,181.508,181.508,181.508
	S402.894,356.24,402.894,255.999z M70.257,88.541c0-8.477-6.872-15.349-15.349-15.349s-15.349,6.872-15.349,15.349
	s6.872,15.349,15.349,15.349S70.257,97.018,70.257,88.541z M70.257,423.858c0-8.477-6.872-15.349-15.349-15.349
	s-15.349,6.872-15.349,15.349c0,8.477,6.872,15.349,15.349,15.349S70.257,432.336,70.257,423.858z"/>
<path style="fill:#808080;" d="M221.386,155.959c55.162,0,100.04,44.878,100.04,100.04s-44.878,100.04-100.04,100.04
	s-100.04-44.878-100.04-100.04S166.224,155.959,221.386,155.959z M294.27,255.999c0-40.191-32.693-72.884-72.884-72.884
	s-72.884,32.693-72.884,72.884s32.693,72.884,72.884,72.884S294.27,296.19,294.27,255.999z"/>
<path style="fill:#F7B239;" d="M221.386,183.115c40.191,0,72.884,32.693,72.884,72.884s-32.693,72.884-72.884,72.884
	s-72.884-32.693-72.884-72.884S181.195,183.115,221.386,183.115z M237.326,255.999c0-8.808-7.131-15.939-15.939-15.939
	c-8.808,0-15.951,7.131-15.951,15.939s7.143,15.951,15.951,15.951C230.194,271.95,237.326,264.807,237.326,255.999z"/>
<path style="fill:#4D4D4D;" d="M221.386,74.491c100.241,0,181.508,81.267,181.508,181.508s-81.267,181.508-181.508,181.508
	S39.878,356.24,39.878,255.999S121.145,74.491,221.386,74.491z M321.426,255.999c0-55.162-44.878-100.04-100.04-100.04
	s-100.04,44.878-100.04,100.04s44.878,100.04,100.04,100.04S321.426,311.161,321.426,255.999z"/>
<g>
	<path style="fill:#333333;" d="M221.384,446.365c104.967,0,190.365-85.397,190.365-190.365S326.351,65.635,221.384,65.635
		S31.019,151.033,31.019,256S116.416,446.365,221.384,446.365z M221.384,83.346c95.202,0,172.654,77.452,172.654,172.654
		s-77.452,172.654-172.654,172.654S48.73,351.202,48.73,256S126.182,83.346,221.384,83.346z"/>
	<path style="fill:#333333;" d="M70.881,220.525c4.686,1.396,9.618-1.274,11.014-5.961c8.755-29.418,27.143-55.902,51.776-74.575
		c25.448-19.29,55.778-29.487,87.715-29.487c80.228,0,145.498,65.27,145.498,145.498c0,4.557-0.215,9.16-0.638,13.678
		c-0.456,4.869,3.123,9.186,7.992,9.642c0.281,0.026,0.56,0.039,0.836,0.039c4.519,0,8.377-3.443,8.806-8.031
		c0.473-5.065,0.714-10.222,0.714-15.328c0-89.994-73.215-163.209-163.209-163.209c-35.832,0-69.862,11.44-98.413,33.083
		c-27.613,20.933-48.23,50.635-58.051,83.637C63.524,214.199,66.193,219.129,70.881,220.525z"/>
	<path style="fill:#333333;" d="M221.384,419.209c65.67,0,124.69-39.146,150.358-99.73c1.908-4.503-0.196-9.701-4.699-11.609
		c-4.503-1.908-9.699,0.197-11.609,4.699c-22.889,54.022-75.507,88.929-134.051,88.929c-80.228,0-145.498-65.27-145.498-145.498
		c0-3.962,0.162-7.963,0.481-11.886c0.396-4.874-3.235-9.148-8.109-9.544c-4.874-0.386-9.148,3.235-9.544,8.109
		c-0.358,4.399-0.538,8.881-0.538,13.321C58.175,345.994,131.39,419.209,221.384,419.209z"/>
	<path style="fill:#333333;" d="M221.384,137.658c23.672,0,46.531,6.997,66.107,20.234c4.051,2.739,9.557,1.675,12.296-2.376
		c2.739-4.052,1.675-9.557-2.376-12.296c-22.517-15.225-48.806-23.273-76.028-23.273C146.362,119.947,85.33,180.98,85.33,256
		c0,18.335,3.605,36.14,10.714,52.918c1.43,3.376,4.709,5.403,8.157,5.403c1.152,0,2.324-0.227,3.45-0.704
		c4.503-1.908,6.607-7.105,4.699-11.609c-6.177-14.58-9.31-30.06-9.31-46.009C103.042,190.747,156.13,137.658,221.384,137.658z"/>
	<path style="fill:#333333;" d="M221.384,392.053c75.02,0,136.053-61.033,136.053-136.053c0-30.522-9.915-59.384-28.677-83.467
		c-3.006-3.859-8.571-4.55-12.427-1.544c-3.858,3.005-4.55,8.569-1.544,12.427c16.314,20.943,24.937,46.042,24.937,72.584
		c0,65.255-53.088,118.342-118.342,118.342c-34.694,0-67.543-15.21-90.122-41.728c-3.171-3.724-8.761-4.171-12.483-1.001
		c-3.724,3.171-4.171,8.76-1.001,12.483C143.728,374.574,181.492,392.053,221.384,392.053z"/>
	<path style="fill:#333333;" d="M221.384,364.897c60.045,0,108.897-48.851,108.897-108.897s-48.851-108.897-108.897-108.897
		S112.487,195.955,112.487,256S161.338,364.897,221.384,364.897z M221.384,164.814c50.28,0,91.186,40.906,91.186,91.186
		s-40.906,91.186-91.186,91.186S130.198,306.28,130.198,256S171.104,164.814,221.384,164.814z"/>
	<path style="fill:#333333;" d="M221.384,337.741c45.072,0,81.741-36.669,81.741-81.741s-36.669-81.741-81.741-81.741
		S139.643,210.928,139.643,256S176.312,337.741,221.384,337.741z M221.384,191.97c35.306,0,64.03,28.724,64.03,64.03
		s-28.724,64.03-64.03,64.03s-64.03-28.724-64.03-64.03S186.077,191.97,221.384,191.97z"/>
	<path style="fill:#333333;" d="M221.384,280.802c13.676,0,24.8-11.126,24.8-24.801s-11.126-24.8-24.8-24.8
		s-24.802,11.126-24.802,24.8S207.709,280.802,221.384,280.802z M221.384,248.91c3.91,0,7.09,3.181,7.09,7.09
		c0,3.909-3.181,7.09-7.09,7.09s-7.091-3.181-7.091-7.09C214.293,252.091,217.475,248.91,221.384,248.91z"/>
	<path style="fill:#333333;" d="M503.145,34.616H8.855C3.965,34.616,0,38.581,0,43.471v425.057c0,4.89,3.965,8.855,8.855,8.855
		h494.29c4.89,0,8.855-3.965,8.855-8.855V43.471C512,38.581,508.035,34.616,503.145,34.616z M494.29,459.675H17.71V52.327H494.29
		V459.675z"/>
	<path style="fill:#333333;" d="M413.841,173.079h17.71v216.067h-8.265c-4.89,0-8.855,3.965-8.855,8.855v42.505
		c0,4.89,3.965,8.855,8.855,8.855h34.24c4.89,0,8.855-3.965,8.855-8.855v-42.505c0-4.89-3.965-8.855-8.855-8.855h-8.265V173.079
		h17.71c4.89,0,8.855-3.965,8.855-8.855V91.02c0-4.89-3.965-8.855-8.855-8.855h-53.131c-4.89,0-8.855,3.965-8.855,8.855v73.203
		C404.985,169.114,408.95,173.079,413.841,173.079z M448.671,431.651h-16.53v-24.795h16.53V431.651z M422.696,99.876h35.421v55.493
		h-35.421V99.876z"/>
	<path style="fill:#333333;" d="M54.909,112.745c13.347,0,24.204-10.858,24.204-24.204S68.256,64.337,54.909,64.337
		S30.705,75.194,30.705,88.541S41.564,112.745,54.909,112.745z M54.909,82.047c3.581,0,6.494,2.913,6.494,6.494
		c0,3.581-2.913,6.494-6.494,6.494c-3.581,0-6.494-2.913-6.494-6.494C48.416,84.96,51.33,82.047,54.909,82.047z"/>
	<path style="fill:#333333;" d="M54.909,448.062c13.347,0,24.204-10.858,24.204-24.204c0-13.347-10.858-24.204-24.204-24.204
		s-24.204,10.858-24.204,24.204C30.705,437.205,41.564,448.062,54.909,448.062z M54.909,417.364c3.581,0,6.494,2.913,6.494,6.494
		c0,3.581-2.913,6.494-6.494,6.494c-3.581,0-6.494-2.913-6.494-6.494C48.416,420.277,51.33,417.364,54.909,417.364z"/>
</g>
<g>
	<path style="fill:#FFFFFF;" d="M195.752,112.627c-2.338,0-4.617-0.945-6.258-2.598c-1.653-1.641-2.598-3.92-2.598-6.258
		c0-0.579,0.059-1.157,0.177-1.724c0.106-0.567,0.283-1.122,0.496-1.665c0.224-0.531,0.496-1.039,0.815-1.523
		c0.331-0.484,0.697-0.945,1.11-1.346c1.641-1.653,3.92-2.598,6.258-2.598c2.326,0,4.617,0.945,6.258,2.598
		c0.413,0.401,0.779,0.862,1.098,1.346c0.319,0.484,0.602,0.992,0.815,1.523c0.224,0.543,0.401,1.098,0.508,1.665
		c0.118,0.567,0.177,1.145,0.177,1.724c0,2.338-0.945,4.617-2.598,6.258C200.37,111.682,198.079,112.627,195.752,112.627z"/>
	<path style="fill:#FFFFFF;" d="M73.413,220.899c-0.836,0-1.686-0.119-2.529-0.37c-4.687-1.394-7.357-6.325-5.963-11.012
		c14.218-47.787,50.453-87.221,96.929-105.487c4.548-1.789,9.691,0.451,11.481,5.003c1.789,4.552-0.451,9.691-5.003,11.481
		c-41.445,16.288-73.754,51.449-86.432,94.053C80.754,218.413,77.229,220.899,73.413,220.899z"/>
	<path style="fill:#FFFFFF;" d="M117.863,78.623H91.888c-4.89,0-8.855-3.965-8.855-8.855s3.965-8.855,8.855-8.855h25.975
		c4.89,0,8.855,3.965,8.855,8.855S122.753,78.623,117.863,78.623z"/>
	<path style="fill:#FFFFFF;" d="M476.794,78.623H349.633c-4.89,0-8.855-3.965-8.855-8.855s3.965-8.855,8.855-8.855h127.161
		c4.89,0,8.855,3.965,8.855,8.855S481.684,78.623,476.794,78.623z"/>
	<path style="fill:#FFFFFF;" d="M322.123,78.623c-0.579,0-1.157-0.059-1.736-0.177c-0.555-0.106-1.122-0.283-1.653-0.496
		c-0.531-0.224-1.051-0.496-1.523-0.815c-0.484-0.331-0.945-0.697-1.346-1.11c-0.413-0.401-0.779-0.862-1.11-1.346
		c-0.319-0.472-0.59-0.992-0.815-1.523c-0.212-0.531-0.39-1.098-0.496-1.653c-0.118-0.579-0.177-1.157-0.177-1.736
		c0-2.338,0.945-4.617,2.598-6.258c0.401-0.413,0.862-0.779,1.346-1.11c0.472-0.319,0.992-0.59,1.523-0.815
		c0.531-0.213,1.098-0.39,1.653-0.496c2.893-0.579,5.939,0.366,7.993,2.42c1.653,1.641,2.598,3.932,2.598,6.258
		c0,0.579-0.059,1.157-0.177,1.736c-0.106,0.555-0.283,1.122-0.496,1.653c-0.224,0.531-0.496,1.051-0.815,1.523
		c-0.331,0.484-0.697,0.945-1.11,1.346C326.738,77.678,324.461,78.623,322.123,78.623z"/>
	<path style="fill:#FFFFFF;" d="M445.718,121.836h-10.626c-4.89,0-8.855-3.965-8.855-8.855s3.965-8.855,8.855-8.855h10.626
		c4.89,0,8.855,3.965,8.855,8.855S450.609,121.836,445.718,121.836z"/>
</g>
<g>
</g>
<g>
</g>
<g>
</g>
<g>
</g>
<g>
</g>
<g>
</g>
<g>
</g>
<g>
</g>
<g>
</g>
<g>
</g>
<g>
</g>
<g>
</g>
<g>
</g>
<g>
</g>
<g>
</g>
</svg>
